<?xml version="1.0" encoding="utf-8"?>
<!-- Generator: Adobe Illustrator 24.0.1, SVG Export Plug-In . SVG Version: 6.00 Build 0)  -->
<svg version="1.1" id="Layer_1" xmlns="http://www.w3.org/2000/svg" xmlns:xlink="http://www.w3.org/1999/xlink" x="0px" y="0px"
	 viewBox="0 0 648 432" style="enable-background:new 0 0 648 432;" xml:space="preserve">
<style type="text/css">
	.st0{stroke:#000000;stroke-width:6;stroke-miterlimit:10;}
	.st1{stroke:#000000;stroke-width:10;stroke-miterlimit:10;}
</style>
<g>
	<g>
		<g>
			<g>
				<path class="st0" d="M169.77,297.29l90.8-98.32c2.6-2.98,7.12-3.32,10.14-0.77l96.5,81.36l95.35-112.38
					c2.66-3.02,7.24-3.3,10.25-0.66c3.01,2.65,3.31,7.24,0.66,10.25L373.42,294.49c-2.6,2.97-7.1,3.31-10.13,0.75L266.8,213.9
					l-81.95,87.44c-1.31,1.51-3.19,2.4-5.2,2.47c-0.02,0-0.04,0-0.06,0c-2.02,0.05-3.97-0.73-5.39-2.17"/>
			</g>
		</g>
		<g>
			<path class="st0" d="M486.57,240.36c-3.99,0.46-7.59-2.4-8.05-6.38l-7.81-67.56l-66.57,7.69c-3.98,0.46-7.59-2.4-8.04-6.39
				c-0.46-3.99,2.4-7.59,6.38-8.05c0,0,0,0,0.01,0l73.77-8.53c1.92-0.22,3.84,0.33,5.35,1.53c1.51,1.2,2.48,2.95,2.7,4.85
				l8.64,74.78C493.41,236.29,490.56,239.9,486.57,240.36z"/>
		</g>
	</g>
	<line class="st1" x1="169" y1="300" x2="196.59" y2="275.27"/>
</g>
</svg>
