<svg viewBox="5.288461538461611 2.114000000000047 999.5192307692307 1013.1345" xmlns="http://www.w3.org/2000/svg" overflow="visible" xmlns:xlink="http://www.w3.org/1999/xlink" width="925.4807692307692px" height="938.0875px"><rect id="Blush Background Color" fill="#ffffff" x="5.288461538461611" y="2.114000000000047" width="999.5192307692307" height="1013.1345"/><g id="Master/Comps/Plants" stroke="none" stroke-width="1" fill="none" fill-rule="evenodd"><path d="M760,800 C723.088341,803.796831 694.591365,836.274693 678,864 C709.090924,847.199116 736.569856,825.034385 760,800 M713,691 C645.603971,707.100635 577.329681,764.130864 541,818 C605.786891,784.585254 659.266593,737.192827 713,691 M292.033263,88 C214.096861,96.3389491 135.632893,199.08316 130,258 C179.610562,235.497649 223.754432,205.969262 261.412337,169.324655 C276.612459,156.124015 321.885942,101.672692 292.033263,88 M444,123.905735 C377.804226,108.22506 214.184918,300.630543 185,354 C288.79178,302.500184 392.249188,222.607523 444,123.905735 M386,769.629493 C387.913349,770.752787 389.826698,771.87608 391.740047,773 C392.163397,770.934266 391.853125,767.666388 393.141791,767.018695 C417.600943,757.340221 439.428293,742.765562 463.391008,731.853028 C504.849664,706.499755 544.009543,677.967467 581.769747,648.244299 C623.909625,611.542317 680.659905,582.345439 707,534 C585.559213,552.462069 437.859001,670.280883 386,769.629493 M701,333 C557.424207,366.410105 388.093005,509.329195 302,617 C373.422674,580.090959 438.084251,537.632897 504.712781,494.430035 C545.799926,471.833968 580.718337,442.956618 617.715546,415.030958 C644.353978,387.829411 684.371001,365.733013 701,333 M646,158.311212 C609.475885,154.6479 577.481507,184.238792 546.492355,199.053926 C429.210055,271.990791 329.725916,368.685748 252,476 C347.781259,426.626844 431.526775,359.570281 512.257306,291.896811 C535.277246,275.490345 554.554208,255.414316 576.662947,238.045925 C603.099548,213.46779 633.395274,192.10982 646,158.311212 M483.894742,884.210629 C484.123686,880.465845 486.568975,872.374873 486.05523,866.528636 C464.546209,871.932462 443.28613,880.704646 421.807452,887.029115 C395.966423,895.173503 362.219237,894.22898 341.571515,875.933016 C324.556556,856.184761 334.882486,831.553645 338.391813,809.45571 C302.597922,813.160903 263.294016,827.713968 226.122323,813.658616 C170.67648,787.734829 212.237416,709.208103 230.299174,670.954619 C203.781656,668.383732 160.138846,682.554715 148.345467,652.856608 C136.983082,604.805979 169.796562,560.937518 193.673637,520.727747 C83.6763489,537.401746 108.172676,455.493465 140.025556,394.500424 C157.048101,368.864456 126.011696,379.328988 111.418579,369.434437 C74.6027157,348.256516 104.349586,302.054085 97.2557673,273.937724 C74.3772195,271.982065 53.2033398,260.562955 54.1404934,237.458911 C51.203527,170.213042 94.6408397,104.797145 153.738755,66.5386338 C167.569185,59.3921852 191.706235,34.947711 205.329787,51.8284623 C142.618417,54.976243 47.8886649,193.795945 76.6563165,250.031181 C101.611222,287.503533 107.663069,246.401399 115.936087,226.575848 C135.279104,165.846745 239.005945,37.5299092 316.151826,87.9459301 C345.311855,136.696625 236.637201,221.396369 191.381438,244.663804 C170.664067,257.975101 147.156613,267.393306 122.970601,273.660588 C115.785067,282.265611 116.816695,296.754577 115.237532,307.371188 C113.474939,330.32441 111.188256,374.058388 150.011518,367.532823 C172.068074,346.1205 184.755162,315.508663 204.92086,292.036991 C251.59649,235.826263 305.376283,184.380882 366.160937,140.786414 C380.687853,131.813763 395.876086,123.560029 410.587123,114.829321 C432.712638,102.576292 478.451114,116.329372 461.844393,145.037709 C437.364616,194.634893 395.306484,234.268398 352.707714,271.442876 C315.305009,301.494786 275.699751,329.983804 232.083834,352.195484 C211.400253,365.366014 177.092431,365.349047 166.281719,388.08609 C154.473169,416.875495 103.833083,512.504178 167.145776,512.817762 C212.204316,503.66978 216.237042,490.676465 239.196961,457.050702 C268.163215,417.248779 299.796805,379.148002 334.205998,343.121656 C390.444181,282.761438 551.762182,148.964108 635.620538,140.366627 C738.179902,162.000156 557.383724,288.519068 526.828654,316.715239 C432.918136,389.887156 336.080995,460.869641 225.800974,512.256578 C191.777263,557.735064 112.824655,711.465405 244.510947,647.131657 C351.56851,516.773697 517.174385,352.028323 698.775315,318.241683 C812.368818,337.903215 504.259043,526.239662 472.049644,545.527909 C424.659598,577.539877 373.925038,605.238964 322.763621,631.939484 C302.431041,644.347734 273.502026,647.936669 262.823715,670.099961 C206.111783,762.756822 193.211611,849.922506 342.171459,787.47529 C358.519584,773.041625 363.733578,750.239854 377.439192,733.599789 C413.397894,682.933655 456.389731,635.02505 508.730348,597.736827 C552.124217,566.923894 600.071452,539.166992 653.783665,526.672647 C679.552287,514.726288 724.973552,506.337444 728.789057,542.671089 C708.450271,599.561773 588.951803,676.171174 534.467249,712.66067 C492.312575,740.083878 447.296789,763.656098 400.774248,784.352018 C389.429104,791.387864 369.200653,791.090618 365.461692,804.811649 C359.543626,828.281436 336.642321,884.351396 383.124177,879.855016 C549.243107,839.642731 479.257246,822.136697 589.642084,733.154865 C622.239721,708.386752 658.738373,688.259557 698.566369,674.762246 C712.96709,668.415154 723.491622,674.277102 733.405176,683.041744 C753.671555,701.073142 689.62031,743.491827 676.475334,757.547808 C629.392845,792.87346 578.672076,825.445983 523.943407,850.085269 C505.109308,858.205776 501.657907,897.078259 509.442695,912.52243 C529.831131,935.955769 612.501323,890.241624 639.813249,882.808613 C663.417246,874.004379 664.701953,843.736291 683.271249,828.336737 C703.114219,807.831859 727.698814,783.060604 760.990869,786.729978 C773.139387,788.571891 780.889007,804.027375 774.973009,813.86034 C752.064119,851.271106 707.32348,867.724529 670.505548,891.116391 C658.199803,904.266812 664.264063,926.347151 661.440189,942.63844 C644.51143,947.085803 651.060472,909.210003 649.078588,900.097212 C607.51972,919.438247 488.410182,968.625697 483.894742,884.210629" id="Fill-1" fill="#FFEECE"/><g id="Plants/Big Plant" transform="translate(415.000000, 100.000000) scale(1.3426724137931034 1.3425925925925926)"><g id="Plants/Big Plant/Big Plant 3" stroke="none" stroke-width="1" fill="none" fill-rule="evenodd"><g id="Group-2" transform="translate(35.099619, 336.420239)"><path d="M172.612033,80 C172.612033,80 179.396382,57.0767745 173.764131,47.147771 C168.131881,37.2170372 161.572988,32.9237608 147.623705,26.3521689 C133.674422,19.780577 135.225721,10.9317495 120.113998,3.30048107 C105.002275,-4.33251772 79.0417993,4.93161979 60.0559649,6.29733812 C41.0701305,7.66305646 40.2965493,-0.391189214 28.2853563,0.0148741767 C16.2741633,0.419207202 0,13.6398761 0,13.6398761 C0,13.6398761 19.372625,9.03893806 38.74525,15.5902034 C58.1178751,22.1414688 52.8641416,35.4938857 68.3626553,48.4050613 L78.3261333,52.4530301 L172.612033,80 Z" id="Fill-70" fill="#000"/><path d="M196,209.615797 C191.604758,125.907056 150.194765,61.2661001 69.4020739,12 L68,13.4831919 C148.364799,62.4874926 189.554614,126.768392 193.924931,210" id="Fill-76" fill="#000"/><path d="M161.186573,54.7174821 C179.682139,70.8546461 173.445792,106.844798 170.96286,118 C152.168845,86.8162929 119.407817,65.5091257 77.7720675,51.5390122 C76.3730864,51.068392 75.2497564,50.5967598 74,50" id="Fill-77" fill="#870CF7"/></g><g id="Group-3" transform="translate(216.431960, 86.000000)"><path d="M16.414809,334.998 C16.414809,334.998 3.77474218,295.732 1.60436218,276.25 C-0.566017824,256.768 -3.23269439,182.956 13.6032818,143.302 C30.4432579,103.648 46.9503363,91.482 54.891835,81.666 C62.8352721,71.848 63.2925485,61.246 75.9218865,50.646 C88.5512246,40.046 110.498568,39.83 118.553329,32.586 C127.721272,24.342 163.594028,3.534 181.93712,0 C181.93712,0 163.497655,25.912 157.290714,53.788 C151.081712,81.662 160.939282,95.796 155.486913,109.932 C150.032421,124.064 138.26175,137.022 130.523863,153.51 C122.788038,170 117.06305,213.58 110.715774,224.182 C64.2838645,255.596 32.6552567,301.33 14.5656453,360.79 L16.414809,334.998 Z" id="Fill-71" fill="#BE6FFB"/><path d="M17.0960698,459.9628 C14.4893721,422.2988 14.1815927,384.5348 16.8423805,347.0488 C19.505538,309.5748 25.2670162,272.3708 34.9161468,236.2588 C44.5455855,200.1568 58.1114778,165.1728 75.8190785,132.4508 C76.8222392,130.3468 78.0656527,128.3808 79.2317718,126.3728 L82.7666223,120.3648 L89.8362,108.3448 C94.851333,100.5288 100.111212,92.8668 105.238317,85.1148 L122.063683,62.8988 L140.129435,41.6688 C133.949121,48.6028 127.69739,55.4908 121.562863,62.4828 L104.413642,84.5088 C99.1748109,92.2048 93.7993912,99.8168 88.6669022,107.5888 L81.5111396,119.6028 L77.9343508,125.6128 C76.7542933,127.6228 75.4988798,129.5888 74.4817191,131.6928 C56.5566731,164.4328 42.7686298,199.4768 32.927903,235.6668 C23.0654227,271.8648 17.1033961,309.1808 14.2520598,346.7788 C11.3952167,384.3928 11.7192488,422.2948 14.2394597,460.0728 L17.0960698,459.9628 Z" id="Fill-73" fill="#000"/></g><g id="Group" transform="translate(229.618619, 436.988675)"><path d="M91.188,113.270925 C91.062,112.540925 78.122,40.2009254 33.084,36.9429254 C9.414,35.1809254 2.886,72.4489254 2.822,72.8269254 L8.24229573e-13,72.3509254 C0.068,71.9469254 1.73,62.3029254 6.562,52.7229254 C13.11,39.7389254 22.352,33.3089254 33.292,34.0869254 C52.93,35.5089254 69.668,49.6309254 81.698,74.9249254 C90.694,93.8389254 93.978,112.598925 94.008,112.786925 L91.188,113.270925 Z" id="Fill-72" fill="#000" transform="translate(47.004000, 73.647384) scale(-1, 1) translate(-47.004000, -73.647384)"/><path d="M59.9913807,143.079525 C59.9913807,143.079525 59.2973807,128.323525 67.8033807,119.297525 C76.3093807,110.271525 91.5853807,110.963525 97.1393807,106.453525 C102.695381,101.939525 105.125381,94.6475254 111.027381,91.6975254 C116.929381,88.7455254 124.221381,94.6475254 136.719381,88.3975254 C149.217381,82.1475254 151.475381,39.6195254 154.251381,33.8895254 C157.029381,28.1615254 178.381381,10.6275254 178.381381,10.6275254 C178.381381,10.6275254 171.611381,14.0235254 163.105381,13.8015254 C154.599381,13.5795254 134.983381,-0.828474561 129.775381,0.0375254387 C124.567381,0.907525439 109.633381,12.8835254 107.033381,16.8775254 C104.431381,20.8715254 102.173381,31.6315254 90.5433807,42.2215254 C78.9133807,52.8115254 72.1433807,58.8875254 69.7113807,65.3095254 C67.2833807,71.7335254 61.9013807,79.0255254 62.4213807,84.0575254 C62.9433807,89.0935254 63.1593807,105.999525 62.1653807,109.545525 C61.1733807,113.093525 55.9713807,134.051525 59.9913807,143.079525" id="Fill-74" fill="#BE6FFB" transform="translate(118.434490, 71.539763) scale(-1, 1) translate(-118.434490, -71.539763)"/><path d="M16.793631,72.5893254 C16.793631,72.5893254 17.407631,70.1733254 18.593631,65.8653254 C21.545631,55.1293254 29.081631,35.9393254 47.081631,37.2413254 C66.395631,38.6373254 79.401631,50.4133254 88.591631,65.7653254 C88.591631,65.7653254 82.329631,53.2053254 83.331631,46.4413254 C84.333631,39.6753254 91.723631,31.7853254 90.471631,24.7693254 C89.219631,17.7533254 78.821631,17.3793254 71.931631,13.8713254 C65.041631,10.3633254 61.785631,4.85132544 54.143631,4.85132544 C46.501631,4.85132544 29.965631,26.3973254 24.955631,31.0333254 C19.945631,35.6673254 16.793631,72.5893254 16.793631,72.5893254" id="Fill-75" fill="#870CF7" transform="translate(53.703816, 38.720325) scale(-1, 1) translate(-53.703816, -38.720325)"/></g><path d="M259.920779,647.625856 L208.260779,647.625856 C198.502779,647.625856 190.356779,640.181856 189.476779,630.463856 L181.518779,542.479856 L286.662779,542.479856 L278.704779,630.463856 C277.824779,640.181856 269.678779,647.625856 259.920779,647.625856" id="Fill-60" fill="#000"/></g></g><g id="Character" transform="translate(29.000000, 73.000000)"><g id="Legs" transform="translate(32.000000, 315.000000) scale(0.974025974025974 0.9765100671140939)"><g id="Legs/Loose Pants Leg Back" stroke="none" stroke-width="1" fill="none" fill-rule="evenodd"><g id="Group-15" transform="translate(174.000000, 0.000000)"><path d="M18.2274,396.9593 L3.3754,332.6043 C3.1864,331.7293 3.0384,330.8963 3.05148259,330.0933 C3.0704,329.2893 3.1854,328.5393 3.3844,327.8873 C3.4834,327.5603 3.6044,327.2583 3.7444,326.9843 C3.8994,326.7033 4.1164,326.4343 4.3334,326.2053 C4.7964,325.7343 5.2634,325.4383 5.9584,325.2303 C9.8974,324.1053 14.4434,322.6483 19.0254,321.1043 C23.6294,319.5513 28.3474,317.8873 33.0924,316.1723 C42.5994,312.7233 52.2234,309.0663 61.8534,305.3113 C81.1234,297.7833 100.4324,289.8623 119.6234,281.7213 C146.1344,270.4433 172.5594,258.7333 198.1234,246.4963 L207.6314,241.8803 L212.3304,239.5533 L212.8744,239.2803 L213.1244,239.1433 L213.6304,238.8753 C213.9694,238.7013 214.3124,238.5353 214.6614,238.3773 C217.2404,237.0793 219.7754,235.7403 222.2884,234.3383 C224.7864,232.9213 227.2894,231.4833 229.5604,229.7153 C230.1134,229.2603 230.6754,228.7973 231.0904,228.2053 C231.5064,227.6013 231.4934,226.8323 231.5384,226.1283 C231.5614,224.6893 231.4354,223.2543 231.2844,221.8253 C230.9704,218.9673 230.5184,216.1263 230.0364,213.2923 L229.2754,209.0473 L227.8224,201.4893 C225.0934,187.5823 222.0964,173.4883 218.9964,159.3773 C212.7764,131.1353 206.1184,102.7623 199.2774,74.4223 L276.0684,55.8713 C283.0024,84.6003 289.7594,113.3813 296.1514,142.4073 C299.3424,156.9293 302.4434,171.5003 305.3454,186.2833 L306.4224,191.8423 L307.8394,199.4343 C308.7944,204.6093 309.6744,209.7933 310.4934,214.9733 C312.0774,225.3163 313.3884,235.7223 313.1464,245.6213 C313.0844,250.5953 312.3594,255.2853 311.5994,260.0533 C311.3594,261.2343 311.0744,262.3953 310.7034,263.5633 C310.5444,264.1473 310.3074,264.7253 310.0884,265.3053 L310.0064,265.5223 C309.6204,265.3803 309.8684,265.5433 309.7684,265.5383 L309.7154,265.6433 L309.5004,266.0613 C309.3534,266.3363 309.2224,266.6253 309.0604,266.8893 C307.7804,269.0283 306.4144,270.9753 304.8804,272.8183 C298.5394,280.0103 290.5544,286.0943 281.7854,291.5803 C273.0154,297.0493 263.7164,302.0313 254.3664,306.8283 L250.8924,308.6023 L247.6054,310.2403 L242.4974,312.7703 L232.2954,317.7233 C205.1144,330.7303 177.9154,342.7713 150.4974,354.4383 C130.6644,362.8523 110.7454,371.0253 90.5734,378.9053 C80.4794,382.8413 70.3254,386.7033 59.9914,390.4513 C54.8154,392.3213 49.5954,394.1643 44.2544,395.9673 C38.8964,397.7683 33.4744,399.5273 27.5324,401.2273 C26.5604,401.5143 25.4634,401.6093 24.4924,401.5373 C23.9944,401.5013 23.5264,401.4223 23.0504,401.3053 C22.5614,401.1883 22.0974,401.0313 21.6624,400.8383 C20.7914,400.4513 20.0424,399.9173 19.4624,399.2623 C18.8804,398.6073 18.4194,397.8313 18.2274,396.9593" id="Fill-1" fill="#8C6345"/><path d="M48.8686,402.0101 C54.6956,400.0201 60.3776,397.9891 66.0046,395.9251 L34.2916,309.3471 C27.0306,312.0021 19.7736,314.5761 12.9536,316.7961 C9.5746,317.8961 6.2386,318.9301 3.4816,319.6931 L2.4986,319.9591 L2.0076,320.0941 L1.6146,320.1901 L0.8296,320.3871 C0.6766,320.4291 0.6096,320.4401 0.5366,320.4531 L0.3116,320.5021 L0.0876,320.5551 C0.0616,320.5611 -0.0144,320.5821 0.0026,320.5761 L0.0406,320.5631 L0.0606,320.5581 C0.0646,320.5691 0.0586,320.5311 0.0706,320.5821 L0.1796,321.1371 L0.3926,322.2451 L1.2046,326.6911 C1.7226,329.6591 2.1926,332.6391 2.6136,335.6271 C3.5696,340.5821 4.2646,345.4891 4.6756,350.4961 C4.7326,351.0961 4.7636,351.7991 4.8286,352.3171 L5.0286,353.7741 C5.1486,354.7461 5.2426,355.7251 5.3106,356.7061 C5.4446,358.6681 5.4726,360.6451 5.3936,362.6251 C5.4846,360.3621 5.4346,358.1041 5.2456,355.8651 C5.1516,354.7461 5.0226,353.6331 4.8596,352.5251 L4.7986,352.1021 L4.7686,351.6551 L4.7966,351.6701 L4.8536,351.7011 L5.0916,351.8411 C5.1336,351.8651 5.1686,351.8931 5.2196,351.9161 L5.4776,351.9531 C5.8366,351.9961 6.1436,352.0701 6.5586,352.1001 L7.8876,352.1561 C7.7886,353.6421 7.6586,355.1371 7.4946,356.6391 C7.3526,358.1311 7.2376,359.5961 7.0266,361.0941 L6.8676,362.2161 L6.7416,363.3131 C6.6476,364.0451 6.5316,364.7821 6.3926,365.5241 L5.9826,367.7151 C5.8306,368.4381 5.6346,369.1681 5.3936,369.9001 L5.3936,412.3891 L5.3936,448.1861 C6.9356,448.1731 8.4796,448.1261 10.0226,448.0461 L12.3346,447.9011 L13.4886,447.8091 L14.4126,447.7221 C16.2256,447.5261 18.0376,447.2931 19.8426,447.0261 L20.9416,446.8491 L21.8736,446.6871 L23.7356,446.3491 L25.5736,445.9961 L27.0046,445.6901 L29.8606,445.0541 L32.2666,444.4651 L34.5986,443.8741 L36.6826,443.3121 C37.3996,443.1151 38.1136,442.8211 38.6756,442.4571 C39.2356,442.0941 39.7466,441.6511 40.2126,441.1341 C41.1446,440.1021 41.9166,438.7781 42.4486,437.2521 C43.0076,435.7251 43.4416,433.9811 43.7966,432.0941 C44.1496,430.2071 44.3666,428.1831 44.5916,426.0841 C45.4886,417.6881 45.7876,408.1601 48.8686,402.0101" id="Fill-3" fill="#0A1B45"/><path d="M168.6478,25.3772 C172.3508,41.6722 176.0138,58.1742 179.5948,74.5982 C183.1768,91.0382 186.6898,107.4812 190.0978,123.8872 C193.5048,140.2932 196.8118,156.6722 199.9288,172.9282 C201.4868,181.0552 202.9958,189.1492 204.4198,197.1612 L206.4908,209.1062 L206.7358,210.5822 L206.8548,211.3032 L206.8488,211.3822 L206.8348,211.6912 L206.7958,212.2892 C206.7368,213.0702 206.6578,213.7892 206.5368,214.4482 C206.4738,214.7772 206.4078,215.0922 206.2998,215.3912 C206.2378,215.5352 206.1968,215.6982 206.0358,215.8062 C205.8808,215.9122 205.7018,215.9902 205.5248,216.0612 C204.8058,216.3362 204.0948,216.5032 203.4438,216.6382 C203.1178,216.7052 202.8028,216.7582 202.5028,216.8042 C202.3418,216.8302 202.2448,216.8382 201.9778,216.8652 C201.8478,216.8952 201.8168,216.9012 201.6318,216.9982 L198.9588,218.2422 C184.6688,224.8852 169.7028,231.4222 154.6288,237.8052 C139.5338,244.1902 124.2558,250.4342 108.9238,256.5222 C92.4108,263.1122 75.8148,269.5312 59.2978,275.6602 C51.0428,278.7232 42.8038,281.7122 34.6658,284.5632 C26.5338,287.4162 18.4628,290.1442 10.8338,292.5452 L23.3538,329.3332 C29.2758,331.1822 35.3608,332.9022 41.5028,334.5632 C37.7738,339.5372 34.0058,344.4862 30.1768,349.3832 L55.8348,424.7772 C65.3808,421.3152 74.4428,417.8072 83.3888,414.2402 C92.3328,410.6772 101.1268,407.0592 109.8618,403.3932 C127.3278,396.0632 144.5568,388.5512 161.7128,380.8542 C177.6108,373.6762 193.4318,366.3442 209.2458,358.7772 C225.0698,351.1952 240.8468,343.4322 256.8498,335.0722 L264.7678,330.9612 L274.6838,325.6322 C281.2658,321.9942 287.8338,318.3312 294.0848,314.3812 C300.3308,310.4432 306.4318,306.3522 311.7988,301.7952 C317.1948,297.2552 321.9758,292.3812 325.9578,287.0662 L327.4038,285.0392 C327.8908,284.3672 328.2378,283.6052 328.6618,282.8922 C329.4728,281.4382 330.2808,279.9772 331.0758,278.4452 C331.2758,278.0662 331.4758,277.6882 331.6668,277.2912 L331.9558,276.7042 L332.0998,276.4102 L332.1708,276.2642 C332.1248,276.1802 332.8408,276.4642 332.5668,276.2742 C332.8978,275.4772 333.2438,274.6782 333.5198,273.8872 C333.8248,273.0952 334.0958,272.3032 334.3418,271.5122 L334.7258,270.3242 L334.9978,269.1042 C335.6988,265.8402 336.4668,262.6452 337.0268,259.3342 L337.4058,256.8382 C337.5398,256.0102 337.5678,255.1372 337.6538,254.2872 L337.8708,251.7262 L337.9608,249.1092 C338.3498,235.1062 335.9158,220.2232 333.3098,205.6352 C332.6418,201.9772 331.9538,198.3242 331.2258,194.6782 L330.1408,189.2132 L329.3318,185.3762 L326.4598,172.4082 C324.5188,163.8152 322.5248,155.3162 320.4948,146.8592 C316.4378,129.9492 286.154,33.203 277,0 C277,0 168.3998,24.3932 168.6478,25.3772 Z" id="Fill-5" fill="#CC2935"/><path d="M253.4472,581.221 L187.5262,585.303 C185.7552,585.459 184.0892,584.967 182.8332,584.069 C181.5792,583.18 180.7422,581.908 180.6202,580.44 L180.4852,578.803 C180.4442,578.265 180.3982,577.717 180.3212,577.096 L179.9142,573.498 L179.5102,569.899 C179.3752,568.7 179.2522,567.514 179.0752,566.248 L178.0942,558.768 L177.6012,555.024 L177.0512,551.213 C175.6202,541.086 174.0342,530.805 172.3932,520.498 C169.1112,499.875 165.5562,479.086 161.9272,458.28 C150.7132,394.093 138.7782,329.658 127.1442,265.051 C121.3222,232.737 115.5492,200.369 109.9692,167.862 C104.4042,135.33 99.0112,102.725 94.2482,69.45 L172.4722,58.403 C177.0292,90.244 182.3342,122.382 187.8332,154.512 C193.3502,186.655 199.0892,218.836 204.8912,251.037 C216.4902,315.455 228.4282,379.897 239.7552,444.716 C243.4222,465.747 247.0262,486.813 250.4082,508.064 C252.1002,518.692 253.7472,529.353 255.2742,540.157 L255.8562,544.196 L256.3972,548.293 L257.4712,556.496 C257.8332,559.223 258.1182,562.096 258.4442,564.889 L258.9162,569.106 C259.0812,570.489 259.1822,572.055 259.3162,573.52 C259.6522,577.56 257.0372,580.945 253.4472,581.221" id="Fill-8" fill="#B18058"/><path d="M264.3109,559.000237 L263.1339,549.924039 L261.8719,540.996432 L170.6109,554.289792 C171.1679,558.214826 171.7549,562.176249 172.2249,565.985037 L172.9729,571.753816 L173.3389,574.621526 L173.6439,577.381079 L174.2599,582.899172 L174.4149,584.278949 C174.4649,584.734831 174.4849,585.114901 174.5219,585.536415 L174.7249,588.009904 L174.9349,590.483393 L175.0429,591.719632 L175.0699,592.027933 L175.0749,592.243239 L175.0829,592.66071 C175.1079,593.772617 175.1579,594.884525 175.2339,595.996432 L178.4879,595.996432 L206.4039,595.996432 L207.5539,590.14982 C213.3289,591.74187 219.1369,593.689729 224.9479,595.996432 L267.4369,595.996432 L303.2339,595.996432 C303.1619,592.730457 303.0569,589.464481 302.9189,586.199516 L302.8089,583.755341 L302.6589,581.872174 L302.3529,578.102808 C302.1319,575.479717 300.3229,573.357995 297.5549,571.716415 C294.7729,570.20321 291.0489,568.986177 287.0229,567.799468 C278.9579,565.452333 269.7499,563.10924 264.3109,559.000237" id="Fill-10" fill="#0A1B45"/><path d="M68.9989954,-0.00356781757 C68.9989954,-0.00356781757 68.9989954,0.333024023 68.9989954,1.0062077 L69.5659,9.8676846 C69.5869,10.682695 69.5929,11.6124105 69.6399,12.2724683 L70.1139,20.867306 C70.1999,22.2789844 70.2689,23.7802134 70.3739,25.1194465 L70.6969,29.0989107 L71.3519,37.0598514 C71.4559,38.4101525 71.5859,39.6709031 71.7139,40.9427218 L72.0969,44.7622024 L72.8649,52.40217 L74.5459,67.3581133 C76.8849,87.1065187 79.4639,106.454462 82.1629,125.681664 C87.5799,164.097831 93.4119,202.073289 99.3269,239.969259 L117.2989,353.24765 C123.2959,390.899117 129.2779,428.482163 134.9569,465.844854 C137.7109,483.914942 140.3559,501.906547 142.8629,519.75628 L144.7069,533.105345 L146.4339,546.315556 C147.5339,555.046229 148.5869,563.728605 149.4339,571.996432 L187.9879,567.099327 C190.9519,561.532102 193.9349,555.903499 196.7769,550.132018 C200.9229,554.892283 204.9429,559.616324 208.9999,564.42891 L288.0139,554.393214 C286.5749,544.503416 285.0119,535.004017 283.4169,525.555934 L280.9779,511.500527 L278.4609,497.586992 C275.0729,479.092294 271.5889,460.752548 268.0259,442.509397 C260.6899,404.744231 253.1339,367.248723 245.5879,329.810568 L223.0669,217.743625 C215.6749,180.468471 208.3869,143.22451 201.6119,106.196879 C198.2369,87.6951373 195.0119,69.2497423 192.0999,51.0558936 L190.0109,37.5065978 C189.3959,33.0854181 188.7209,28.5767003 188.1489,24.2239412 L187.3559,17.7954212 L186.9569,14.5806581 C186.8269,13.5171199 186.7579,12.5783487 186.6539,11.5711569 L186.0649,5.62459977 L185.7539,0.756673667 C185.7239,-0.0160769009 68.9989954,-0.00356781757 68.9989954,-0.00356781757 Z" id="Fill-13" fill="#FA3239"/></g><path d="M243,0 C243,55.228475 289.562386,100 347,100 C404.437614,100 451,55.228475 451,0" id="Waist" fill="#FA3239"/></g></g><g id="Body" transform="translate(-0.000000, 29.000000) scale(0.9745075318655851 0.9734848484848485)"><g id="Body/Short Tee Grab Up" stroke="none" stroke-width="1" fill="none" fill-rule="evenodd"><g id="Right-Arm" transform="translate(426.000000, 38.000000)"><path d="M365.544261,2.8032 C371.116261,3.8252 373.775261,12.9202 368.235261,15.5172 C364.094123,16.9455422 357.631179,18.5673683 351.295822,20.4525791 C355.214198,22.2360506 358.152876,24.7022416 360.274761,27.0301 C365.055761,32.2411 358.918761,41.2451 351.376761,39.0791 C343.34324,35.3798181 334.274635,31.5365887 324.72152,32.8601117 C324.691276,32.8854696 324.661139,32.910742 324.63108,32.9360493 C320.152484,36.7065541 317.372617,41.251398 317.849261,46.7752 C318.672341,56.57768 325.139151,58.6824848 331.769074,58.7010446 L332.030854,58.7007064 C334.03829,58.6900024 336.054061,58.49499 337.926261,58.2712 C338.315541,58.22608 338.696061,58.2051392 339.067386,58.2067161 L339.344148,58.2120949 C348.053266,58.5144775 351.514211,71.28395 343.894261,74.2622 C328.855261,80.0992 309.119261,80.5192 294.870261,88.3242 L294.849192,88.327636 C266.533564,105.534006 237.751875,121.621899 207.611861,136.2574 C171.966861,153.4614 133.802861,168.6444 94.811861,178.2794 C83.707831,181.18794 70.951378,184.427805 59.4080304,184.576447 L58.5656017,184.581757 C42.3221118,184.575837 28.646141,178.21674 25.649861,155.8154 C24.782861,138.6634 36.128861,122.4534 52.870861,119.5614 C70.444861,116.6894 88.089861,112.2174 105.118861,106.7834 C155.860861,90.4624 204.336861,65.3574 250.602861,37.9204 C254.658176,34.8390649 258.96709,32.2021766 263.381366,30.1892608 C287.866527,14.9770292 312.555679,3.11221479 337.031261,0.5002 C353.349261,-1.1798 362.752261,2.2652 365.544261,2.8032 Z" id="SKIN" fill="#B18058"/><path d="M365.544261,2.8032 C371.116261,3.8252 373.775261,12.9202 368.235261,15.5172 C364.094123,16.9455422 357.631179,18.5673683 351.295822,20.4525791 C355.214198,22.2360506 358.152876,24.7022416 360.274761,27.0301 C365.055761,32.2411 358.918761,41.2451 351.376761,39.0791 C343.34324,35.3798181 334.274635,31.5365887 324.72152,32.8601117 C324.691276,32.8854696 324.661139,32.910742 324.63108,32.9360493 C320.152484,36.7065541 317.372617,41.251398 317.849261,46.7752 C318.672341,56.57768 325.139151,58.6824848 331.769074,58.7010446 L332.030854,58.7007064 C334.03829,58.6900024 336.054061,58.49499 337.926261,58.2712 C338.315541,58.22608 338.696061,58.2051392 339.067386,58.2067161 L339.344148,58.2120949 C348.053266,58.5144775 351.514211,71.28395 343.894261,74.2622 C328.855261,80.0992 309.119261,80.5192 294.870261,88.3242 L294.849192,88.327636 C266.533564,105.534006 237.751875,121.621899 207.611861,136.2574 C171.966861,153.4614 133.802861,168.6444 94.811861,178.2794 C83.707831,181.18794 70.951378,184.427805 59.4080304,184.576447 L58.5656017,184.581757 C42.3221118,184.575837 28.646141,178.21674 25.649861,155.8154 C24.782861,138.6634 36.128861,122.4534 52.870861,119.5614 C70.444861,116.6894 88.089861,112.2174 105.118861,106.7834 C155.860861,90.4624 204.336861,65.3574 250.602861,37.9204 C254.658176,34.8390649 258.96709,32.2021766 263.381366,30.1892608 C287.866527,14.9770292 312.555679,3.11221479 337.031261,0.5002 C353.349261,-1.1798 362.752261,2.2652 365.544261,2.8032 Z" id="SKIN-DARKER" fill="#8C6345"/><path d="M99.493161,98.0624 C86.183161,102.2694 76.4121833,105.971434 55.7761833,108.591034 C35.1401833,111.210634 9.52899977,111 9.52899977,111 C-10.6630002,133.936 6.41716096,188.8424 38.138161,196.5224 C64.889161,201.8384 99.439161,188.8654 125.709161,182.0664 L99.493161,98.0624 Z" id="Fill-8" fill="#051026"/></g><g id="body" transform="translate(272.000000, 149.000000)"><rect id="SKIN" fill="#B18058" x="18" y="101" width="180" height="48"/><path d="M40,0 L176,0 C198.09139,-4.05812251e-15 216,17.90861 216,40 L216,117 L216,117 L0,117 L0,40 C-2.705415e-15,17.90861 17.90861,4.05812251e-15 40,0 Z" fill="#0A1B45"/></g><g id="Left-Arm" transform="translate(210.000000, 149.000000)"><path d="M204.1724,257.334426 L204.1724,257.334426 C207.3734,303.701426 149.4474,293.043426 119.8864,284.852426 C81.3644,274.304426 45.2224,249.433426 24.7034,213.994426 C3.6584,179.134426 -0.3546,134.534426 9.7234,96.0004259 C19.4594,63.7304259 41.5064,-6.30357411 84.8584,23.6194259 C97.7154,34.5644259 101.9254,53.8494259 93.2774,67.8604259 C71.7394,101.354426 60.6794,145.138426 81.5894,180.527426 C93.5944,201.081426 114.4814,214.852426 137.7694,221.321426 C165.8554,230.053426 195.5344,217.853426 204.1724,257.334426" id="SKIN" fill="#B18058"/><path d="M213.9537,280.141026 C214.7857,285.452026 210.5247,289.833026 205.2047,290.490026 C186.3377,291.552026 153.0167,296.453026 136.3957,286.034026 C130.7407,279.366026 138.4267,270.466026 146.1137,272.111026 C165.1297,274.997026 184.3127,274.887026 203.0187,272.622026 C208.0427,271.965026 213.0767,275.086026 213.9537,280.141026" id="SKIN" fill="#B18058"/><path d="M213.4283,264.006326 C214.2943,268.873326 210.7393,273.667326 205.3933,274.322326 C196.1803,274.533326 177.9493,281.287326 176.5533,267.307326 C177.4673,254.123326 194.1373,258.905326 203.0503,256.475326 C207.9303,255.883326 212.5523,259.086326 213.4283,264.006326" id="SKIN" fill="#B18058"/><path d="M212.6343,247.916426 C214.3393,257.609426 203.6073,258.985426 196.4563,259.251426 C189.2803,260.325426 178.7113,261.329426 178.4143,251.311426 C178.3223,241.842426 187.6143,241.692426 194.6683,241.342426 C201.6393,240.295426 210.9093,238.582426 212.6343,247.916426" id="SKIN" fill="#B18058"/><path d="M200.5796,224.521926 C201.7416,239.198926 181.8856,234.209926 172.7016,235.292926 C168.3146,235.167926 165.0726,230.965926 165.4516,225.975926 C165.8146,221.052926 169.1956,217.181926 173.0286,217.293926 C182.0646,218.951926 198.3106,211.023926 200.5796,224.521926" id="SKIN" fill="#B18058"/><path d="M231.8375,227.058026 C238.5625,243.813026 186.2965,243.436026 176.2305,244.307253 C171.5925,244.343026 168.0735,240.089026 168.3375,235.138026 C168.6045,230.162026 172.0895,226.344026 176.1895,226.305026 C191.1745,226.255026 206.5345,224.172026 221.7685,220.412026 C225.9425,219.336026 230.4495,222.274026 231.8375,227.058026" id="SKIN" fill="#B18058"/><path d="M0,89.5969259 C11.181,57.0679259 26.4926686,17.7680023 62,5.7709131 C79.0799533,-2.84217094e-14 100.230641,-2.84217094e-14 100.230641,-2.84217094e-14 C129.947829,37.0461403 100.230641,83.8961172 84.939,112.603926 L0,89.5969259 Z" id="Fill-19" fill="#0A1B45"/></g><path d="M334,149 C334,167.225397 354.594902,182 380,182 C405.405098,182 426,167.225397 426,149" id="SKIN" fill="#B18058"/></g></g><g id="Head" transform="translate(313.000000, 0.000000) scale(0.9763779527559056 0.976303317535545)"><g id="Head/Layered" stroke="none" stroke-width="1" fill="none" fill-rule="evenodd"><path d="M130,125.5 L130,108.367 C130,104.576 127.538,101.504 124.5,101.504 C121.462,101.504 119,98.431 119,94.641 L119,86.457 C119,72.397 101.84,61 90.715,61 L79,61 L79,173 L121.072,173 C133.182,173 143,160.162 143,144.324 L143,138.5 C143,134.91 140.775,132 138.029,132 L134.971,132 C132.225,132 130,129.09 130,125.5" id="Fill-1" fill="#000"/><path d="M57.801,173 L77,173 L77,61 L57.801,61 C29.744,61 7,83.744 7,111.801 L7,122.199 C7,150.256 29.744,173 57.801,173" id="Fill-4" fill="#000"/><g id="head" transform="translate(22.000000, 72.000000)"><g fill="#B18058" id="SKIN"><path d="M13,62 L58,62 L58,113.633 C58,127.538 47.926,138.81 35.5,138.81 C23.074,138.81 13,127.538 13,113.633 L13,62 Z"/><path d="M60.0525,94 L55.0655,94 C31.8335,94 13.0005,75.167 13.0005,51.935 L13.0005,32.203 C13.0005,14.418 27.4175,0 45.2035,0 L50.7965,0 C68.5825,0 83.0005,14.418 83.0005,32.203 L83.0005,71.052 C83.0005,83.726 72.7265,94 60.0525,94"/><path d="M25,58.5 C25,65.403 19.404,71 12.5,71 C5.596,71 0,65.403 0,58.5 C0,51.597 5.596,46 12.5,46 C19.404,46 25,51.597 25,58.5"/></g><path d="M10.067,53.1685 C10.9718309,53.1685 12.2239875,53.3771928 13.5088204,54.0196092 C15.6553998,55.0928989 17.0130325,57.055328 17.10411,59.9021045 L17.109,60.2105 L14.109,60.2105 C14.109,58.3751144 13.4076866,57.3231443 12.1671796,56.7028908 C11.7065142,56.4725581 11.1976823,56.3199085 10.686339,56.2346846 C10.4347302,56.1927498 10.2385731,56.1747448 10.1250097,56.169908 L10.067,56.1685 L10.067,53.1685 Z" id="ear-line" fill="#000"/><path d="M34.7507501,96.3317762 C25.4557924,93.0436693 20.8185822,84.7387742 18.9822222,73.5681961 C26.2532122,85.6702724 39.4406226,93.8133264 54.5439426,93.9968331 L55.0655,94 L58,94 C50.0632106,98.2298391 42.3134606,99.0070978 34.7507501,96.3317762 Z" id="SHADOW" fill="#000" opacity=".12"/></g><path d="M34.3390489,118 L32.8032704,118 C26.9501148,112.308 24.7014391,100.708 24.0235369,89.449 C23.0946709,74.02 49.8788072,61 65.3335778,61 L83.3159838,61 L104,87 L66.0314771,87 C59.2564544,105.085 46.3373181,118 34.3390489,118" id="Fill-15" fill="#000"/></g></g><g id="Expression" transform="translate(359.000000, 93.000000) scale(0.9836065573770492 0.9836065573770492)" fill="#000"><g id="Expression/Happy" stroke="none" stroke-width="1" fill="none" fill-rule="evenodd"><path d="M20.5607,22 C20.5607,20.343 19.2177,19 17.5607,19 C15.9037,19 14.5607,20.343 14.5607,22 C14.5607,23.657 15.9037,25 17.5607,25 C19.2177,25 20.5607,23.657 20.5607,22" id="Fill-1" fill="#000"/><path d="M46.5607,22 C46.5607,20.343 45.2177,19 43.5607,19 C41.9037,19 40.5607,20.343 40.5607,22 C40.5607,23.657 41.9037,25 43.5607,25 C45.2177,25 46.5607,23.657 46.5607,22" id="Fill-3" fill="#000"/><polygon id="Stroke-5" fill="#000" points="33.1977829 19.396766 36.1476171 18.850434 40.4350211 41.9996 30.5607 41.9996 30.5607 38.9996 36.828 38.999"/><path d="M21.9219,41.586 C21.9219,45.2602625 25.6639817,48.6581933 29.6815435,48.7900329 L29.9229,48.794 L29.9229,51.794 C24.3252295,51.794 19.0961019,47.2280163 18.9261594,41.8552911 L18.9219,41.586 L21.9219,41.586 Z" id="Stroke-7" fill="#000"/><path d="M23.0607,9 L23.0607,12 C19.8342736,12 16.8913939,12.8655529 14.2891644,14.3112359 C13.508469,14.7449556 12.8086718,15.2043948 12.1956619,15.6654963 L11.8964164,15.8960741 C11.548672,16.1706093 11.3051282,16.3844813 11.1717567,16.5115787 L11.1213602,16.5606602 L9.00003983,14.4393398 C9.71719288,13.7221868 11.0118484,12.7000903 12.8322356,11.6887641 C15.7235813,10.0824609 18.9894549,9.08904431 22.5704367,9.00569674 L23.0607,9 Z" id="Stroke-9" fill="#000"/><path d="M37.0607,9 C40.8342736,9 44.2663939,10.0094471 47.2891644,11.6887641 C48.9957774,12.6368824 50.2403215,13.5944668 50.980139,14.3013772 L51.1213602,14.4393398 L49.0000398,16.5606602 L48.8084832,16.3819961 C48.6965748,16.2822525 48.549249,16.1566104 48.3676199,16.0099419 L48.2249836,15.8960741 C47.5437467,15.3582556 46.7430469,14.8172422 45.8322356,14.3112359 C43.3601176,12.937837 40.5805627,12.0880056 37.5425302,12.006456 L37.0607,12 L37.0607,9 Z" id="Stroke-11" fill="#000"/></g></g><g id="Accessories" transform="translate(346.000000, 115.000000) scale(0.9736842105263158 0.9583333333333334)" fill="#000"><g id="Accessories/None" stroke="none" stroke-width="1" fill="none" fill-rule="evenodd" fill-opacity="0"/></g><g id="Glasses" transform="translate(338.000000, 100.000000) scale(0.9789473684210527 0.96875)" fill="#000"><g id="Glasses/Round Big" stroke="none" stroke-width="1" fill="none" fill-rule="evenodd"><path d="M59,16 C59,25.3888407 51.3888407,33 42,33 C32.719077,33 25.175204,25.5628044 25.0030079,16.3230397 L25,16 L0,16 L0,14 L25.1163521,14.0004624 C26.106,5.55389893 33.2876275,-1 42,-1 C50.7123725,-1 57.894,5.55389893 58.8836479,14.0004624 L61.1163521,14.0004624 C62.106,5.55389893 69.2876275,-1 78,-1 C87.3888407,-1 95,6.61115925 95,16 C95,25.3888407 87.3888407,33 78,33 C68.719077,33 61.175204,25.5628044 61.0030079,16.3230397 L61,16 L59,16 Z M42,1 C33.7157288,1 27,7.71572875 27,16 C27,24.2842712 33.7157288,31 42,31 C50.2842712,31 57,24.2842712 57,16 C57,7.71572875 50.2842712,1 42,1 Z M78,1 C69.7157288,1 63,7.71572875 63,16 C63,24.2842712 69.7157288,31 78,31 C86.2842712,31 93,24.2842712 93,16 C93,7.71572875 86.2842712,1 78,1 Z" id="Shape" fill="#000"/></g></g></g><g id="Plants/Small" transform="translate(-40.000000, 555.000000) scale(1.2125 1.213450292397661)"><g id="Plants/Small/Vine" stroke="none" stroke-width="1" fill="none" fill-rule="evenodd"><g id="Group" transform="translate(84.000000, 66.000000)"><path d="M38.5816,128.053 L38.5816,128.053 C18.6896,128.053 2.5656,111.927 2.5656,92.037 L2.5656,56.021 L74.5956,56.021 L74.5956,92.037 C74.5956,111.927 58.4716,128.053 38.5816,128.053" id="Fill-25" fill="#870CF7"/><polygon id="Fill-91" fill="#000" points="0 276 4.77 276 4.77 96 0 96"/><polygon id="Fill-92" fill="#000" points="72 276 76.77 276 76.77 96 72 96"/><polygon id="Fill-93" fill="#000" points="36 276 40.77 276 40.77 96 36 96"/><path d="M69.2554,48.344 C69.2554,48.344 54.0094,48.746 42.7754,35.706 C31.5434,22.666 34.7514,-8.52651283e-14 34.7514,-8.52651283e-14 C34.7514,-8.52651283e-14 58.4654,6.82 65.3654,19.658 C72.2634,32.496 69.2554,48.344 69.2554,48.344" id="Fill-94" fill="#BE6FFB"/><path d="M74.5962,68.9358 C74.5962,68.9358 59.4082,68.6118 51.1762,79.9138 C42.9442,91.2178 47.3462,109.5358 47.3462,109.5358 C47.3462,109.5358 62.6342,106.5078 70.4702,96.8498 C80.3902,84.6238 74.5962,68.9358 74.5962,68.9358" id="Fill-95" fill="#BE6FFB"/><path d="M91.2486,90.6448 C91.2486,90.6448 105.4226,98.8708 106.3066,111.6888 C107.5906,130.2968 98.4806,138.1248 98.4806,138.1248 C98.4806,138.1248 85.5266,134.9168 83.0846,121.4428 C80.6426,107.9688 91.2486,90.6448 91.2486,90.6448" id="Fill-96" fill="#000"/><path d="M80.9438,47.262 C85.4918,46.58 88.9738,43.47 90.9818,44.138 C92.9878,44.806 98.1198,54.398 97.2278,63.098 C96.3338,71.798 84.6198,83.174 84.6198,83.174 C84.6198,83.174 74.1458,79.44 69.9078,67.902 C65.6698,56.364 70.6138,48.718 71.7918,46.952 C72.9678,45.186 78.0898,47.688 80.9438,47.262" id="Fill-97" fill="#BE6FFB"/><path d="M87.7358,79.8518 C87.7358,79.8518 95.2758,72.4358 108.5838,66.9658 C121.8898,61.4938 133.1278,64.4538 133.1278,64.4538 C133.1278,64.4538 124.8478,73.6198 114.0538,78.3518 C103.2598,83.0818 88.4758,82.4898 88.4758,82.4898 L87.7358,79.8518 Z" id="Fill-98" fill="#BE6FFB"/><path d="M79.6948,81.6898 C83.7248,80.5398 86.3088,77.0118 87.7308,77.7958 C89.1528,78.5798 93.0308,84.8778 93.2668,94.2018 C93.5028,103.5258 85.7128,115.9178 85.7128,115.9178 C85.7128,115.9178 80.0628,113.3158 76.2788,103.6438 C72.4948,93.9698 72.3768,84.7758 73.5568,83.1738 C74.7368,81.5718 76.3908,82.6358 79.6948,81.6898" id="Fill-99" fill="#BE6FFB"/><path d="M72.1158,46.1232 C72.1158,46.1232 69.7178,39.9752 69.7317389,35.5032 C69.7438,31.0312 76.8918,21.4152 78.2138,20.4432 C79.5378,19.4732 84.8158,20.3552 90.0398,19.0972 C95.2638,17.8392 99.9738,17.1032 102.7698,17.3252 C105.5658,17.5452 108.7498,19.7832 108.7498,19.7832 L72.1158,46.1232 Z" id="Fill-100" fill="#000"/><path d="M72.896,48.346 C72.896,48.346 70.892,43.826 71.774,40.914 C72.656,38.002 84.656,23.972 88.186,22.122 C91.714,20.268 93.654,21.68 98.86,20.18 C104.066,18.68 108.478,18.414 110.948,21.502 C110.948,21.502 104.772,22.386 101.154,26.444 C97.538,30.502 93.654,36.326 89.156,40.56 C84.656,44.798 75.214,48.856 75.214,48.856 L72.896,48.346 Z" id="Fill-101" fill="#BE6FFB"/><path d="M78.6148,119.883 C78.6148,119.883 84.2228,126.385 83.0848,138.125 C81.9468,149.865 71.5488,156.001 71.5488,156.001 C71.5488,156.001 63.3348,149.513 65.3648,137.065 C67.3948,124.617 78.6148,119.883 78.6148,119.883" id="Fill-102" fill="#BE6FFB"/><path d="M91.6744,134.8206 C91.6744,134.8206 102.3564,142.2006 104.4064,154.0886 C106.4564,165.9726 98.0404,179.9086 98.0404,179.9086 C98.0404,179.9086 87.6124,174.8166 85.5544,161.8746 C82.7184,144.0506 91.6744,134.8206 91.6744,134.8206" id="Fill-103" fill="#BE6FFB"/><path d="M71.7916,46.9514 C71.7916,46.9514 59.0416,42.6094 48.7916,46.1234 C38.5376,49.6374 33.3216,63.6094 33.3216,63.6094 C33.3216,63.6094 49.5096,67.4434 58.5036,62.5854 C67.4976,57.7314 71.7916,46.9514 71.7916,46.9514" id="Fill-104" fill="#BE6FFB"/><path d="M91.3364,210.3166 C95.0384,209.0146 104.1984,214.1446 102.8204,228.3826 C101.4424,242.6226 90.2644,249.0526 90.2644,249.0526 C90.2644,249.0526 90.2644,243.0826 88.4264,239.5606 C86.5904,236.0386 83.4424,229.3026 82.7184,223.6366 C81.9964,217.9726 83.0684,213.2266 91.3364,210.3166" id="Fill-105" fill="#BE6FFB"/><path d="M83.2368,194.6994 C85.9948,197.3054 86.5848,208.8474 80.2608,215.5234 C73.6968,222.4494 59.0308,222.5674 59.0308,222.5674 C59.0308,222.5674 58.8688,209.4554 64.2288,202.2594 C69.5868,195.0654 80.2608,191.8914 83.2368,194.6994" id="Fill-106" fill="#BE6FFB"/></g></g></g></g></svg>