<svg viewBox="27.375 142.3275862068965 2162.625 985.3448275862067" xmlns="http://www.w3.org/2000/svg" xmlns:xlink="http://www.w3.org/1999/xlink" overflow="visible" width="2162.625px" height="985.3448275862067px"><defs><rect id="mastersceneoffice-hours-path-1" x="0" y="0" width="843" height="393"/></defs><g id="Master/Scene/Office Hours" stroke="none" stroke-width="1" fill="none" fill-rule="evenodd"><g id="Small Elements" transform="translate(314.000000, 359.000000) scale(1 1)"><g id="Small Elements/Small Graph" stroke="none" stroke-width="1" fill="none" fill-rule="evenodd"><g id="Chart" transform="translate(84.000000, 84.000000)"><path d="M63.9124924,63.2043 C60.6605898,66.6723 56.0539399,68.85 50.930347,68.85 C41.0855109,68.85 33.1047255,60.8583 33.1047255,51 C33.1047255,41.1417 41.0855109,33.15 50.930347,33.15 L50.930347,0 C22.9237492,0 0,22.9551 0,51 C0,79.0449 22.9237492,102 50.930347,102 C65.6415777,102 78.9369448,95.7678 88,85.8534 L63.9124924,63.2043 Z" id="Value" fill="#F2F2F2"/><path d="M51,0 L51,33.15 C60.8583,33.15 68.85,41.1417 68.85,51 L102,51 C102,22.9551 79.0449,0 51,0 Z" id="Value" fill="#0072FF"/><path d="M67.9989793,51 C67.9989793,56.8202633 65.257974,61.9938307 61,65.3342237 L81.9472442,92 C94.1405333,82.4534122 102,67.6550277 102,51 L67.9989793,51 Z" id="Value" fill="#C5CFD6"/></g></g></g><g id="Bottoms" transform="translate(1.000000, 717.000000) scale(0.9689655172413794 0.9679802955665024)"><defs><rect id="bottomscircles-path-1" x="0" y="0" width="870" height="406"/></defs><g id="Bottoms/Circles" stroke="none" stroke-width="1" fill="none" fill-rule="evenodd"><mask id="bottomscircles-mask-2" fill="#ffffff"><use xlink:href="#bottomscircles-path-1" fill="#ffffff"/></mask><g id="Mask"/><path d="M336,35 L642,407 L534.242,407 L336,166 L137.758,407 L30,407 L336,35 Z" id="Combined-Shape" fill="#BE6FFB" mask="url(#bottomscircles-mask-2)"/><circle id="Oval" fill="#902EE9" mask="url(#bottomscircles-mask-2)" cx="605" cy="391" r="217"/><circle id="Oval" fill="#BE6FFB" mask="url(#bottomscircles-mask-2)" cx="336" cy="406" r="108"/></g></g><g id="Plants/Big Plant" transform="translate(1513.000000, 165.000000) scale(1.459051724137931 1.4583333333333333)"><g id="Plants/Big Plant/Big Plant 2" stroke="none" stroke-width="1" fill="none" fill-rule="evenodd"><g id="Group-4" transform="translate(38.000000, 2.000000)"><path d="M197.580779,59.1258558 C197.580779,59.1258558 180.760779,2.79585579 118.580779,0.0398557877 C93.0407793,-1.09014421 100.836779,22.0278558 70.5767793,41.4538558 C41.0507793,60.4098558 -1.95322073,52.6318558 0.0687792727,90.0018558 C1.38277927,114.293856 8.94677927,125.137856 8.94677927,125.137856 C86.7527793,117.345856 138.396779,141.961856 170.164779,191.191856 C165.956779,131.611856 174.702779,87.1298558 197.580779,59.1258558" id="Fill-59" fill="#870CF7"/><path d="M221.920779,645.625856 L170.260779,645.625856 C160.502779,645.625856 152.356779,638.181856 151.476779,628.463856 L143.518779,540.479856 L248.662779,540.479856 L240.704779,628.463856 C239.824779,638.181856 231.678779,645.625856 221.920779,645.625856" id="Fill-60" fill="#000"/><path d="M186.681379,540.655256 C172.071379,422.823256 184.427379,324.923256 223.403379,249.677256 C261.743379,175.661256 326.897379,121.485256 417.055379,88.6552558 L418.033379,91.3472558 C328.573379,123.921256 263.945379,177.635256 225.945379,250.993256 C187.239379,325.717256 174.985379,423.055256 189.521379,540.303256 L186.681379,540.655256 Z" id="Fill-61" fill="#000"/><path d="M203.140379,540.655256 L200.300379,540.303256 C223.942379,348.625256 207.462379,226.825256 149.916379,167.943256 C117.142379,134.411256 69.7683793,120.497256 9.08837927,126.561256 L8.80437927,123.713256 C70.3843793,117.551256 118.552379,131.757256 151.962379,165.943256 C183.138379,197.841256 202.062379,246.217256 209.814379,313.839256 C216.720379,374.069256 214.536379,448.263256 203.140379,540.655256" id="Fill-62" fill="#000"/><path d="M222.389379,254.838856 C211.335379,203.560856 217.067379,153.476856 256.383379,105.778856 C256.383379,105.778856 270.329379,111.478856 298.775379,96.1148558 C320.495379,84.3808558 343.287379,69.1508558 378.959379,73.9448558 C411.903379,78.3728558 417.545379,90.0008558 417.545379,90.0008558 C326.327379,123.214856 260.793379,177.760856 222.387379,254.836856" id="Fill-63" fill="#000"/><path d="M8.48717927,126.780256 C86.2951793,118.990256 138.111179,145.946256 170.163179,193.786256 C170.163179,193.786256 161.967179,129.642256 133.689179,117.536256 C117.415179,110.570256 88.3591793,120.772256 49.1531793,116.760256 C9.94717927,112.746256 0.0691792727,90.0002558 0.0691792727,90.0002558 C1.38317927,114.294256 8.48717927,126.780256 8.48717927,126.780256" id="Fill-64" fill="#BE6FFB"/><path d="M186.366979,538.030256 C182.566979,455.338256 197.242979,364.046256 334.902979,313.898256 L335.882979,316.584256 C199.964979,366.100256 185.474979,456.246256 189.226979,537.898256 L186.366979,538.030256 Z" id="Fill-65" fill="#000"/><path d="M335.392379,318.645456 C271.488379,341.925456 234.700379,371.569456 213.302379,409.185456 L212.094276,406.809456 C212.062379,360.089456 219.462379,315.469456 242.686379,270.985456 C242.686379,270.985456 298.618379,237.977456 357.758379,256.771456 C357.758379,256.771456 349.010379,264.979456 347.616379,273.341456 C346.222379,281.701456 350.760379,305.641456 335.392379,318.645456" id="Fill-66" fill="#BE6FFB"/><path d="M203.449979,538.120056 L200.603979,537.808056 C200.793979,536.070056 219.081979,363.714056 169.527979,339.158056 C146.483979,327.736056 127.511979,329.430056 107.425979,331.236056 C83.5839793,333.370056 56.5539793,335.792056 18.0039793,316.520056 L19.2839793,313.962056 C57.1079793,332.870056 82.5579793,330.590056 107.169979,328.384056 C127.667979,326.546056 147.031979,324.814056 170.799979,336.590056 C192.469979,347.330056 204.535979,384.596056 206.661979,447.354056 C208.233979,493.780056 203.497979,537.682056 203.449979,538.120056" id="Fill-67" fill="#000"/><path d="M18.0857793,317.082856 C88.6277793,352.350856 119.299779,314.578856 170.327779,339.868856 C180.393779,344.858856 187.565779,353.670856 192.855779,367.808856 L192.853779,367.810856 C183.709779,301.832856 164.151779,239.598856 108.323779,190.398856 C108.323779,190.398856 45.5397793,193.006856 26.4457793,237.312856 C7.35377927,281.618856 18.0857793,317.082856 18.0857793,317.082856" id="Fill-68" fill="#BE6FFB"/></g></g></g><g id="Chair" transform="translate(1534.500000, 768.500000) scale(-1, 1) translate(-1534.500000, -768.500000) translate(1248.000000, 430.000000) scale(1.0893536121673004 1.0884244372990353)"><g id="Chair/Office" stroke="none" stroke-width="1" fill="none" fill-rule="evenodd"><g id="Group-21" transform="translate(17.000000, 0.000000)"><path d="M103.2542,227.355 L103.2542,293.645 C103.2542,299.474876 108.026017,304.340723 113.823279,304.496169 L114.1092,304.5 L180.3992,304.5 L180.3992,343.5 L114.1092,343.5 C86.9192929,343.5 64.7025164,321.555123 64.2608998,294.467397 L64.2542,293.645 L64.2542,227.355 L103.2542,227.355 Z" id="Stroke-1" fill="#0A1B45" fill-rule="nonzero"/><path d="M120.6111,258 L96.1921,258 C43.2861,258 0.0001,214.713 0.0001,161.808 L0.0001,96.192 C0.0001,43.287 43.2861,0 96.1921,0 L120.6111,0 C153.6901,0 180.7541,27.064 180.7541,60.143 L180.7541,197.857 C180.7541,230.936 153.6901,258 120.6111,258" id="Fill-3" fill="#5A328E"/><path d="M253.7542,571 L243.7542,571 C239.3542,571 235.7542,566.352 235.7542,560.67 L235.7542,346.33 C235.7542,340.648 239.3542,336 243.7542,336 L253.7542,336 C258.1542,336 261.7542,340.648 261.7542,346.33 L261.7542,560.67 C261.7542,566.352 258.1542,571 253.7542,571" id="Fill-5" fill="#55B0EB"/><path d="M261.7542,586 L248.7542,586 L235.7542,586 C235.7542,586 145.7542,600.6 145.7542,594 L145.7542,591 C145.7542,584.4 151.1542,579 157.7542,579 L235.7542,559 L248.7542,559 L261.7542,559 L339.7542,579 C346.3542,579 351.7542,584.4 351.7542,591 L351.7542,594 C351.7542,600.6 261.7542,586 261.7542,586" id="Fill-7" fill="#0A1B45"/><path d="M256.8313,475 L240.6773,475 C233.5693,475 227.7543,472.25 227.7543,468.89 L227.7543,342.11 C227.7543,338.75 233.5693,336 240.6773,336 L256.8313,336 C263.9383,336 269.7543,338.75 269.7543,342.11 L269.7543,468.89 C269.7543,472.25 263.9383,475 256.8313,475" id="Fill-9" fill="#55B0EB"/><path d="M344.011,356 L153.497,356 C138.239,356 125.754,343.516 125.754,328.257 L125.754,313.743 C125.754,298.484 138.239,286 153.497,286 L344.011,286 C359.27,286 371.754,298.484 371.754,313.743 L371.754,328.257 C371.754,343.516 359.27,356 344.011,356" id="Fill-11" fill="#5A328E"/><path d="M161.7542,608 C161.7542,615.732 155.4862,622 147.7542,622 C140.0222,622 133.7542,615.732 133.7542,608 C133.7542,600.268 140.0222,594 147.7542,594 C155.4862,594 161.7542,600.268 161.7542,608" id="Fill-13" fill="#0A1B45"/><path d="M365.7542,608 C365.7542,615.732 359.4862,622 351.7542,622 C344.0222,622 337.7542,615.732 337.7542,608 C337.7542,600.268 344.0222,594 351.7542,594 C359.4862,594 365.7542,600.268 365.7542,608" id="Fill-15" fill="#0A1B45"/><path d="M263.7542,608 C263.7542,615.732 257.4862,622 249.7542,622 C242.0222,622 235.7542,615.732 235.7542,608 C235.7542,600.268 242.0222,594 249.7542,594 C257.4862,594 263.7542,600.268 263.7542,608" id="Fill-17" fill="#0A1B45"/><path d="M253.7542,596 L245.7542,596 L235.7542,571 C235.7542,564.4 241.1542,559 247.7542,559 L251.7542,559 C258.3542,559 263.7542,564.4 263.7542,571 L253.7542,596 Z" id="Fill-19" fill="#0A1B45"/></g></g></g><g id="Chair" transform="translate(431.000000, 430.000000) scale(1.0893536121673004 1.0884244372990353)"><g id="Chair/Home" stroke="none" stroke-width="1" fill="none" fill-rule="evenodd"><g id="Group-16" transform="translate(48.000000, 0.000000)"><path d="M349.491,622 L315.409,622 C313.332,622 311.61,620.52 311.468,618.612 L291.72,352.328 C291.72,341.653 301.121,333 312.72,333 C324.318,333 333.72,341.653 333.72,352.328 L353.431,618.117 C353.587,620.217 351.778,622 349.491,622" id="Fill-1" fill="#F38A27"/><path d="M150.4607,621.5 L118.4917,621.5 C115.3977,621.5 112.9767,618.834 113.2737,615.755 L142.6467,311.56 C142.6947,311.06 142.6707,310.556 142.5757,310.063 L83.9227,6.235 C83.2987,3.001 85.7757,0 89.0697,0 L120.8917,0 C123.4037,0 125.5637,1.783 126.0387,4.25 L185.0767,310.507 C185.170775,311 185.1947,311.504 185.1467,312.003 L155.6777,616.763 C155.4177,619.45 153.1597,621.5 150.4607,621.5" id="Fill-3" fill="#F38A27"/><path d="M311.6638,505 L76.7748,505 C68.4948,505 61.7198,498.225 61.7198,489.944 C61.7198,481.664 68.4948,474.889 76.7748,474.889 L311.6638,474.889 C319.9448,474.889 326.7198,481.664 326.7198,489.944 C326.7198,498.225 319.9448,505 311.6638,505" id="Fill-5" fill="#5A328E"/><path d="M312.9763,356 L86.4623,356 C71.2043,356 58.7193,343.516 58.7193,328.257 L58.7193,313.743 C58.7193,298.484 71.2043,286 86.4623,286 L312.9763,286 C328.2353,286 340.7193,298.484 340.7193,313.743 L340.7193,328.257 C340.7193,343.516 328.2353,356 312.9763,356" id="Fill-7" fill="#7243A3"/><path d="M271.8763,622 L237.0723,622 C235.1853,622 233.6203,620.654 233.4913,618.921 L213.7193,352.328 C213.7193,341.653 223.1213,333 234.7193,333 C246.3173,333 255.7193,341.653 255.7193,352.328 L275.4583,618.471 C275.5993,620.38 273.9553,622 271.8763,622" id="Fill-9" fill="#FF9E41"/><path d="M115.8152,176.6211 L83.1472,176.5781 C66.9062,179.6331 51.3972,169.6481 48.5052,154.2751 L30.6922,59.5811 C27.8002,44.2081 38.6212,29.2701 54.8622,26.2151 L87.5302,26.2581 C103.7712,23.2031 119.2802,33.1881 122.1722,48.5611 L139.9852,143.2551 C142.8772,158.6271 132.0552,173.5661 115.8152,176.6211" id="Fill-11" fill="#7243A3"/><g id="Group-15" fill="#FF9E41"><path d="M65.7142,621.5 L35.3962,621.5 C31.8182,621.5 29.0172,618.417 29.3612,614.854 L58.6352,311.678 C58.6912,311.1 58.6632,310.517 58.5532,309.946 L0.1112,7.212 C-0.6098,3.472 2.2562,0 6.0652,0 L36.2142,0 C39.1192,0 41.6172,2.062 42.1672,4.916 L101.0542,310.39 C101.163537,310.96 101.1912,311.543 101.1352,312.122 L71.7492,616.021 C71.4492,619.128 68.8372,621.5 65.7142,621.5" id="Fill-13"/></g></g></g></g><g transform="translate(240.000000, 359.000000) scale(1 1)" id="Master/Character/Sitting"><g id="Master/Character/Sitting" stroke="none" stroke-width="1" fill="none" fill-rule="evenodd"><g id="Legs Sitting" transform="translate(317.000000, 266.000000) scale(1 1)"><g id="Legs Sitting/Pants Straight" stroke="none" stroke-width="1" fill="none" fill-rule="evenodd"><g id="Group-23" transform="translate(0.000000, -1.000000)"><path d="M380.369475,419 L317.911273,417.384757 C314.549122,417.267931 311.903002,414.055711 312.012004,410.391165 L312.71206,388.01746 C313.37453,366.648261 313.943032,343.243091 314.189227,322.070599 C314.508716,270.279672 314.713564,218.348952 308.065376,167.548551 C306.060113,146.406014 350.76319,147.473426 362.630323,142.304119 C389.066151,138.17726 382.502534,177.119308 385.917306,194.325703 C389.017288,237.220868 389.274759,280.371653 388.831233,323.065119 C388.652695,338.117718 388.35012,353.144356 387.961096,368.141039 C387.579588,383.115755 387.076863,398.161364 386.623001,412.894439 C386.517758,416.410207 383.726928,419.09621 380.369475,419" id="Fill-1" fill="#ffdbb4"/><g id="Group-5" transform="translate(133.000000, 0.000000)" fill="#051026"><path d="M61.6608997,0.7852 L0.879228374,86.9101 C0.100058824,89.8051 2.37030104,92.7951 5.83732526,93.6091 C17.8910969,96.4811 30.0224118,99.6111 42.0659066,102.9161 C82.2576021,114.7431 124.300993,125.8271 160.297879,147.8991 C174.186529,217.9691 169.615215,292.0011 168.907048,363.7641 L269.091062,366.6711 C270.28691,297.2471 271.435111,227.8391 263.025872,158.5291 C255.043588,90.6491 235.45691,64.8831 176.64082,38.9671 C144.711062,24.9291 106.384422,12.2018 61.6608997,0.7852 Z" id="Fill-3"/></g><polygon id="Fill-6" fill="#FFF" points="387.127049 405 313 402.352922 313.863614 374 388 376.320522"/><g id="Group-10" transform="translate(312.000000, 385.000000)" fill="#0A1B45"><path d="M75.609853,3.2549 C70.4998957,3.0779 52.0714427,2.4399 34.8895026,1.8439 C35.5174171,17.8009 3.60929744,16.6369 5.18746838,0.8159 C2.93759658,0.7369 1.63984444,0.6919 1.63984444,0.6919 C1.33520342,11.6849 0.717536752,27.1359 0.612263248,37.9999 L108.029434,37.9999 L108.104896,33.9409 C113.28752,17.7909 81.0961863,18.8119 75.609853,3.2549" id="Fill-8"/></g><path d="M102.1875,100 L92.8125,100 C41.55375,100 -4.00177669e-11,55.676 -4.00177669e-11,1 L195,1 C195,55.676 153.44625,100 102.1875,100" id="Fill-11" fill="#0A1B45"/><path d="M329.234818,419 L267.027592,417.257223 C263.679736,417.150393 261.048809,413.905575 261.164866,410.254406 C263.285705,346.699902 265.155712,282.021194 261.855589,218.851076 C256.195026,150.964491 252.955739,167.30839 313.117938,153.329714 C321.983158,151.479668 330.834339,157.593904 332.039829,167.185586 C334.034316,183.123134 335.216408,198.706248 336.079344,214.205495 C339.034106,270.400752 338.102846,326.472206 336.461208,382.490744 L335.474727,412.906171 C335.363351,416.428546 332.579866,419.094289 329.234818,419" id="Fill-13" fill="#ffdbb4"/><path d="M105.631483,1 C105.631483,1 93.8910185,99.4425457 97.7952447,100.072003 C97.7952447,100.072003 164.534613,101.105299 210.86642,138.329406 C257.198227,175.553512 251.819491,293.661699 250.946694,363.942778 L351.149248,367 C351.673487,286.400422 356.130921,203.321042 337.812456,123.935346 C330.164733,92.4094342 310.652947,72.3408488 284.573688,57.1968425 C249.27866,37.0195114 189.631259,18.2872306 105.631483,1 Z" id="Fill-15" fill="#0A1B45"/><polygon id="Fill-17" fill="#FFF" points="335.018261 407 261 404.236269 261.971483 374 336 376.430229"/><path d="M336.290772,388.661166 C331.164659,388.477091 312.679813,387.815016 295.443552,387.196485 C296.050087,402.984353 264.044827,401.775002 265.649482,386.127665 C263.393432,386.046513 262.090642,386 262.090642,386 C261.770085,396.914837 261.116821,412.211838 261,423 L368.756775,423 C368.795092,420.786156 368.921259,415.993286 368.997894,413.748763 C369.285741,404.844893 339.976713,401.35737 336.290772,388.661166" id="Fill-19" fill="#0A1B45"/></g><path d="M63.3490184,-2 L63.4582674,-1.99438249 C63.9724926,-1.93607996 64.3451244,-1.44336436 64.2905639,-0.893871395 C61.2285646,29.9443025 74.9191481,46.4466139 105.71187,48.9673404 L120.990046,50.2103795 C131.951397,51.126246 137.116072,51.6601875 144.790771,52.6413539 C158.55778,54.4013876 170.799033,56.7446959 182.470762,60.0371156 C212.35204,68.4661756 237.559754,82.9700184 259.17948,106.133833 C290.772152,139.982864 303.974906,226.237074 298.967919,365.03729 C298.948001,365.589458 298.512963,366.019823 297.996235,366 C297.479507,365.977254 297.076764,365.512379 297.096682,364.960212 C302.083904,226.707928 288.942811,140.856554 257.85358,107.54692 C236.482479,84.649487 211.568865,70.3148614 181.992799,61.9718972 C170.812125,58.8179968 159.092595,56.5396081 145.978748,54.8113271 L142.309819,54.343642 C135.085371,53.4480021 129.515959,52.9135752 117.312982,51.9133511 L105.568833,50.9625539 C73.7488094,48.3577314 59.252143,30.8837864 62.4283899,-1.10500353 C62.4790532,-1.615247 62.8802462,-1.99502898 63.3490184,-2 Z" id="Path-6" fill="#FFF" fill-rule="nonzero"/></g></g><g id="Body" transform="translate(41.000000, -31.000000) scale(1 1)"><g id="Body/Tank Top Wave 2" stroke="none" stroke-width="1" fill="none" fill-rule="evenodd"><g id="Group-41" transform="translate(96.000000, -22.000000)"><path d="M560.3373,34.9515 C564.5583,36.0975 568.5273,38.2215 572.0723,41.1795 C579.0623,47.0935 584.1403,56.4875 585.0903,67.4855 C586.4083,82.3825 586.7793,97.4915 586.0443,112.7725 C585.2713,128.0545 583.4063,143.5225 579.8383,159.0945 C576.3283,174.6435 571.0403,190.3465 563.2483,205.6595 C559.3353,213.3045 554.7783,220.8485 549.3693,228.0655 C543.9783,235.2805 520.1243,262.678571 472.905286,262.678571 C425.686271,262.678571 329.116699,238.114197 307.494983,215.1753 C285.873267,192.236403 329.707508,171.6196 342.9453,171.6196 C356.183092,171.6196 446.738297,193.349806 465.502688,193.349806 C484.26708,193.349806 499.7403,184.9715 504.5133,175.5575 C509.2903,166.1565 512.9913,155.5955 515.4953,144.3975 C518.0663,133.2275 519.5223,121.4685 520.1243,109.5225 C520.6983,97.5655 520.4243,85.4015 519.3403,73.2205 C518.5663,64.2695 521.0813,55.7255 526.0123,48.6965 C528.4313,45.1995 531.5123,42.0965 535.0773,39.6365 C538.6203,37.1835 542.6883,35.3685 547.1623,34.5015 C551.6353,33.6345 556.0923,33.8095 560.3373,34.9515 Z" id="SKIN-DARKER" fill="#dcb284"/><path d="M565.9035,8.2866 L565.9035,8.2866 C570.7365,7.0406 575.7905,10.7226 577.1235,16.5286 C582.7665,41.7786 586.1315,67.6876 586.4065,94.1826 C586.4475,100.2966 582.3125,105.1516 577.3245,105.0006 C572.3765,104.8436 568.4455,100.0736 568.4075,94.3566 C568.1485,69.3076 564.9555,44.5996 559.5615,20.4756 C558.2965,14.9726 561.1095,9.5206 565.9035,8.2866" id="SKIN-DARKER" fill="#dcb284"/><path d="M547.1789,0.3159 C551.9259,-1.0701 557.1419,2.2359 558.5399,7.7829 C561.3159,18.5069 563.6439,29.3569 565.4929,40.3139 C566.0049,43.1249 565.3429,45.8569 564.0289,47.9289 C562.6999,50.0079 560.6359,51.4449 558.1679,51.7899 C553.2429,52.4529 548.6339,48.6429 547.7429,43.3039 C545.9829,32.8739 543.7629,22.5269 541.1149,12.2929 C539.7929,7.0429 542.3829,1.7139 547.1789,0.3159" id="SKIN-DARKER" fill="#dcb284"/><path d="M531.217,2.6597 C535.961,1.2447 541.091,4.3577 542.497,9.6637 C545.218,19.9357 547.508,30.3257 549.339,40.8037 C549.82,43.4967 549.233,46.1057 547.873,48.1147 C546.531,50.1247 544.468,51.5247 542.009,51.8827 C539.55,52.2407 537.161,51.5057 535.295,50.0597 C533.445,48.6097 532.065,46.4587 531.608,43.9017 C529.868,33.9487 527.689,24.0577 525.098,14.2727 C523.771,9.2637 526.435,4.0837 531.217,2.6597" id="SKIN-DARKER" fill="#dcb284"/><path d="M515.3371,43.7104 C517.7801,43.2594 520.1651,43.8474 522.0531,45.1954 C523.9291,46.5434 525.3581,48.6474 525.7161,51.1634 C527.2351,60.9344 528.3141,70.7494 528.9051,80.5524 C529.1001,83.0804 526.9191,86.2304 524.7841,88.6674 C523.7211,89.8924 522.5831,90.9384 521.7611,91.6814 C520.9301,92.4234 520.3751,92.8624 520.3751,92.8624 C520.3381,89.9244 518.0521,89.0044 515.7301,87.5194 C513.4141,86.0284 511.1171,84.0034 510.7561,78.7714 C510.1751,70.5114 509.2221,62.2144 507.9311,53.9354 C507.2021,49.2084 510.4311,44.6364 515.3371,43.7104" id="SKIN-DARKER" fill="#dcb284"/><path d="M518.0724,15.0718 C520.4724,14.4268 522.9074,14.8518 524.9134,16.0918 C526.9214,17.3278 528.5024,19.3768 529.0904,21.9278 C533.1964,38.9838 536.0644,56.3308 537.4524,73.7458 C537.6954,76.3418 536.7824,78.7688 535.2824,80.5508 C533.7744,82.3348 531.5674,83.4738 529.0814,83.5948 C526.6024,83.7168 524.3154,82.8138 522.5764,81.2948 C520.8284,79.7708 519.7414,77.6348 519.5094,75.1888 C518.2054,58.7828 515.4894,42.3318 511.5884,26.1318 C511.0314,23.7118 511.4354,21.2928 512.5934,19.2928 C513.7584,17.2958 515.6734,15.7178 518.0724,15.0718" id="SKIN-DARKER" fill="#dcb284"/><path d="M391.5569,321.1753 L167.0759,321.1753 L167.0759,214.1133 C167.0759,205.3133 169.7509,197.1373 174.3329,190.3553 C181.9689,179.0513 194.9019,171.6193 209.5699,171.6193 L339.0629,171.6193 C362.5319,171.6193 381.5569,190.6453 381.5569,214.1133 L391.5569,321.1753 Z" id="Fill-13" fill="#0A1B45"/><path d="M369.0754,183.6753 C369.903827,183.6753 370.5754,184.346873 370.5754,185.1753 C370.5754,185.954996 369.980512,186.595749 369.21986,186.668433 L369.0754,186.6753 L179.5754,186.6753 C178.746973,186.6753 178.0754,186.003727 178.0754,185.1753 C178.0754,184.395604 178.670288,183.754851 179.43094,183.682167 L179.5754,183.6753 L369.0754,183.6753 Z" id="Stroke-15" fill="#FFF" fill-rule="nonzero"/><path d="M380.0754,213.6753 C380.903827,213.6753 381.5754,214.346873 381.5754,215.1753 C381.5754,215.954996 380.980512,216.595749 380.21986,216.668433 L380.0754,216.6753 L168.5754,216.6753 C167.746973,216.6753 167.0754,216.003727 167.0754,215.1753 C167.0754,214.395604 167.670288,213.754851 168.43094,213.682167 L168.5754,213.6753 L380.0754,213.6753 Z" id="Stroke-17" fill="#FFF" fill-rule="nonzero"/><path d="M168.577656,243.675302 L384.502256,244.000002 C385.330682,244.001247 386,244.673829 386,245.502256 C386,246.281951 385.402975,246.921808 384.642215,246.993349 L384.497744,246.999998 L168.573144,246.675302 C167.744718,246.674053 167.0754,246.001471 167.0754,245.173044 C167.0754,244.393349 167.672425,243.753492 168.433185,243.681951 L168.577656,243.675302 Z" id="Stroke-19" fill="#FFF" fill-rule="nonzero"/><path d="M168.577635,273.675302 L386.502235,274.000002 C387.330661,274.001236 388,274.673809 388,275.502235 C388,276.28193 387.402994,276.921796 386.642235,276.993347 L386.497765,276.999998 L168.573165,276.675302 C167.744739,276.674064 167.0754,276.001491 167.0754,275.173065 C167.0754,274.39337 167.672406,273.753504 168.433165,273.681953 L168.577635,273.675302 Z" id="Stroke-21" fill="#FFF" fill-rule="nonzero"/><path d="M168.577605,303.675302 L389.502205,304.000002 C390.330631,304.001219 391,304.673778 391,305.502205 C391,306.2819 390.403023,306.921777 389.642265,306.993344 L389.497795,306.999998 L168.573195,306.675302 C167.744769,306.674081 167.0754,306.001522 167.0754,305.173095 C167.0754,304.3934 167.672377,303.753523 168.433135,303.681956 L168.577605,303.675302 Z" id="Stroke-23" fill="#FFF" fill-rule="nonzero"/><path d="M323.0754,171.6196 C323.0754,188.1756 315.0754,209.1756 288.5754,209.1756 C257.0754,209.1756 244.0754,191.2566 244.0754,171.6196 L323.0754,171.6196 Z" id="SKIN" fill="#ffdbb4"/><path d="M145.8938,433.525 C143.8288,433.316 141.8688,433.049 140.0278,432.781 C138.2878,432.55 136.5328,432.317 134.7518,432.082 C131.4968,431.648 128.7308,431.46 126.6448,431.117 C124.5308,430.77 123.0218,430.215 121.7098,428.758 C120.7378,427.644 119.4338,426.42 117.8848,425.128 C116.3518,423.837 114.5568,422.482 112.4928,421.099 C110.4548,419.714 108.2118,418.302 105.7468,416.875 C103.3108,415.448 100.6968,414.006 97.9198,412.541 C87.7318,407.115 75.7138,401.572 62.6978,394.27 C56.1618,390.548 49.3608,386.421 42.3908,381.195 C35.4628,376.031 28.3268,369.718 21.8278,361.863 C18.5678,357.968 15.5448,353.578 12.8158,348.978 C10.0978,344.333 7.8008,339.367 5.8838,334.287 C2.1898,324.087 0.3238,313.464 0.0628,303.67 C0.0238,301.242 -0.0592,298.753 0.0678,296.419 L0.2148,292.869 C0.2778,291.676 0.4178,290.408 0.5288,289.181 C0.6538,287.944 0.7608,286.714 0.9208,285.472 L1.5068,281.728 C1.8658,279.242 2.4778,276.732 3.0478,274.24 C5.4358,264.245 9.6698,254.455 15.0378,245.747 C20.3988,236.978 26.9868,229.478 33.8878,223.091 C40.8148,216.68 48.1158,211.494 55.4298,207.075 C70.1058,198.253 84.8318,192.494 99.2718,188.049 C113.7328,183.64 127.9938,180.605 142.1108,178.371 C156.2298,176.152 186.82838,171.6196 206.279023,171.6196 C225.729666,171.6196 227.529659,186.681531 226.6808,206.201 C226.1688,215.297 221.6028,223.343 214.6818,229.298 C207.7458,235.255 198.4808,239.113 188.1478,239.75 C176.0838,240.477 164.1078,241.723 152.4128,243.561 C140.7268,245.404 129.3178,247.882 118.5918,251.158 C107.8848,254.421 97.8378,258.549 89.5338,263.582 C81.1648,268.582 74.8618,274.435 71.1658,280.466 C67.4238,286.507 65.8458,293.021 66.0268,301.464 C66.1148,305.368 66.8348,308.584 67.8328,311.521 C68.4128,312.957 69.0238,314.359 69.8298,315.73 C70.6768,317.093 71.5558,318.48 72.7398,319.863 C75.0388,322.638 78.0978,325.509 81.9338,328.351 C85.7098,331.205 90.2428,334.009 95.1348,336.791 C105.0298,342.382 116.5148,347.722 128.8288,354.226 C132.1648,355.989 135.5778,357.861 139.0418,359.889 C142.4968,361.894 146.0208,364.087 149.5678,366.496 C153.1098,368.883 156.6938,371.537 160.2458,374.517 C163.7918,377.483 167.3248,380.762 170.6848,384.515 C175.0768,389.348 178.2258,395.33 179.6378,401.284 C181.0628,407.25 180.8258,413.059 179.1938,417.835 C178.4128,420.222 177.2298,422.376 175.9238,424.228 C174.5348,426.089 172.9268,427.667 171.1748,428.959 C167.6348,431.552 163.3898,433.005 158.8918,433.604 C154.3618,434.212 149.9918,433.951 145.8938,433.525 Z" id="SKIN" fill="#ffdbb4"/><path d="M134.9143,448.102 L134.9143,448.102 C132.4423,447.769 130.3583,446.769 128.7943,445.689 C128.0263,445.138 127.4243,444.54 127.0393,443.921 C126.5933,443.346 126.3613,442.755 126.4003,442.142 C126.4583,439.551 126.2343,437.524 125.8163,435.982 C125.3913,434.416 124.9093,433.204 124.0453,431.785 C123.1353,430.385 121.8483,428.735 119.8333,426.835 C117.7983,424.944 115.1263,422.851 111.9153,420.703 C109.0003,418.753 108.1613,413.623 110.6553,409.32 C111.8993,407.179 113.8313,405.669 115.8663,405.019 C117.9283,404.358 120.1343,404.556 121.9073,405.73 C125.7363,408.293 129.2013,410.962 132.1603,413.72 C135.1013,416.488 137.4673,419.345 139.3263,422.273 C141.1503,425.218 142.4173,428.275 143.2773,431.607 C144.1413,434.93 144.4843,438.599 144.3953,442.544 C144.3513,443.458 144.0633,444.323 143.5843,445.074 C143.0453,445.849 142.3173,446.511 141.4523,447.017 C139.7483,448.024 137.3663,448.445 134.9143,448.102" id="SKIN" fill="#ffdbb4"/><path d="M148.9182,459.7222 C146.5072,459.1182 144.5292,457.7222 143.2682,456.0472 C142.6302,455.2082 142.1092,454.3142 141.8362,453.3832 C141.5532,452.4552 141.5152,451.4892 141.6252,450.5582 C142.8532,443.1592 142.6142,436.5562 141.0642,431.0892 C140.6612,429.6832 141.1722,428.1412 142.2502,426.5532 C143.3932,424.9592 145.0352,423.3512 147.2822,422.2502 C149.4962,421.1632 151.9432,420.8722 153.9672,421.5812 C156.0402,422.2492 157.7312,423.9022 158.3702,426.1422 C160.8392,434.8332 160.9122,444.2022 159.4032,453.3722 C159.2532,454.5582 158.7582,455.6362 158.1142,456.5622 C157.4602,457.4882 156.6582,458.2592 155.6882,458.8292 C153.7302,459.9762 151.3292,460.3242 148.9182,459.7222" id="SKIN" fill="#ffdbb4"/><path d="M163.9572,465.5776 C161.5572,464.9326 159.6242,463.3626 158.4172,461.4396 C157.8042,460.4756 157.4172,459.4236 157.1712,458.3196 C156.9242,457.2166 156.8932,456.0716 157.1212,454.9196 C158.7082,445.9556 159.0162,436.8566 156.9162,428.4216 C156.6082,427.3526 156.6232,426.2496 156.7412,425.1866 C156.8572,424.1266 157.1922,423.0636 157.7062,422.0466 C158.6402,420.0596 160.3052,418.1986 162.5752,417.1906 C164.8472,416.1846 167.3432,416.3076 169.6072,417.5346 C170.6872,418.1616 171.6942,419.0576 172.5522,420.1736 C173.4052,421.2886 173.9882,422.6476 174.3972,424.1296 C175.8262,429.9206 176.4212,435.7926 176.4032,441.4896 C176.3872,447.1956 175.7812,452.7386 174.8372,458.1086 C174.5692,459.4766 174.0632,460.7346 173.3842,461.8156 C172.7032,462.8966 171.7782,463.7656 170.7872,464.4366 C168.7832,465.7756 166.3572,466.2216 163.9572,465.5776" id="SKIN" fill="#ffdbb4"/><path d="M190.8908,424.7729 C188.4428,425.2239 185.9568,424.1769 183.8858,422.3319 C182.8028,421.4029 181.8158,420.2659 180.9818,418.9629 C180.1408,417.6609 179.3348,416.2089 178.7848,414.5929 C176.4948,408.3279 173.2168,402.4189 169.4098,397.1949 C165.5978,391.9579 161.2698,387.3959 156.7978,383.4199 C155.6538,382.3669 154.7318,380.9209 153.9728,379.1729 C153.2088,377.4939 152.5948,375.5849 152.0958,373.8029 C151.5998,372.0479 151.2208,370.3849 150.9628,369.1589 C150.7078,367.9509 150.5808,367.1879 150.5808,367.1879 C152.0958,368.2029 153.4508,368.5439 154.7978,368.4639 C156.1458,368.3919 157.5018,368.0049 159.0468,367.7889 C160.5948,367.5849 162.3098,367.4249 164.4258,368.1149 C165.4818,368.4519 166.6268,368.9329 167.8868,369.7059 C169.1518,370.5229 170.5238,371.5319 172.0128,372.9659 C176.7028,377.4589 181.3118,382.6689 185.4118,388.6369 C189.5148,394.5889 193.0608,401.3049 195.6608,408.3319 C196.3618,410.3509 196.8218,412.3719 196.8848,414.2549 C196.9418,416.1399 196.7238,417.8859 196.2678,419.3809 C195.2588,422.3669 193.3288,424.3219 190.8908,424.7729" id="SKIN" fill="#ffdbb4"/><path d="M181.4982,460.5171 L181.4972,460.5171 C179.0382,460.0381 177.1162,458.4941 175.7732,456.3871 C174.4462,454.2801 173.8372,451.6931 174.0592,448.8901 C174.9332,439.5531 174.2532,429.5481 171.1272,419.9981 C169.5782,415.2381 167.4242,410.6421 164.7952,406.4191 C162.1692,402.1891 159.0862,398.3321 155.7592,394.8781 C154.7622,393.8581 153.9722,392.7421 153.3992,391.5351 C152.8062,390.3771 152.4242,389.1421 152.2582,387.8941 C151.9182,385.4331 152.4172,382.9531 154.0002,381.0271 C155.5792,379.1191 157.9802,378.1541 160.6662,378.3391 C162.0052,378.4491 163.4132,378.8351 164.7962,379.4861 C166.1742,380.1991 167.5302,381.1661 168.7482,382.4161 C172.8232,386.6491 176.7172,391.4971 180.0762,396.9081 C183.4402,402.3061 186.2372,408.2611 188.2322,414.3941 C190.2402,420.5281 191.4532,426.7971 192.0202,432.8811 C192.6212,438.9951 192.4632,444.8451 191.9892,450.4681 C191.8172,452.1241 191.4522,453.7291 190.7862,455.0461 C190.1342,456.3771 189.2972,457.5261 188.3362,458.4281 C186.4252,460.2461 183.9202,460.9701 181.4982,460.5171" id="SKIN" fill="#ffdbb4"/></g></g></g><g id="Head" transform="translate(362.000000, -61.000000) scale(1 1)"><g id="Head/Flat Top" stroke="none" stroke-width="1" fill="none" fill-rule="evenodd"><g id="Head" transform="translate(22.000000, 63.000000)"><g id="head" transform="translate(0.000000, 9.000100)" fill="#ffdbb4"><path d="M13,62 L58,62 L58,113.633 C58,127.538 47.926,138.81 35.5,138.81 C23.074,138.81 13,127.538 13,113.633 L13,62 Z" id="SKIN"/><path d="M60.0525,94 L55.0655,94 C31.8335,94 13.0005,75.167 13.0005,51.935 L13.0005,32.203 C13.0005,14.418 27.4175,0 45.2035,0 L50.7965,0 C68.5825,0 83.0005,14.418 83.0005,32.203 L83.0005,71.052 C83.0005,83.726 72.7265,94 60.0525,94" id="SKIN"/><path d="M25,58.5 C25,65.403 19.404,71 12.5,71 C5.596,71 0,65.403 0,58.5 C0,51.597 5.596,46 12.5,46 C19.404,46 25,51.597 25,58.5" id="SKIN"/></g><path d="M10.067,62.1685 C10.9718309,62.1685 12.2239875,62.3771928 13.5088204,63.0196092 C15.6553998,64.0928989 17.0130325,66.055328 17.10411,68.9021045 L17.109,69.2105 L14.109,69.2105 C14.109,67.3751144 13.4076866,66.3231443 12.1671796,65.7028908 C11.7065142,65.4725581 11.1976823,65.3199085 10.686339,65.2346846 C10.4347302,65.1927498 10.2385731,65.1747448 10.1250097,65.169908 L10.067,65.1685 L10.067,62.1685 Z" id="ear-line" fill="#000"/><path d="M34.7507501,105.331776 C25.4557924,102.043669 20.8185822,93.7387742 18.9822222,82.5681961 C26.2532122,94.6702724 39.4406226,102.813326 54.5439426,102.996833 L55.0655,103 L58,103 C50.0632106,107.229839 42.3134606,108.007098 34.7507501,105.331776 Z" id="SHADOW" fill="#000" opacity=".12"/><path d="M13,6 C13,2.6862915 15.6862915,0 19,0 L75.0605946,0 C78.3505445,0 81.0268922,2.64931904 81.0602855,5.93909942 L81.3043911,29.9874422 C81.3011548,29.9903978 81.3027734,29.9947366 81.3043911,29.9990758 L25.523517,29.9997374 L17.2669596,55.0001 L13,55.0001 L13,6 Z" id="Path" fill="#000"/></g></g></g><g id="Expression" transform="translate(409.000000, 34.000000) scale(1 1)" fill="#000"><g id="Expression/Awkward" stroke="none" stroke-width="1" fill="none" fill-rule="evenodd"><polygon id="Stroke-5" fill="#000" fill-rule="nonzero" points="33.1977829 19.396766 36.1476171 18.850434 40.4350211 41.9996 30.5607 41.9996 30.5607 38.9996 36.828 38.999"/><g id="Group-15" transform="translate(9.000000, 6.500000)"><path d="M33.0607,51.9865 L19.0077,51.9865 C14.0667,51.9865 10.0607,47.9805 10.0607,43.0385 L10.0607,41.9865 L33.0607,41.9865 L33.0607,51.9865 Z" id="Fill-1" fill="#FFF"/><path d="M34.5607,40.4865 L8.5607,40.4865 L8.5607,43.0385 C8.5607,48.8087466 13.2380923,53.4865 19.0077,53.4865 L34.5607,53.4865 L34.5607,40.4865 Z M31.56,50.486 L19.0077,50.4865 L18.7618924,50.482519 C15.0095669,50.3608054 11.9586846,47.4626121 11.59667,43.7751869 L11.574,43.486 L31.56,43.486 L31.56,50.486 Z" id="Stroke-3" fill="#000" fill-rule="nonzero"/><path d="M30.4134207,3.33831266 C31.825204,6.28460361 38.0669731,9.08597064 41.2092119,7.72921901 L41.3869997,7.64630304 L42.7344003,10.326697 C38.1172151,12.6476985 30.0909095,9.172101 27.8152217,4.84800985 L27.7079793,4.63468734 L30.4134207,3.33831266 Z" id="Stroke-5" fill="#000" fill-rule="nonzero"/><path d="M37.5607,15.4865 C37.5607,13.8295 36.2177,12.4865 34.5607,12.4865 C32.9037,12.4865 31.5607,13.8295 31.5607,15.4865 C31.5607,17.1435 32.9037,18.4865 34.5607,18.4865 C36.2177,18.4865 37.5607,17.1435 37.5607,15.4865" id="Fill-9" fill="#000"/><path d="M14.5607,15.4865 C14.5607,13.8295 13.2177,12.4865 11.5607,12.4865 C9.9037,12.4865 8.5607,13.8295 8.5607,15.4865 C8.5607,17.1435 9.9037,18.4865 11.5607,18.4865 C13.2177,18.4865 14.5607,17.1435 14.5607,15.4865" id="Fill-11" fill="#000"/><path d="M14.0607,0.0002 L14.0607,3.0002 C10.8342736,3.0002 7.89139387,3.86575287 5.2891644,5.31143591 C4.37835315,5.81744216 3.57765326,6.3584556 2.89641643,6.89627415 L2.50720319,7.21376583 C2.3601559,7.33818993 2.247969,7.43915159 2.17175673,7.5117787 L2.12136017,7.56086017 L3.98282209e-05,5.43953983 C0.717192882,4.72238677 2.01184841,3.7002903 3.8322356,2.68896409 C6.72358133,1.08266091 9.98945494,0.0892443055 13.5704367,0.00589674319 L14.0607,0.0002 Z" id="Stroke-13" fill="#000" fill-rule="nonzero"/></g></g></g><g id="Accessories" transform="translate(396.000000, 56.000000) scale(1 1)" fill="#000"><g id="Accessories/None" stroke="none" stroke-width="1" fill="none" fill-rule="evenodd" fill-opacity="0"/></g><g id="Glasses" transform="translate(388.000000, 42.000000) scale(1 1)" fill="#000"><g id="Glasses/None" stroke="none" stroke-width="1" fill="none" fill-rule="evenodd" fill-opacity="0"/></g></g></g><g transform="translate(1493.000000, 788.500000) scale(-1, 1) translate(-1493.000000, -788.500000) translate(1041.000000, 359.000000) scale(1 1)" id="Master/Character/Sitting"><g id="Master/Character/Sitting" stroke="none" stroke-width="1" fill="none" fill-rule="evenodd"><g id="Legs Sitting" transform="translate(317.000000, 266.000000) scale(1 1)"><g id="Legs Sitting/Red Shorts Straight" stroke="none" stroke-width="1" fill="none" fill-rule="evenodd"><g id="Group-16" transform="translate(84.000000, 1.000000)"><path d="M303.37194,414.958971 C303.37194,414.958971 240.397766,413.0201 240.397766,413.0201 C236.9886,412.92601 234.21758,412.908993 234.329184,409.227441 C236.223589,324.836008 241.247672,237.627858 228.341682,154.378527 C226.408168,143.868385 225.292129,138.407115 215.533941,133.577455 C180.39588,114.435985 141.467101,103.451385 103,92.5538699 L121.87823,16 C164.946846,28.0676446 208.373167,40.8850125 248.434201,62.3547295 C277.032464,77.2721239 294.121216,97.0802375 300.445438,130.365356 C314.543778,201.674164 312.02172,274.500437 311.478009,346.65306 C311.186121,365.917649 310.204579,392.329135 309.647514,411.738864 C309.541633,415.260262 306.783967,415.057066 303.37194,414.958971" id="Fill-1" fill="#964c1c"/><path d="M69.9977161,0 L51.5144603,91.8475674 C50.7536109,95.0963495 50.8553745,97.8862922 51.6961131,98.0728203 C89.1554943,98.2515682 126.5,98.2515682 164.581429,132 L179.858333,85.9714314 C176.845369,81.0119765 173.738251,76.0525217 170.543635,71.130971 C175.816321,69.3564597 181.119441,67.6597516 186.479624,66.0198997 L202,19.2571881 C170.066202,8.11836423 130.862065,0 114.550544,0 C114.550544,0 99.6996011,0 69.9977161,0 Z" id="Fill-3" fill="#CC2935"/><g id="Group-7" transform="translate(228.000000, 273.000000)" fill="#0A1B45"><path d="M89.6335908,118.4748 C90.8821754,79.4348 91.6690985,39.6858 91.3104523,0.5228 L3.36774462,1.4528 C3.96676,50.4358 2.05811385,100.0058 0.800944615,149.00001 L30.5323292,149.00001 C30.8966985,146.4878 31.4966677,143.7018 31.9821754,141.3058 L48.2204523,149.00001 C66.7470062,148.9978 104.502145,149.00001 122.893252,149.00001 C122.929498,146.7658 123.050637,141.9118 123.124083,139.6448 C123.369222,131.7268 98.5654062,127.9568 89.6335908,118.4748" id="Fill-5"/></g><path d="M188.069807,411.895882 C184.652528,411.800944 181.874913,411.762969 181.992519,408.096362 C184.293015,334.544374 181.713515,222.493121 175.947931,165.264183 C170.182348,108.035245 90.3599054,106.2414 51,93.8874639 L71.8287667,18 C115.004666,31.3263012 158.520954,45.4141053 198.41726,68.124281 C226.549098,83.6511458 243.341001,104.245703 249.260524,137.336103 C262.398022,206.106212 260.078403,276.240432 259.414835,345.756055 C259.10313,364.988501 258.078137,391.374277 257.485324,410.753627 C257.372499,414.27333 254.610182,414.05847 251.190034,413.955537 L188.069807,411.895882 Z" id="Fill-10" fill="#ae5d29"/><path d="M21.2910902,4.16199094 L0.0372395967,91.5874264 C-0.811929517,94.8307055 13.134867,97.3919435 13.9610856,97.5994733 C56.4519916,99.6354583 86.9098188,99.6354583 118.424611,114 L127.244303,88.5506745 C124.399395,83.5067991 121.44356,78.4950055 118.424611,73.4802043 C123.690798,71.8209688 129.000974,70.1978254 134.3494,68.6669174 L151,22.0609469 C138.637568,17.4117475 126.379212,13.1526005 114.115775,9.17135751 C101.616675,5.11360806 70.675113,3.4438192 21.2910902,4.16199094 Z" id="Fill-12" fill="#FA3239"/><path d="M265.112849,390.602493 C266.423951,351.680317 267.256898,312.048868 266.90115,273 L178.730267,273.930733 C179.342306,322.820625 177.329272,372.079619 176,420.994451 L205.808202,420.994451 C206.173513,418.431695 206.777901,415.694363 207.27327,413.270269 L223.542026,420.994451 C243.226724,420.975497 278.966921,421.033356 298.408716,420.967517 C298.417323,420.098634 298.464182,418.101499 298.489046,417.208674 C302.992313,402.155348 276.558931,402.47856 265.112849,390.602493" id="Fill-14" fill="#0A1B45"/></g><path d="M56,99 C25.072054,99 -4.00139793e-11,73.927946 -4.00177669e-11,43 L-4.00177669e-11,0 L199,0 C199,54.676 156.593865,99 104.283654,99 L56,99 Z" id="PELVIS-PLUS" fill="#FA3239"/></g></g><g id="Body" transform="translate(41.000000, -31.000000) scale(1 1)"><g id="Body/Bomber Jacket Shake Hand" stroke="none" stroke-width="1" fill="none" fill-rule="evenodd"><g id="Group-33" transform="translate(255.000000, 107.000000)"><path d="M233.1066,190.8684 L18.6256,190.8684 L18.6256,83.8064 C18.6256,60.3384 37.6506,41.3124 61.1196,41.3124 L190.6126,41.3124 C214.0816,41.3124 233.1066,60.3384 233.1066,83.8064 L233.1066,190.8684 Z" id="Fill-1" fill="#D7DBE2"/><path d="M164.6252,41.3128 C164.6252,57.8688 156.6252,78.8688 130.1252,78.8688 C98.6252,78.8688 85.6252,60.9498 85.6252,41.3128 L164.6252,41.3128 Z" id="SKIN" fill="#ae5d29"/><path d="M171.76,253.2786 C197.625,253.8686 219.625,251.8686 243.071,244.0246 C245.235,243.2996 247.075,241.9216 246.876,239.6466 L243.72,203.5596 C219.639,204.6066 194.491,209.2836 168.022,213.4326 C167.524,226.3526 167.016,238.2786 166.549,248.6256 C166.421,251.4756 168.907,253.2136 171.76,253.2786" id="Fill-5" fill="#CC2935"/><path d="M6.177,204.7112 L3.315,237.4342 C2.978,241.2802 5.308,244.8862 8.976,246.0912 C33.563,254.1692 68.777,258.3152 91.893,259.9352 C95.554,260.1912 98.775,257.5892 99.327,253.9602 C100.894,243.6732 102.024,232.2482 102.799,220.0972 C78.092,219.1352 33.268,214.8262 6.177,204.7112" id="Fill-7" fill="#CC2935"/><path d="M46.9885,43.1155 C29.4965,48.3785 16.7525,64.6005 16.7525,83.8065 L6.1765,204.7115 C33.2675,214.8265 78.0925,219.1355 102.7995,220.0965 C105.8515,172.1915 109.6255,75.8685 80.6255,60.8685 C80.6255,60.8685 59.6255,38.8685 46.9885,43.1155" id="Fill-9" fill="#FA3239"/><path d="M168.0217,213.4329 C195.6257,214.8689 218.6257,212.8689 243.7197,203.5599 L233.2457,83.8069 C233.2457,62.4119 217.4317,44.7179 196.8567,41.7559 C194.1897,52.1209 184.5207,55.3719 170.6257,61.8689 C171.2787,106.2699 169.7467,168.7459 168.0217,213.4329" id="Fill-11" fill="#FA3239"/><path d="M299.9426,270.2083 C301.3926,279.2023 299.0006,287.9523 293.6746,294.7473 C288.3776,301.5633 280.1296,306.3123 270.4916,307.2863 C249.3676,309.4113 227.9446,310.3293 206.1396,309.6133 C193.9126,309.1613 181.5566,308.1543 169.0676,306.3433 C156.5806,304.5023 143.9576,301.9583 131.2556,297.9783 C118.5766,294.0113 105.7996,288.7453 93.4696,281.4433 L91.1586,280.0913 C90.3886,279.6423 89.6176,279.1973 88.8686,278.6633 L84.3526,275.5773 C82.8566,274.5283 81.3446,273.5263 79.8756,272.4233 C78.4216,271.2863 76.9556,270.1593 75.5256,268.9953 C69.8246,264.3123 64.5356,259.1923 59.7246,253.7723 C50.0866,242.9263 42.3756,230.9643 36.2646,218.7553 C30.1466,206.5263 25.5726,194.0273 22.0536,181.5623 C18.5416,169.0883 16.0806,156.6273 14.3556,144.2483 C12.6366,131.8663 11.6456,119.5603 11.2386,107.3273 C10.8536,96.0193 14.7206,85.8213 20.9556,78.8763 C27.1986,71.8913 35.7556,68.1633 44.8376,68.7863 C53.9366,69.4093 61.8646,74.0443 67.5916,80.6043 C73.3246,87.2023 76.8826,95.7403 77.2016,105.1043 C77.8896,125.4183 80.4516,145.4223 85.5766,163.6493 C90.6776,181.8583 98.5166,198.1263 109.0586,209.9303 C111.6876,212.8933 114.4836,215.5853 117.4426,218.0153 L119.6946,219.7883 C120.4656,220.3633 121.3116,220.8833 122.1086,221.4433 L124.5176,223.1203 C124.8996,223.4173 125.3496,223.6613 125.7956,223.9093 L127.1196,224.6653 C134.0736,228.7943 142.1166,232.2213 150.8166,234.9433 C159.5096,237.6883 168.9276,239.6123 178.6006,241.0353 C188.2936,242.4403 198.3046,243.2783 208.4736,243.6553 C226.6496,244.2493 245.2816,243.4973 263.9516,241.6103 C272.4456,240.7503 280.5766,243.4693 287.0946,248.5443 C293.5916,253.6473 298.4926,261.2093 299.9426,270.2083" id="SKIN" fill="#ae5d29"/><path d="M323.2883,290.4251 C324.2643,295.3021 320.8153,300.0961 315.6053,301.0231 C292.9813,305.0341 270.2753,307.8251 247.1303,309.1121 C241.8053,309.4051 237.3323,305.5171 237.1723,300.5621 C237.0083,295.5811 241.0243,291.4211 246.1273,291.1421 C268.4483,289.9031 290.5213,287.1911 312.4393,283.3031 C317.4543,282.4111 322.3093,285.5561 323.2883,290.4251" id="SKIN" fill="#ae5d29"/><path d="M331.1877,272.4153 C332.3157,277.2553 329.0337,282.1403 323.9667,283.1573 C314.1417,285.1183 304.3377,286.8113 294.4807,288.2373 C291.9447,288.5933 289.5077,287.9173 287.6387,286.5343 C285.7657,285.1363 284.4587,283.0283 284.1417,280.5653 C283.8247,278.0993 284.5457,275.7433 285.9497,273.9193 C287.3517,272.0773 289.4337,270.7693 291.8907,270.4253 C301.4407,269.0443 310.9537,267.3993 320.4127,265.5113 C325.2527,264.5403 330.0537,267.5743 331.1877,272.4153" id="SKIN" fill="#ae5d29"/><path d="M329.4641,256.3899 C330.7391,261.2009 327.6621,266.0679 322.7711,267.0689 C313.2811,269.0209 303.7361,270.6749 294.1601,272.1109 C289.2191,272.8309 284.6891,269.3839 284.0481,264.4499 C283.4081,259.5259 286.7501,255.0009 291.5061,254.3069 C300.7731,252.9179 310.0341,251.3129 319.1331,249.4409 C323.8001,248.4859 328.3601,251.5479 329.4641,256.3899" id="SKIN" fill="#ae5d29"/><path d="M291.9397,238.054 C292.7117,242.958 289.5177,247.554 284.7877,248.196 C275.6187,249.46 266.4247,250.487 257.2427,251.266 C254.8787,251.445 251.8517,249.463 249.4657,247.352 C247.0767,245.244 245.3107,243.1 245.3107,243.1 C250.8987,242.753 248.4337,233.931 258.4777,233.099 C266.4167,232.382 274.3777,231.453 282.3227,230.365 C286.8687,229.749 291.1667,233.139 291.9397,238.054" id="SKIN" fill="#ae5d29"/><path d="M318.6428,242.3938 L318.6428,242.3938 C319.6798,247.2548 316.7028,252.0028 311.9398,252.8948 C296.0318,255.8618 279.9168,258.1898 263.8008,259.7088 C258.9778,260.2068 254.7638,256.4288 254.3928,251.4938 C254.0218,246.5158 257.4588,242.2708 262.0848,241.7908 C277.6298,240.3278 293.2648,238.0678 308.6038,235.2068 C313.1618,234.3538 317.6098,237.5328 318.6428,242.3938" id="SKIN" fill="#ae5d29"/><path d="M240.9701,315.4166 C230.0081,315.8786 218.9651,316.0446 207.7701,315.6606 C207.4411,315.8856 207.0731,316.1066 206.6701,316.3226 C206.2681,316.5386 205.8421,316.7496 205.2791,316.9526 C204.2031,317.3686 202.9451,317.6986 201.5391,318.0386 C200.1321,318.3686 198.5671,318.6746 196.8541,318.9566 C195.1421,319.2396 193.2821,319.5066 191.2551,319.6646 C187.2081,320.0036 182.6241,320.3276 177.4411,320.2396 C176.1501,320.2246 174.8281,320.2106 173.4771,320.1946 C172.1271,320.1786 170.7421,320.1416 169.3091,320.0396 C166.4541,319.8686 163.4811,319.6576 160.3981,319.4096 C147.9991,318.1656 133.5891,315.6936 117.6981,310.5296 C109.7701,307.9916 101.4571,304.5896 92.9951,300.4056 C91.9401,299.9236 90.8791,299.3426 89.8171,298.7436 C88.7571,298.1496 87.6931,297.5536 86.6271,296.9566 C84.4981,295.7376 82.3611,294.5616 80.2331,293.2416 C78.1091,291.8396 75.9861,290.4116 73.8651,288.9566 C72.8091,288.2246 71.7491,287.4916 70.6881,286.7566 C69.6291,286.0166 68.5961,285.1716 67.5511,284.3736 C63.3581,281.1566 59.4041,277.6286 55.5561,273.9816 C51.7971,270.2746 48.1271,266.4396 44.7911,262.4136 C38.0101,254.4016 32.2271,245.8346 27.3041,237.1356 C22.3531,228.4306 18.3911,219.5816 15.0571,210.8336 C11.7521,202.0806 9.1931,193.4246 7.1381,184.9896 C3.0911,168.1186 1.1481,152.1536 0.3911,137.6456 C-0.3709,123.1286 0.0531,110.0396 1.0411,98.7846 C0.8511,83.3646 6.5081,69.6316 15.2571,60.5206 C24.0011,51.3696 37.3171744,41.7559 55.5561,42.5711833 C73.7950256,43.3864666 74.4004745,44.7862767 81.6664745,53.5972767 C88.9214745,62.4402767 88.8861,85.6556 89.0351,97.7406 C90.6091,109.4856 92.4841,121.5576 94.9381,133.3016 C97.3711,145.0466 100.4171,156.4556 104.1501,166.6816 C105.9941,171.8146 108.0631,176.5826 110.2131,181.0166 C112.3881,185.4246 114.7061,189.4156 117.0921,193.0096 C119.5111,196.5576 121.9941,199.7086 124.5631,202.4986 C125.8751,203.8476 127.1561,205.1976 128.5181,206.3916 L129.5241,207.3116 L130.6471,208.1726 C131.3871,208.7536 132.1131,209.3486 132.8281,209.9606 C133.1621,210.2806 133.5821,210.5506 134.0031,210.8236 L135.2361,211.6606 C136.0531,212.2236 136.8561,212.8016 137.6551,213.3876 C139.4871,214.4086 141.1951,215.5266 143.0141,216.5756 C143.9751,217.0716 144.9271,217.5646 145.8711,218.0526 C146.3421,218.3056 146.8111,218.5566 147.2771,218.8066 C147.7401,219.0636 148.2021,219.3206 148.7191,219.5316 C150.7351,220.4526 152.7131,221.3566 154.6501,222.2416 C162.6401,225.7246 170.9961,228.3726 178.5011,230.6656 C186.0081,232.9976 192.8771,234.7226 198.3171,236.3906 C201.0551,237.1946 203.4791,237.9026 205.4811,238.6456 C206.4861,239.0046 207.3811,239.3916 208.1931,239.7116 C209.0031,240.0436 209.5471,240.3706 210.0861,240.6966 C219.1861,241.0166 228.4491,240.8786 237.7541,240.4856 L240.9701,315.4166 Z" id="Fill-28" fill="#FA3239"/><path d="M208.1359,315.6673 L210.4309,239.2023 C219.3929,239.5103 228.5179,239.3763 237.6899,238.9843 L240.9689,315.4143 C230.1289,315.8763 219.2049,316.0373 208.1359,315.6673" id="Fill-31" fill="#CC2935"/><path d="M74.6252,0.8684 C33.6252,5.8684 29.7282,40.6324 46.9882,44.1154 C60.6252,46.8684 69.3692,62.8764 81.3292,69.0254 C83.9972,70.3974 87.1392,68.2964 86.9302,65.3034 C86.8712,64.4554 86.8122,63.6124 86.7532,62.7764 C86.0962,53.5054 87.4822,41.6474 96.7762,41.7184 C113.4392,41.8424 138.3902,41.8234 154.4212,41.6824 C163.1172,41.6054 170.2802,49.5104 170.4912,58.2044 C170.5262,59.6314 170.5592,61.0754 170.5882,62.5334 C170.6462,65.4724 173.8332,67.2784 176.3842,65.8174 C187.1932,59.6264 194.5702,51.6394 196.8562,42.7564 C197.3522,40.8314 197.6252,38.8674 197.6252,36.8684 C197.6252,13.6724 116.2932,-4.2126 74.6252,0.8684" id="Fill-13" fill="#CC2935"/></g></g></g><g id="Head" transform="translate(362.000000, -61.000000) scale(1 1)"><g id="Head/Bun Loose" stroke="none" stroke-width="1" fill="none" fill-rule="evenodd"><path d="M19.8942067,117.942717 C35.0689622,108.732328 32.9604258,72.1921982 63.8973061,72.0022431 C94.8341863,71.812288 88.7696095,95.6352289 103.744793,123.886685 C118.719976,152.13814 118.547703,186 80.3488761,186 C64.6689057,186 56.7643904,186 35.4814563,186 C-6.85909555,186 -5.51021065,133.362047 19.8942067,117.942717 Z" id="Path-2" fill="#000"/><g id="Head" transform="translate(22.000000, 72.000000)"><g id="head" transform="translate(0.000000, 0.000100)" fill="#ae5d29"><path d="M13,62 L58,62 L58,113.633 C58,127.538 47.926,138.81 35.5,138.81 C23.074,138.81 13,127.538 13,113.633 L13,62 Z" id="SKIN"/><path d="M60.0525,94 L55.0655,94 C31.8335,94 13.0005,75.167 13.0005,51.935 L13.0005,32.203 C13.0005,14.418 27.4175,0 45.2035,0 L50.7965,0 C68.5825,0 83.0005,14.418 83.0005,32.203 L83.0005,71.052 C83.0005,83.726 72.7265,94 60.0525,94" id="SKIN"/><path d="M25,58.5 C25,65.403 19.404,71 12.5,71 C5.596,71 0,65.403 0,58.5 C0,51.597 5.596,46 12.5,46 C19.404,46 25,51.597 25,58.5" id="SKIN"/></g><path d="M10.067,53.1685 C10.9718309,53.1685 12.2239875,53.3771928 13.5088204,54.0196092 C15.6553998,55.0928989 17.0130325,57.055328 17.10411,59.9021045 L17.109,60.2105 L14.109,60.2105 C14.109,58.3751144 13.4076866,57.3231443 12.1671796,56.7028908 C11.7065142,56.4725581 11.1976823,56.3199085 10.686339,56.2346846 C10.4347302,56.1927498 10.2385731,56.1747448 10.1250097,56.169908 L10.067,56.1685 L10.067,53.1685 Z" id="ear-line" fill="#000"/><path d="M34.7507501,96.3317762 C25.4557924,93.0436693 20.8185822,84.7387742 18.9822222,73.5681961 C26.2532122,85.6702724 39.4406226,93.8133264 54.5439426,93.9968331 L55.0655,94 L58,94 C50.0632106,98.2298391 42.3134606,99.0070978 34.7507501,96.3317762 Z" id="SHADOW" fill="#000" opacity=".12"/></g><path d="M98.9633414,86.1752648 C93.1795162,77.6229815 83.3848925,72 72.2749907,72 L66.6840596,72 C48.9088165,72 34.4987262,86.3949125 34.4987262,104.151433 C34.4987262,104.151433 34.0149918,114.587695 34,117.92634 C34,118.092075 39.4959832,117.92634 39.4959832,117.92634 L46.9918687,89.5897548 C82.9972896,89.5897548 101,89.5897548 101,89.5897548 C100.614109,88.789837 99.9352229,87.6516737 98.9633414,86.1752648 Z" id="Fill-10" fill="#000"/><circle id="Oval" fill="#000" cx="55" cy="53" r="25"/><path d="M72.8086245,72 C89.5888073,72 103.384617,84.7181817 104.999901,100.998998 L35.0000994,100.998998 C36.6152758,84.7181817 50.4101988,72 67.1903817,72 L72.8086245,72 Z" id="Combined-Shape" fill="#000"/></g></g><g id="Expression" transform="translate(409.000000, 34.000000) scale(1 1)" fill="#000"><g id="Expression/Happy" stroke="none" stroke-width="1" fill="none" fill-rule="evenodd"><path d="M20.5607,22 C20.5607,20.343 19.2177,19 17.5607,19 C15.9037,19 14.5607,20.343 14.5607,22 C14.5607,23.657 15.9037,25 17.5607,25 C19.2177,25 20.5607,23.657 20.5607,22" id="Fill-1" fill="#000"/><path d="M46.5607,22 C46.5607,20.343 45.2177,19 43.5607,19 C41.9037,19 40.5607,20.343 40.5607,22 C40.5607,23.657 41.9037,25 43.5607,25 C45.2177,25 46.5607,23.657 46.5607,22" id="Fill-3" fill="#000"/><polygon id="Stroke-5" fill="#000" points="33.1977829 19.396766 36.1476171 18.850434 40.4350211 41.9996 30.5607 41.9996 30.5607 38.9996 36.828 38.999"/><path d="M21.9219,41.586 C21.9219,45.2602625 25.6639817,48.6581933 29.6815435,48.7900329 L29.9229,48.794 L29.9229,51.794 C24.3252295,51.794 19.0961019,47.2280163 18.9261594,41.8552911 L18.9219,41.586 L21.9219,41.586 Z" id="Stroke-7" fill="#000"/><path d="M23.0607,9 L23.0607,12 C19.8342736,12 16.8913939,12.8655529 14.2891644,14.3112359 C13.508469,14.7449556 12.8086718,15.2043948 12.1956619,15.6654963 L11.8964164,15.8960741 C11.548672,16.1706093 11.3051282,16.3844813 11.1717567,16.5115787 L11.1213602,16.5606602 L9.00003983,14.4393398 C9.71719288,13.7221868 11.0118484,12.7000903 12.8322356,11.6887641 C15.7235813,10.0824609 18.9894549,9.08904431 22.5704367,9.00569674 L23.0607,9 Z" id="Stroke-9" fill="#000"/><path d="M37.0607,9 C40.8342736,9 44.2663939,10.0094471 47.2891644,11.6887641 C48.9957774,12.6368824 50.2403215,13.5944668 50.980139,14.3013772 L51.1213602,14.4393398 L49.0000398,16.5606602 L48.8084832,16.3819961 C48.6965748,16.2822525 48.549249,16.1566104 48.3676199,16.0099419 L48.2249836,15.8960741 C47.5437467,15.3582556 46.7430469,14.8172422 45.8322356,14.3112359 C43.3601176,12.937837 40.5805627,12.0880056 37.5425302,12.006456 L37.0607,12 L37.0607,9 Z" id="Stroke-11" fill="#000"/></g></g><g id="Accessories" transform="translate(396.000000, 56.000000) scale(1 1)" fill="#000"><g id="Accessories/None" stroke="none" stroke-width="1" fill="none" fill-rule="evenodd" fill-opacity="0"/></g><g id="Glasses" transform="translate(388.000000, 42.000000) scale(1 1)" fill="#000"><g id="Glasses/None" stroke="none" stroke-width="1" fill="none" fill-rule="evenodd" fill-opacity="0"/></g></g></g></g></svg>