<svg viewBox="237.625 147.15662650602394 1544.5625000000002 1447.831325301205" fill="none" xmlns="http://www.w3.org/2000/svg" xmlns:xlink="http://www.w3.org/1999/xlink" overflow="visible" width="1544.5625000000002px" height="1447.831325301205px"><g id="Master/Compositions/Stats and Graphs"><g id="Background Elements Office" transform="translate(173 152) scale(1 1)"><g id="Background Elements Office/Whiteboard"><g id="Wall Elements Office"><g id="Whiteboard"><path id="Fill 2" fill-rule="evenodd" clip-rule="evenodd" d="M1488.36 54H846.064C813.996 54 788 79.996 788 112.063V456.048V525.19V927.237H1132.64H1201.79H1546.43V525.19V456.048V112.064C1546.43 79.996 1520.43 54 1488.36 54" fill="white"/><path id="Fill 2 Copy" fill-rule="evenodd" clip-rule="evenodd" d="M1551.6 109.579C1551.07 77.1366 1524.61 50.9998 1492.04 50.9998H849.744L848.759 51.0077C816.317 51.5337 790.18 77.9961 790.18 110.563V927.237H1551.61V110.564L1551.6 109.579ZM849.744 53.9998H1492.04L1492.98 54.0073C1523.79 54.5068 1548.61 79.6366 1548.61 110.564L1548.61 924.236H793.179L793.18 110.563L793.187 109.627C793.687 78.8201 818.817 53.9998 849.744 53.9998Z" fill="black"/><path id="Fill 6" fill-rule="evenodd" clip-rule="evenodd" d="M1526.92 901.267H814.87C779.319 901.267 750.5 902.213 750.5 903.379V915.894V918.409V930.923C750.5 932.089 779.319 933.036 814.87 933.036H1132.57H1209.22H1526.92C1562.47 933.036 1591.29 932.089 1591.29 930.923V918.409V915.894V903.379C1591.29 902.213 1562.47 901.267 1526.92 901.267" fill="white"/><path id="Fill 6 Copy" fill-rule="evenodd" clip-rule="evenodd" d="M1571.71 900.362C1560.04 899.991 1544.56 899.777 1528.02 899.768L812.665 899.768C796.177 899.787 780.806 900.009 769.304 900.387L764.556 900.549C751.513 901.019 749 901.411 749 903.379V930.923L749.004 931.052C749.126 933.057 752.247 933.346 767.794 933.866L772.461 934.013C783.548 934.332 797.644 934.518 812.665 934.535H1529.12C1545.61 934.517 1560.98 934.294 1572.48 933.916L1577.23 933.754C1590.27 933.284 1592.79 932.892 1592.79 930.923V903.379L1592.78 903.25C1592.67 901.414 1590.05 901.017 1577.66 900.564L1571.71 900.362ZM813.768 902.768L1526.92 902.767L1532.39 902.775C1546.88 902.815 1560.34 903.014 1570.83 903.336L1573.01 903.406C1578.15 903.579 1582.35 903.781 1585.4 904L1586.48 904.082C1587.67 904.178 1588.63 904.277 1589.34 904.376L1589.79 904.442V929.86L1589.34 929.927C1588.56 930.036 1587.47 930.144 1586.11 930.25L1585.03 930.329C1582.14 930.53 1578.28 930.714 1573.62 930.876L1570.83 930.967C1559.55 931.314 1544.84 931.518 1529.12 931.535H812.669C797.309 931.518 782.922 931.323 771.747 930.991L768.781 930.897C763.224 930.71 758.768 930.49 755.674 930.25L754.961 930.192C753.932 930.105 753.089 930.016 752.445 929.927L752 929.86V904.442L752.238 904.405C752.837 904.316 753.637 904.227 754.625 904.14L755.674 904.053C758.882 903.804 763.556 903.577 769.403 903.385L772.55 903.289C782.797 902.994 795.631 902.813 809.393 902.775L813.768 902.768Z" fill="black"/><g id="grid"><path id="Fill 14" fill-rule="evenodd" clip-rule="evenodd" d="M926.984 493.267H1004.95V425.874H926.984V493.267ZM922.984 497.267H1008.95V421.874H922.984V497.267Z" fill="black"/><path id="Fill 16" fill-rule="evenodd" clip-rule="evenodd" d="M1008.95 493.267H1086.92V425.874H1008.95V493.267ZM1004.95 497.267H1090.92V421.874H1004.95V497.267Z" fill="black"/><path id="Fill 17" fill-rule="evenodd" clip-rule="evenodd" d="M1090.92 493.267H1168.89V425.874H1090.92V493.267ZM1086.92 497.267H1172.89V421.874H1086.92V497.267Z" fill="black"/><path id="Fill 18" fill-rule="evenodd" clip-rule="evenodd" d="M1172.89 493.267H1250.86V425.874H1172.89V493.267ZM1168.89 497.267H1254.86V421.874H1168.89V497.267Z" fill="black"/><path id="Fill 19" fill-rule="evenodd" clip-rule="evenodd" d="M1254.86 493.267H1332.83V425.874H1254.86V493.267ZM1250.86 497.267H1336.83V421.874H1250.86V497.267Z" fill="black"/><path id="Fill 20" fill-rule="evenodd" clip-rule="evenodd" d="M1336.83 493.267H1414.8V425.874H1336.83V493.267ZM1332.83 497.267H1418.8V421.874H1332.83V497.267Z" fill="black"/><path id="Fill 21" fill-rule="evenodd" clip-rule="evenodd" d="M926.984 421.874H1004.95V354.48H926.984V421.874ZM922.984 425.874H1008.95V350.48H922.984V425.874Z" fill="black"/><path id="Fill 22" fill-rule="evenodd" clip-rule="evenodd" d="M1008.95 421.874H1086.92V354.48H1008.95V421.874ZM1004.95 425.874H1090.92V350.48H1004.95V425.874Z" fill="black"/><path id="Fill 23" fill-rule="evenodd" clip-rule="evenodd" d="M1090.92 421.874H1168.89V354.48H1090.92V421.874ZM1086.92 425.874H1172.89V350.48H1086.92V425.874Z" fill="black"/><path id="Fill 24" fill-rule="evenodd" clip-rule="evenodd" d="M1172.89 421.874H1250.86V354.48H1172.89V421.874ZM1168.89 425.874H1254.86V350.48H1168.89V425.874Z" fill="black"/><path id="Fill 25" fill-rule="evenodd" clip-rule="evenodd" d="M1254.86 421.874H1332.83V354.48H1254.86V421.874ZM1250.86 425.874H1336.83V350.48H1250.86V425.874Z" fill="black"/><path id="Fill 26" fill-rule="evenodd" clip-rule="evenodd" d="M1336.83 421.874H1414.8V354.48H1336.83V421.874ZM1332.83 425.874H1418.8V350.48H1332.83V425.874Z" fill="black"/><path id="Fill 27" fill-rule="evenodd" clip-rule="evenodd" d="M926.984 350.48H1004.95V283.087H926.984V350.48ZM922.984 354.48H1008.95V279.087H922.984V354.48Z" fill="black"/><path id="Fill 28" fill-rule="evenodd" clip-rule="evenodd" d="M1008.95 350.48H1086.92V283.087H1008.95V350.48ZM1004.95 354.48H1090.92V279.087H1004.95V354.48Z" fill="black"/><path id="Fill 29" fill-rule="evenodd" clip-rule="evenodd" d="M1090.92 350.48H1168.89V283.087H1090.92V350.48ZM1086.92 354.48H1172.89V279.087H1086.92V354.48Z" fill="black"/><path id="Fill 30" fill-rule="evenodd" clip-rule="evenodd" d="M1172.89 350.48H1250.86V283.087H1172.89V350.48ZM1168.89 354.48H1254.86V279.087H1168.89V354.48Z" fill="black"/><path id="Fill 31" fill-rule="evenodd" clip-rule="evenodd" d="M1254.86 350.48H1332.83V283.087H1254.86V350.48ZM1250.86 354.48H1336.83V279.087H1250.86V354.48Z" fill="black"/><path id="Fill 32" fill-rule="evenodd" clip-rule="evenodd" d="M1336.83 350.48H1414.8V283.087H1336.83V350.48ZM1332.83 354.48H1418.8V279.087H1332.83V354.48Z" fill="black"/><path id="Fill 33" fill-rule="evenodd" clip-rule="evenodd" d="M926.984 279.088H1004.95V211.694H926.984V279.088ZM922.984 283.088H1008.95V207.694H922.984V283.088Z" fill="black"/><path id="Fill 34" fill-rule="evenodd" clip-rule="evenodd" d="M1008.95 279.088H1086.92V211.694H1008.95V279.088ZM1004.95 283.088H1090.92V207.694H1004.95V283.088Z" fill="black"/><path id="Fill 35" fill-rule="evenodd" clip-rule="evenodd" d="M1090.92 279.088H1168.89V211.694H1090.92V279.088ZM1086.92 283.088H1172.89V207.694H1086.92V283.088Z" fill="black"/><path id="Fill 36" fill-rule="evenodd" clip-rule="evenodd" d="M1172.89 279.088H1250.86V211.694H1172.89V279.088ZM1168.89 283.088H1254.86V207.694H1168.89V283.088Z" fill="black"/><path id="Fill 37" fill-rule="evenodd" clip-rule="evenodd" d="M1254.86 279.088H1332.83V211.694H1254.86V279.088ZM1250.86 283.088H1336.83V207.694H1250.86V283.088Z" fill="black"/><path id="Fill 38" fill-rule="evenodd" clip-rule="evenodd" d="M1336.83 279.088H1414.8V211.694H1336.83V279.088ZM1332.83 283.088H1418.8V207.694H1332.83V283.088Z" fill="black"/><path id="Fill 39" fill-rule="evenodd" clip-rule="evenodd" d="M926.984 207.694H1004.95V140.301H926.984V207.694ZM922.984 211.694H1008.95V136.301H922.984V211.694Z" fill="black"/><path id="Fill 40" fill-rule="evenodd" clip-rule="evenodd" d="M1008.95 207.694H1086.92V140.301H1008.95V207.694ZM1004.95 211.694H1090.92V136.301H1004.95V211.694Z" fill="black"/><path id="Fill 41" fill-rule="evenodd" clip-rule="evenodd" d="M1090.92 207.694H1168.89V140.301H1090.92V207.694ZM1086.92 211.694H1172.89V136.301H1086.92V211.694Z" fill="black"/><path id="Fill 42" fill-rule="evenodd" clip-rule="evenodd" d="M1172.89 207.694H1250.86V140.301H1172.89V207.694ZM1168.89 211.694H1254.86V136.301H1168.89V211.694Z" fill="black"/><path id="Fill 43" fill-rule="evenodd" clip-rule="evenodd" d="M1254.86 207.694H1332.83V140.301H1254.86V207.694ZM1250.86 211.694H1336.83V136.301H1250.86V211.694Z" fill="black"/><path id="Fill 44" fill-rule="evenodd" clip-rule="evenodd" d="M1336.83 207.694H1414.8V140.301H1336.83V207.694ZM1332.83 211.694H1418.8V136.301H1332.83V211.694Z" fill="black"/></g><path id="Fill 45" fill-rule="evenodd" clip-rule="evenodd" d="M924.986 492.618C924.009 492.618 923.038 492.211 922.345 491.416C921.076 489.959 921.229 487.748 922.686 486.478L1120.61 314.144C1121.93 312.998 1123.89 312.997 1125.2 314.143L1204.91 383.487L1291.49 304.337C1292.22 303.664 1293.21 303.336 1294.2 303.437C1295.19 303.536 1296.09 304.053 1296.68 304.856L1307.69 319.936L1362.88 229.472C1363.89 227.82 1366.05 227.301 1367.7 228.307C1369.34 229.314 1369.87 231.468 1368.86 233.118L1310.93 328.052C1310.33 329.049 1309.26 329.677 1308.09 329.725C1306.94 329.774 1305.81 329.236 1305.12 328.292L1293.33 312.139L1207.33 390.76C1206.02 391.96 1204.01 391.983 1202.67 390.817L1122.91 321.424L927.283 491.758C926.621 492.335 925.801 492.618 924.986 492.618" fill="black"/><path id="Fill 46" fill-rule="evenodd" clip-rule="evenodd" d="M1105.5 626.743C1121.64 644.962 1131.45 668.932 1131.45 695.193C1131.45 752.207 1085.23 798.427 1028.22 798.427C971.204 798.427 924.984 752.207 924.984 695.193C924.984 638.179 971.204 591.96 1028.22 591.96V695.193L1105.5 626.743Z" fill="black"/><path id="Fill 47" fill-rule="evenodd" clip-rule="evenodd" d="M1416.8 628.989H1170.89C1169.79 628.989 1168.89 628.093 1168.89 626.989C1168.89 625.885 1169.79 624.989 1170.89 624.989H1416.8C1417.91 624.989 1418.8 625.885 1418.8 626.989C1418.8 628.093 1417.91 628.989 1416.8 628.989" fill="black"/><path id="Fill 48" fill-rule="evenodd" clip-rule="evenodd" d="M1416.8 674.459H1170.89C1169.79 674.459 1168.89 673.563 1168.89 672.459C1168.89 671.355 1169.79 670.459 1170.89 670.459H1416.8C1417.91 670.459 1418.8 671.355 1418.8 672.459C1418.8 673.563 1417.91 674.459 1416.8 674.459" fill="black"/><path id="Fill 49" fill-rule="evenodd" clip-rule="evenodd" d="M1416.8 719.927H1170.89C1169.79 719.927 1168.89 719.031 1168.89 717.927C1168.89 716.823 1169.79 715.927 1170.89 715.927H1416.8C1417.91 715.927 1418.8 716.823 1418.8 717.927C1418.8 719.031 1417.91 719.927 1416.8 719.927" fill="black"/><path id="Fill 50" fill-rule="evenodd" clip-rule="evenodd" d="M1416.8 765.397H1170.89C1169.79 765.397 1168.89 764.501 1168.89 763.397C1168.89 762.293 1169.79 761.397 1170.89 761.397H1416.8C1417.91 761.397 1418.8 762.293 1418.8 763.397C1418.8 764.501 1417.91 765.397 1416.8 765.397" fill="black"/></g></g><g id="Tall Vase Plant"><g id="Big Plant 2"><path id="Fill 57" fill-rule="evenodd" clip-rule="evenodd" d="M1213.88 1318.09C1175.65 1220.86 1153.21 1099.29 1052.61 1047.71C1019.31 1030.2 982.609 1021.7 946.64 1011.31C999.923 977.932 1070.6 974.976 1126.36 1004.5C1234.53 1062.33 1264.12 1212.58 1213.88 1318.09" fill="white"/><path id="Fill 58" fill-rule="evenodd" clip-rule="evenodd" d="M950.329 1010.81C955.498 1012.29 960.715 1013.74 965.789 1015.15C995.214 1023.36 1025.64 1031.84 1053.31 1046.38C1135.18 1088.36 1165.31 1175.51 1194.43 1259.79C1200.99 1278.76 1207.21 1296.74 1214.01 1314.28C1237.42 1263.08 1242.56 1201.16 1228.07 1143.79C1212.41 1081.76 1176.04 1032.76 1125.65 1005.83C1071.53 977.166 1003.1 979.207 950.329 1010.81V1010.81ZM1213.75 1321.85L1212.49 1318.64C1205.16 1300.01 1198.27 1280.06 1191.6 1260.77C1162.66 1177.05 1132.74 1090.48 1051.93 1049.05C1024.53 1034.64 994.257 1026.2 964.983 1018.04C958.829 1016.33 952.464 1014.55 946.224 1012.75L943 1011.82L945.844 1010.04C999.88 976.19 1071.01 973.497 1127.06 1003.18C1178.2 1030.52 1215.11 1080.19 1230.98 1143.05C1245.93 1202.28 1240.2 1266.32 1215.24 1318.73L1213.75 1321.85Z" fill="black"/><path id="Fill 61" fill-rule="evenodd" clip-rule="evenodd" d="M1245.04 1315.57C1236.65 1240.37 1219.51 1177.6 1194.12 1129.01C1172.9 1088.42 1145.69 1057.25 1113.26 1036.38C1071.77 1009.68 1028.83 1004.68 1000.11 1005.17C968.944 1005.71 947.321 1012.67 947.106 1012.74L946.173 1009.89C946.391 1009.81 968.353 1002.73 999.937 1002.17C1029.11 1001.66 1072.69 1006.72 1114.84 1033.83C1147.73 1054.98 1175.29 1086.53 1196.76 1127.59C1222.34 1176.52 1239.59 1239.65 1248.02 1315.24L1245.04 1315.57Z" fill="black"/><path id="Fill 51" fill-rule="evenodd" clip-rule="evenodd" d="M1425.77 1249.13C1420.61 1247.41 1415.89 1245.93 1411.32 1244.56C1406.71 1243.27 1402.38 1242.02 1398.12 1241.09C1389.68 1239.09 1381.82 1238.04 1374.69 1237.64C1367.52 1237.28 1361.05 1237.7 1354.86 1238.72C1348.68 1239.7 1342.67 1241.32 1336.42 1243.54C1335.64 1243.82 1334.84 1243.94 1334.06 1244.32L1331.69 1245.29C1330.09 1245.89 1328.48 1246.39 1326.87 1247.22C1325.24 1247.92 1323.62 1248.65 1321.94 1249.3C1320.28 1250.1 1318.64 1250.98 1316.92 1251.73C1316.07 1252.12 1315.21 1252.49 1314.36 1252.9L1311.79 1254.26C1310.08 1255.18 1308.31 1256.02 1306.52 1256.89L1301.19 1259.8L1298.44 1261.22L1297.04 1261.93L1295.67 1262.71C1293.86 1263.78 1291.97 1264.78 1290.08 1265.82L1287.17 1267.32C1286.21 1267.83 1285.26 1268.4 1284.3 1268.94C1282.38 1270.05 1280.39 1271.11 1278.38 1272.17C1277.36 1272.69 1276.36 1273.23 1275.31 1273.74C1274.28 1274.27 1273.31 1274.87 1272.27 1275.42C1270.22 1276.53 1268.13 1277.63 1265.98 1278.71C1263.84 1279.8 1261.57 1280.81 1259.39 1281.93C1254.98 1284.16 1250.37 1286.31 1245.16 1288.16C1245.53 1282.75 1246.49 1277.64 1247.66 1272.6C1248.18 1270.04 1249 1267.65 1249.79 1265.22C1250.59 1262.8 1251.46 1260.41 1252.36 1258.03C1252.82 1256.84 1253.28 1255.66 1253.79 1254.49C1254.31 1253.34 1254.88 1252.21 1255.43 1251.07C1256.55 1248.79 1257.7 1246.52 1258.92 1244.29C1259.54 1243.18 1260.1 1242.02 1260.79 1240.95L1262.86 1237.73C1264.29 1235.61 1265.72 1233.46 1267.23 1231.38L1268.35 1229.8C1268.75 1229.29 1269.17 1228.79 1269.58 1228.29L1272.09 1225.3C1273.81 1223.34 1275.5 1221.34 1277.31 1219.44C1279.22 1217.6 1281.14 1215.74 1283.13 1213.96L1286.11 1211.27C1287.17 1210.43 1288.27 1209.62 1289.35 1208.79C1291.52 1207.12 1293.75 1205.55 1295.99 1203.95C1298.37 1202.48 1300.8 1201.09 1303.23 1199.67C1305.61 1198.23 1308.28 1197.1 1310.88 1195.89C1313.52 1194.75 1316.12 1193.57 1318.96 1192.71L1323.16 1191.38C1324.56 1190.95 1325.94 1190.47 1327.42 1190.2C1330.35 1189.61 1333.26 1188.94 1336.21 1188.48C1339.22 1188.18 1342.22 1187.84 1345.23 1187.67C1348.27 1187.63 1351.31 1187.67 1354.33 1187.8C1357.35 1188.03 1360.37 1188.46 1363.35 1188.89C1366.32 1189.45 1369.25 1190.22 1372.14 1190.94C1373.57 1191.39 1374.97 1191.89 1376.38 1192.38C1377.77 1192.9 1379.2 1193.31 1380.54 1193.93C1383.21 1195.19 1385.93 1196.29 1388.43 1197.78C1390.95 1199.21 1393.43 1200.67 1395.72 1202.36L1399.15 1204.87C1400.24 1205.76 1401.3 1206.7 1402.35 1207.61C1403.41 1208.51 1404.45 1209.43 1405.41 1210.44C1406.39 1211.42 1407.36 1212.4 1408.29 1213.41C1409.22 1214.41 1410.1 1215.46 1410.97 1216.52C1411.82 1217.58 1412.7 1218.6 1413.47 1219.73C1414.25 1220.85 1415.05 1221.92 1415.79 1223.05C1416.51 1224.19 1417.22 1225.33 1417.89 1226.49C1418.58 1227.63 1419.19 1228.83 1419.8 1230.02C1420.42 1231.2 1420.97 1232.42 1421.49 1233.66C1423.59 1238.55 1425.27 1243.66 1425.77 1249.13" fill="white"/><path id="Fill 52" fill-rule="evenodd" clip-rule="evenodd" d="M1347.29 1189.15C1346.61 1189.15 1345.93 1189.16 1345.24 1189.17C1342.96 1189.3 1340.54 1189.55 1338.21 1189.79L1336.36 1189.97C1334.28 1190.3 1332.1 1190.76 1329.98 1191.2C1329.23 1191.36 1328.48 1191.52 1327.72 1191.67C1326.62 1191.87 1325.6 1192.19 1324.51 1192.53L1319.41 1194.14C1316.98 1194.88 1314.77 1195.84 1312.43 1196.86L1310.06 1197.92C1308 1198.86 1305.87 1199.83 1304 1200.96L1302.22 1201.99C1300.43 1203.04 1298.57 1204.12 1296.78 1205.23L1295.85 1205.89C1294 1207.21 1292.09 1208.57 1290.27 1209.97L1289.24 1210.76C1288.5 1211.32 1287.76 1211.87 1287.05 1212.44L1284.14 1215.08C1282.3 1216.72 1280.49 1218.46 1278.74 1220.14L1278.35 1220.52C1276.98 1221.97 1275.6 1223.55 1274.27 1225.09L1273.22 1226.29L1270.59 1229.42C1270.23 1229.85 1269.87 1230.28 1269.53 1230.72L1268.45 1232.25C1267.2 1233.97 1265.99 1235.76 1264.82 1237.5L1264.11 1238.57L1262.05 1241.76C1261.62 1242.43 1261.24 1243.14 1260.84 1243.89C1260.64 1244.27 1260.43 1244.65 1260.23 1245.02C1258.92 1247.41 1257.69 1249.86 1256.77 1251.73L1256.22 1252.86C1255.86 1253.61 1255.5 1254.35 1255.16 1255.11C1254.69 1256.18 1254.26 1257.27 1253.76 1258.57C1252.78 1261.15 1251.94 1263.48 1251.21 1265.69L1250.98 1266.4C1250.26 1268.6 1249.58 1270.67 1249.13 1272.9C1247.96 1277.92 1247.24 1282.03 1246.85 1285.93C1251.53 1284.14 1255.59 1282.17 1258.71 1280.59C1259.85 1280.01 1261.01 1279.45 1262.17 1278.9C1263.23 1278.39 1264.27 1277.89 1265.29 1277.37C1267.23 1276.41 1269.27 1275.34 1271.56 1274.1C1272.04 1273.84 1272.49 1273.59 1272.94 1273.33C1273.5 1273.02 1274.06 1272.7 1274.63 1272.41C1275.3 1272.08 1275.93 1271.75 1276.56 1271.42C1276.94 1271.22 1277.32 1271.03 1277.7 1270.83C1279.58 1269.84 1281.61 1268.76 1283.55 1267.64C1283.94 1267.42 1284.32 1267.2 1284.7 1266.99C1285.29 1266.65 1285.87 1266.31 1286.46 1266L1290.69 1263.77C1292.09 1263.01 1293.55 1262.22 1294.91 1261.42L1296.29 1260.62L1300.5 1258.47L1306.42 1255.27C1308.04 1254.49 1309.58 1253.75 1311.08 1252.94L1313.65 1251.58C1314.23 1251.3 1314.77 1251.06 1315.3 1250.82C1315.63 1250.67 1315.96 1250.52 1316.29 1250.37C1317.44 1249.86 1318.56 1249.3 1319.64 1248.76C1320.19 1248.49 1320.73 1248.22 1321.28 1247.95L1321.4 1247.9C1322.63 1247.42 1323.87 1246.88 1325.06 1246.37L1326.23 1245.86C1327.5 1245.21 1328.75 1244.76 1329.97 1244.32C1330.37 1244.18 1330.77 1244.04 1331.16 1243.89L1333.49 1242.93C1334 1242.68 1334.57 1242.52 1335.09 1242.38C1335.36 1242.3 1335.63 1242.23 1335.9 1242.13C1342.53 1239.78 1348.65 1238.18 1354.63 1237.24C1361.23 1236.15 1367.81 1235.79 1374.76 1236.15C1382.61 1236.59 1390.58 1237.76 1398.47 1239.63C1402.35 1240.48 1406.29 1241.59 1410.45 1242.76L1411.73 1243.11C1415.87 1244.35 1419.9 1245.62 1423.99 1246.96C1423.38 1243.04 1422.13 1238.94 1420.11 1234.26C1419.51 1232.82 1418.99 1231.71 1418.47 1230.72C1417.85 1229.5 1417.26 1228.34 1416.61 1227.27C1415.94 1226.12 1415.27 1225.04 1414.52 1223.84C1414.02 1223.09 1413.47 1222.32 1412.92 1221.55L1412.24 1220.6C1411.67 1219.75 1411.05 1218.99 1410.39 1218.19L1409.8 1217.46C1408.99 1216.47 1408.11 1215.41 1407.19 1214.43C1406.26 1213.42 1405.29 1212.44 1404.35 1211.5C1403.39 1210.49 1402.35 1209.58 1401.38 1208.75L1400.49 1207.98C1399.74 1207.33 1398.98 1206.67 1398.2 1206.03L1394.84 1203.57C1392.54 1201.88 1390.05 1200.42 1387.68 1199.08C1385.88 1198.01 1384 1197.15 1382 1196.25C1381.3 1195.94 1380.6 1195.62 1379.9 1195.29C1379.07 1194.9 1378.18 1194.6 1377.25 1194.28C1376.78 1194.12 1376.32 1193.96 1375.86 1193.78L1374.85 1193.44C1373.8 1193.07 1372.75 1192.7 1371.68 1192.37L1370.45 1192.06C1368.04 1191.45 1365.55 1190.83 1363.07 1190.37C1359.95 1189.92 1357.09 1189.52 1354.21 1189.3C1352.03 1189.2 1349.7 1189.15 1347.29 1189.15V1189.15ZM1243.51 1290.34L1243.66 1288.06C1243.99 1283.27 1244.77 1278.4 1246.2 1272.26C1246.68 1269.9 1247.42 1267.65 1248.13 1265.47L1248.36 1264.76C1249.11 1262.5 1249.96 1260.12 1250.96 1257.5C1251.41 1256.34 1251.89 1255.1 1252.41 1253.9C1252.78 1253.09 1253.15 1252.32 1253.53 1251.55L1254.07 1250.42C1255.01 1248.51 1256.26 1246.02 1257.6 1243.57C1257.81 1243.2 1258 1242.84 1258.19 1242.48C1258.6 1241.71 1259.03 1240.91 1259.53 1240.14L1262.33 1235.83C1263.52 1234.07 1264.74 1232.25 1266.01 1230.5L1267.13 1228.93C1267.53 1228.41 1267.91 1227.95 1268.29 1227.5L1272 1223.12C1273.36 1221.56 1274.76 1219.95 1276.22 1218.4L1276.66 1217.98C1278.43 1216.28 1280.26 1214.52 1282.13 1212.85L1285.11 1210.16C1285.91 1209.51 1286.67 1208.94 1287.43 1208.37L1288.44 1207.59C1290.3 1206.16 1292.24 1204.78 1294.11 1203.45L1295.12 1202.73C1297.02 1201.55 1298.9 1200.45 1300.72 1199.4L1302.47 1198.38C1304.47 1197.17 1306.68 1196.16 1308.81 1195.19L1311.23 1194.11C1313.55 1193.1 1315.94 1192.05 1318.52 1191.27L1323.61 1189.67C1324.74 1189.32 1325.9 1188.95 1327.16 1188.72C1327.87 1188.58 1328.62 1188.42 1329.37 1188.26C1331.52 1187.81 1333.75 1187.35 1335.98 1187L1337.9 1186.8C1340.27 1186.56 1342.72 1186.31 1345.14 1186.17C1348.41 1186.13 1351.5 1186.18 1354.39 1186.3C1357.41 1186.53 1360.33 1186.94 1363.56 1187.41C1366.19 1187.9 1368.73 1188.53 1371.18 1189.15L1372.5 1189.48C1373.68 1189.85 1374.76 1190.23 1375.84 1190.6L1376.87 1190.96C1377.34 1191.13 1377.78 1191.29 1378.22 1191.44C1379.19 1191.77 1380.19 1192.12 1381.17 1192.58C1381.86 1192.9 1382.55 1193.21 1383.24 1193.52C1385.22 1194.42 1387.27 1195.34 1389.2 1196.49C1391.61 1197.86 1394.19 1199.37 1396.61 1201.15L1400.04 1203.66C1400.9 1204.36 1401.68 1205.04 1402.46 1205.71L1403.33 1206.47C1404.37 1207.35 1405.47 1208.32 1406.5 1209.41C1407.43 1210.35 1408.43 1211.34 1409.39 1212.39C1410.36 1213.43 1411.28 1214.54 1412.13 1215.57L1412.71 1216.29C1413.38 1217.11 1414.08 1217.96 1414.71 1218.89L1415.36 1219.81C1415.93 1220.61 1416.5 1221.4 1417.04 1222.22C1417.83 1223.47 1418.52 1224.58 1419.19 1225.74C1419.88 1226.88 1420.5 1228.1 1421.14 1229.35C1421.68 1230.38 1422.24 1231.58 1422.87 1233.08C1425.41 1238.98 1426.81 1244.04 1427.26 1249L1427.47 1251.28L1425.29 1250.56C1420.45 1248.94 1415.74 1247.45 1410.89 1246L1409.64 1245.64C1405.52 1244.49 1401.62 1243.39 1397.8 1242.55C1390.06 1240.72 1382.27 1239.57 1374.6 1239.14C1367.88 1238.8 1361.5 1239.15 1355.11 1240.2C1349.31 1241.12 1343.36 1242.67 1336.92 1244.95C1336.59 1245.07 1336.24 1245.17 1335.88 1245.27C1335.44 1245.39 1335.06 1245.5 1334.71 1245.67L1332.27 1246.68C1331.81 1246.85 1331.4 1247 1330.98 1247.15C1329.79 1247.57 1328.67 1247.98 1327.56 1248.55L1327.46 1248.59L1326.26 1249.12C1325.06 1249.64 1323.81 1250.18 1322.54 1250.68C1322.02 1250.93 1321.5 1251.19 1320.98 1251.45C1319.87 1252 1318.72 1252.58 1317.52 1253.1C1317.21 1253.25 1316.87 1253.4 1316.53 1253.55C1316.02 1253.78 1315.51 1254.01 1315.01 1254.26L1312.49 1255.59C1310.94 1256.42 1309.3 1257.21 1307.72 1257.97L1307.17 1258.24L1301.91 1261.12L1297.72 1263.26L1296.42 1264.01C1295.02 1264.83 1293.55 1265.64 1292.12 1266.41L1290.8 1267.13L1287.86 1268.65C1287.32 1268.94 1286.76 1269.26 1286.19 1269.59C1285.81 1269.81 1285.42 1270.03 1285.03 1270.25C1283.06 1271.39 1281.01 1272.48 1279.08 1273.49C1278.69 1273.69 1278.32 1273.89 1277.95 1274.08C1277.3 1274.42 1276.64 1274.76 1275.97 1275.09C1275.46 1275.35 1274.94 1275.65 1274.42 1275.94C1273.94 1276.21 1273.46 1276.48 1272.97 1276.74C1270.67 1277.99 1268.6 1279.08 1266.64 1280.05C1265.62 1280.57 1264.55 1281.09 1263.47 1281.6C1262.33 1282.14 1261.19 1282.69 1260.07 1283.27C1256.38 1285.13 1251.42 1287.52 1245.66 1289.57L1243.51 1290.34Z" fill="black"/><path id="Fill 53" fill-rule="evenodd" clip-rule="evenodd" d="M1224.4 1297.9L1221.78 1296.46C1248.84 1247.21 1281.91 1219.05 1320.06 1212.78C1377.31 1203.37 1426.3 1247.58 1426.78 1248.03L1424.76 1250.24C1424.28 1249.8 1376.32 1206.56 1320.53 1215.74C1283.34 1221.87 1251 1249.51 1224.4 1297.9" fill="black"/><path id="Fill 54" fill-rule="evenodd" clip-rule="evenodd" d="M1270.03 1318.09C1264.77 1308.38 1261.04 1298.21 1257.85 1287.94C1254.71 1277.66 1252.3 1267.2 1250.47 1256.63C1248.67 1246.06 1247.51 1235.38 1246.93 1224.61C1246.34 1213.85 1246.4 1203 1247.09 1192.12C1248.44 1170.36 1252.35 1148.42 1259.29 1126.83C1266.23 1105.27 1276.34 1084.04 1290.05 1064.5C1303.68 1044.97 1321.34 1027.35 1341.78 1013.84C1344.37 1012.19 1346.93 1010.52 1349.54 1008.94C1352.2 1007.43 1354.89 1005.97 1357.56 1004.5C1362.98 1001.72 1368.48 999.102 1374.12 996.906C1385.37 992.458 1396.9 989.003 1408.52 987.032C1420.11 984.982 1431.71 983.903 1443.11 984.178L1447.38 984.212C1448.79 984.274 1450.21 984.39 1451.62 984.479C1454.45 984.677 1457.25 984.849 1460.04 985.109C1462.83 985.477 1465.6 985.806 1468.36 986.224L1472.48 986.837C1473.85 987.086 1475.21 987.35 1476.57 987.637C1479.28 988.212 1481.98 988.748 1484.66 989.364C1487.33 990.03 1489.98 990.758 1492.61 991.522C1497.89 992.928 1503.04 994.82 1508.12 996.71C1510.67 997.636 1513.17 998.695 1515.65 999.824C1518.14 1000.93 1520.6 1002.07 1523.04 1003.23C1527.89 1005.72 1532.66 1008.34 1537.28 1011.31C1531.98 1013.07 1526.83 1014.3 1521.75 1015.73C1519.2 1016.46 1516.68 1017.16 1514.19 1017.82C1512.94 1018.17 1511.7 1018.49 1510.46 1018.8C1509.22 1019.11 1507.99 1019.53 1506.76 1019.87C1504.31 1020.56 1501.88 1021.27 1499.46 1021.91C1498.26 1022.23 1497.05 1022.58 1495.86 1022.96L1492.3 1024.04C1489.93 1024.79 1487.58 1025.39 1485.25 1026.14C1482.93 1026.93 1480.63 1027.64 1478.35 1028.39L1474.94 1029.47L1471.59 1030.68C1469.36 1031.49 1467.15 1032.22 1464.95 1032.98C1460.64 1034.75 1456.3 1036.19 1452.18 1038.03L1446 1040.64L1440.01 1043.42L1438.52 1044.08L1437.06 1044.81L1434.18 1046.28C1433.22 1046.77 1432.27 1047.26 1431.31 1047.71C1430.34 1048.15 1429.44 1048.73 1428.5 1049.22L1422.99 1052.27L1417.66 1055.46C1415.89 1056.5 1414.22 1057.68 1412.5 1058.76C1411.65 1059.32 1410.79 1059.84 1409.96 1060.42C1409.15 1061.03 1408.32 1061.6 1407.5 1062.17C1404.16 1064.39 1401.07 1066.92 1397.93 1069.28C1396.41 1070.54 1394.91 1071.81 1393.38 1073.03C1391.89 1074.3 1390.44 1075.63 1388.97 1076.9C1377.45 1087.43 1367.13 1099.08 1357.84 1112.32C1348.54 1125.52 1340.18 1140.08 1332.39 1155.69C1324.68 1171.33 1317.62 1188 1310.81 1205.38C1304.05 1222.79 1297.52 1240.9 1290.95 1259.65L1280.92 1288.27C1277.46 1297.99 1273.98 1307.84 1270.03 1318.09" fill="white"/><path id="Fill 55" fill-rule="evenodd" clip-rule="evenodd" d="M1439.65 985.637C1429.93 985.637 1419.57 986.601 1408.78 988.51C1397.92 990.352 1386.44 993.646 1374.67 998.301C1369.73 1000.23 1364.51 1002.62 1358.24 1005.84L1356.84 1006.61C1354.65 1007.8 1352.46 1009 1350.28 1010.24C1348.41 1011.38 1346.48 1012.61 1344.62 1013.8L1342.58 1015.1C1322.88 1028.13 1305.13 1045.51 1291.28 1065.36C1278.24 1083.94 1267.96 1104.77 1260.71 1127.29C1254.05 1148.04 1249.97 1169.88 1248.59 1192.22C1247.9 1203.04 1247.85 1213.92 1248.43 1224.53C1249 1235.31 1250.19 1246.02 1251.95 1256.38C1253.82 1267.22 1256.29 1277.69 1259.29 1287.51C1262.67 1298.41 1265.98 1306.87 1269.82 1314.45C1273.08 1305.83 1276.07 1297.42 1278.97 1289.26L1279.51 1287.76L1289.54 1259.15C1297.31 1236.97 1303.44 1220.22 1309.41 1204.84C1317.16 1185.06 1324.04 1169.24 1331.05 1155.02C1339.43 1138.21 1347.79 1123.96 1356.61 1111.46C1365.84 1098.31 1376.09 1086.64 1387.96 1075.79C1388.62 1075.21 1389.25 1074.66 1389.89 1074.09C1390.72 1073.35 1391.56 1072.61 1392.41 1071.89C1393.63 1070.91 1394.8 1069.94 1395.97 1068.96L1396.97 1068.12C1398 1067.35 1398.97 1066.6 1399.94 1065.85C1402.1 1064.19 1404.33 1062.48 1406.67 1060.92L1406.94 1060.73C1407.65 1060.24 1408.36 1059.74 1409.06 1059.22C1409.63 1058.82 1410.18 1058.47 1410.73 1058.12C1411.05 1057.92 1411.36 1057.72 1411.67 1057.51C1412.34 1057.09 1412.98 1056.67 1413.61 1056.25C1414.67 1055.55 1415.77 1054.83 1416.91 1054.17L1422.21 1050.98L1427.78 1047.91C1428.12 1047.73 1428.44 1047.54 1428.77 1047.36C1429.38 1047.02 1430.01 1046.66 1430.68 1046.35C1431.47 1045.98 1432.27 1045.57 1433.07 1045.16L1437.84 1042.74L1439.4 1042.05L1445.37 1039.28L1451.59 1036.65C1454.03 1035.56 1456.6 1034.59 1459.09 1033.65C1460.83 1032.99 1462.63 1032.32 1464.38 1031.6C1465.28 1031.28 1466.1 1031 1466.92 1030.72C1468.3 1030.25 1469.68 1029.78 1471.07 1029.27L1474.44 1028.06L1477.9 1026.96C1478.76 1026.68 1479.63 1026.4 1480.51 1026.12C1481.92 1025.66 1483.34 1025.21 1484.77 1024.72C1486 1024.33 1487.21 1023.98 1488.43 1023.63C1489.56 1023.3 1490.7 1022.97 1491.84 1022.61L1495.43 1021.52C1496.64 1021.13 1497.88 1020.78 1499.08 1020.46C1500.95 1019.97 1502.83 1019.43 1504.72 1018.89L1506.35 1018.42C1506.9 1018.28 1507.42 1018.12 1507.95 1017.96C1508.66 1017.74 1509.38 1017.53 1510.09 1017.35C1511.32 1017.04 1512.55 1016.72 1513.79 1016.38C1516.16 1015.75 1518.62 1015.07 1521.33 1014.29C1522.9 1013.85 1524.47 1013.43 1526.05 1013C1528.56 1012.33 1531.13 1011.64 1533.72 1010.86C1530.39 1008.84 1526.71 1006.8 1522.35 1004.57C1519.9 1003.39 1517.43 1002.25 1515.05 1001.2C1512.31 999.951 1509.88 998.947 1507.61 998.119C1502.16 996.093 1497.24 994.309 1492.23 992.971C1489.32 992.128 1486.74 991.428 1484.3 990.82C1482.45 990.396 1480.57 990.004 1478.68 989.612L1476.26 989.105C1474.91 988.821 1473.57 988.56 1472.21 988.313L1468.14 987.707C1466.17 987.409 1464.16 987.152 1462.21 986.903L1459.85 986.597C1457.74 986.402 1455.52 986.249 1453.37 986.103L1450.12 985.881C1449.19 985.817 1448.25 985.751 1447.31 985.711L1443.1 985.678C1441.96 985.651 1440.81 985.637 1439.65 985.637V985.637ZM1270.27 1321.66L1268.72 1318.8C1264.11 1310.3 1260.31 1300.92 1256.42 1288.39C1253.38 1278.45 1250.88 1267.85 1248.99 1256.89C1247.21 1246.41 1246.01 1235.58 1245.43 1224.69C1244.85 1213.96 1244.9 1202.97 1245.59 1192.03C1246.99 1169.45 1251.12 1147.36 1257.86 1126.37C1265.2 1103.57 1275.61 1082.46 1288.82 1063.64C1302.88 1043.49 1320.91 1025.83 1340.95 1012.59L1343.01 1011.27C1344.88 1010.07 1346.82 1008.83 1348.76 1007.66C1350.99 1006.39 1353.2 1005.18 1355.4 1003.97L1356.84 1003.19C1363.23 999.904 1368.54 997.47 1373.58 995.509C1385.53 990.78 1397.21 987.429 1408.27 985.554C1420.53 983.384 1432.26 982.419 1443.15 982.678L1447.39 982.712C1448.4 982.755 1449.37 982.822 1450.33 982.889L1453.57 983.11C1455.74 983.258 1457.98 983.41 1460.18 983.616L1462.59 983.927C1464.56 984.178 1466.59 984.439 1468.59 984.741L1472.7 985.354C1474.13 985.613 1475.51 985.879 1476.88 986.169L1479.29 986.674C1481.2 987.072 1483.1 987.467 1485 987.903C1487.5 988.526 1490.12 989.237 1493.03 990.081C1498.14 991.445 1503.13 993.253 1508.64 995.304C1510.98 996.155 1513.48 997.188 1516.27 998.459C1518.67 999.522 1521.17 1000.68 1523.69 1001.88C1529.39 1004.81 1533.96 1007.4 1538.09 1010.05L1540.73 1011.75L1537.75 1012.74C1534.03 1013.97 1530.37 1014.95 1526.82 1015.9C1525.26 1016.32 1523.7 1016.74 1522.15 1017.17C1519.43 1017.96 1516.95 1018.64 1514.57 1019.27C1513.33 1019.62 1512.08 1019.94 1510.83 1020.26C1510.16 1020.42 1509.49 1020.63 1508.82 1020.83C1508.26 1021 1507.71 1021.16 1507.15 1021.31L1505.54 1021.77C1503.63 1022.32 1501.73 1022.86 1499.85 1023.36C1498.69 1023.66 1497.5 1024.01 1496.32 1024.39L1492.73 1025.48C1491.58 1025.84 1490.42 1026.18 1489.26 1026.51C1488.07 1026.85 1486.89 1027.19 1485.71 1027.57C1484.3 1028.05 1482.86 1028.51 1481.43 1028.97C1480.56 1029.25 1479.69 1029.53 1478.82 1029.82L1475.39 1030.9L1472.1 1032.09C1470.69 1032.6 1469.29 1033.08 1467.89 1033.56C1467.07 1033.84 1466.26 1034.12 1465.45 1034.4C1463.72 1035.11 1461.91 1035.79 1460.15 1036.46C1457.59 1037.42 1455.17 1038.34 1452.79 1039.4L1446.58 1042.02L1439.12 1045.45L1434.43 1047.84C1433.6 1048.26 1432.78 1048.68 1431.95 1049.07C1431.37 1049.33 1430.83 1049.64 1430.25 1049.97C1429.9 1050.17 1429.56 1050.36 1429.21 1050.55L1423.71 1053.58L1418.43 1056.75C1417.35 1057.38 1416.29 1058.08 1415.26 1058.76C1414.61 1059.19 1413.96 1059.62 1413.3 1060.03C1413 1060.23 1412.67 1060.44 1412.34 1060.65C1411.83 1060.98 1411.32 1061.3 1410.82 1061.65C1410.13 1062.16 1409.39 1062.68 1408.66 1063.19L1408.36 1063.4C1406.07 1064.92 1403.89 1066.6 1401.77 1068.23C1400.79 1068.99 1399.81 1069.74 1398.82 1070.48L1397.89 1071.26C1396.7 1072.25 1395.52 1073.24 1394.31 1074.2C1393.52 1074.88 1392.7 1075.61 1391.88 1076.34C1391.24 1076.91 1390.6 1077.48 1389.95 1078.03C1378.28 1088.71 1368.17 1100.21 1359.07 1113.18C1350.33 1125.57 1342.05 1139.69 1333.74 1156.36C1326.77 1170.49 1319.92 1186.24 1312.21 1205.93C1306.25 1221.27 1300.13 1237.99 1292.37 1260.14L1281.8 1290.27C1278.55 1299.42 1275.18 1308.88 1271.43 1318.63L1270.27 1321.66Z" fill="black"/><path id="Fill 56" fill-rule="evenodd" clip-rule="evenodd" d="M1240.41 1265.23L1237.41 1265.21C1237.42 1264.93 1237.7 1236.09 1247.9 1198.4C1257.32 1163.6 1277.37 1113.88 1319.37 1074.64C1371.58 1025.87 1444.93 1004.06 1537.37 1009.81L1537.19 1012.81C1445.61 1007.11 1373.02 1028.64 1321.44 1076.81C1279.97 1115.54 1260.15 1164.68 1250.82 1199.08C1240.71 1236.42 1240.42 1264.95 1240.41 1265.23" fill="black"/><path id="Fill 59" fill-rule="evenodd" clip-rule="evenodd" d="M1062.93 1249.13C1063.44 1243.66 1065.11 1238.55 1067.21 1233.66C1067.73 1232.42 1068.28 1231.2 1068.91 1230.02C1069.51 1228.83 1070.12 1227.63 1070.81 1226.49C1071.48 1225.33 1072.19 1224.19 1072.91 1223.05C1073.66 1221.92 1074.45 1220.85 1075.23 1219.73C1076 1218.6 1076.88 1217.58 1077.74 1216.52C1078.6 1215.46 1079.48 1214.41 1080.41 1213.41C1081.34 1212.4 1082.31 1211.42 1083.29 1210.44C1084.25 1209.43 1085.29 1208.51 1086.35 1207.61C1087.4 1206.7 1088.46 1205.76 1089.55 1204.87L1092.98 1202.36C1095.27 1200.67 1097.75 1199.21 1100.27 1197.78C1102.77 1196.29 1105.49 1195.19 1108.16 1193.93C1109.5 1193.31 1110.93 1192.9 1112.32 1192.38C1113.73 1191.89 1115.14 1191.39 1116.56 1190.94C1119.46 1190.22 1122.38 1189.45 1125.35 1188.89C1128.33 1188.46 1131.35 1188.03 1134.38 1187.8C1137.39 1187.67 1140.44 1187.63 1143.47 1187.67C1146.48 1187.84 1149.48 1188.18 1152.49 1188.48C1155.44 1188.94 1158.35 1189.61 1161.28 1190.2C1162.76 1190.47 1164.14 1190.95 1165.54 1191.38L1169.74 1192.71C1172.58 1193.57 1175.18 1194.75 1177.82 1195.89C1180.42 1197.1 1183.09 1198.23 1185.48 1199.67C1187.9 1201.09 1190.33 1202.48 1192.71 1203.95C1194.95 1205.55 1197.18 1207.12 1199.35 1208.79C1200.43 1209.62 1201.53 1210.43 1202.59 1211.27L1205.57 1213.96C1207.56 1215.74 1209.48 1217.6 1211.39 1219.44C1213.2 1221.34 1214.89 1223.34 1216.61 1225.3L1219.12 1228.29C1219.54 1228.79 1219.96 1229.29 1220.35 1229.8L1221.48 1231.38C1222.98 1233.46 1224.41 1235.61 1225.84 1237.73L1227.91 1240.95C1228.6 1242.02 1229.16 1243.18 1229.78 1244.29C1231 1246.52 1232.15 1248.79 1233.27 1251.07C1233.82 1252.21 1234.39 1253.34 1234.91 1254.49C1235.42 1255.66 1235.88 1256.84 1236.34 1258.03C1237.25 1260.41 1238.11 1262.8 1238.91 1265.22C1239.7 1267.65 1240.52 1270.04 1241.04 1272.6C1242.21 1277.64 1243.18 1282.75 1243.54 1288.16C1238.33 1286.31 1233.72 1284.16 1229.32 1281.93C1227.13 1280.81 1224.86 1279.8 1222.72 1278.71C1220.57 1277.63 1218.48 1276.53 1216.43 1275.42C1215.39 1274.87 1214.42 1274.27 1213.39 1273.74C1212.34 1273.23 1211.34 1272.69 1210.32 1272.17C1208.31 1271.11 1206.32 1270.05 1204.41 1268.94C1203.44 1268.4 1202.49 1267.83 1201.53 1267.32L1198.63 1265.82C1196.74 1264.78 1194.84 1263.78 1193.03 1262.71L1191.66 1261.93L1190.26 1261.22L1187.51 1259.8L1182.18 1256.89C1180.4 1256.02 1178.62 1255.18 1176.91 1254.26L1174.34 1252.9C1173.49 1252.49 1172.63 1252.12 1171.78 1251.73C1170.06 1250.98 1168.42 1250.1 1166.76 1249.3C1165.08 1248.65 1163.46 1247.92 1161.83 1247.22C1160.23 1246.39 1158.61 1245.89 1157.01 1245.29L1154.64 1244.32C1153.86 1243.94 1153.06 1243.82 1152.28 1243.54C1146.03 1241.32 1140.03 1239.7 1133.84 1238.72C1127.65 1237.7 1121.18 1237.28 1114.02 1237.64C1106.88 1238.04 1099.02 1239.09 1090.58 1241.09C1086.32 1242.02 1081.99 1243.27 1077.38 1244.56C1072.81 1245.93 1068.09 1247.41 1062.93 1249.13" fill="white"/><path id="Fill 60" fill-rule="evenodd" clip-rule="evenodd" d="M1162.47 1245.86L1163.64 1246.37C1164.84 1246.89 1166.07 1247.42 1167.3 1247.9L1167.42 1247.95C1167.97 1248.22 1168.52 1248.49 1169.07 1248.77C1170.14 1249.31 1171.26 1249.86 1172.38 1250.35C1172.74 1250.52 1173.07 1250.67 1173.4 1250.82C1173.93 1251.06 1174.46 1251.3 1175 1251.55L1177.61 1252.93C1179.11 1253.74 1180.64 1254.47 1182.25 1255.25L1182.83 1255.53L1188.23 1258.49L1192.33 1260.59L1193.78 1261.41C1195.15 1262.22 1196.61 1263.01 1198.01 1263.77L1199.35 1264.5L1202.22 1265.99C1202.82 1266.31 1203.4 1266.64 1203.99 1266.98C1204.37 1267.2 1204.75 1267.42 1205.14 1267.63C1207.09 1268.76 1209.12 1269.84 1211.02 1270.84C1211.39 1271.03 1211.77 1271.22 1212.15 1271.42C1212.77 1271.75 1213.4 1272.08 1214.05 1272.39C1214.65 1272.7 1215.2 1273.02 1215.76 1273.33C1216.21 1273.59 1216.66 1273.84 1217.13 1274.09C1219.43 1275.34 1221.47 1276.41 1223.39 1277.36C1224.42 1277.89 1225.47 1278.39 1226.52 1278.89C1227.68 1279.45 1228.85 1280.01 1230 1280.6C1233.11 1282.17 1237.17 1284.14 1241.85 1285.93C1241.46 1282.03 1240.74 1277.92 1239.58 1272.94C1239.12 1270.67 1238.44 1268.61 1237.72 1266.41L1237.49 1265.69C1236.77 1263.51 1235.93 1261.18 1234.94 1258.57C1234.44 1257.27 1234.01 1256.17 1233.54 1255.09C1233.2 1254.35 1232.84 1253.6 1232.47 1252.85L1231.92 1251.71C1230.94 1249.73 1229.76 1247.37 1228.47 1245.01C1228.27 1244.65 1228.06 1244.27 1227.86 1243.89C1227.46 1243.14 1227.08 1242.43 1226.65 1241.76L1223.86 1237.48C1222.7 1235.75 1221.5 1233.96 1220.26 1232.26L1219.13 1230.67C1218.82 1230.28 1218.47 1229.85 1218.11 1229.42L1214.43 1225.09C1213.1 1223.55 1211.72 1221.96 1210.3 1220.47L1209.96 1220.14C1208.21 1218.46 1206.4 1216.72 1204.57 1215.08L1201.58 1212.38C1200.95 1211.88 1200.22 1211.33 1199.49 1210.78L1198.44 1209.98C1196.61 1208.57 1194.68 1207.2 1192.82 1205.87L1191.84 1205.17C1190.13 1204.12 1188.27 1203.03 1186.46 1201.98L1184.72 1200.97C1182.83 1199.83 1180.71 1198.86 1178.65 1197.92L1176.27 1196.86C1173.93 1195.84 1171.72 1194.88 1169.3 1194.14L1164.18 1192.53C1163.1 1192.19 1162.08 1191.87 1161.01 1191.67C1160.23 1191.52 1159.47 1191.36 1158.72 1191.2C1156.61 1190.76 1154.42 1190.3 1152.26 1189.96L1150.5 1189.79C1148.16 1189.55 1145.74 1189.3 1143.39 1189.16C1140.31 1189.13 1137.28 1189.18 1134.44 1189.3C1131.61 1189.52 1128.75 1189.92 1125.57 1190.38C1123.16 1190.83 1120.67 1191.45 1118.26 1192.06L1116.93 1192.39C1115.95 1192.7 1114.89 1193.07 1113.83 1193.44L1112.81 1193.8C1112.38 1193.96 1111.92 1194.12 1111.45 1194.28C1110.52 1194.6 1109.63 1194.9 1108.8 1195.29C1108.1 1195.62 1107.4 1195.94 1106.7 1196.25C1104.7 1197.16 1102.82 1198.01 1101.04 1199.07C1098.65 1200.43 1096.16 1201.88 1093.87 1203.57L1090.44 1206.08C1089.72 1206.67 1088.96 1207.32 1088.21 1207.98L1087.32 1208.74C1086.35 1209.58 1085.32 1210.49 1084.38 1211.47C1083.41 1212.45 1082.43 1213.44 1081.51 1214.43C1080.59 1215.41 1079.71 1216.47 1078.9 1217.47L1078.33 1218.17C1077.66 1218.98 1077.03 1219.75 1076.47 1220.57L1075.78 1221.55C1075.23 1222.32 1074.69 1223.09 1074.16 1223.87C1073.47 1224.98 1072.78 1226.09 1072.11 1227.24C1071.43 1228.36 1070.84 1229.51 1070.24 1230.7C1069.71 1231.71 1069.19 1232.83 1068.6 1234.24C1066.58 1238.94 1065.32 1243.04 1064.71 1246.96C1068.81 1245.62 1072.83 1244.35 1076.95 1243.12L1078.25 1242.76C1082.41 1241.59 1086.35 1240.48 1090.26 1239.62C1098.12 1237.76 1106.09 1236.59 1113.93 1236.15C1120.89 1235.79 1127.47 1236.15 1134.08 1237.24C1140.05 1238.18 1146.17 1239.78 1152.78 1242.12C1153.07 1242.23 1153.34 1242.3 1153.62 1242.38C1154.13 1242.52 1154.7 1242.68 1155.3 1242.97L1157.58 1243.9C1157.94 1244.04 1158.34 1244.18 1158.74 1244.33C1159.95 1244.76 1161.2 1245.21 1162.47 1245.86V1245.86ZM1245.19 1290.34L1243.04 1289.57C1237.27 1287.52 1232.32 1285.13 1228.64 1283.27C1227.5 1282.69 1226.36 1282.14 1225.22 1281.6C1224.15 1281.08 1223.08 1280.57 1222.04 1280.04C1220.1 1279.08 1218.03 1277.99 1215.71 1276.73C1215.24 1276.48 1214.76 1276.21 1214.28 1275.94C1213.76 1275.65 1213.24 1275.35 1212.7 1275.08C1212.06 1274.76 1211.41 1274.42 1210.76 1274.08C1210.38 1273.89 1210.01 1273.69 1209.64 1273.5C1207.69 1272.48 1205.64 1271.39 1203.66 1270.24C1203.28 1270.03 1202.88 1269.8 1202.49 1269.58C1201.93 1269.26 1201.38 1268.94 1200.82 1268.64L1196.58 1266.41C1195.15 1265.64 1193.68 1264.83 1192.27 1264L1190.91 1263.23L1186.83 1261.14L1180.95 1257.95C1179.38 1257.2 1177.75 1256.41 1176.2 1255.58L1173.64 1254.23C1173.19 1254.01 1172.68 1253.78 1172.17 1253.55C1171.83 1253.4 1171.49 1253.25 1171.15 1253.09C1169.99 1252.58 1168.84 1252.01 1167.72 1251.45C1167.2 1251.19 1166.69 1250.93 1166.16 1250.68C1164.89 1250.18 1163.65 1249.64 1162.45 1249.12L1161.14 1248.55C1160.03 1247.98 1158.91 1247.58 1157.72 1247.15C1157.31 1247 1156.89 1246.85 1156.48 1246.69L1154.07 1245.7C1153.64 1245.5 1153.26 1245.39 1152.82 1245.27C1152.47 1245.17 1152.11 1245.07 1151.77 1244.95C1145.34 1242.67 1139.4 1241.12 1133.6 1240.2C1127.2 1239.15 1120.82 1238.8 1114.09 1239.14C1106.43 1239.57 1098.64 1240.72 1090.93 1242.55C1087.08 1243.39 1083.18 1244.49 1079.06 1245.64L1077.78 1246C1072.97 1247.44 1068.26 1248.93 1063.41 1250.56L1061.23 1251.28L1061.44 1249C1061.89 1244.04 1063.29 1238.97 1065.84 1233.07C1066.46 1231.58 1067.01 1230.39 1067.58 1229.32C1068.19 1228.11 1068.81 1226.89 1069.53 1225.71C1070.2 1224.55 1070.94 1223.36 1071.64 1222.25C1072.2 1221.4 1072.77 1220.61 1073.34 1219.81L1074.01 1218.87C1074.63 1217.95 1075.33 1217.1 1076.01 1216.27L1076.57 1215.58C1077.42 1214.54 1078.34 1213.43 1079.31 1212.39C1080.26 1211.36 1081.26 1210.36 1082.23 1209.38C1083.24 1208.32 1084.34 1207.35 1085.37 1206.46L1086.24 1205.71C1087.02 1205.04 1087.8 1204.36 1088.61 1203.71L1092.09 1201.15C1094.51 1199.37 1097.09 1197.86 1099.53 1196.47C1101.43 1195.34 1103.48 1194.42 1105.46 1193.52C1106.15 1193.21 1106.84 1192.9 1107.53 1192.58C1108.51 1192.12 1109.51 1191.77 1110.48 1191.44C1110.92 1191.29 1111.36 1191.13 1111.8 1190.97L1112.84 1190.61C1113.92 1190.23 1115.01 1189.85 1116.11 1189.5L1117.53 1189.15C1119.98 1188.53 1122.52 1187.9 1125.08 1187.42C1128.37 1186.94 1131.29 1186.53 1134.26 1186.3C1137.2 1186.18 1140.29 1186.13 1143.49 1186.17C1145.99 1186.31 1148.43 1186.56 1150.8 1186.8L1152.64 1186.99C1154.95 1187.35 1157.18 1187.81 1159.34 1188.26C1160.08 1188.42 1160.83 1188.58 1161.58 1188.73C1162.8 1188.95 1163.96 1189.31 1165.08 1189.67L1170.19 1191.27C1172.76 1192.05 1175.15 1193.1 1177.47 1194.11L1179.9 1195.19C1182.03 1196.17 1184.24 1197.17 1186.25 1198.39L1187.97 1199.39C1189.79 1200.45 1191.68 1201.54 1193.5 1202.67L1194.56 1203.43C1196.45 1204.77 1198.39 1206.16 1200.26 1207.6L1201.3 1208.39C1202.05 1208.95 1202.8 1209.52 1203.52 1210.1L1206.57 1212.85C1208.45 1214.52 1210.27 1216.28 1212.04 1217.98L1212.43 1218.35C1213.94 1219.95 1215.35 1221.56 1216.7 1223.12L1217.74 1224.32L1220.41 1227.49C1220.79 1227.95 1221.17 1228.41 1221.54 1228.88L1222.7 1230.51C1223.96 1232.25 1225.17 1234.06 1226.35 1235.8L1227.08 1236.89L1229.17 1240.14C1229.67 1240.91 1230.1 1241.71 1230.51 1242.48C1230.7 1242.84 1230.89 1243.2 1231.09 1243.55C1232.42 1245.98 1233.62 1248.37 1234.62 1250.4L1235.17 1251.53C1235.55 1252.31 1235.92 1253.09 1236.28 1253.87C1236.78 1255.03 1237.22 1256.15 1237.74 1257.49C1238.75 1260.15 1239.6 1262.52 1240.34 1264.75L1240.58 1265.48C1241.29 1267.66 1242.02 1269.91 1242.51 1272.3C1243.93 1278.4 1244.71 1283.27 1245.04 1288.06L1245.19 1290.34Z" fill="black"/><path id="Fill 62" fill-rule="evenodd" clip-rule="evenodd" d="M1242.31 1289.01C1206.22 1236.98 1169.82 1210.6 1134.1 1210.6C1133.95 1210.6 1133.81 1210.6 1133.67 1210.6C1091.12 1210.85 1064.44 1249.58 1064.17 1249.97L1061.69 1248.29C1061.96 1247.89 1089.49 1207.87 1133.63 1207.6C1133.78 1207.6 1133.94 1207.6 1134.1 1207.6C1170.86 1207.6 1208.09 1234.41 1244.77 1287.31L1242.31 1289.01Z" fill="black"/><path id="Fill 63" fill-rule="evenodd" clip-rule="evenodd" d="M1241.62 1326.93C1237.79 1314.71 1234.75 1302.66 1231.9 1290.64C1229.1 1278.63 1226.57 1266.67 1224.26 1254.76C1219.67 1230.94 1215.8 1207.29 1212.53 1183.75C1209.22 1160.21 1206.43 1136.79 1203.98 1113.45C1201.5 1090.12 1199.33 1066.88 1197.31 1043.72C1193.22 997.389 1189.83 951.433 1185.65 905.629C1183.54 882.7 1181.19 859.863 1177.98 836.836C1176.38 825.315 1174.52 813.764 1172.19 802.1C1169.89 790.4 1167.06 778.661 1163.59 766.316C1174.5 773.101 1184.09 781.906 1192.79 791.44C1201.46 801.016 1209.19 811.431 1216.09 822.266C1222.99 833.106 1229.12 844.373 1234.62 855.862C1235.96 858.74 1237.4 861.613 1238.64 864.523L1242.44 873.258C1244.79 879.12 1247.2 884.998 1249.3 890.934C1258 914.643 1264.46 938.86 1269.47 963.194C1274.43 987.539 1277.85 1012.03 1279.95 1036.54C1282.05 1061.04 1282.88 1085.56 1282.5 1110.02C1282.1 1134.48 1280.54 1158.89 1277.62 1183.2C1274.75 1207.5 1270.53 1231.69 1264.84 1255.7C1261.97 1267.71 1258.71 1279.66 1254.95 1291.56C1251.14 1303.44 1246.98 1315.28 1241.62 1326.93" fill="white"/><path id="Fill 64" fill-rule="evenodd" clip-rule="evenodd" d="M1166.09 769.727C1169.11 780.769 1171.59 791.302 1173.66 801.81C1175.77 812.374 1177.67 823.766 1179.47 836.629C1182.96 861.706 1185.4 886.603 1187.14 905.492C1189.42 930.447 1191.5 955.901 1193.51 980.517C1195.2 1001.15 1196.94 1022.49 1198.8 1043.58C1201.15 1070.4 1203.27 1092.55 1205.47 1113.29C1208.14 1138.62 1210.93 1161.6 1214.02 1183.54C1217.37 1207.7 1221.31 1231.57 1225.73 1254.48C1228.1 1266.68 1230.66 1278.73 1233.36 1290.3C1235.65 1299.95 1238.42 1311.2 1241.88 1322.68C1246.8 1311.47 1250.5 1300.51 1253.52 1291.1C1257.12 1279.69 1260.44 1267.66 1263.38 1255.35C1268.95 1231.88 1273.24 1207.54 1276.13 1183.02C1278.95 1159.59 1280.59 1135.02 1281 1110C1281.38 1085.45 1280.52 1060.78 1278.46 1036.66C1276.3 1011.57 1272.78 986.954 1268 963.494C1262.56 937.072 1255.98 913.506 1247.89 891.451C1246.1 886.373 1244.04 881.264 1242.05 876.323L1241.04 873.817L1237.26 865.121C1236.43 863.163 1235.49 861.184 1234.57 859.271C1234.13 858.345 1233.69 857.42 1233.26 856.495C1227.51 844.492 1221.3 833.241 1214.82 823.073C1207.61 811.74 1199.82 801.436 1191.68 792.447C1183.01 782.949 1174.61 775.483 1166.09 769.727V769.727ZM1241.35 1331.1L1240.18 1327.38C1236.15 1314.5 1232.99 1301.75 1230.44 1290.98C1227.73 1279.37 1225.16 1267.29 1222.78 1255.05C1218.36 1232.08 1214.41 1208.17 1211.05 1183.96C1207.95 1161.98 1205.16 1138.97 1202.49 1113.61C1200.28 1092.85 1198.16 1070.68 1195.81 1043.85C1193.95 1022.75 1192.21 1001.4 1190.52 980.761C1188.51 956.152 1186.43 930.705 1184.16 905.765C1182.42 886.911 1179.98 862.058 1176.49 837.043C1174.71 824.239 1172.82 812.905 1170.72 802.394C1168.43 790.756 1165.62 779.088 1162.15 766.722L1161.1 763L1164.38 765.042C1174.27 771.195 1183.93 779.498 1193.9 790.429C1202.15 799.546 1210.05 809.986 1217.35 821.46C1223.89 831.73 1230.16 843.086 1235.98 855.213C1236.41 856.147 1236.85 857.064 1237.28 857.982C1238.21 859.921 1239.16 861.927 1240.02 863.933L1243.81 872.661L1244.84 875.204C1246.84 880.174 1248.9 885.314 1250.71 890.434C1258.85 912.614 1265.47 936.32 1270.93 962.891C1275.74 986.466 1279.28 1011.2 1281.45 1036.41C1283.52 1060.62 1284.38 1085.4 1284 1110.04C1283.59 1135.18 1281.94 1159.85 1279.11 1183.38C1276.2 1208.01 1271.89 1232.46 1266.3 1256.05C1263.34 1268.43 1260.01 1280.53 1256.38 1292.01C1253.01 1302.52 1248.78 1314.96 1242.98 1327.56L1241.35 1331.1Z" fill="black"/><path id="Fill 65" fill-rule="evenodd" clip-rule="evenodd" d="M1243.11 1327.06L1240.12 1326.8C1248.27 1234.73 1249.24 1148 1243.01 1069.01C1238.03 1005.85 1228.46 947.475 1214.56 895.509C1195.65 824.807 1172.16 780.662 1162.38 767.198L1164.8 765.434C1165.09 765.828 1193.69 805.84 1217.46 894.735C1231.4 946.877 1241.01 1005.43 1246 1068.78C1252.24 1147.93 1251.27 1234.83 1243.11 1327.06" fill="black"/><path id="Fill 66" fill-rule="evenodd" clip-rule="evenodd" d="M1284.38 1424.91H1198.85C1189.78 1424.91 1182.1 1418.24 1180.83 1409.26L1164 1290.25C1161.79 1274.64 1168.79 1259.64 1178.28 1259.64H1304.95C1314.44 1259.64 1321.44 1274.64 1319.23 1290.25L1302.4 1409.26C1301.13 1418.24 1293.45 1424.91 1284.38 1424.91" fill="white"/><path id="Fill 67" fill-rule="evenodd" clip-rule="evenodd" d="M1178.28 1261.14C1175.1 1261.14 1172.66 1263.19 1171.17 1264.9C1166.42 1270.37 1164.13 1280.48 1165.48 1290.04L1182.31 1409.05C1183.47 1417.24 1190.58 1423.41 1198.85 1423.41H1284.38C1292.65 1423.41 1299.76 1417.24 1300.92 1409.05L1317.75 1290.04C1319.1 1280.48 1316.82 1270.37 1312.06 1264.9C1310.57 1263.19 1308.13 1261.14 1304.95 1261.14H1178.28ZM1284.38 1426.41H1198.85C1189.09 1426.41 1180.71 1419.13 1179.34 1409.47L1162.51 1290.46C1161.02 1279.92 1163.53 1269.12 1168.9 1262.93C1171.62 1259.8 1174.87 1258.14 1178.28 1258.14H1304.95C1308.36 1258.14 1311.61 1259.8 1314.33 1262.93C1319.7 1269.12 1322.21 1279.92 1320.72 1290.46L1303.89 1409.47C1302.52 1419.13 1294.14 1426.41 1284.38 1426.41V1426.41Z" fill="black"/><path id="Fill 69" fill-rule="evenodd" clip-rule="evenodd" d="M1165.86 1304.9H1317.37V1301.9H1165.86V1304.9Z" fill="black"/></g></g><g id="Right Lamp"><path id="Fill 25_2" fill-rule="evenodd" clip-rule="evenodd" d="M224 194.5C224 221.838 201.838 244 174.5 244C147.162 244 125 221.838 125 194.5C125 167.162 147.162 145 174.5 145C201.838 145 224 167.162 224 194.5" fill="black"/><path id="Fill 26_2" fill-rule="evenodd" clip-rule="evenodd" d="M173 98.0028V2.99718C173 1.89474 173.896 1 175 1C176.104 1 177 1.89474 177 2.99718V98.0028C177 99.1053 176.104 100 175 100C173.896 100 173 99.1053 173 98.0028Z" fill="black"/><path id="Fill 27_2" fill-rule="evenodd" clip-rule="evenodd" d="M175.521 99L79 195H270L175.521 99Z" fill="white"/><path id="Fill 28_2" fill-rule="evenodd" clip-rule="evenodd" d="M83.8323 193.019H265.24L175.505 101.821L83.8323 193.019ZM269.998 197H79.0007C78.1913 197 77.4619 196.515 77.1527 195.772C76.8426 195.027 77.0136 194.171 77.5859 193.602L174.105 97.5833C174.481 97.21 174.99 97 175.52 97H175.531C176.065 97.003 176.577 97.219 176.95 97.5982L271.429 193.617C271.993 194.19 272.156 195.042 271.843 195.781C271.531 196.52 270.805 197 269.998 197V197Z" fill="black"/><path id="Fill 29_2" fill-rule="evenodd" clip-rule="evenodd" d="M185.012 99H164.988C161.681 99 159 96.3189 159 93.012V72.988C159 69.682 161.681 67 164.988 67H185.012C188.32 67 191 69.682 191 72.988V93.012C191 96.3189 188.32 99 185.012 99" fill="white"/><path id="Fill 30_2" fill-rule="evenodd" clip-rule="evenodd" d="M164.974 68.9542C162.757 68.9542 160.954 70.7573 160.954 72.9736V93.0264C160.954 95.2427 162.757 97.0458 164.974 97.0458H185.026C187.243 97.0458 189.046 95.2427 189.046 93.0264V72.9736C189.046 70.7573 187.243 68.9542 185.026 68.9542H164.974ZM185.026 101H164.974C160.577 101 157 97.4234 157 93.0264V72.9736C157 68.5766 160.577 65 164.974 65H185.026C189.422 65 193 68.5766 193 72.9736V93.0264C193 97.4234 189.422 101 185.026 101V101Z" fill="black"/><path id="Fill 32_2" fill-rule="evenodd" clip-rule="evenodd" d="M246 209.026C244.896 209.026 244 208.128 244 207.023V195.003C244 193.897 244.896 193 246 193C247.104 193 248 193.897 248 195.003V207.023C248 208.128 247.104 209.026 246 209.026M246 233.065C244.896 233.065 244 232.167 244 231.061V219.042C244 217.936 244.896 217.039 246 217.039C247.104 217.039 248 217.936 248 219.042V231.061C248 232.167 247.104 233.065 246 233.065M246 257.103C244.896 257.103 244 256.206 244 255.1V243.081C244 241.975 244.896 241.077 246 241.077C247.104 241.077 248 241.975 248 243.081V255.1C248 256.206 247.104 257.103 246 257.103M246 281.142C244.896 281.142 244 280.245 244 279.139V267.119C244 266.014 244.896 265.116 246 265.116C247.104 265.116 248 266.014 248 267.119V279.139C248 280.245 247.104 281.142 246 281.142M246 305.181C244.896 305.181 244 304.283 244 303.178V291.158C244 290.052 244.896 289.155 246 289.155C247.104 289.155 248 290.052 248 291.158V303.178C248 304.283 247.104 305.181 246 305.181M246 329.22C244.896 329.22 244 328.322 244 327.216V315.197C244 314.091 244.896 313.194 246 313.194C247.104 313.194 248 314.091 248 315.197V327.216C248 328.322 247.104 329.22 246 329.22M246 353.258C244.896 353.258 244 352.361 244 351.255V339.236C244 338.13 244.896 337.232 246 337.232C247.104 337.232 248 338.13 248 339.236V351.255C248 352.361 247.104 353.258 246 353.258M246 377.297C244.896 377.297 244 376.4 244 375.294V363.274C244 362.169 244.896 361.271 246 361.271C247.104 361.271 248 362.169 248 363.274V375.294C248 376.4 247.104 377.297 246 377.297M246 401.336C244.896 401.336 244 400.438 244 399.333V387.313C244 386.207 244.896 385.31 246 385.31C247.104 385.31 248 386.207 248 387.313V399.333C248 400.438 247.104 401.336 246 401.336M246 425.375C244.896 425.375 244 424.477 244 423.371V411.352C244 410.246 244.896 409.349 246 409.349C247.104 409.349 248 410.246 248 411.352V423.371C248 424.477 247.104 425.375 246 425.375M246 449.413C244.896 449.413 244 448.516 244 447.41V435.391C244 434.285 244.896 433.387 246 433.387C247.104 433.387 248 434.285 248 435.391V447.41C248 448.516 247.104 449.413 246 449.413M246 466C244.896 466 244 465.103 244 463.997V459.429C244 458.324 244.896 457.426 246 457.426C247.104 457.426 248 458.324 248 459.429V463.997C248 465.103 247.104 466 246 466" fill="black"/></g></g></g><g id="Character"><g id="Lower Body Sitting"><g id="chair"><g id="Group 19"><path id="Fill 17" fill-rule="evenodd" clip-rule="evenodd" d="M564.602 1156.68C533.882 1156.68 506.967 1153.85 483.093 1148.16C448.711 1139.97 421.523 1126.08 399.976 1105.69C370.375 1077.69 352.976 1039.12 345.218 984.32C338.652 937.934 339.715 884.875 340.842 828.7C341.197 811.064 341.562 792.827 341.695 774.5L383.693 774.803C383.559 793.4 383.191 811.774 382.834 829.543C380.699 935.976 378.855 1027.9 428.84 1075.18C462.591 1107.11 520.709 1119.48 606.518 1112.99L609.686 1154.87C593.797 1156.07 578.793 1156.68 564.602 1156.68" fill="black"/></g><path id="Fill 20" fill-rule="evenodd" clip-rule="evenodd" d="M556.891 1026.95H393.447C373.115 1026.95 356.633 1010.47 356.633 990.135V725.813C356.633 705.481 373.115 688.999 393.447 688.999H556.891C577.223 688.999 593.705 705.481 593.705 725.813V990.135C593.705 1010.47 577.223 1026.95 556.891 1026.95" fill="white"/><g id="Group 24"><path id="Fill 22" fill-rule="evenodd" clip-rule="evenodd" d="M393.447 691C374.251 691 358.633 706.618 358.633 725.814V990.135C358.633 1009.33 374.251 1024.95 393.447 1024.95H556.891C576.088 1024.95 591.706 1009.33 591.706 990.135V725.814C591.706 706.618 576.088 691 556.891 691H393.447ZM556.891 1028.95H393.447C372.045 1028.95 354.633 1011.54 354.633 990.135V725.814C354.633 704.412 372.045 687 393.447 687H556.891C578.294 687 595.706 704.412 595.706 725.814V990.135C595.706 1011.54 578.294 1028.95 556.891 1028.95V1028.95Z" fill="black"/></g><path id="Fill 25" fill-rule="evenodd" clip-rule="evenodd" d="M636.613 1523.87H680.6V1161.61H636.613V1523.87Z" fill="black"/><path id="Fill 27" fill-rule="evenodd" clip-rule="evenodd" d="M548.287 1535.01C548.287 1516.71 563.125 1501.87 581.428 1501.87H735.783C754.086 1501.87 768.923 1516.71 768.923 1535.01H548.287Z" fill="black"/><path id="Fill 28" fill-rule="evenodd" clip-rule="evenodd" d="M752.164 1190.17H565.363C497.553 1191.2 497.495 1076.66 565.365 1077.69C565.363 1077.69 752.164 1077.69 752.164 1077.69C780.234 1077.69 802.99 1100.45 802.99 1128.52C806.905 1159.98 785.263 1190.47 752.164 1190.17" fill="white"/><path id="Fill 29" fill-rule="evenodd" clip-rule="evenodd" d="M564.516 1079.69C547.272 1079.69 533.137 1087.68 524.616 1102.27C513.731 1120.9 513.733 1146.94 524.622 1165.58C533.287 1180.42 547.727 1188.46 565.333 1188.17H752.183C752.332 1188.18 752.482 1188.18 752.63 1188.18C766.308 1188.18 778.817 1182.58 787.897 1172.39C798.083 1160.96 802.984 1144.65 801.007 1128.76L800.992 1128.52C800.992 1101.59 779.088 1079.69 752.165 1079.69C750.302 1079.69 565.857 1079.69 565.37 1079.69C565.084 1079.69 564.799 1079.69 564.516 1079.69M564.449 1192.18C545.796 1192.18 530.443 1183.48 521.168 1167.6C509.585 1147.77 509.582 1120.07 521.162 1100.25C530.582 1084.12 546.299 1075.41 565.397 1075.69L565.396 1075.74C565.957 1075.69 566.643 1075.69 567.464 1075.69H752.165C781.253 1075.69 804.925 1099.32 804.992 1128.39C807.101 1145.62 801.962 1162.62 790.883 1175.05C781.033 1186.11 767.464 1192.18 752.632 1192.18C752.472 1192.18 752.313 1192.18 752.153 1192.17H565.364C565.059 1192.18 564.752 1192.18 564.449 1192.18" fill="black"/><path id="Fill 43" fill-rule="evenodd" clip-rule="evenodd" d="M548.287 1545.48H558.753V1535.01H548.287V1545.48Z" fill="black"/><path id="Fill 44" fill-rule="evenodd" clip-rule="evenodd" d="M653.373 1545.48H663.839V1535.01H653.373V1545.48Z" fill="black"/><path id="Fill 45" fill-rule="evenodd" clip-rule="evenodd" d="M758.459 1545.48H768.924V1535.01H758.459V1545.48Z" fill="black"/><path id="Fill 46" fill-rule="evenodd" clip-rule="evenodd" d="M565.207 1555.52C565.107 1577.65 531.464 1577.64 531.367 1555.52C531.467 1533.39 565.11 1533.39 565.207 1555.52" fill="white"/><path id="Fill 47" fill-rule="evenodd" clip-rule="evenodd" d="M548.287 1540.92C541.133 1540.92 533.412 1545.49 533.367 1555.53C533.411 1565.54 541.132 1570.11 548.286 1570.11C555.438 1570.11 563.156 1565.55 563.206 1555.52C563.158 1545.49 555.44 1540.92 548.289 1540.92H548.287ZM548.287 1574.11H548.286C538.925 1574.11 529.421 1567.73 529.367 1555.53C529.422 1543.31 538.927 1536.92 548.287 1536.92H548.289C557.649 1536.92 567.153 1543.31 567.206 1555.51V1555.53C567.151 1567.73 557.647 1574.11 548.287 1574.11V1574.11Z" fill="black"/><path id="Fill 48" fill-rule="evenodd" clip-rule="evenodd" d="M675.684 1555.52C675.584 1577.65 641.941 1577.64 641.844 1555.52C641.944 1533.39 675.587 1533.39 675.684 1555.52" fill="white"/><path id="Fill 49" fill-rule="evenodd" clip-rule="evenodd" d="M658.765 1540.92C651.611 1540.92 643.889 1545.49 643.844 1555.53C643.888 1565.54 651.608 1570.11 658.763 1570.11C665.915 1570.11 673.634 1565.55 673.684 1555.52C673.635 1545.49 665.917 1540.92 658.765 1540.92M658.764 1574.11H658.762C649.402 1574.11 639.898 1567.73 639.844 1555.53C639.899 1543.31 649.404 1536.92 658.764 1536.92H658.766C668.126 1536.92 677.63 1543.31 677.684 1555.51V1555.53C677.629 1567.73 668.124 1574.11 658.764 1574.11" fill="black"/><path id="Fill 50" fill-rule="evenodd" clip-rule="evenodd" d="M785.843 1555.52C785.743 1577.65 752.1 1577.64 752.004 1555.52C752.103 1533.39 785.747 1533.39 785.843 1555.52" fill="white"/><path id="Fill 51" fill-rule="evenodd" clip-rule="evenodd" d="M768.925 1540.92C761.771 1540.92 754.049 1545.49 754.004 1555.53C754.048 1565.54 761.768 1570.11 768.923 1570.11C776.075 1570.11 783.794 1565.55 783.844 1555.52C783.795 1545.49 776.077 1540.92 768.925 1540.92M768.924 1574.11H768.922C759.562 1574.11 750.058 1567.73 750.004 1555.53C750.059 1543.31 759.564 1536.92 768.924 1536.92H768.926C778.286 1536.92 787.79 1543.31 787.844 1555.51V1555.53C787.789 1567.73 778.284 1574.11 768.924 1574.11" fill="black"/></g><g id="blue"><g id="shoe"><path id="Fill 1" fill-rule="evenodd" clip-rule="evenodd" d="M1004.44 1570.49C1004.14 1569.36 1004.85 1561.76 1003.64 1561.08C1003.26 1560.71 1002.75 1560.51 1002.23 1560.53L976.932 1561.19C973.493 1561.05 975.45 1569.35 974.921 1571.11L946.379 1571.72C945.022 1503.05 944.355 1433.7 943.873 1365.03L1031.61 1364.46C1031.97 1416.67 1032.47 1470.58 1033.27 1522.63C1033.26 1523.77 1034.34 1524.71 1035.47 1524.59C1056.36 1523.36 1086.36 1539.05 1085.71 1568.77L1004.44 1570.49Z" fill="white"/><path id="Fill 3" fill-rule="evenodd" clip-rule="evenodd" d="M1033.59 1362.54C1033.95 1415.29 1034.46 1470.03 1035.27 1522.6C1059.11 1521.59 1088.81 1538.44 1087.78 1570.62C1067.37 1571.08 1022.5 1572.09 1002.48 1572.54L1002.26 1562.53L976.984 1563.2L976.908 1573.11L944.424 1573.84C943.08 1505.04 942.309 1431.86 941.859 1363.14L1033.59 1362.54ZM1029.62 1366.37L945.885 1366.93C946.36 1434.32 947.024 1502.26 948.336 1569.64L972.935 1569.14C973.12 1565.93 971.852 1559.19 976.877 1559.18L1002.16 1558.52C1007.29 1558.29 1006.22 1565.21 1006.39 1568.45C1024.16 1568.08 1065.43 1567.23 1083.58 1566.86C1083.38 1539.44 1054.37 1525.4 1035.5 1526.59C1033.3 1526.75 1031.26 1524.87 1031.27 1522.66C1030.48 1471.18 1029.98 1417.98 1029.62 1366.37V1366.37Z" fill="black"/><path id="Fill 5" fill-rule="evenodd" clip-rule="evenodd" d="M946.137 1563.51L946.061 1559.51L1083.45 1556.89L1083.53 1560.89L946.137 1563.51Z" fill="black"/><path id="Fill 9" fill-rule="evenodd" clip-rule="evenodd" d="M1035.33 1561.81L1035.25 1557.81C1049.88 1557.53 1061.59 1545.46 1061.36 1530.91L1065.36 1530.84C1065.63 1547.59 1052.16 1561.48 1035.33 1561.81" fill="black"/><path id="Fill 11" fill-rule="evenodd" clip-rule="evenodd" d="M1031.52 1489.25C1031.52 1489.25 1015.34 1488.39 1015.7 1503.02C1015.85 1509.09 1010.29 1508.27 998.6 1508.44L946.336 1509.18" fill="white"/><path id="Fill 13" fill-rule="evenodd" clip-rule="evenodd" d="M946.333 1511.18C945.242 1511.18 944.35 1510.31 944.334 1509.21C944.318 1508.11 945.201 1507.2 946.306 1507.18L998.57 1506.44C999.998 1506.42 1001.34 1506.41 1002.58 1506.41C1007.84 1506.39 1011.99 1506.37 1013.18 1505.14C1013.32 1505 1013.74 1504.57 1013.7 1503.07C1013.59 1498.43 1014.96 1494.68 1017.79 1491.94C1023.02 1486.86 1031.28 1487.23 1031.63 1487.25C1032.73 1487.31 1033.57 1488.25 1033.52 1489.36C1033.46 1490.46 1032.51 1491.29 1031.42 1491.25C1031.29 1491.24 1024.5 1490.98 1020.56 1494.82C1018.58 1496.76 1017.62 1499.5 1017.7 1502.97C1017.75 1505.11 1017.21 1506.73 1016.05 1507.93C1013.69 1510.36 1009.51 1510.38 1002.6 1510.41C1001.36 1510.41 1000.04 1510.42 998.627 1510.44L946.362 1511.18H946.333Z" fill="black"/></g><path id="leg" fill-rule="evenodd" clip-rule="evenodd" d="M1061.81 1480.02L924.445 1481.72C923.293 1388.13 922.915 1289.33 922.758 1196.09C926.375 1109.42 824.169 1093.15 755.864 1091.36C676.501 1083.8 669.248 953.846 759.026 954.019C887.568 954.869 1032.2 1008.39 1056.04 1150.52C1058.84 1166.03 1060.12 1182.42 1060.2 1198.16C1060.22 1290.06 1060.7 1387.85 1061.81 1480.02" fill="#10c446"/></g><g id="black"><g id="shoe_2"><path id="Fill 7" fill-rule="evenodd" clip-rule="evenodd" d="M972.667 1561C972.394 1546.44 960.491 1534.75 946.048 1534.75C945.909 1534.75 945.772 1534.75 945.635 1534.75L945.572 1530.75C945.73 1530.75 945.891 1530.75 946.048 1530.75C962.663 1530.75 976.352 1544.19 976.667 1560.93L972.667 1561Z" fill="black"/><path id="Fill 34" fill-rule="evenodd" clip-rule="evenodd" d="M899.966 1573.57C899.668 1572.47 900.383 1565.17 899.181 1564.52C898.799 1564.17 898.289 1563.98 897.762 1563.99L872.469 1564.65C869.051 1564.48 870.971 1572.45 870.451 1574.19L841.909 1574.8C840.686 1509.77 839.857 1438.94 839.445 1374.15L927.177 1373.55C929.645 1424.53 923.996 1481.12 931.023 1529.4C951.154 1528.15 981.904 1542.8 981.243 1571.85L899.966 1573.57Z" fill="white"/><path id="Fill 35" fill-rule="evenodd" clip-rule="evenodd" d="M929.164 1371.62C929.516 1423.59 930.031 1475.56 930.825 1527.48C953.656 1526.48 984.306 1541.89 983.311 1573.62C962.901 1574.08 918.029 1575.09 898.012 1575.54L897.801 1565.91L872.522 1566.58L872.438 1576.11L839.954 1576.84C838.638 1509.92 837.883 1439.05 837.432 1372.24L929.164 1371.62ZM925.19 1375.49L841.458 1376.07C841.923 1441.72 842.594 1507.05 843.87 1572.8L868.469 1572.29C868.64 1569.12 867.435 1562.71 872.418 1562.72L897.697 1562.06C902.748 1561.78 901.792 1568.41 901.924 1571.6C919.692 1571.24 960.968 1570.39 979.114 1570.01C978.926 1543.24 949.198 1530.1 931.058 1531.32C928.906 1531.48 926.82 1529.72 926.825 1527.55C926.051 1476.89 925.54 1426.19 925.19 1375.49V1375.49Z" fill="black"/><path id="Fill 36" fill-rule="evenodd" clip-rule="evenodd" d="M841.676 1566.98L841.6 1562.98L978.987 1560.35L979.064 1564.35L841.676 1566.98Z" fill="black"/><path id="Fill 37" fill-rule="evenodd" clip-rule="evenodd" d="M868.203 1564.47C867.938 1550.51 856.053 1539.32 841.617 1539.32C841.473 1539.32 841.33 1539.32 841.185 1539.32L841.123 1535.32C841.288 1535.32 841.454 1535.32 841.617 1535.32C858.224 1535.32 871.896 1548.26 872.203 1564.39L868.203 1564.47Z" fill="black"/><path id="Fill 38" fill-rule="evenodd" clip-rule="evenodd" d="M930.865 1565.27L930.787 1561.27C945.421 1560.99 957.14 1549.41 956.913 1535.46L960.913 1535.39C961.176 1551.54 947.697 1564.94 930.865 1565.27" fill="black"/><path id="Fill 39" fill-rule="evenodd" clip-rule="evenodd" d="M927.089 1495.42C927.089 1495.42 910.913 1494.6 911.269 1508.67C911.415 1514.51 905.858 1513.73 894.163 1513.89L841.9 1514.65" fill="white"/><path id="Fill 40" fill-rule="evenodd" clip-rule="evenodd" d="M841.898 1516.64C840.807 1516.64 839.915 1515.77 839.899 1514.67C839.883 1513.57 840.766 1512.66 841.871 1512.64L894.135 1511.89C895.561 1511.87 896.897 1511.87 898.142 1511.86C903.44 1511.84 907.624 1511.82 908.794 1510.61C908.92 1510.48 909.303 1510.09 909.269 1508.72C909.158 1504.33 910.478 1500.76 913.192 1498.11C918.401 1493.03 926.837 1493.4 927.19 1493.42C928.293 1493.47 929.142 1494.41 929.086 1495.52C929.032 1496.62 928.051 1497.46 926.991 1497.41C926.835 1497.41 919.89 1497.15 915.971 1500.99C914.07 1502.85 913.185 1505.35 913.267 1508.62C913.319 1510.67 912.794 1512.23 911.665 1513.39C909.324 1515.81 905.123 1515.83 898.162 1515.86C896.928 1515.87 895.605 1515.87 894.192 1515.89L841.927 1516.64H841.898Z" fill="black"/></g><g id="leg"><path id="Fill 41" fill-rule="evenodd" clip-rule="evenodd" d="M820.266 1488.24C817.968 1388.45 820.654 1282.25 817.379 1182.42C807.906 1107.78 714.656 1096.11 652.059 1093.31C571.76 1085.67 564.785 956.634 655.441 956.91C759.407 958.622 881.634 992.088 931.658 1092.72C949.436 1127.57 956.29 1166.25 955.979 1204.72C955.994 1296.43 956.49 1395.05 957.632 1486.51L820.266 1488.24Z" fill="black"/><path id="Fill 42" fill-rule="evenodd" clip-rule="evenodd" d="M536.979 982.075C537.437 834.015 802.56 834.03 802.992 982.083C802.535 1130.13 537.411 1130.12 536.979 982.075" fill="black"/></g></g><path id="Rectangle" d="M537.619 871.311H670.619V1093.31H596.619C564.034 1093.31 537.619 1066.9 537.619 1034.31V871.311Z" fill="black"/></g><g id="Upper Body" transform="translate(17 301) scale(1 1)"><g id="Upper Body/Running"><g id="left"><g id="Group 3"><path id="Fill 1" fill-rule="evenodd" clip-rule="evenodd" d="M1042.04 238.292L943.271 242.359C932.689 242.81 924.4 249.837 924.665 258.03C925.265 331.278 930.334 408.621 904.941 477.883C904.487 479.044 903.143 479.316 902.193 478.628C874.064 460.577 851.816 432.993 830.687 406.194C822.013 394.893 813.57 383.161 805.371 371.186C787.813 345.984 752.785 341.516 726.253 357.08C697.874 373.614 689.237 410.568 707.955 437.834C726.95 465.5 746.812 491.972 769.492 517.327C791.323 541.553 817.232 566.526 846.98 582.995C901.771 615.683 969.43 601.941 1002.13 545.847C1051.05 460.338 1043.88 334.217 1042.04 238.292" fill="white"/><path id="Fill 3" fill-rule="evenodd" clip-rule="evenodd" d="M727.266 358.806C714.104 366.474 704.657 379.337 701.343 394.099C698.008 408.954 700.942 424.085 709.605 436.704C731.115 468.033 750.619 493.228 770.984 515.994C798.759 546.818 823.217 567.554 847.95 581.246C875.401 597.622 906.383 602.521 935.248 595.071C962.477 588.045 985.615 570.206 1000.4 544.841C1045.24 466.464 1042.63 352.64 1040.54 261.181C1040.38 254.115 1040.22 247.171 1040.08 240.376L943.355 244.359C933.924 244.76 926.435 250.864 926.664 257.966C926.742 267.292 926.892 276.817 927.038 286.028C928.062 350.782 929.121 417.742 906.82 478.573C906.375 479.71 905.495 480.525 904.388 480.85C903.278 481.176 902.045 480.965 901.075 480.287C871.671 461.405 848.077 431.481 829.118 407.433C820.801 396.599 812.262 384.791 803.722 372.317C793.636 357.839 776.783 350.077 759.056 350.077C748.346 350.077 737.318 352.909 727.266 358.806ZM845.956 584.714C820.879 570.832 796.093 549.835 768.007 518.667C747.521 495.765 727.917 470.442 706.307 438.968C697.008 425.421 693.859 409.176 697.44 393.223C700.997 377.379 711.132 363.576 725.247 355.353C753.718 338.65 789.636 345.102 807.013 370.044C815.522 382.472 824.018 394.22 832.274 404.977C851.021 428.753 874.366 458.363 903.179 476.885C925.106 416.862 924.056 350.382 923.038 286.091C922.892 276.872 922.742 267.34 922.665 258.047C922.367 248.811 931.573 240.856 943.187 240.362L1041.96 236.295C1042.5 236.274 1043.02 236.468 1043.41 236.837C1043.8 237.206 1044.03 237.717 1044.04 238.255C1044.18 245.696 1044.36 253.318 1044.54 261.089C1046.64 353.044 1049.26 467.484 1003.87 546.841C988.529 573.15 964.518 591.648 936.248 598.944C927.11 601.302 917.77 602.469 908.398 602.469C887.096 602.469 865.623 596.446 845.956 584.714Z" fill="black"/></g><g id="Group 4"><path id="Fill 5" fill-rule="evenodd" clip-rule="evenodd" d="M971.52 246.907C970.944 232.253 970.216 217.596 969.38 202.941C968.19 184.542 944.807 185.999 945.813 204.313C946.844 222.109 947.681 239.886 948.273 257.626" fill="white"/><path id="Fill 7" fill-rule="evenodd" clip-rule="evenodd" d="M948.271 259.626C947.197 259.626 946.309 258.774 946.273 257.693C945.707 240.722 944.88 222.802 943.815 204.429C943.247 194.09 949.846 188.271 956.658 187.863C965.653 187.321 970.869 194.977 971.375 202.812C972.267 218.446 972.967 232.839 973.517 246.829C973.561 247.932 972.702 248.862 971.597 248.906C970.496 248.951 969.564 248.089 969.521 246.986C968.971 233.02 968.272 218.65 967.382 203.055C966.86 194.965 961.568 191.577 956.897 191.856C952.209 192.136 947.365 196.12 947.809 204.204C948.875 222.603 949.704 240.556 950.271 257.559C950.308 258.663 949.443 259.588 948.338 259.625C948.316 259.626 948.293 259.626 948.271 259.626" fill="black"/><path id="Fill 9" fill-rule="evenodd" clip-rule="evenodd" d="M971.519 246.907C970.943 232.253 970.215 217.596 969.379 202.941C968.905 195.165 973.788 188.52 980.294 188.098C986.798 187.677 992.466 193.708 992.946 201.569C993.79 216.366 994.526 231.175 995.108 246" fill="white"/><path id="Fill 11" fill-rule="evenodd" clip-rule="evenodd" d="M971.519 248.907C970.451 248.907 969.564 248.063 969.522 246.986C968.972 233.019 968.273 218.649 967.383 203.055C966.843 194.202 972.578 186.594 980.166 186.103C983.429 185.89 986.691 187.054 989.327 189.377C992.604 192.268 994.652 196.667 994.943 201.447C995.844 217.235 996.552 231.78 997.107 245.922C997.151 247.025 996.291 247.955 995.187 247.999C994.1 248.04 993.154 247.182 993.111 246.079C992.556 231.961 991.849 217.439 990.95 201.683C990.723 197.964 989.167 194.57 986.681 192.378C984.824 190.74 982.674 189.951 980.424 190.094C975.029 190.444 970.97 196.152 971.376 202.819C972.268 218.445 972.968 232.838 973.518 246.828C973.562 247.932 972.703 248.862 971.598 248.906C971.572 248.907 971.545 248.907 971.519 248.907" fill="black"/><path id="Fill 13" fill-rule="evenodd" clip-rule="evenodd" d="M995.109 246C994.527 231.175 993.792 216.366 992.947 201.568C992.468 193.72 997.348 187.018 1003.85 186.596C1010.36 186.175 1016.03 192.263 1016.51 200.196C1017.37 215.135 1018.11 230.098 1018.7 245.093" fill="white"/><g id="Group 17"><path id="Fill 15" fill-rule="evenodd" clip-rule="evenodd" d="M995.108 248C994.04 248 993.153 247.156 993.111 246.078C992.556 231.961 991.849 217.439 990.95 201.682C990.406 192.758 996.136 185.092 1003.72 184.6C1006.97 184.387 1010.22 185.55 1012.84 187.868C1016.15 190.782 1018.21 195.231 1018.51 200.074C1019.42 216.03 1020.14 230.727 1020.7 245.015C1020.74 246.118 1019.88 247.048 1018.78 247.092C1017.69 247.136 1016.74 246.275 1016.7 245.172C1016.14 230.908 1015.43 216.234 1014.52 200.31C1014.29 196.528 1012.71 193.084 1010.2 190.868C1008.35 189.235 1006.2 188.447 1003.98 188.592C998.587 188.941 994.532 194.708 994.943 201.447C995.844 217.235 996.552 231.78 997.107 245.922C997.151 247.025 996.292 247.955 995.187 247.999C995.161 248 995.134 248 995.108 248" fill="black"/></g><path id="Fill 18" fill-rule="evenodd" clip-rule="evenodd" d="M948.692 271.775C948.5 263.857 948.221 255.924 947.939 247.991C947.121 229.802 923.713 230.836 924.349 248.896C925.018 266.436 925.454 283.917 925.582 301.286" fill="white"/><path id="Fill 20" fill-rule="evenodd" clip-rule="evenodd" d="M925.581 303.286C924.483 303.286 923.59 302.4 923.581 301.301C923.458 284.606 923.056 267.489 922.35 248.972C921.99 238.748 928.708 233.124 935.531 232.851C944.511 232.482 949.588 240.149 949.936 247.901C950.239 256.417 950.505 264.074 950.69 271.726C950.718 272.83 949.844 273.747 948.74 273.774C947.638 273.794 946.719 272.928 946.692 271.823C946.507 264.192 946.241 256.547 945.939 248.062C945.581 240.094 940.359 236.662 935.691 236.848C930.995 237.036 926.067 240.865 926.347 248.826C927.055 267.379 927.458 284.536 927.581 301.271C927.59 302.376 926.701 303.278 925.596 303.286H925.581Z" fill="black"/><path id="Fill 22" fill-rule="evenodd" clip-rule="evenodd" d="M1018.7 245.093C1020.32 231.474 1009.21 197.851 1028.04 195.257C1047.39 195.816 1039.64 230.664 1042.29 244.186" fill="white"/><path id="Fill 24" fill-rule="evenodd" clip-rule="evenodd" d="M1018.7 247.094C1018.62 247.094 1018.54 247.089 1018.46 247.08C1017.37 246.949 1016.58 245.955 1016.71 244.858C1017.15 241.198 1016.58 235.741 1015.98 229.963C1014.38 214.562 1012.39 195.395 1027.77 193.277C1027.88 193.261 1027.99 193.256 1028.1 193.259C1044.08 193.72 1043.86 213.466 1043.68 229.332C1043.62 234.96 1043.56 240.277 1044.25 243.802C1044.46 244.886 1043.76 245.937 1042.67 246.15C1041.58 246.362 1040.54 245.655 1040.33 244.572C1039.56 240.643 1039.62 235.127 1039.68 229.288C1039.88 211.427 1039.15 197.718 1028.15 197.263C1017.62 198.85 1018.16 212.233 1019.96 229.55C1020.58 235.555 1021.17 241.227 1020.69 245.33C1020.57 246.346 1019.7 247.094 1018.7 247.094" fill="black"/></g></g><g id="torso"><path id="Fill 26" fill-rule="evenodd" clip-rule="evenodd" d="M828.395 670.716C829.415 681.639 820.821 691.073 809.85 691.073H514.111C504.447 691.073 496.276 683.919 495 674.34L510.307 406.595C506.03 374.514 530.989 346.007 563.355 346.007H756.779C798.71 346.319 831.761 383.844 828.304 425.568L828.395 670.716" fill="#10c446"/><path id="Fill 28" fill-rule="evenodd" clip-rule="evenodd" d="M741.336 346.008C717.121 244.035 537.082 316.126 653.996 401.243C656.095 402.948 659.143 402.783 661.056 400.869L674.922 387.003L688.742 373.183C695.36 379.615 708.968 392.829 715.631 399.304C725.826 409.815 742.157 358.983 741.336 346.008" fill="black"/><g id="Group 6"><path id="Fill 30" fill-rule="evenodd" clip-rule="evenodd" d="M589.294 384.805C583.22 384.874 583.251 375.333 589.324 375.442C595.398 375.373 595.368 384.914 589.294 384.805" fill="black"/><path id="Fill 32" fill-rule="evenodd" clip-rule="evenodd" d="M625.513 470.724C619.439 470.794 619.469 461.253 625.543 461.361C631.617 461.292 631.587 470.833 625.513 470.724" fill="black"/><path id="Fill 34" fill-rule="evenodd" clip-rule="evenodd" d="M592.017 510.576C585.943 510.645 585.973 501.104 592.047 501.213C598.121 501.144 598.09 510.685 592.017 510.576" fill="black"/><path id="Fill 36" fill-rule="evenodd" clip-rule="evenodd" d="M532.361 510.576C526.287 510.645 526.317 501.104 532.391 501.213C538.465 501.144 538.435 510.685 532.361 510.576" fill="black"/><path id="Fill 38" fill-rule="evenodd" clip-rule="evenodd" d="M552.927 549.87C546.853 549.939 546.883 540.398 552.957 540.507C559.031 540.438 559.001 549.979 552.927 549.87" fill="black"/><path id="Fill 40" fill-rule="evenodd" clip-rule="evenodd" d="M616.99 556.255C610.916 556.324 610.946 546.784 617.02 546.892C623.094 546.823 623.064 556.364 616.99 556.255" fill="black"/><path id="Fill 42" fill-rule="evenodd" clip-rule="evenodd" d="M519.435 589.722C513.361 589.792 513.391 580.251 519.465 580.359C525.539 580.29 525.509 589.831 519.435 589.722" fill="black"/><path id="Fill 44" fill-rule="evenodd" clip-rule="evenodd" d="M583.494 596.108C577.42 596.177 577.45 586.636 583.524 586.745C589.598 586.676 589.568 596.217 583.494 596.108" fill="black"/><path id="Fill 46" fill-rule="evenodd" clip-rule="evenodd" d="M544.403 635.402C538.329 635.471 538.36 625.93 544.433 626.039C550.507 625.97 550.477 635.511 544.403 635.402" fill="black"/><path id="Fill 48" fill-rule="evenodd" clip-rule="evenodd" d="M608.462 641.787C602.388 641.856 602.418 632.315 608.492 632.424C614.566 632.355 614.536 641.896 608.462 641.787" fill="black"/><path id="Fill 50" fill-rule="evenodd" clip-rule="evenodd" d="M510.908 675.254C504.834 675.324 504.864 665.783 510.938 665.891C517.012 665.822 516.982 675.363 510.908 675.254" fill="black"/><path id="Fill 52" fill-rule="evenodd" clip-rule="evenodd" d="M574.966 681.639C568.892 681.708 568.922 672.167 574.996 672.276C581.07 672.207 581.04 681.748 574.966 681.639" fill="black"/><path id="Fill 54" fill-rule="evenodd" clip-rule="evenodd" d="M759.607 385.192C753.533 385.262 753.564 375.721 759.637 375.829C765.711 375.76 765.681 385.301 759.607 385.192" fill="black"/><path id="Fill 56" fill-rule="evenodd" clip-rule="evenodd" d="M662.052 418.659C655.978 418.728 656.009 409.187 662.082 409.296C668.156 409.227 668.126 418.768 662.052 418.659" fill="black"/><path id="Fill 58" fill-rule="evenodd" clip-rule="evenodd" d="M726.11 425.044C720.036 425.113 720.067 415.572 726.14 415.681C732.214 415.612 732.184 425.153 726.11 425.044" fill="black"/><path id="Fill 60" fill-rule="evenodd" clip-rule="evenodd" d="M687.021 464.339C680.947 464.408 680.977 454.867 687.051 454.976C693.125 454.907 693.095 464.448 687.021 464.339" fill="black"/><path id="Fill 62" fill-rule="evenodd" clip-rule="evenodd" d="M751.08 470.724C745.006 470.794 745.036 461.253 751.11 461.361C757.184 461.292 757.154 470.833 751.08 470.724" fill="black"/><path id="Fill 64" fill-rule="evenodd" clip-rule="evenodd" d="M653.525 504.191C647.451 504.261 647.481 494.72 653.555 494.828C659.629 494.759 659.599 504.3 653.525 504.191" fill="black"/><path id="Fill 66" fill-rule="evenodd" clip-rule="evenodd" d="M717.583 510.576C711.509 510.645 711.539 501.104 717.613 501.213C723.687 501.144 723.656 510.685 717.583 510.576" fill="black"/><path id="Fill 68" fill-rule="evenodd" clip-rule="evenodd" d="M678.494 549.87C672.42 549.939 672.45 540.398 678.524 540.507C684.598 540.438 684.568 549.979 678.494 549.87" fill="black"/><path id="Fill 70" fill-rule="evenodd" clip-rule="evenodd" d="M742.556 556.255C736.482 556.324 736.512 546.784 742.586 546.892C748.66 546.823 748.63 556.364 742.556 556.255" fill="black"/><path id="Fill 72" fill-rule="evenodd" clip-rule="evenodd" d="M645.001 589.722C638.927 589.792 638.957 580.251 645.031 580.359C651.105 580.29 651.075 589.831 645.001 589.722" fill="black"/><path id="Fill 74" fill-rule="evenodd" clip-rule="evenodd" d="M709.06 596.108C702.986 596.177 703.016 586.636 709.09 586.745C715.164 586.676 715.134 596.217 709.06 596.108" fill="black"/><path id="Fill 76" fill-rule="evenodd" clip-rule="evenodd" d="M669.97 635.402C663.896 635.471 663.927 625.93 670 626.039C676.074 625.97 676.044 635.511 669.97 635.402" fill="black"/><path id="Fill 78" fill-rule="evenodd" clip-rule="evenodd" d="M734.028 641.787C727.954 641.856 727.985 632.315 734.058 632.424C740.132 632.355 740.102 641.896 734.028 641.787" fill="black"/><path id="Fill 80" fill-rule="evenodd" clip-rule="evenodd" d="M636.474 675.254C630.4 675.324 630.431 665.783 636.504 665.891C642.578 665.822 642.548 675.363 636.474 675.254" fill="black"/><path id="Fill 82" fill-rule="evenodd" clip-rule="evenodd" d="M700.533 681.639C694.459 681.708 694.489 672.167 700.563 672.276C706.637 672.207 706.607 681.748 700.533 681.639" fill="black"/><path id="Fill 84" fill-rule="evenodd" clip-rule="evenodd" d="M787.619 418.659C781.545 418.728 781.575 409.187 787.649 409.296C793.723 409.227 793.692 418.768 787.619 418.659" fill="black"/><path id="Fill 86" fill-rule="evenodd" clip-rule="evenodd" d="M812.587 464.339C806.513 464.408 806.543 454.867 812.617 454.976C818.691 454.907 818.661 464.448 812.587 464.339" fill="black"/><path id="Fill 88" fill-rule="evenodd" clip-rule="evenodd" d="M779.091 504.191C773.017 504.261 773.047 494.72 779.121 494.828C785.195 494.759 785.165 504.3 779.091 504.191" fill="black"/><path id="Fill 90" fill-rule="evenodd" clip-rule="evenodd" d="M804.06 549.87C797.986 549.939 798.016 540.398 804.09 540.507C810.164 540.438 810.134 549.979 804.06 549.87" fill="black"/><path id="Fill 92" fill-rule="evenodd" clip-rule="evenodd" d="M770.568 589.722C764.494 589.792 764.524 580.251 770.598 580.359C776.672 580.29 776.642 589.831 770.568 589.722" fill="black"/><path id="Fill 94" fill-rule="evenodd" clip-rule="evenodd" d="M795.537 635.402C789.463 635.471 789.493 625.93 795.567 626.039C801.641 625.97 801.61 635.511 795.537 635.402" fill="black"/><path id="Fill 96" fill-rule="evenodd" clip-rule="evenodd" d="M762.04 675.254C755.966 675.324 755.997 665.783 762.07 665.891C768.144 665.822 768.114 675.363 762.04 675.254" fill="black"/></g></g><g id="right"><path id="Fill 98" fill-rule="evenodd" clip-rule="evenodd" d="M382.203 759.706L455.533 693.415C462.294 687.349 466.042 676.907 460.202 669.817C432.786 637.729 360.832 552.103 384.102 510.522C419.802 470.928 500.873 467.653 552.775 465.196C581.916 464.026 601.326 436.145 603.374 407.102C605.807 375.477 582.58 346.638 550.428 347.188C503.548 348.247 455.326 352.909 408.972 365.835C325.398 387.119 252.086 449.365 261.867 543.038C271.155 627.816 328.334 698.451 382.203 759.706" fill="white"/><g id="Group 102"><path id="Fill 100" fill-rule="evenodd" clip-rule="evenodd" d="M551.321 349.181C551.034 349.181 550.749 349.183 550.461 349.188C496.03 350.417 449.92 356.493 409.508 367.762C366.043 378.832 327.836 400.45 301.882 428.646C272.533 460.528 259.384 500.012 263.855 542.831C272.937 625.725 327.199 694.032 382.365 756.862L454.191 691.931C460.308 686.442 463.648 677.148 458.657 671.088C433.761 641.951 357.927 553.197 382.356 509.546C382.429 509.416 382.516 509.294 382.616 509.183C418.363 469.536 497.841 465.786 550.433 463.305L552.679 463.199C581.822 462.029 599.517 433.351 601.378 406.962C602.591 391.191 597.256 375.752 586.74 364.59C577.361 354.633 564.81 349.181 551.321 349.181M382.202 761.706C382.164 761.706 382.126 761.705 382.088 761.703C381.553 761.672 381.053 761.429 380.7 761.027C353.749 730.381 325.757 697.082 303.614 661.244C278.414 620.458 264.107 581.864 259.877 543.256C255.283 499.253 268.79 458.688 298.939 425.937C325.412 397.177 364.314 375.145 408.477 363.897C449.171 352.549 495.602 346.425 550.382 345.189C565.372 344.939 579.291 350.849 589.652 361.848C600.937 373.827 606.665 390.377 605.367 407.255C603.385 435.364 584.306 465.932 552.854 467.195L550.621 467.301C498.769 469.747 420.446 473.443 385.738 511.694C376.302 528.848 382.733 556.098 404.855 592.695C424.007 624.377 450.436 655.309 461.721 668.518C468.261 676.458 464.383 688.161 456.868 694.904L383.543 761.19C383.175 761.523 382.696 761.706 382.202 761.706" fill="black"/></g><g id="Group"><path id="Fill 103" fill-rule="evenodd" clip-rule="evenodd" d="M430.934 708.009C440.636 718.874 450.619 729.521 460.794 740.001C466.2 745.581 474.405 746.306 479.011 741.715C483.641 737.105 483.016 729.012 477.735 723.561C465.511 710.96 453.618 698.14 442.179 685.075" fill="white"/><path id="Fill 105" fill-rule="evenodd" clip-rule="evenodd" d="M471.38 746.727C471.338 746.727 471.296 746.727 471.254 746.727C466.941 746.689 462.604 744.745 459.357 741.392C448.508 730.218 438.722 719.734 429.442 709.341C428.706 708.517 428.777 707.253 429.601 706.517C430.425 705.782 431.69 705.852 432.425 706.677C441.668 717.028 451.417 727.472 462.229 738.607C464.737 741.197 468.039 742.698 471.289 742.727C471.318 742.727 471.349 742.727 471.38 742.727C473.819 742.727 476.025 741.866 477.598 740.298C481.406 736.507 480.822 729.623 476.298 724.952C463.612 711.876 451.627 698.903 440.673 686.393C439.946 685.562 440.03 684.298 440.861 683.571C441.692 682.843 442.956 682.927 443.683 683.758C454.591 696.217 466.531 709.14 479.17 722.168C485.209 728.403 485.77 737.807 480.421 743.132C478.093 745.453 474.886 746.727 471.38 746.727" fill="black"/><path id="Fill 107" fill-rule="evenodd" clip-rule="evenodd" d="M430.936 708.009C440.638 718.874 450.621 729.521 460.796 740.001C466.184 745.563 466.887 753.733 462.258 758.345C457.651 762.935 449.367 762.131 443.855 756.441C433.48 745.756 423.28 734.877 413.332 723.737" fill="white"/><path id="Fill 109" fill-rule="evenodd" clip-rule="evenodd" d="M454.702 763.314C454.659 763.314 454.616 763.314 454.573 763.314C450.186 763.274 445.756 761.277 442.419 757.832C431.346 746.427 421.343 735.709 411.841 725.068C411.105 724.244 411.176 722.98 412 722.244C412.824 721.509 414.088 721.58 414.824 722.404C424.289 733.003 434.255 743.681 445.291 755.047C447.89 757.73 451.285 759.284 454.609 759.314C457.069 759.341 459.281 758.488 460.847 756.928C464.653 753.136 463.986 746.167 459.361 741.391C448.512 730.218 438.726 719.733 429.445 709.34C428.709 708.517 428.781 707.252 429.605 706.517C430.429 705.781 431.693 705.852 432.429 706.676C441.672 717.027 451.421 727.472 462.232 738.607C468.372 744.946 469.016 754.435 463.67 759.761C461.368 762.055 458.187 763.314 454.702 763.314" fill="black"/><path id="Fill 111" fill-rule="evenodd" clip-rule="evenodd" d="M413.332 723.737C423.28 734.877 433.481 745.756 443.855 756.442C449.35 762.113 450.131 770.362 445.503 774.975C440.895 779.564 432.533 778.682 426.914 772.882C416.34 761.99 405.921 750.881 395.727 739.465" fill="white"/><path id="Fill 113" fill-rule="evenodd" clip-rule="evenodd" d="M438.018 779.904C437.975 779.904 437.931 779.904 437.888 779.904C433.428 779.863 428.905 777.811 425.477 774.273C414.166 762.623 403.946 751.672 394.235 740.797C393.499 739.973 393.57 738.708 394.394 737.973C395.218 737.237 396.482 737.308 397.218 738.133C406.893 748.966 417.075 759.877 428.349 771.488C431.038 774.264 434.527 775.873 437.924 775.904C440.419 775.93 442.529 775.115 444.092 773.558C447.895 769.767 447.145 762.712 442.418 757.833C431.345 746.428 421.342 735.71 411.84 725.069C411.104 724.245 411.175 722.981 411.999 722.245C412.823 721.51 414.087 721.581 414.823 722.405C424.289 733.004 434.254 743.682 445.29 755.049C451.637 761.6 452.35 770.975 446.915 776.392C444.637 778.66 441.482 779.904 438.018 779.904" fill="black"/><path id="Fill 115" fill-rule="evenodd" clip-rule="evenodd" d="M433.172 674.585C441.445 682.776 452.91 704.958 466.304 694.289V694.289C471.072 689.875 470.943 681.877 466.03 676.427C454.768 663.775 443.941 650.95 433.862 637.959" fill="white"/><path id="Fill 117" fill-rule="evenodd" clip-rule="evenodd" d="M459.001 699.139C456.232 699.139 453.389 698.17 450.487 696.229C445.669 693.008 441.347 687.579 437.534 682.79C435.463 680.188 433.506 677.73 431.765 676.006C430.98 675.229 430.974 673.963 431.751 673.178C432.528 672.393 433.794 672.387 434.58 673.164C436.488 675.054 438.517 677.601 440.664 680.299C444.295 684.86 448.41 690.029 452.71 692.904C457.245 695.937 461.039 695.897 464.999 692.772C468.903 689.096 468.706 682.382 464.545 677.766C452.339 664.055 441.789 651.438 432.283 639.185C431.605 638.312 431.764 637.056 432.637 636.379C433.511 635.702 434.766 635.861 435.443 636.733C444.894 648.914 455.388 661.463 467.524 675.097C473.153 681.341 473.219 690.613 467.664 695.756C467.627 695.79 467.589 695.822 467.551 695.853C464.801 698.043 461.943 699.139 459.001 699.139" fill="black"/><path id="Fill 119" fill-rule="evenodd" clip-rule="evenodd" d="M395.725 739.464C403.224 751.138 433.992 770.104 421.467 784.22C406.53 796.573 388.721 764.018 378.121 755.192" fill="white"/><g id="Group 123"><path id="Fill 121" fill-rule="evenodd" clip-rule="evenodd" d="M414.375 789C404.362 789 394.237 776.755 386.378 767.252C382.85 762.986 379.518 758.957 376.842 756.728C375.993 756.022 375.878 754.76 376.584 753.911C377.291 753.063 378.552 752.948 379.401 753.654C382.364 756.121 385.811 760.289 389.46 764.703C401.066 778.737 411.384 789.784 420.074 782.776C426.928 774.854 417.801 764.87 405.162 752.655C400.632 748.276 396.352 744.139 394.043 740.545C393.446 739.615 393.716 738.378 394.645 737.781C395.574 737.183 396.812 737.453 397.408 738.383C399.467 741.586 403.584 745.566 407.942 749.779C419.157 760.618 433.114 774.108 422.964 785.547C422.896 785.624 422.822 785.696 422.742 785.761C419.998 788.031 417.191 789 414.375 789V789Z" fill="black"/></g></g></g></g></g><g id="Hairstyle" transform="translate(637 450) scale(1 1)"><g id="Hairstyle/Two Ponytails"><g id="hair"><g id="Group 3"><path id="Fill 1" fill-rule="evenodd" clip-rule="evenodd" d="M129 85C129 117.584 101.017 144 66.4995 144C31.9817 144 4 117.584 4 85C4 52.4155 31.9817 26 66.4995 26C101.017 26 129 52.4155 129 85" fill="black"/></g><g id="Group 9"><path id="Fill 7" fill-rule="evenodd" clip-rule="evenodd" d="M92.8428 91.7493H112.731C135.212 91.7493 153.436 109.973 153.436 132.454V152.342H115.945C103.186 152.342 92.8428 141.999 92.8428 129.24V91.7493Z" fill="black"/></g><g id="Group 6"><path id="Fill 4" fill-rule="evenodd" clip-rule="evenodd" d="M30.593 91.7493H10.705C-11.776 91.7493 -30 109.973 -30 132.454V152.342H7.491C20.25 152.342 30.593 141.999 30.593 129.24V91.7493Z" fill="black"/></g></g><g id="head"><path id="Fill 10" fill-rule="evenodd" clip-rule="evenodd" d="M131.969 106.673C131.969 115.086 125.149 121.906 116.737 121.906C108.323 121.906 101.504 115.086 101.504 106.673C101.504 98.2596 108.323 91.4396 116.737 91.4396C125.149 91.4396 131.969 98.2596 131.969 106.673" fill="white"/><path id="Fill 12" fill-rule="evenodd" clip-rule="evenodd" d="M116.737 93.44C109.44 93.44 103.504 99.376 103.504 106.673C103.504 113.969 109.44 119.906 116.737 119.906C124.033 119.906 129.969 113.969 129.969 106.673C129.969 99.376 124.033 93.44 116.737 93.44M116.737 123.906C107.235 123.906 99.5039 116.175 99.5039 106.673C99.5039 97.17 107.235 89.44 116.737 89.44C126.239 89.44 133.969 97.17 133.969 106.673C133.969 116.175 126.239 123.906 116.737 123.906" fill="black"/><path id="Fill 14" fill-rule="evenodd" clip-rule="evenodd" d="M65.6332 206.168V206.168C46.6762 206.168 29.1992 191.63 29.1992 174.273L45.3092 114.61C45.3092 97.253 40.6762 83.182 59.6332 83.182H79.6332C98.5902 83.182 93.9572 97.253 93.9572 114.61V174.74C93.9572 192.097 84.5902 206.168 65.6332 206.168" fill="white"/><path id="Fill 16" fill-rule="evenodd" clip-rule="evenodd" d="M31.2012 174.533C31.3742 190.35 47.3902 204.168 65.6342 204.168C85.0422 204.168 91.9582 188.967 91.9582 174.74V114.61C91.9582 111.562 92.0962 108.666 92.2302 105.865C92.5972 98.1577 92.9142 91.5027 89.7352 88.1677C87.8192 86.1587 84.5152 85.1817 79.6342 85.1817H59.6342C54.7522 85.1817 51.4492 86.1587 49.5332 88.1677C46.3532 91.5027 46.6702 98.1587 47.0382 105.865C47.1712 108.666 47.3092 111.563 47.3092 114.61V114.876L47.2402 115.132L31.2012 174.533ZM65.6342 208.168C45.1592 208.168 27.2002 192.329 27.2002 174.273V174.008L43.3092 114.346C43.3012 111.488 43.1702 108.728 43.0422 106.055C42.6312 97.4307 42.2762 89.9827 46.6382 85.4077C49.3492 82.5637 53.5992 81.1817 59.6342 81.1817H79.6342C85.6682 81.1817 89.9192 82.5637 92.6302 85.4077C96.9922 89.9827 96.6372 97.4307 96.2252 106.055C96.0942 108.81 95.9582 111.658 95.9582 114.61V174.74C95.9582 195.047 84.0552 208.168 65.6342 208.168V208.168Z" fill="black"/><path id="Fill 18" fill-rule="evenodd" clip-rule="evenodd" d="M77.2333 154.1C59.7653 154.1 44.0043 143.74 37.0773 127.707L36.4263 126.203C31.7953 115.482 31.6153 103.6 35.9203 92.7439C40.2263 81.8879 48.5023 73.3579 59.2223 68.7259C64.7463 66.3399 70.5733 65.1299 76.5423 65.1299C94.0093 65.1299 109.771 75.4899 116.699 91.5219L117.348 93.0279C121.98 103.748 122.16 115.63 117.854 126.486C113.549 137.342 105.274 145.871 94.5523 150.503C89.0293 152.89 83.2023 154.1 77.2333 154.1" fill="white"/><path id="Fill 20" fill-rule="evenodd" clip-rule="evenodd" d="M76.5423 63.1299H76.5413C70.2973 63.1299 64.2033 64.3949 58.4283 66.8899C47.2173 71.7339 38.5633 80.6539 34.0613 92.0059C29.5583 103.359 29.7463 115.785 34.5893 126.996L35.2403 128.501C42.4833 145.267 58.9663 156.1 77.2323 156.1C83.4763 156.1 89.5703 154.835 95.3453 152.339C118.489 142.34 129.183 115.377 119.184 92.2339L118.534 90.7289C111.29 73.9629 94.8083 63.1299 76.5423 63.1299M76.5413 67.1299C92.6843 67.1299 108.052 76.5539 114.862 92.3149L115.512 93.8199C124.651 114.973 114.912 139.529 93.7593 148.667V148.668C88.3683 150.997 82.7543 152.1 77.2323 152.1C61.0893 152.1 45.7213 142.676 38.9123 126.915L38.2613 125.41C29.1233 104.257 38.8623 79.7009 60.0143 70.5619H60.0153C65.4063 68.2329 71.0193 67.1299 76.5413 67.1299" fill="black"/><path id="Fill 22" fill-rule="evenodd" clip-rule="evenodd" d="M36.2809 121.905C27.8679 121.905 21.0479 115.085 21.0479 106.672C21.0479 98.2595 27.8679 91.4395 36.2809 91.4395C37.3319 91.4395 38.3589 91.5465 39.3509 91.7495" fill="white"/><path id="Fill 24" fill-rule="evenodd" clip-rule="evenodd" d="M36.2809 123.905C26.7789 123.905 19.0479 116.174 19.0479 106.672C19.0479 97.1705 26.7789 89.4395 36.2809 89.4395C37.4489 89.4395 38.6169 89.5575 39.7519 89.7895C40.8339 90.0115 41.5309 91.0675 41.3099 92.1505C41.0889 93.2325 40.0319 93.9295 38.9499 93.7085C38.0779 93.5305 37.1799 93.4395 36.2809 93.4395C28.9839 93.4395 23.0479 99.3755 23.0479 106.672C23.0479 113.969 28.9839 119.905 36.2809 119.905C37.3849 119.905 38.2809 120.801 38.2809 121.905C38.2809 123.009 37.3849 123.905 36.2809 123.905" fill="black"/></g><circle id="Oval" cx="46" cy="82" r="14" fill="black"/><ellipse id="Oval_2" cx="90" cy="63" rx="39" ry="22" fill="black"/><path id="Fill 9" fill-rule="evenodd" clip-rule="evenodd" d="M83.1474 123.992H90.7084C92.7934 123.992 94.3374 120.961 93.8714 117.782L90.6874 96.0426C89.9484 90.9976 85.4234 90.7156 84.4294 95.6516L80.0524 117.391C79.3944 120.662 80.9554 123.992 83.1474 123.992" fill="#10c446"/></g></g><g id="Face" transform="translate(657 540) scale(1 1)"><g id="Face/Long Beard"><path id="Shape" fill-rule="evenodd" clip-rule="evenodd" d="M97.7206 -1.00018C100.786 -1.00018 103.283 1.42591 103.397 4.46288L103.402 4.68082L103.402 29.8031L103.492 30.5953C104.568 40.4566 113.967 139.069 59.5288 139.069C4.40812 139.069 14.149 44.1395 15.5163 32.748L15.6568 31.6341L15.6567 4.68082C15.6567 1.54282 18.1997 -1.00018 21.3377 -1.00018C24.4747 -1.00018 27.0187 1.54282 27.0187 4.68082L27.0188 27.2231C27.0188 32.3859 30.5671 39.6387 36.1336 46.1009L36.0275 45.2287C35.3636 39.396 35.5924 33.2444 38.3632 29.381C40.2642 26.729 43.1452 25.328 46.6932 25.328C53.0238 25.328 56.7505 26.858 59.6737 28.2618L61.513 29.1553C64.55 30.5959 66.7522 31.1527 72.8138 28.3728L73.1822 28.202C80.1352 24.944 84.3572 24.452 87.2972 26.56C91.1004 29.2858 90.7022 34.8147 89.8623 42.4506C91.9761 37.6351 92.2022 33.3956 92.1444 31.2633C92.093 31.0021 92.0597 30.7344 92.0463 30.4614L92.0396 30.1868V4.68082C92.0396 1.54282 94.5836 -1.00018 97.7206 -1.00018ZM76.0623 33.4798L75.7282 33.635C67.2649 37.6018 63.3012 36.6361 58.6587 34.4376L57.442 33.8475C54.8168 32.5708 51.9694 31.328 46.6932 31.328C44.6172 31.328 43.7572 32.155 43.2392 32.876C40.5927 36.5646 41.7683 45.8404 43.6241 53.245C46.4541 55.4424 49.5196 57.3173 52.7163 58.673L59.376 52.0143C61.412 49.9793 64.712 49.9793 66.747 52.0143L73.3818 58.6491C77.3178 56.6817 80.437 54.4612 82.9066 52.1473C83.0649 49.5589 83.315 47.0836 83.5666 44.7839L83.9949 40.8814C84.394 37.0487 84.7506 32.3698 83.8722 31.4957L83.7889 31.4283C83.6359 31.3461 82.1056 30.6965 76.0623 33.4798V33.4798Z" fill="black"/></g></g><g id="Expression" transform="translate(685 531) scale(1 1)"><g id="Expression/Tongue Out"><path id="Shape" fill-rule="evenodd" clip-rule="evenodd" d="M50.0367 47C50.6167 47 51.1667 47.251 51.5467 47.689C51.9267 48.127 52.0977 48.708 52.0167 49.281C51.6526 51.8432 50.094 55.7771 46.6345 58.5091L46.6332 61.1879C46.6332 65.9859 42.7292 69.8889 37.9322 69.8889C33.1342 69.8889 29.2312 65.9859 29.2312 61.1879L29.2308 59.7283C24.4776 57.0839 22.4427 52.2571 22.0197 49.281C21.9387 48.708 22.1097 48.127 22.4897 47.689C22.8697 47.251 23.4207 47 24.0007 47H50.0367ZM42.402 55H33V60.701C33 63.293 35.109 65.402 37.701 65.402C40.293 65.402 42.402 63.293 42.402 60.701V55Z" fill="black"/><path id="Shape_2" fill-rule="evenodd" clip-rule="evenodd" d="M42.402 55H33V60.701C33 63.293 35.109 65.402 37.701 65.402C40.293 65.402 42.402 63.293 42.402 60.701V55Z" fill="white"/><g id="Group"><path id="Fill 5" fill-rule="evenodd" clip-rule="evenodd" d="M18.0021 22.9649C17.3771 22.9649 16.7611 22.6729 16.3711 22.1239C15.7301 21.2239 15.9411 19.9759 16.8411 19.3349L23.2471 14.7769L16.9141 10.6799C15.9861 10.0799 15.7211 8.84186 16.3211 7.91386C16.9211 6.98686 18.1591 6.72186 19.0871 7.32086L27.8941 13.0189C28.4501 13.3789 28.7931 13.9909 28.8071 14.6539C28.8221 15.3159 28.5071 15.9429 27.9671 16.3279L19.1601 22.5939C18.8081 22.8449 18.4031 22.9649 18.0021 22.9649" fill="black"/><path id="Fill 8" fill-rule="evenodd" clip-rule="evenodd" d="M55.117 22.9649C54.716 22.9649 54.311 22.8449 53.959 22.5939L45.152 16.3279C44.612 15.9429 44.297 15.3159 44.312 14.6539C44.326 13.9909 44.669 13.3789 45.225 13.0189L54.032 7.32087C54.96 6.72087 56.198 6.98687 56.798 7.91387C57.398 8.84187 57.132 10.0799 56.205 10.6799L49.872 14.7769L56.278 19.3349C57.178 19.9759 57.389 21.2239 56.748 22.1239C56.358 22.6729 55.742 22.9649 55.117 22.9649" fill="black"/></g></g></g><g id="Glasses" transform="translate(666 518) scale(1 1)"><g id="Glasses/Squared Glasses"><path id="Shape" fill-rule="evenodd" clip-rule="evenodd" d="M53.3679 15C54.4729 15 55.3679 15.895 55.3679 17L55.367 22.5848C55.9811 22.2769 56.6711 22.0474 57.4386 21.9512C58.8569 21.7735 59.9981 22.0814 61.1493 22.8695L61.1494 17C61.1494 15.895 62.0444 15 63.1494 15H87.7664C88.8704 15 89.7664 15.895 89.7664 17V27.658C89.7664 33.476 85.0324 38.21 79.2134 38.21H69.0344C64.6864 38.21 61.1494 34.673 61.1494 30.325L61.1495 27.3952C60.1609 26.498 59.0178 25.7906 57.9496 25.9182C56.7124 26.0652 55.767 27.3073 55.3668 27.9285L55.3679 30.325C55.3679 34.673 51.8309 38.21 47.4829 38.21H36.2519C30.4329 38.21 25.6989 33.476 25.6989 27.658L25.698 24.532L12.4394 27.5185C12.2914 27.5515 12.1444 27.5675 11.9984 27.5675C11.0834 27.5675 10.2584 26.9365 10.0494 26.0065C9.80641 24.9285 10.4834 23.8585 11.5604 23.6155L25.698 20.431L25.6989 17C25.6989 15.895 26.5939 15 27.6989 15H53.3679ZM51.3679 19H29.6989V27.658C29.6989 31.271 32.6379 34.21 36.2519 34.21H47.4829C49.6249 34.21 51.3679 32.467 51.3679 30.325V19ZM85.7664 19H65.1494V30.325C65.1494 32.467 66.8924 34.21 69.0344 34.21H79.2134C82.8264 34.21 85.7664 31.271 85.7664 27.658V19Z" fill="black"/></g></g></g></g></svg>