<svg viewBox="29.086538461538453 118.91249999999991 793.2692307692307 911.6624999999999" xmlns="http://www.w3.org/2000/svg" overflow="visible" xmlns:xlink="http://www.w3.org/1999/xlink" width="793.2692307692307px" height="911.6624999999999px"><g id="Master/Comps/Graphs" stroke="none" stroke-width="1" fill="none" fill-rule="evenodd"><g id="Blob" opacity=".151" transform="translate(2.000000, 147.891534) scale(1.5335892514395393 1.532934131736527)"><g id="Blob/1" stroke="none" stroke-width="1" fill="none" fill-rule="evenodd"><path d="M421.532241,44.5681909 C463.077658,70.8943232 491.70403,118.895328 499.790051,167.826584 C507.969014,216.850866 495.607626,266.898425 478.5991,314.248253 C461.683517,361.691106 440.120795,406.343203 404.709601,437.22757 C369.391349,468.018912 320.224625,484.949499 272.266158,483.368071 C224.214747,481.693617 177.464536,461.507148 134.153206,433.320512 C90.841877,405.04085 50.96943,368.761021 31.82322,322.620521 C12.6770101,276.573046 14.1640943,220.664899 35.0762169,175.733726 C55.9883394,130.802554 96.3255002,96.8483546 138.893287,70.801298 C181.461075,44.8472665 226.259488,26.8003772 275.890926,20.1955878 C325.522363,13.4977733 379.986825,18.2420586 421.532241,44.5681909 Z" id="blobs-burgers" fill="#FFB23C"/></g></g><g id="Small Elements" opacity=".825" transform="translate(483.000000, 65.000000) scale(1 1)"><g id="Small Elements/Levels" stroke="none" stroke-width="1" fill="none" fill-rule="evenodd"><g id="Bars" transform="translate(20.000000, 67.000000)"><g id="bar" transform="translate(2.000000, 120.000000)"><rect id="Range" fill="#EDEDEE" x="0" y="0" width="228" height="16" rx="8"/><rect id="Range" fill="#BE6FFB" x="0" y="0" width="228" height="16" rx="8"/></g><g id="bar" transform="translate(0.000000, 80.000000)"><rect id="Range" fill="#EDEDEE" x="0" y="0" width="228" height="16" rx="8"/><rect id="Range" fill="#BE6FFB" x="0" y="0" width="170.776" height="16" rx="8"/></g><g id="bar" transform="translate(2.000000, 0.000000)"><rect id="Range" fill="#EDEDEE" x="0" y="0" width="228" height="16" rx="8"/><rect id="Range" fill="#CCA4FF" x="0" y="0" width="57.224" height="16" rx="8"/></g><g id="bar" transform="translate(0.000000, 40.000000)"><rect id="Range" fill="#EDEDEE" x="0" y="0" width="228" height="16" rx="8"/><rect id="Range" fill="#CCA4FF" x="0" y="0" width="113.553" height="16" rx="8"/></g></g></g></g><g transform="translate(-4.000000, 157.000000) scale(1 1)" id="Master/Character/Standing"><g id="Master/Character/Standing" stroke="none" stroke-width="1" fill="none" fill-rule="evenodd"><g id="Legs" transform="translate(50.000000, 263.000000) scale(1 1)"><g id="Legs/Jeans Prance" stroke="none" stroke-width="1" fill="none" fill-rule="evenodd"><g id="Group-19" transform="translate(130.000000, 0.000000)"><path d="M73.1484,592.4339 L6.8484,587.4409 C5.9564,587.3729 5.1244,587.0249 4.3864,586.4369 C3.6454,585.8439 2.9994,585.0099 2.5284,584.0939 C1.5644,582.2189 1.1414,579.6569 1.5004,576.9339 C1.6224,575.8829 1.7974,574.9519 1.9664,574.0009 L2.4804,571.1489 L3.0094,568.3009 L3.2824,566.8849 L3.5884,565.5469 C4.4094,561.9969 5.2274,558.3519 6.1894,555.0669 C6.6584,553.3929 7.1184,551.6799 7.6074,550.0409 L9.1194,545.2349 L9.8824,542.8319 L10.6784,540.5229 L12.2834,535.9199 C16.6334,523.8459 21.4124,512.8359 26.0504,502.4699 L32.6654,487.8619 C33.6524,485.6179 34.5474,483.6819 35.4944,481.2679 L38.3004,474.3439 L43.9314,460.5059 C44.9134,458.2309 45.7064,455.8179 46.5744,453.4589 L49.1394,446.3539 C64.7684,403.2779 77.0794,358.0339 87.1014,312.0539 C89.1884,301.8949 98.6774,295.2159 108.3304,297.1489 L151.2644,305.8499 C160.9084,307.7799 166.9624,318.0899 164.7414,328.8719 C154.1124,377.5899 141.0224,425.9959 123.7844,473.5369 L120.9494,481.3729 C119.9874,483.9819 119.1114,486.6099 118.0144,489.1879 L111.7064,504.7149 C109.5824,509.8889 107.5814,515.0469 105.1694,520.3229 L98.5054,535.0429 C94.2524,544.5379 90.2784,553.7869 87.0314,562.8189 C86.2794,565.0549 85.4054,567.3289 84.7564,569.5219 L83.7084,572.8339 C83.3824,573.9279 83.1064,574.9999 82.7994,576.0819 C82.1414,578.2689 81.7204,580.3379 81.2124,582.4369 C80.9274,583.5039 80.8214,584.4689 80.6174,585.4829 C80.4564,586.4709 80.1964,587.5199 80.1004,588.4549 C79.9584,589.7079 79.0934,590.7479 77.8134,591.4809 C77.1604,591.8549 76.4564,592.1119 75.6774,592.2719 C74.8954,592.4349 74.0404,592.5009 73.1484,592.4339" id="SKIN" fill="#b18058"/><path d="M277.457,513.9944 L253.303,452.0494 C252.009,448.7144 253.023,445.2154 255.734,444.0744 C263.929,440.6274 272.373,436.5724 280.554,432.2174 C288.754,427.8444 296.783,423.1254 304.535,418.1034 C320.044,408.0604 334.437,396.7754 347.084,384.4494 C362.586,369.3494 375.416,352.6784 384.59,334.8614 C393.799,317.0424 399.332,298.0844 401.225,278.2074 C401.415,276.0124 402.129,273.9714 403.089,272.0794 C404.08,270.1954 405.525,268.5004 407.125,267.0284 C410.389,264.1114 414.911,262.1424 419.801,262.1374 L463.608,262.067349 C468.556,262.0544 472.952,264.5494 476.105,268.8404 C477.713,270.9764 478.847,273.5574 479.606,276.4284 C480.396,279.2994 480.601,282.4604 480.308,285.7324 L480.052,288.5144 L479.712,291.2934 L479.014,296.8464 C478.401,300.5334 477.912,304.2384 477.139,307.9024 C475.789,315.2624 473.928,322.5304 471.864,329.7264 C469.767,336.9194 467.249,343.9764 464.508,350.9324 C461.699,357.8594 458.573,364.6404 455.194,371.2734 C441.54,397.7754 423.2,421.2084 402.528,441.3434 C385.624,457.8064 367.155,472.1854 347.743,484.7654 C338.031,491.0574 328.077,496.9044 317.895,502.3344 C307.694,507.7584 297.32,512.7604 286.48,517.3234 C282.854,518.8494 278.745,517.3324 277.457,513.9944" id="SKIN-DARKER" fill="#8c6345"/><path d="M221.2953,66.4384 C230.8003,70.9964 240.3703,75.6444 249.3473,80.1884 L255.8323,83.5214 L257.3413,84.3184 L258.7593,85.0764 L260.0663,85.7884 C260.2593,85.8954 260.5563,86.0494 260.6653,86.1174 L261.0913,86.3654 L261.9983,86.8814 L263.4843,87.7734 L266.4553,89.5644 C268.4313,90.7874 270.4113,91.9964 272.3713,93.2644 C288.1173,103.2854 303.1943,114.5234 316.9363,126.5664 C330.6533,138.6394 343.0663,151.5624 353.5713,165.0824 C358.7813,171.8574 363.5153,178.7694 367.7403,185.7714 L370.8093,191.0404 L373.6023,196.3574 L374.3103,197.6824 L374.9373,199.0224 L376.1933,201.6994 L377.4673,204.3674 L378.5823,207.0624 L379.7063,209.7504 C380.0913,210.6444 380.4763,211.5374 380.7693,212.4454 L382.7293,217.8484 C383.3213,219.6564 383.8243,221.4744 384.4003,223.2794 C385.0223,225.0784 385.4113,226.9084 385.8683,228.7244 C386.9043,232.3444 387.4363,236.0214 388.2183,239.6604 C388.6423,243.3444 389.3463,246.9904 389.5113,250.7004 C389.9423,254.3804 389.8763,258.1144 390.0273,261.8304 C390.0463,263.7234 389.9483,265.7074 389.9373,267.6404 L389.6263,273.4184 C389.0473,281.0744 387.8933,288.5474 386.1783,295.8514 C382.7873,310.4674 376.9993,324.4064 368.9893,337.7624 C360.9353,351.0844 350.6503,363.8084 338.4453,375.5844 C323.0783,390.4844 304.7483,403.8884 284.9583,415.3284 L338.8893,508.0584 C365.2883,492.5624 390.3763,474.2054 412.9833,452.0714 C430.8643,434.6174 447.0993,414.6804 460.3913,392.3904 C467.0263,381.2484 472.8583,369.5024 477.8053,357.3464 C482.7633,345.1904 486.6733,332.5574 489.6213,319.7394 C492.5593,306.9164 494.4683,293.8844 495.3703,280.8774 C495.5383,277.6294 495.7253,274.3774 495.8463,271.1304 C495.8873,267.8814 495.9913,264.6654 495.9533,261.3894 C495.7643,254.7934 495.6753,248.1954 494.9683,241.6154 C494.5283,235.0174 493.4303,228.4944 492.4943,221.9554 C491.2063,215.4864 490.0433,208.9764 488.2883,202.6404 C487.4683,199.4534 486.6863,196.2534 485.6603,193.1444 C484.6783,190.0194 483.7373,186.8754 482.6923,183.7774 L479.3213,174.5944 C478.7773,173.0534 478.1473,171.5584 477.5123,170.0674 L475.6203,165.5864 L473.7063,161.1174 L471.6293,156.7504 L469.5393,152.3904 L468.4853,150.2174 L467.3603,148.0944 L462.8293,139.6234 L457.9963,131.3904 C451.3933,120.5484 444.2033,110.2194 436.5543,100.4004 C421.1853,80.8304 404.0473,63.3364 385.8863,47.5154 C367.6773,31.7334 348.4723,17.6074 328.3143,4.9074 C325.8033,3.3074 323.2503,1.7564 320.7013,0.2024 C251.634633,43.0284 218.4993,65.1070667 221.2953,66.4384 Z" id="Fill-3" fill="#3E36B9"/><path d="M310.6099,506.1224 C308.1289,501.2264 299.1819,483.5744 290.8389,467.1144 C290.6429,467.2364 290.4519,467.3654 290.2419,467.4714 C287.5219,468.8404 284.2519,468.4464 281.2329,466.6704 C278.2129,464.9104 275.4469,461.7714 273.5869,457.7684 C271.7249,453.7584 271.0889,449.6544 271.4929,446.2474 C271.9049,442.8504 273.3589,440.1434 275.8309,438.8984 C276.0219,438.8044 276.2219,438.7364 276.4189,438.6624 C275.3269,436.5074 274.6959,435.2644 274.6959,435.2644 C270.1209,437.5744 265.5009,439.7874 260.9119,441.8304 C258.6189,442.8554 256.3329,443.8354 254.1049,444.7504 L250.8499,446.0544 L248.5129,446.9404 L286.1889,555.9124 L288.7859,554.9784 L290.6919,554.2644 L294.2159,552.8954 C296.4999,551.9924 298.6809,551.0964 300.8369,550.1864 C306.0089,547.9964 305.9459,539.3854 305.8369,530.1744 C305.7389,520.9454 305.5439,511.1294 310.6099,506.1224" id="Fill-5" fill="#D7DBE2"/><path d="M338.8594,508.1937 L284.8294,415.2467 C292.9724,410.5137 300.8554,405.4267 308.3964,400.0627 L370.8264,487.5897 C360.4424,494.9817 349.7824,501.8447 338.8594,508.1937" id="Fill-7" fill="#D7DBE2"/><path d="M112,0.4007 C111.857,5.2697 112.0892,10.5808 111.8232,15.4538 L110.4642,44.6858 L108.5852,73.9098 C107.8852,83.6468 106.9992,93.3728 106.2202,103.1038 C102.7572,141.9998 98.0922,180.7738 92.1392,219.2188 L89.8182,233.6138 L88.6592,240.8108 L88.0802,244.4088 L87.4232,247.9848 L82.1822,276.5918 L76.3232,304.9808 C75.4012,309.7338 74.2172,314.3808 73.1532,319.0768 L69.8902,333.1328 C60.9082,370.4718 50.3272,407.1468 37.5072,442.1178 C33.3592,454.1898 28.3452,465.5398 23.6792,477.1568 C23.0842,478.6678 22.5102,479.8788 21.9312,481.2028 L20.0132,485.4458 L15.7212,494.8358 C12.7412,501.3918 9.6302,508.3518 6.5752,515.7128 L105.7802,556.5258 C108.0972,550.8528 110.6532,545.0238 113.3712,538.9568 L117.5972,529.5648 L119.8302,524.5468 C120.5872,522.7998 121.4052,521.0018 122.0522,519.3408 C127.4592,505.8048 133.2222,492.3178 137.8602,478.6628 C152.2792,438.6468 163.6492,398.2028 173.2022,357.5818 L176.6582,342.3358 C177.7822,337.2498 179.0322,332.1778 180.0012,327.0778 L186.1402,296.5058 L191.5882,265.8718 L192.2672,262.0418 L192.8672,258.2058 L194.0632,250.5328 L196.4552,235.1858 C202.5752,194.2408 207.2912,153.1778 210.7362,112.0238 C211.5112,101.7278 212.3862,91.4408 213.0722,81.1388 L214.8962,50.2148 L216.1732,19.2508 C216.4242,14.0938 216.4802,8.9198 216.6052,3.7528 L217,1 C217,1 182,0.800233333 112,0.4007 Z" id="Fill-11" fill="#694FD9"/><path d="M43.2533,555.724 C43.1963,555.977 43.1463,556.232 43.0673,556.483 C42.5573,558.116 41.6263,559.518 40.4263,560.729 C39.2423,561.955 37.7483,562.955 36.0413,563.698 C34.3343,564.44 32.4103,564.92 30.3823,565.092 C28.3693,565.284 26.2383,565.155 24.0943,564.62 C21.9503,564.086 20.0003,563.192 18.3163,561.998 C16.6473,560.834 15.2573,559.397 14.2063,557.76 C13.1563,556.126 12.4483,554.297 12.1463,552.385 C11.8553,550.504 11.9983,548.619 12.5853,546.744 C12.6763,546.457 12.7933,546.186 12.9023,545.91 C10.6033,545.166 9.2773,544.738 9.2773,544.738 L7.6033,550.057 C7.0633,551.877 6.5533,553.768 6.0353,555.621 L5.2673,558.416 L4.5623,561.362 C4.1003,563.338 3.6353,565.285 3.2003,567.293 C1.5473,575.518 0.259,585.895 0.0003,596 L115.2853,596.45 C115.3643,596.102 115.3863,595.756 115.3503,595.403 C115.4603,594.792 115.5503,594.149 115.5923,593.514 C115.7663,592.575 114.0093,591.367 111.1753,589.942 C108.2433,588.418 104.6093,586.531 100.8183,584.561 C98.9073,583.525 96.9233,582.462 95.1243,581.274 C93.3213,580.09 91.6143,578.849 90.1233,577.555 C88.6403,576.257 87.3323,574.923 86.4273,573.514 C85.5343,572.102 84.9763,570.649 84.8643,569.18 C79.6423,567.491 60.8113,561.402 43.2533,555.724 Z" id="Fill-13" fill="#D7DBE2"/><path d="M105.8452,556.6351 L6.4102,515.7511 C7.6642,512.7771 8.9252,509.6921 10.1822,506.8441 L12.0692,502.5141 L13.9382,498.3211 L20.9462,482.8271 L119.0602,526.7831 L112.0562,542.2701 C109.8292,547.2091 107.7982,551.9441 105.8452,556.6351" id="Fill-15" fill="#D7DBE2"/><path d="M222.2676,99.4007 L212.2676,99.4007 C157.5916,99.4007 113.2676,55.0767 113.2676,0.4007 L321.2676,0.4007 C321.2676,55.0767 276.9436,99.4007 222.2676,99.4007" id="Fill-17" fill="#694FD9"/></g></g></g><g id="Body" transform="translate(17.000000, -31.000000) scale(1 1)"><g id="Body/Tee Stride" stroke="none" stroke-width="1" fill="none" fill-rule="evenodd"><g id="Right-Arm" transform="translate(411.000000, 157.000000)"><path d="M341.286207,6.05212955 C344.343381,7.46655808 345.794655,9.59488783 346.071135,12.1806633 C346.464916,11.4011165 346.851741,10.6161369 347.230007,9.82692955 C349.290791,5.72987073 354.256228,4.17894801 358.578473,5.7527473 L358.837007,5.85092955 C362.496907,7.28087316 364.647676,10.9354507 364.306055,14.6357684 C366.791217,13.0384704 369.933815,12.5815681 372.848707,13.7665296 C377.766707,15.8325296 379.332707,21.8035296 376.894707,26.5575296 C375.860372,28.2325626 374.804501,30.1391165 373.708883,32.169062 C376.306311,30.7749792 379.385582,30.4144949 382.111407,31.8114296 C395.127603,39.8860226 372.951048,65.6342309 352.999326,84.0248252 C348.800502,88.4733181 343.734365,92.7303079 338.168256,96.7385579 C334.245557,99.8230548 331.0544,102.07202 329.133407,103.12243 C328.194504,103.75627 327.177208,104.258427 326.127323,104.616191 C306.522932,116.35111 284.311754,125.090851 271.668707,128.90793 C230.439707,141.33993 187.231707,143.51493 144.959707,135.75793 C111.935707,129.65093 78.857707,116.55793 51.567707,95.6789296 C38.217707,84.4149296 21.849707,72.0649296 16.250707,54.6099296 C12.220707,40.9689296 18.084707,25.3769296 31.604707,19.7899296 C44.227707,14.4719296 60.023707,15.3829296 71.078707,23.5209296 C77.955707,30.0549296 83.674707,37.5709296 91.725707,43.3019296 C110.721707,57.6829296 133.218707,66.4009296 157.091707,70.8819296 C203.343707,79.3389296 255.036707,72.1969296 294.497707,46.2239296 C294.865387,45.9984458 295.228969,45.768295 295.58886,45.533973 C288.245921,34.2499137 306.562693,28.2854373 311.227107,19.7775296 C314.036336,16.7626754 318.843637,17.5848082 322.239312,19.9448238 L322.449085,20.0928187 C325.218436,16.3499848 327.730998,12.4477039 329.968207,8.39912955 C332.248697,4.70606833 337.087481,4.24781926 341.040338,5.9433634" id="SKIN-DARKER" fill="#8c6345"/><path d="M341.286207,6.05212955 C344.343381,7.46655808 345.794655,9.59488783 346.071135,12.1806633 C346.464916,11.4011165 346.851741,10.6161369 347.230007,9.82692955 C349.290791,5.72987073 354.256228,4.17894801 358.578473,5.7527473 L358.837007,5.85092955 C362.496907,7.28087316 364.647676,10.9354507 364.306055,14.6357684 C366.791217,13.0384704 369.933815,12.5815681 372.848707,13.7665296 C377.766707,15.8325296 379.332707,21.8035296 376.894707,26.5575296 C375.860372,28.2325626 374.804501,30.1391165 373.708883,32.169062 C376.306311,30.7749792 379.385582,30.4144949 382.111407,31.8114296 C395.127603,39.8860226 372.951048,65.6342309 352.999326,84.0248252 C348.800502,88.4733181 343.734365,92.7303079 338.168256,96.7385579 C334.245557,99.8230548 331.0544,102.07202 329.133407,103.12243 C328.194504,103.75627 327.177208,104.258427 326.127323,104.616191 C306.522932,116.35111 284.311754,125.090851 271.668707,128.90793 C230.439707,141.33993 187.231707,143.51493 144.959707,135.75793 C111.935707,129.65093 78.857707,116.55793 51.567707,95.6789296 C38.217707,84.4149296 21.849707,72.0649296 16.250707,54.6099296 C12.220707,40.9689296 18.084707,25.3769296 31.604707,19.7899296 C44.227707,14.4719296 60.023707,15.3829296 71.078707,23.5209296 C77.955707,30.0549296 83.674707,37.5709296 91.725707,43.3019296 C110.721707,57.6829296 133.218707,66.4009296 157.091707,70.8819296 C203.343707,79.3389296 255.036707,72.1969296 294.497707,46.2239296 C294.865387,45.9984458 295.228969,45.768295 295.58886,45.533973 C288.245921,34.2499137 306.562693,28.2854373 311.227107,19.7775296 C314.036336,16.7626754 318.843637,17.5848082 322.239312,19.9448238 L322.449085,20.0928187 C325.218436,16.3499848 327.730998,12.4477039 329.968207,8.39912955 C332.248697,4.70606833 337.087481,4.24781926 341.040338,5.9433634" id="SKIN-DARKER" fill="#8c6345"/><path d="M75.355307,116.92353 C46.745307,101.01153 -0.0736929955,65.3305296 0.572307005,29.3035296 C1.624307,5.91452955 29.478307,-2.54247045 49.042307,0.845529552 C57.649307,2.55352955 65.6332437,2.47741958 70.4592437,10.1364196 C79.4442437,24.7874196 94.302307,40.8405296 111.323307,49.9725296 L75.355307,116.92353 Z" id="Fill-14" fill="#3F8FD4"/></g><path d="M312,149 L448,149 C470.09139,149 488,166.90861 488,189 L488,300 L488,300 L272,300 L272,189 C272,166.90861 289.90861,149 312,149 Z" id="body" fill="#55B0EB"/><path d="M334,149 C334,167.225397 354.594902,182 380,182 C405.405098,182 426,167.225397 426,149" id="SKIN" fill="#b18058"/><g id="Left-Arm" transform="translate(114.000000, 149.000000)"><path d="M74.3438502,347.540423 C86.3638502,357.343423 97.0938502,355.709423 103.62885,353.103423 C110.40285,350.211423 108.62785,340.007423 101.39785,338.764423 C90.0398502,337.809423 80.4458502,338.449423 70.5808502,326.731423 C67.4648502,323.195423 65.4538502,322.029423 64.2718502,322.513423 C60.1978502,329.036423 67.9648502,341.754423 74.3438502,347.540423" id="SKIN" fill="#b18058"/><path d="M74.3438502,347.540423 C86.3638502,357.343423 97.0938502,355.709423 103.62885,353.103423 C110.40285,350.211423 108.62785,340.007423 101.39785,338.764423 C90.0398502,337.809423 80.4458502,338.449423 70.5808502,326.731423 C67.4648502,323.195423 65.4538502,322.029423 64.2718502,322.513423 C60.1978502,329.036423 67.9648502,341.754423 74.3438502,347.540423" id="SKIN-DARKER" fill="#8c6345"/><path d="M65.4327502,315.775823 L65.4327502,315.775823 C38.8037502,326.810823 21.9167502,305.288823 16.3227502,281.046823 C11.7167502,267.188823 7.65175021,252.355823 4.84675021,237.858823 C-5.64124979,188.952823 -0.280249786,133.061823 32.5367502,93.3988231 C54.1337502,65.7928231 84.0177502,45.3078231 114.91175,30.1448231 C141.15875,17.4578231 179.86175,-3.08017689 193.42875,35.8868231 C197.88775,52.7928231 189.20375,70.9428231 173.02975,77.0238231 C127.94975,94.4168231 76.3267502,121.380823 67.4417502,172.408823 C63.9897502,193.749823 67.1697502,215.869823 72.1647502,236.881823 C78.3177502,265.613823 101.40775,296.470823 65.4327502,315.775823" id="SKIN" fill="#b18058"/><path d="M90.8417502,37.4348231 C116.849574,24.5066067 142.563862,4.54747351e-13 202.674991,4.54747351e-13 C220.97481,4.54747351e-13 221,9.80366649 221,27.8213053 C221,45.8389442 206.51375,71.1108231 189.75275,76.5798231 C168.46575,83.3408231 147.83775,92.0498231 129.55475,102.836823 L90.8417502,37.4348231 Z" id="Fill-23" fill="#55B0EB"/><path d="M82.6250502,270.835323 C73.3400502,261.646323 31.9530502,286.758323 21.0070502,294.480323 C30.3540502,321.843323 48.5280502,351.947323 71.0180502,366.534323 C80.5280502,373.780323 112.02205,385.826323 105.78405,366.609323 C98.7040502,361.083323 63.2780502,331.162323 76.6220502,316.126323 C83.8480502,306.560323 92.4900502,311.154323 99.5690502,316.425323 C106.05505,321.589323 117.97305,313.076323 113.05605,306.059323 C104.25405,295.360323 87.4460502,283.260323 82.6250502,270.835323" id="SKIN" fill="#b18058"/></g></g></g><g id="Head" transform="translate(338.000000, -61.000000) scale(1 1)"><g id="Head/Bun" stroke="none" stroke-width="1" fill="none" fill-rule="evenodd"><circle id="Oval" fill="#000" cx="29" cy="70" r="25"/><g id="Head" transform="translate(22.000000, 72.000000)"><g id="head" transform="translate(0.000000, 0.000100)" fill="#b18058"><path d="M13,62 L58,62 L58,113.633 C58,127.538 47.926,138.81 35.5,138.81 C23.074,138.81 13,127.538 13,113.633 L13,62 Z" id="SKIN"/><path d="M60.0525,94 L55.0655,94 C31.8335,94 13.0005,75.167 13.0005,51.935 L13.0005,32.203 C13.0005,14.418 27.4175,0 45.2035,0 L50.7965,0 C68.5825,0 83.0005,14.418 83.0005,32.203 L83.0005,71.052 C83.0005,83.726 72.7265,94 60.0525,94" id="SKIN"/><path d="M25,58.5 C25,65.403 19.404,71 12.5,71 C5.596,71 0,65.403 0,58.5 C0,51.597 5.596,46 12.5,46 C19.404,46 25,51.597 25,58.5" id="SKIN"/></g><path d="M10.067,53.1685 C10.9718309,53.1685 12.2239875,53.3771928 13.5088204,54.0196092 C15.6553998,55.0928989 17.0130325,57.055328 17.10411,59.9021045 L17.109,60.2105 L14.109,60.2105 C14.109,58.3751144 13.4076866,57.3231443 12.1671796,56.7028908 C11.7065142,56.4725581 11.1976823,56.3199085 10.686339,56.2346846 C10.4347302,56.1927498 10.2385731,56.1747448 10.1250097,56.169908 L10.067,56.1685 L10.067,53.1685 Z" id="ear-line" fill="#000"/><path d="M34.7507501,96.3317762 C25.4557924,93.0436693 20.8185822,84.7387742 18.9822222,73.5681961 C26.2532122,85.6702724 39.4406226,93.8133264 54.5439426,93.9968331 L55.0655,94 L58,94 C50.0632106,98.2298391 42.3134606,99.0070978 34.7507501,96.3317762 Z" id="SHADOW" fill="#000" opacity=".12"/></g><path d="M72.8086245,72 C89.5888073,72 103.384617,84.7181817 104.999901,100.998998 L43.973,100.998 L39.4959832,117.92634 L37.6122668,117.973042 C36.103273,118.003782 34.2071707,118.024615 34.0157661,117.940922 L34,117.92634 L34.0133311,116.935282 C34.0935066,112.893789 34.4987262,104.151433 34.4987262,104.151433 C34.4987262,86.5724777 48.6220557,72.2882344 66.1518229,72.0043074 L66.6840596,72 L72.8086245,72 Z" id="Path" fill="#000"/></g></g><g id="Expression" transform="translate(385.000000, 34.000000) scale(1 1)" fill="#000"><g id="Expression/Happy" stroke="none" stroke-width="1" fill="none" fill-rule="evenodd"><path d="M20.5607,22 C20.5607,20.343 19.2177,19 17.5607,19 C15.9037,19 14.5607,20.343 14.5607,22 C14.5607,23.657 15.9037,25 17.5607,25 C19.2177,25 20.5607,23.657 20.5607,22" id="Fill-1" fill="#000"/><path d="M46.5607,22 C46.5607,20.343 45.2177,19 43.5607,19 C41.9037,19 40.5607,20.343 40.5607,22 C40.5607,23.657 41.9037,25 43.5607,25 C45.2177,25 46.5607,23.657 46.5607,22" id="Fill-3" fill="#000"/><polygon id="Stroke-5" fill="#000" points="33.1977829 19.396766 36.1476171 18.850434 40.4350211 41.9996 30.5607 41.9996 30.5607 38.9996 36.828 38.999"/><path d="M21.9219,41.586 C21.9219,45.2602625 25.6639817,48.6581933 29.6815435,48.7900329 L29.9229,48.794 L29.9229,51.794 C24.3252295,51.794 19.0961019,47.2280163 18.9261594,41.8552911 L18.9219,41.586 L21.9219,41.586 Z" id="Stroke-7" fill="#000"/><path d="M23.0607,9 L23.0607,12 C19.8342736,12 16.8913939,12.8655529 14.2891644,14.3112359 C13.508469,14.7449556 12.8086718,15.2043948 12.1956619,15.6654963 L11.8964164,15.8960741 C11.548672,16.1706093 11.3051282,16.3844813 11.1717567,16.5115787 L11.1213602,16.5606602 L9.00003983,14.4393398 C9.71719288,13.7221868 11.0118484,12.7000903 12.8322356,11.6887641 C15.7235813,10.0824609 18.9894549,9.08904431 22.5704367,9.00569674 L23.0607,9 Z" id="Stroke-9" fill="#000"/><path d="M37.0607,9 C40.8342736,9 44.2663939,10.0094471 47.2891644,11.6887641 C48.9957774,12.6368824 50.2403215,13.5944668 50.980139,14.3013772 L51.1213602,14.4393398 L49.0000398,16.5606602 L48.8084832,16.3819961 C48.6965748,16.2822525 48.549249,16.1566104 48.3676199,16.0099419 L48.2249836,15.8960741 C47.5437467,15.3582556 46.7430469,14.8172422 45.8322356,14.3112359 C43.3601176,12.937837 40.5805627,12.0880056 37.5425302,12.006456 L37.0607,12 L37.0607,9 Z" id="Stroke-11" fill="#000"/></g></g><g id="Accessories" transform="translate(372.000000, 56.000000) scale(1 1)" fill="#000"><g id="Accessories/None" stroke="none" stroke-width="1" fill="none" fill-rule="evenodd" fill-opacity="0"/></g><g id="Glasses" transform="translate(364.000000, 42.000000) scale(1 1)" fill="#000"><g id="Glasses/None" stroke="none" stroke-width="1" fill="none" fill-rule="evenodd" fill-opacity="0"/></g></g></g><g id="Small Elements" transform="translate(75.000000, 687.000000) scale(0.8148148148148148 0.8148148148148148)"><g id="Small Elements/Small Graph" stroke="none" stroke-width="1" fill="none" fill-rule="evenodd"><g id="Chart" transform="translate(84.000000, 84.000000)"><path d="M63.9124924,63.2043 C60.6605898,66.6723 56.0539399,68.85 50.930347,68.85 C41.0855109,68.85 33.1047255,60.8583 33.1047255,51 C33.1047255,41.1417 41.0855109,33.15 50.930347,33.15 L50.930347,0 C22.9237492,0 0,22.9551 0,51 C0,79.0449 22.9237492,102 50.930347,102 C65.6415777,102 78.9369448,95.7678 88,85.8534 L63.9124924,63.2043 Z" id="Value" fill="#F2F2F2"/><path d="M51,0 L51,33.15 C60.8583,33.15 68.85,41.1417 68.85,51 L102,51 C102,22.9551 79.0449,0 51,0 Z" id="Value" fill="#0072FF"/><path d="M67.9989793,51 C67.9989793,56.8202633 65.257974,61.9938307 61,65.3342237 L81.9472442,92 C94.1405333,82.4534122 102,67.6550277 102,51 L67.9989793,51 Z" id="Value" fill="#C5CFD6"/></g></g></g></g></svg>