<svg viewBox="29.086538461538453 26.424999999999955 793.2692307692307 1030.5749999999998" xmlns="http://www.w3.org/2000/svg" overflow="visible" xmlns:xlink="http://www.w3.org/1999/xlink" width="793.2692307692307px" height="1030.5749999999998px"><g id="Master/Comps/User Interface" stroke="none" stroke-width="1" fill="none" fill-rule="evenodd"><g id="UI" transform="translate(31.000000, 36.000000)"><g id="Cards" transform="translate(414.000000, 209.000000)"><g id="Group"><g id="Group-7"><path d="M26.638852,45 L80.361148,45 C89.2763354,45 92.5091978,45.9282561 95.768457,47.671327 C99.0277163,49.414398 101.585602,51.9722837 103.328673,55.231543 C105.071744,58.4908022 106,61.7236646 106,70.638852 L106,163.361148 C106,172.276335 105.071744,175.509198 103.328673,178.768457 C101.585602,182.027716 99.0277163,184.585602 95.768457,186.328673 C92.5091978,188.071744 89.2763354,189 80.361148,189 L26.638852,189 C17.7236646,189 14.4908022,188.071744 11.231543,186.328673 C7.97228371,184.585602 5.41439796,182.027716 3.67132704,178.768457 C1.92825611,175.509198 1,172.276335 1,163.361148 L1,70.638852 C1,61.7236646 1.92825611,58.4908022 3.67132704,55.231543 C5.41439796,51.9722837 7.97228371,49.414398 11.231543,47.671327 C14.4908022,45.9282561 17.7236646,45 26.638852,45 Z" id="Rectangle-2" fill="#BAEBFF"/><path d="M26.638852,544 L80.361148,544 C89.2763354,544 92.5091978,544.928256 95.768457,546.671327 C99.0277163,548.414398 101.585602,550.972284 103.328673,554.231543 C105.071744,557.490802 106,560.723665 106,569.638852 L106,707.361148 C106,716.276335 105.071744,719.509198 103.328673,722.768457 C101.585602,726.027716 99.0277163,728.585602 95.768457,730.328673 C92.5091978,732.071744 89.2763354,733 80.361148,733 L26.638852,733 C17.7236646,733 14.4908022,732.071744 11.231543,730.328673 C7.97228371,728.585602 5.41439796,726.027716 3.67132704,722.768457 C1.92825611,719.509198 1,716.276335 1,707.361148 L1,569.638852 C1,560.723665 1.92825611,557.490802 3.67132704,554.231543 C5.41439796,550.972284 7.97228371,548.414398 11.231543,546.671327 C14.4908022,544.928256 17.7236646,544 26.638852,544 Z" id="Rectangle-2-Copy-9" fill="#B8DBE9"/><path d="M270.638852,367 L324.361148,367 C333.276335,367 336.509198,367.928256 339.768457,369.671327 C343.027716,371.414398 345.585602,373.972284 347.328673,377.231543 C349.071744,380.490802 350,383.723665 350,392.638852 L350,485.361148 C350,494.276335 349.071744,497.509198 347.328673,500.768457 C345.585602,504.027716 343.027716,506.585602 339.768457,508.328673 C336.509198,510.071744 333.276335,511 324.361148,511 L270.638852,511 C261.723665,511 258.490802,510.071744 255.231543,508.328673 C251.972284,506.585602 249.414398,504.027716 247.671327,500.768457 C245.928256,497.509198 245,494.276335 245,485.361148 L245,392.638852 C245,383.723665 245.928256,380.490802 247.671327,377.231543 C249.414398,373.972284 251.972284,371.414398 255.231543,369.671327 C258.490802,367.928256 261.723665,367 270.638852,367 Z" id="Rectangle-2-Copy-8" fill="#B8DBE9"/><path d="M148.638852,45 L202.361148,45 C211.276335,45 214.509198,45.9282561 217.768457,47.671327 C221.027716,49.414398 223.585602,51.9722837 225.328673,55.231543 C227.071744,58.4908022 228,61.7236646 228,70.638852 L228,230.361148 C228,239.276335 227.071744,242.509198 225.328673,245.768457 C223.585602,249.027716 221.027716,251.585602 217.768457,253.328673 C214.509198,255.071744 211.276335,256 202.361148,256 L148.638852,256 C139.723665,256 136.490802,255.071744 133.231543,253.328673 C129.972284,251.585602 127.414398,249.027716 125.671327,245.768457 C123.928256,242.509198 123,239.276335 123,230.361148 L123,70.638852 C123,61.7236646 123.928256,58.4908022 125.671327,55.231543 C127.414398,51.9722837 129.972284,49.414398 133.231543,47.671327 C136.490802,45.9282561 139.723665,45 148.638852,45 Z" id="Rectangle-2-Copy" fill="#8AB8F1"/><path d="M270.638852,178 L324.361148,178 C333.276335,178 336.509198,178.928256 339.768457,180.671327 C343.027716,182.414398 345.585602,184.972284 347.328673,188.231543 C349.071744,191.490802 350,194.723665 350,203.638852 L350,318.361148 C350,327.276335 349.071744,330.509198 347.328673,333.768457 C345.585602,337.027716 343.027716,339.585602 339.768457,341.328673 C336.509198,343.071744 333.276335,344 324.361148,344 L270.638852,344 C261.723665,344 258.490802,343.071744 255.231543,341.328673 C251.972284,339.585602 249.414398,337.027716 247.671327,333.768457 C245.928256,330.509198 245,327.276335 245,318.361148 L245,203.638852 C245,194.723665 245.928256,191.490802 247.671327,188.231543 C249.414398,184.972284 251.972284,182.414398 255.231543,180.671327 C258.490802,178.928256 261.723665,178 270.638852,178 Z" id="Rectangle-2-Copy-4" fill="#B8DBE9"/><path d="M148.638852,278 L202.361148,278 C211.276335,278 214.509198,278.928256 217.768457,280.671327 C221.027716,282.414398 223.585602,284.972284 225.328673,288.231543 C227.071744,291.490802 228,294.723665 228,303.638852 L228,363.361148 C228,372.276335 227.071744,375.509198 225.328673,378.768457 C223.585602,382.027716 221.027716,384.585602 217.768457,386.328673 C214.509198,388.071744 211.276335,389 202.361148,389 L148.638852,389 C139.723665,389 136.490802,388.071744 133.231543,386.328673 C129.972284,384.585602 127.414398,382.027716 125.671327,378.768457 C123.928256,375.509198 123,372.276335 123,363.361148 L123,303.638852 C123,294.723665 123.928256,291.490802 125.671327,288.231543 C127.414398,284.972284 129.972284,282.414398 133.231543,280.671327 C136.490802,278.928256 139.723665,278 148.638852,278 Z" id="Rectangle-2-Copy-5" fill="#B8DBE9"/><path d="M270.638852,45 L324.361148,45 C333.276335,45 336.509198,45.9282561 339.768457,47.671327 C343.027716,49.414398 345.585602,51.9722837 347.328673,55.231543 C349.071744,58.4908022 350,61.7236646 350,70.638852 L350,130.361148 C350,139.276335 349.071744,142.509198 347.328673,145.768457 C345.585602,149.027716 343.027716,151.585602 339.768457,153.328673 C336.509198,155.071744 333.276335,156 324.361148,156 L270.638852,156 C261.723665,156 258.490802,155.071744 255.231543,153.328673 C251.972284,151.585602 249.414398,149.027716 247.671327,145.768457 C245.928256,142.509198 245,139.276335 245,130.361148 L245,70.638852 C245,61.7236646 245.928256,58.4908022 247.671327,55.231543 C249.414398,51.9722837 251.972284,49.414398 255.231543,47.671327 C258.490802,45.9282561 261.723665,45 270.638852,45 Z" id="Rectangle-2-Copy-2" fill="#B8DBE9"/><path d="M26.638852,345 L80.361148,345 C89.2763354,345 92.5091978,345.928256 95.768457,347.671327 C99.0277163,349.414398 101.585602,351.972284 103.328673,355.231543 C105.071744,358.490802 106,361.723665 106,370.638852 L106,496.361148 C106,505.276335 105.071744,508.509198 103.328673,511.768457 C101.585602,515.027716 99.0277163,517.585602 95.768457,519.328673 C92.5091978,521.071744 89.2763354,522 80.361148,522 L26.638852,522 C17.7236646,522 14.4908022,521.071744 11.231543,519.328673 C7.97228371,517.585602 5.41439796,515.027716 3.67132704,511.768457 C1.92825611,508.509198 1,505.276335 1,496.361148 L1,370.638852 C1,361.723665 1.92825611,358.490802 3.67132704,355.231543 C5.41439796,351.972284 7.97228371,349.414398 11.231543,347.671327 C14.4908022,345.928256 17.7236646,345 26.638852,345 Z" id="Rectangle-2-Copy-6" fill="#8AB8F1"/><path d="M26.638852,211 L80.361148,211 C89.2763354,211 92.5091978,211.928256 95.768457,213.671327 C99.0277163,215.414398 101.585602,217.972284 103.328673,221.231543 C105.071744,224.490802 106,227.723665 106,236.638852 L106,296.361148 C106,305.276335 105.071744,308.509198 103.328673,311.768457 C101.585602,315.027716 99.0277163,317.585602 95.768457,319.328673 C92.5091978,321.071744 89.2763354,322 80.361148,322 L26.638852,322 C17.7236646,322 14.4908022,321.071744 11.231543,319.328673 C7.97228371,317.585602 5.41439796,315.027716 3.67132704,311.768457 C1.92825611,308.509198 1,305.276335 1,296.361148 L1,236.638852 C1,227.723665 1.92825611,224.490802 3.67132704,221.231543 C5.41439796,217.972284 7.97228371,215.414398 11.231543,213.671327 C14.4908022,211.928256 17.7236646,211 26.638852,211 Z" id="Rectangle-2-Copy-3" fill="#B8DBE9"/><path d="M270.638852,666 L324.361148,666 C333.276335,666 336.509198,666.928256 339.768457,668.671327 C343.027716,670.414398 345.585602,672.972284 347.328673,676.231543 C349.071744,679.490802 350,682.723665 350,691.638852 L350,751.361148 C350,760.276335 349.071744,763.509198 347.328673,766.768457 C345.585602,770.027716 343.027716,772.585602 339.768457,774.328673 C336.509198,776.071744 333.276335,777 324.361148,777 L270.638852,777 C261.723665,777 258.490802,776.071744 255.231543,774.328673 C251.972284,772.585602 249.414398,770.027716 247.671327,766.768457 C245.928256,763.509198 245,760.276335 245,751.361148 L245,691.638852 C245,682.723665 245.928256,679.490802 247.671327,676.231543 C249.414398,672.972284 251.972284,670.414398 255.231543,668.671327 C258.490802,666.928256 261.723665,666 270.638852,666 Z" id="Rectangle-2-Copy-12" fill="#8AB8F1"/><path d="M6,0 L39,0 C42.3137085,-6.08718376e-16 45,2.6862915 45,6 C45,9.3137085 42.3137085,12 39,12 L6,12 C2.6862915,12 4.05812251e-16,9.3137085 0,6 C-4.05812251e-16,2.6862915 2.6862915,6.08718376e-16 6,0 Z" id="Rectangle" fill="#B8DBE9"/><path d="M73,0 L106,0 C109.313708,-6.08718376e-16 112,2.6862915 112,6 C112,9.3137085 109.313708,12 106,12 L73,12 C69.6862915,12 67,9.3137085 67,6 C67,2.6862915 69.6862915,6.08718376e-16 73,0 Z" id="Rectangle-Copy" fill="#B8DBE9" opacity=".3"/><path d="M139,0 L172,0 C175.313708,-6.08718376e-16 178,2.6862915 178,6 C178,9.3137085 175.313708,12 172,12 L139,12 C135.686292,12 133,9.3137085 133,6 C133,2.6862915 135.686292,6.08718376e-16 139,0 Z" id="Rectangle-Copy-2" fill="#B8DBE9" opacity=".3"/><path d="M206,0 L239,0 C242.313708,-6.08718376e-16 245,2.6862915 245,6 C245,9.3137085 242.313708,12 239,12 L206,12 C202.686292,12 200,9.3137085 200,6 C200,2.6862915 202.686292,6.08718376e-16 206,0 Z" id="Rectangle-Copy-3" fill="#B8DBE9" opacity=".3"/><path d="M272,0 L305,0 C308.313708,-6.08718376e-16 311,2.6862915 311,6 C311,9.3137085 308.313708,12 305,12 L272,12 C268.686292,12 266,9.3137085 266,6 C266,2.6862915 268.686292,6.08718376e-16 272,0 Z" id="Rectangle-Copy-4" fill="#B8DBE9" opacity=".3"/></g></g></g><g id="Profile"><g id="Group-6"><path d="M170,0 L181,0 C208.614237,-5.07265313e-15 231,22.3857625 231,50 L231,61 C231,88.6142375 208.614237,111 181,111 L170,111 C142.385763,111 120,88.6142375 120,61 L120,50 C120,22.3857625 142.385763,5.07265313e-15 170,0 Z" id="Rectangle" fill="#B8DBE9"/><path d="M171.5595,42.18 C169.903657,42.18 168.5625,43.5046 168.5625,45.14 L168.5625,46.62 L164.067,46.62 C162.411157,46.62 161.07,47.9446 161.07,49.58 L161.07,65.86 C161.07,67.4954 162.411157,68.82 164.067,68.82 L188.043,68.82 C189.698842,68.82 191.04,67.4954 191.04,65.86 L191.04,49.58 C191.04,47.9446 189.698842,46.62 188.043,46.62 L183.5475,46.62 L183.5475,45.14 C183.5475,43.5046 182.206342,42.18 180.5505,42.18 L171.5595,42.18 Z M176.61,49.95 C180.894378,49.95 184.38,53.186649 184.38,57.165 C184.38,61.143351 180.894378,64.38 176.61,64.38 C172.325622,64.38 168.84,61.143351 168.84,57.165 C168.84,53.186649 172.325622,49.95 176.61,49.95 Z M186.045,49.95 C186.96408,49.95 187.71,50.69592 187.71,51.615 C187.71,52.53408 186.96408,53.28 186.045,53.28 C185.12592,53.28 184.38,52.53408 184.38,51.615 C184.38,50.69592 185.12592,49.95 186.045,49.95 Z M176.61,52.17 C174.157856,52.17 172.17,54.1578557 172.17,56.61 C172.17,59.0621443 174.157856,61.05 176.61,61.05 C179.062144,61.05 181.05,59.0621443 181.05,56.61 C181.05,54.1578557 179.062144,52.17 176.61,52.17 Z" id="Shape" fill="#70A2DE" fill-rule="nonzero"/><path d="M92.5,144 L125.75,144 C128.787566,144 131.25,146.462434 131.25,149.5 C131.25,152.537566 128.787566,155 125.75,155 L92.5,155 C89.4624339,155 87,152.537566 87,149.5 C87,146.462434 89.4624339,144 92.5,144 Z" id="Rectangle" fill="#8AB8F1"/><path d="M158.875,144 L192.125,144 C195.162566,144 197.625,146.462434 197.625,149.5 C197.625,152.537566 195.162566,155 192.125,155 L158.875,155 C155.837434,155 153.375,152.537566 153.375,149.5 C153.375,146.462434 155.837434,144 158.875,144 Z" id="Rectangle-Copy" fill="#B8DBE9" opacity=".3"/><path d="M225.25,144 L258.5,144 C261.537566,144 264,146.462434 264,149.5 C264,152.537566 261.537566,155 258.5,155 L225.25,155 C222.212434,155 219.75,152.537566 219.75,149.5 C219.75,146.462434 222.212434,144 225.25,144 Z" id="Rectangle-Copy-2" fill="#B8DBE9" opacity=".3"/><path d="M321.310292,266 L343.451613,266 C346.515902,266 349,268.484098 349,271.548387 C349,274.612677 346.515902,277.096774 343.451613,277.096774 L321.310292,277.096774 C318.246002,277.096774 315.761905,274.612677 315.761905,271.548387 C315.761905,268.484098 318.246002,266 321.310292,266 Z" id="Rectangle" fill="#B8DBE9"/><path d="M310.230927,299.290323 L343.451613,299.290323 C346.515902,299.290323 349,301.77442 349,304.83871 C349,307.902999 346.515902,310.387097 343.451613,310.387097 L310.230927,310.387097 C307.166637,310.387097 304.68254,307.902999 304.68254,304.83871 C304.68254,301.77442 307.166637,299.290323 310.230927,299.290323 Z" id="Rectangle" fill="#B8DBE9"/><path d="M332.389657,332.580645 L343.451613,332.580645 C346.515902,332.580645 349,335.064743 349,338.129032 C349,341.193322 346.515902,343.677419 343.451613,343.677419 L332.389657,343.677419 C329.325367,343.677419 326.84127,341.193322 326.84127,338.129032 C326.84127,335.064743 329.325367,332.580645 332.389657,332.580645 Z" id="Rectangle" fill="#B8DBE9"/><path d="M343.460317,365.870968 C346.5198,365.870968 349,368.351168 349,371.41065 L349,371.428059 C349,374.487542 346.5198,376.967742 343.460317,376.967742 C340.400835,376.967742 337.920635,374.487542 337.920635,371.428059 L337.920635,371.41065 C337.920635,368.351168 340.400835,365.870968 343.460317,365.870968 Z" id="Rectangle" fill="#B8DBE9"/><path d="M321.310292,399.16129 L343.451613,399.16129 C346.515902,399.16129 349,401.645388 349,404.709677 C349,407.773967 346.515902,410.258065 343.451613,410.258065 L321.310292,410.258065 C318.246002,410.258065 315.761905,407.773967 315.761905,404.709677 C315.761905,401.645388 318.246002,399.16129 321.310292,399.16129 Z" id="Rectangle" fill="#B8DBE9"/><path d="M332.389657,432.451613 L343.451613,432.451613 C346.515902,432.451613 349,434.93571 349,438 C349,441.06429 346.515902,443.548387 343.451613,443.548387 L332.389657,443.548387 C329.325367,443.548387 326.84127,441.06429 326.84127,438 C326.84127,434.93571 329.325367,432.451613 332.389657,432.451613 Z" id="Rectangle" fill="#B8DBE9"/><path d="M343.460317,465.741935 C346.5198,465.741935 349,468.222136 349,471.281618 L349,471.299027 C349,474.358509 346.5198,476.83871 343.460317,476.83871 C340.400835,476.83871 337.920635,474.358509 337.920635,471.299027 L337.920635,471.281618 C337.920635,468.222136 340.400835,465.741935 343.460317,465.741935 Z" id="Rectangle" fill="#8AB8F1"/><path d="M5.5483871,598.903226 L193.880184,598.903226 C196.944474,598.903226 199.428571,601.387323 199.428571,604.451613 C199.428571,607.515902 196.944474,610 193.880184,610 L5.5483871,610 C2.48409752,610 3.75267243e-16,607.515902 0,604.451613 C-3.75267243e-16,601.387323 2.48409752,598.903226 5.5483871,598.903226 Z" id="Rectangle" fill="#B8DBE9"/><path d="M332.389657,499.032258 L343.451613,499.032258 C346.515902,499.032258 349,501.516356 349,504.580645 C349,507.644935 346.515902,510.129032 343.451613,510.129032 L332.389657,510.129032 C329.325367,510.129032 326.84127,507.644935 326.84127,504.580645 C326.84127,501.516356 329.325367,499.032258 332.389657,499.032258 Z" id="Rectangle" fill="#8AB8F1"/><path d="M321.310292,532.322581 L343.451613,532.322581 C346.515902,532.322581 349,534.806678 349,537.870968 C349,540.935257 346.515902,543.419355 343.451613,543.419355 L321.310292,543.419355 C318.246002,543.419355 315.761905,540.935257 315.761905,537.870968 C315.761905,534.806678 318.246002,532.322581 321.310292,532.322581 Z" id="Rectangle" fill="#B8DBE9"/><path d="M5.5483871,565.612903 L83.0865335,565.612903 C86.1508231,565.612903 88.6349206,568.097001 88.6349206,571.16129 C88.6349206,574.22558 86.1508231,576.709677 83.0865335,576.709677 L5.5483871,576.709677 C2.48409752,576.709677 3.75267243e-16,574.22558 0,571.16129 C-3.75267243e-16,568.097001 2.48409752,565.612903 5.5483871,565.612903 Z" id="Rectangle" fill="#BAEBFF"/><path d="M5.5483871,532.322581 L49.8484383,532.322581 C52.9127279,532.322581 55.3968254,534.806678 55.3968254,537.870968 C55.3968254,540.935257 52.9127279,543.419355 49.8484383,543.419355 L5.5483871,543.419355 C2.48409752,543.419355 3.75267243e-16,540.935257 0,537.870968 C-3.75267243e-16,534.806678 2.48409752,532.322581 5.5483871,532.322581 Z" id="Rectangle" fill="#8AB8F1"/><path d="M5.5483871,499.032258 L38.7690732,499.032258 C41.8333628,499.032258 44.3174603,501.516356 44.3174603,504.580645 C44.3174603,507.644935 41.8333628,510.129032 38.7690732,510.129032 L5.5483871,510.129032 C2.48409752,510.129032 3.75267243e-16,507.644935 0,504.580645 C-3.75267243e-16,501.516356 2.48409752,499.032258 5.5483871,499.032258 Z" id="Rectangle" fill="#B8DBE9"/><path d="M5.5483871,332.580645 L83.0865335,332.580645 C86.1508231,332.580645 88.6349206,335.064743 88.6349206,338.129032 C88.6349206,341.193322 86.1508231,343.677419 83.0865335,343.677419 L5.5483871,343.677419 C2.48409752,343.677419 3.75267243e-16,341.193322 0,338.129032 C-3.75267243e-16,335.064743 2.48409752,332.580645 5.5483871,332.580645 Z" id="Rectangle" fill="#B8DBE9"/><path d="M5.5483871,299.290323 L127.403994,299.290323 C130.468283,299.290323 132.952381,301.77442 132.952381,304.83871 C132.952381,307.902999 130.468283,310.387097 127.403994,310.387097 L5.5483871,310.387097 C2.48409752,310.387097 3.75267243e-16,307.902999 0,304.83871 C-3.75267243e-16,301.77442 2.48409752,299.290323 5.5483871,299.290323 Z" id="Rectangle" fill="#BAEBFF"/><path d="M5.5483871,266 L49.8484383,266 C52.9127279,266 55.3968254,268.484098 55.3968254,271.548387 C55.3968254,274.612677 52.9127279,277.096774 49.8484383,277.096774 L5.5483871,277.096774 C2.48409752,277.096774 3.75267243e-16,274.612677 0,271.548387 C-3.75267243e-16,268.484098 2.48409752,266 5.5483871,266 Z" id="Rectangle" fill="#B8DBE9"/><path d="M22,200 L327,200 C339.150264,200 349,209.849736 349,222 C349,234.150264 339.150264,244 327,244 L22,244 C9.8497355,244 1.48797825e-15,234.150264 0,222 C-1.48797825e-15,209.849736 9.8497355,200 22,200 Z" id="Rectangle-2" fill="#8AB8F1"/><rect id="Rectangle-2" fill="#B8DBE9" x="0" y="701" width="161" height="56" rx="28"/></g><g id="Group-3" transform="translate(0.000000, 266.000000)"/></g></g><g transform="translate(0.000000, 180.000000) scale(1 1)" id="Master/Character/Standing"><g id="Master/Character/Standing" stroke="none" stroke-width="1" fill="none" fill-rule="evenodd"><g id="Legs" transform="translate(50.000000, 263.000000) scale(1 1)"><g id="Legs/Shorts Leap" stroke="none" stroke-width="1" fill="none" fill-rule="evenodd"><g id="Group-2" transform="translate(176.000411, 0.000000)"><path d="M7.99958868,221 C8.05058421,216.184496 7.20815088,209.084896 5.47228868,199.7012 C5.51428868,196.1242 8.49828868,193.2582 12.0422887,193.2982 C41.4062887,193.6412 70.5712887,193.5582 99.8102887,192.7462 C144.999289,191.2722 189.507289,189.1652 233.234289,180.9812 C238.190289,179.9652 243.329289,178.8632 247.734289,176.2782 C263.594289,170.8602 225.776289,104.4832 220.269289,92.3662 L290.069289,55.3662 C312.353289,99.8592 368.586289,202.9532 309.102289,237.0702 C256.129289,268.3462 163.263289,268.6122 102.002289,271.7182 C71.6462887,272.5592 41.3132887,272.6472 11.1682887,272.2932 C7.57328868,272.2532 4.73428868,269.3202 4.77289164,265.7452 C6.81959698,245.776007 7.89516265,230.86094 7.99958868,221 Z" id="SKIN-DARKER" fill="#d29863"/><path d="M180.830789,47.8077 C177.908789,49.4597 175.987789,51.5017 176.497789,52.3177 C176.498789,52.3177 180.732789,59.3977 180.732789,59.3977 C199.705789,92.0587 217.925789,126.1107 230.413789,161.4877 C230.387789,161.4457 230.341789,161.4997 230.292789,161.4997 L278.699789,152.1417 C281.191789,147.8687 283.456789,143.1907 284.910789,136.6497 C289.934789,140.4127 294.924789,143.7927 299.682789,148.0837 L348.661789,138.6137 C341.883138,116.626728 332.876721,95.4249303 322.722152,74.7993965 C314.203874,57.4974274 280.09525,8.09948078 275.065789,4.26325641e-14" id="Fill-3" fill="#CC2935"/><path d="M31.5242887,279.6641 C71.1752887,279.8321 110.924289,279.1861 151.020289,276.8351 L145.563289,184.7931 C97.6702887,187.6541 48.2112887,187.7871 1.56319402e-13,187.1851 L1.56319402e-13,218.3541 C2.64228868,218.8181 4.91628868,219.3061 7.27428868,219.7881 L1.56319402e-13,236.8981 C1.56319402e-13,256.3211 1.56319402e-13,295.9041 1.56319402e-13,315.1851 L10.8302887,315.292322 C19.0882887,315.3801 22.2262887,289.2841 31.5242887,279.6641" id="Fill-5" fill="#0A1B45"/></g><g id="Left-Leg" transform="translate(234.000000, 0.000000)"><path d="M31.6410854,524.216016 C27.989231,521.032975 21.9538301,517.064853 13.5348827,512.311652 C10.7914733,509.915117 10.1715107,505.954394 12.1841429,503.336945 C29.2056606,481.111668 45.2747719,456.863627 59.3242627,432.349654 C90.0208976,376.68281 120.668614,310.799542 108.237416,245.745482 C97.8038743,188.421271 65.3871177,139.541994 39.7959397,87.9290546 L110.365854,51 C124.91451,80.9017294 142.821546,109.953312 156.592502,140.825591 C173.462274,178.388068 186.938724,219.652664 189.764994,261.514038 C193.591591,355.076298 150.108352,440.975716 101.568575,515.998066 C92.6684674,529.375321 83.4309247,542.423824 73.5694261,555.268167 C71.2003902,558.34838 66.9864415,558.910608 64.2440304,556.510931 C50.1255789,541.620008 39.2579305,530.855037 31.6410854,524.216016 Z" id="SKIN" fill="#edb98a"/><path d="M110.041805,1.95083714 L6.03444378,0.00260635822 C2.68748442,-0.0757827559 -0.024431346,1.62369324 -2.91038305e-11,3.79872986 C-0.0214358574,12.3410529 0.638570151,20.8645626 1.88968593,29.2762371 C9.54715352,83.1462815 42.4206449,129.743906 64.2088312,177 L107.807171,154.083204 C108.801673,147.53719 109.629426,140.943098 110.349342,134.334373 C115.856049,137.511745 121.311832,140.76228 126.70471,144.149735 L171,120.866078 C156.977119,91.8892807 140.1245,65.5390413 126.516993,37.3983945 C122.561949,29.0086689 118.94939,20.1736932 117.073216,11.1505836 C116.593937,8.45713361 116.189546,5.75636733 116.142617,3.03469729 C116.12764,2.51419357 113.387766,2.02818107 110.041805,1.95083714" id="Fill-11" fill="#FA3239"/><path d="M92.8073432,542.400779 C117.625071,507.762243 139.625942,471.422674 158,432.430665 L75.2122455,390 C55.6872468,431.250293 30.3685452,471.378763 2,507.002162 C2.73996205,507.677557 24.1148659,527.181402 25.4827958,528.430778 C26.8887237,527.457415 29.1766063,525.462597 30.5545357,524.343909 C33.5853802,529.910163 36.5262294,535.566331 39.4530793,541.179633 C54.085329,554.531742 83.9047998,581.745122 98.4310548,595 C99.6729911,593.481931 102.174863,590.408154 103.376801,588.877539 C118.106046,576.134956 96.068176,561.94749 92.8073432,542.400779" id="Fill-13" fill="#0A1B45"/></g><path d="M243,0 C243,55.228475 289.562386,100 347,100 C404.437614,100 451,55.228475 451,0" id="Waist" fill="#FA3239"/></g></g><g id="Body" transform="translate(17.000000, -31.000000) scale(1 1)"><g id="Body/Tee Open Arms" stroke="none" stroke-width="1" fill="none" fill-rule="evenodd"><g id="Right-Arm" transform="translate(612.724053, 228.721560) rotate(-10.000000) translate(-612.724053, -228.721560) translate(427.224053, 123.721560)"><path d="M51.3964283,21.8427299 L51.8992912,21.8460448 C65.4678035,22.0296362 78.29468,29.82425 83.1401,42.764 C99.5311,84.993 123.4941,133.828 170.9071,142.639 C190.9491,145.926 211.7981,142.896 231.6171,138.273 C243.94111,135.618293 256.433464,130.008939 268.18931,127.347187 C290.104439,119.143228 315.216158,111.387757 336.445202,111.330302 L337.4054,111.333 L337.4054,111.333 L337.973572,111.331288 L337.973572,111.331288 L338.544461,111.333287 C357.235144,111.459188 379.87434,117.5189 367.2294,128.735 C365.348244,129.505221 358.455991,130.601397 350.250003,132.355177 L349.94689,132.420165 C357.532854,136.241382 362.062929,142.377492 357.6402,148.5677 C348.763297,157.848702 339.20238,141.515654 322.447631,141.80163 C322.408445,141.827175 322.370093,141.851504 322.331831,141.875889 C317.31293,145.074561 313.867014,149.228861 313.5354,154.85 C313.1634,161.32 315.6324,164.84 319.3264,166.726 C326.1294,170.54 339.5174,165.85 341.0004,176.31 C343.0134,186.699 330.9204,186.562 323.1434,187.591 C311.057437,188.956241 293.84765,188.688678 283.610342,192.105618 L283.0384,192.303 L283.0384,192.303 C282.889522,192.307488 282.741582,192.305932 282.594574,192.298447 L281.968458,192.508693 C279.65581,193.27641 277.2825,193.9312 274.8771,194.471 C261.3241,198.918 246.9351,202.811 232.8021,205.497 C218.82762,208.22349 204.321094,209.907487 189.827605,209.996374 L188.712756,210.000056 C166.41666,210.0104 144.1845,206.2118 124.0011,196.592 C83.1581,177.298 54.8811,139.313 35.6851,99.827 C23.0641,73.638 3.6141,36.253 42.3221,23.005 C45.32612,22.22218 48.3773792,21.8437768 51.3964283,21.8427299 Z" id="SKIN-DARKER" fill="#d29863"/><path d="M42.3221,23.005 C59.0111,18.656 77.1581,26.789 83.1401,42.764 C99.5311,84.993 123.4941,133.828 170.9071,142.639 C190.9491,145.926 211.7981,142.896 231.6171,138.273 C243.940411,135.618444 256.432047,130.009575 268.187309,127.347641 C290.434253,119.019669 315.975573,111.153344 337.4054,111.333 C356.2964,111.214 380.1324,117.29 367.2294,128.735 C365.32509,129.514701 358.285563,130.628432 349.946398,132.420237 C357.532854,136.241382 362.062929,142.377492 357.6402,148.5677 C348.763297,157.848702 339.20238,141.515654 322.447631,141.80163 C317.365651,145.011306 313.869542,149.186009 313.5354,154.85 C313.1634,161.32 315.6324,164.84 319.3264,166.726 C326.1294,170.54 339.5174,165.85 341.0004,176.31 C343.0134,186.699 330.9204,186.562 323.1434,187.591 C310.8294,188.982 293.1964,188.678 283.0384,192.303 C282.889522,192.307488 282.741582,192.305932 282.594574,192.298447 C280.085623,193.156809 277.500446,193.88229 274.8771,194.471 C261.3241,198.918 246.9351,202.811 232.8021,205.497 C196.9701,212.488 157.6401,212.625 124.0011,196.592 C83.1581,177.298 54.8811,139.313 35.6851,99.827 C23.0641,73.638 3.6141,36.253 42.3221,23.005 Z" id="SKIN-DARKER" fill="#d29863"/><path d="M108.0793,84.7891 C99.0854796,69.4308264 94.1923082,54.762552 86.4735468,37.599422 C76.061845,14.4483771 57.8781328,1.00606578 29.9995492,0 C-35.2684508,8.228 25.5863,89.0091 42.5433,123.2741 L108.0793,84.7891 Z" id="Fill-6" fill="#3F8FD4"/></g><path d="M312,149 L448,149 C470.09139,149 488,166.90861 488,189 L488,300 L488,300 L272,300 L272,189 C272,166.90861 289.90861,149 312,149 Z" id="body" fill="#55B0EB"/><g id="Left-Arm" transform="translate(86.000000, 149.000000)"><path d="M18.0802955,302.309495 C18.4982955,313.068495 25.3112955,323.542495 34.5242955,327.143495 C41.3482955,330.096495 47.2822955,321.166495 43.2452955,315.509495 C36.2042955,307.874495 28.0512955,297.122495 30.2632955,285.060495 C31.0852955,263.647495 15.3582955,292.969495 18.0802955,302.309495" id="SKIN" fill="#edb98a"/><path d="M18.0802955,302.309495 C18.4982955,313.068495 25.3112955,323.542495 34.5242955,327.143495 C41.3482955,330.096495 47.2822955,321.166495 43.2452955,315.509495 C36.2042955,307.874495 28.0512955,297.122495 30.2632955,285.060495 C31.0852955,263.647495 15.3582955,292.969495 18.0802955,302.309495" id="SKIN-DARKER" fill="#d29863"/><path d="M34.4591955,273.717695 C16.9091955,267.509695 9.28819552,246.021695 17.0031955,229.508695 C42.0981955,173.714695 74.9911955,121.534695 113.319196,74.5276952 C122.682196,63.0106952 132.825196,51.2356952 142.737196,40.2306952 C148.638196,34.4596952 158.006196,21.7646952 166.158196,19.1876952 C178.312196,13.7696952 192.927196,16.3696952 202.228196,26.0346952 C211.386196,35.2986952 214.296196,49.5676952 209.727196,61.6146952 C207.526196,69.1106952 196.700196,78.7416952 191.613196,84.5836952 C182.509196,94.7206952 173.155196,105.524695 164.553196,116.135695 C129.524196,159.102695 99.8821955,206.196695 77.2581955,256.440695 C70.4611955,272.433695 50.5231955,279.995695 34.4591955,273.717695" id="SKIN" fill="#edb98a"/><path d="M112.378896,67.8128952 C119.166896,59.2588952 130.277896,46.7768952 137.570896,38.4638952 C150.020896,26.5188952 166.127077,13.4872117 182.763077,6.59621168 C199.399077,-0.294788316 229.577744,-2.49030397e-14 229.577744,-2.11907315e-14 C240.491744,11.598 230.687896,45.6348952 222.309896,58.6568952 C213.715896,69.5528952 203.058896,78.8888952 193.978896,89.3978952 C187.280896,96.8938952 177.348896,108.321895 171.098896,116.061895 L112.378896,67.8128952 Z" id="Fill-17" fill="#55B0EB"/><path d="M78.4718955,253.850995 C79.2348955,240.714995 27.0058955,228.897995 17.9008955,227.583995 C5.57789552,254.323995 -2.95510448,284.149995 2.07689552,313.143995 C5.49489552,329.932995 11.9818955,337.495995 13.3798955,339.948995 C16.1938955,344.805995 25.7238955,344.077995 26.3178955,338.145995 C26.2348955,331.379995 24.6228955,317.461995 25.8918955,309.161995 C26.9388955,298.695995 29.8768955,283.703995 42.0798955,281.936995 C53.9408955,280.349995 56.8178955,289.774995 57.8928955,298.516995 C58.6438955,306.805995 73.1728955,309.262995 74.7788955,300.870995 C76.4528955,285.901995 72.7908955,268.254995 78.4718955,253.850995" id="SKIN" fill="#edb98a"/></g><path d="M334,149 C334,167.225397 354.594902,182 380,182 C405.405098,182 426,167.225397 426,149" id="SKIN" fill="#edb98a"/></g></g><g id="Head" transform="translate(338.000000, -61.000000) scale(1 1)"><g id="Head/Short Wavy" stroke="none" stroke-width="1" fill="none" fill-rule="evenodd"><g id="Group-29" transform="translate(-21.000000, 61.000000)"><path d="M56.5,125.9999 L45.275,125.9999 C20.27,125.9999 0,105.7299 0,80.7249 C0,76.4579 3.459,72.9999 7.725,72.9999 L56.5,72.9999 C57.328,72.9999 58,73.6709 58,74.4999 L58,124.4999 C58,125.3289 57.328,125.9999 56.5,125.9999" id="Fill-1" fill="#000"/><path d="M55,97.9999 L49.172,97.9999 C28.642,97.9999 12,81.3569 12,60.8279 C12,56.8919 15.191,53.6999 19.128,53.6999 L55,53.6999 L55,97.9999 Z" id="Fill-3" fill="#000"/><path d="M100.5,125.9999 L111.725,125.9999 C136.73,125.9999 157,105.7299 157,80.7249 C157,76.4579 153.541,72.9999 149.275,72.9999 L100.5,72.9999 C99.672,72.9999 99,73.6709 99,74.4999 L99,124.4999 C99,125.3289 99.672,125.9999 100.5,125.9999" id="Fill-5" fill="#000"/><path d="M106,97.9999 L111.828,97.9999 C132.358,97.9999 149,81.3569 149,60.8279 C149,56.8919 145.809,53.6999 141.872,53.6999 L106,53.6999 L106,97.9999 Z" id="Fill-7" fill="#000"/><path d="M77.8008,104.9999 L81.9998,104.9999 L81.9998,-0.0001 L77.8008,-0.0001 C49.7448,-0.0001 26.9998,22.7439 26.9998,50.8009 L26.9998,54.1989 C26.9998,82.2559 49.7448,104.9999 77.8008,104.9999" id="Fill-9" fill="#000"/><path d="M87.8286,104.9999 L81.8706,104.9999 C73.6576,104.9999 66.9996,98.3419 66.9996,90.1299 L66.9996,14.8699 C66.9996,6.6579 73.6576,-0.0001 81.8706,-0.0001 L87.8286,-0.0001 C114.9846,-0.0001 136.9996,22.0149 136.9996,49.1709 L136.9996,55.8289 C136.9996,82.9849 114.9846,104.9999 87.8286,104.9999" id="Fill-12" fill="#000"/><path d="M89.1992,74.9999 L80.0002,74.9999 L80.0002,-0.0001 L89.1992,-0.0001 C117.2552,-0.0001 140.0002,12.7439 140.0002,40.8009 L140.0002,54.1989 C140.0002,74.9999 117.2552,74.9999 89.1992,74.9999" id="Fill-15" fill="#000"/><path d="M56,72.9999 L101,72.9999 L101,124.6329 C101,138.5379 90.927,149.8099 78.5,149.8099 C66.073,149.8099 56,138.5379 56,124.6329 L56,72.9999 Z" id="SKIN" fill="#edb98a"/><path d="M103.0525,104.9999 L98.0655,104.9999 C74.8335,104.9999 56.0005,86.1669 56.0005,62.9349 L56.0005,43.2029 C56.0005,25.4179 70.4175,10.9999 88.2035,10.9999 L93.7965,10.9999 C111.5825,10.9999 126.0005,25.4179 126.0005,43.2029 L126.0005,82.0519 C126.0005,94.7259 115.7265,104.9999 103.0525,104.9999" id="SKIN" fill="#edb98a"/><path d="M77.7507501,107.331676 C68.4557924,104.043569 63.8185822,95.7386742 61.9822222,84.5680961 C69.2532122,96.6701724 82.4406226,104.813226 97.5439426,104.996733 L98.0655,104.9999 L101,104.9999 C93.0632106,109.229739 85.3134606,110.006998 77.7507501,107.331676 Z" id="SHADOW" fill="#000" opacity=".12"/><path d="M68,69.4999 C68,76.4029 62.404,81.9999 55.5,81.9999 C48.596,81.9999 43,76.4029 43,69.4999 C43,62.5969 48.596,56.9999 55.5,56.9999 C62.404,56.9999 68,62.5969 68,69.4999" id="SKIN" fill="#edb98a"/><path d="M53.0669,64.1684 C53.9717309,64.1684 55.2238875,64.3770928 56.5087204,65.0195092 C58.6552998,66.0927989 60.0129325,68.055228 60.10401,70.9020045 L60.1089,71.2104 L57.1089,71.2104 C57.1089,69.3750144 56.4075866,68.3230443 55.1670796,67.7027908 C54.7064142,67.4724581 54.1975823,67.3198085 53.686239,67.2345846 C53.4346302,67.1926498 53.2384731,67.1746448 53.1249097,67.169808 L53.0669,67.1684 L53.0669,64.1684 Z" id="Stroke-24" fill="#000" fill-rule="nonzero"/><path d="M54,56.9999 L52.464,56.9999 C46.61,51.3079 44.361,39.7079 43.683,28.4489 C42.754,13.0199 69.542,-0.0001 84.999,-0.0001 L84.999,-0.0001 C96.89,-0.0001 108.025,5.8309 114.797,15.6049 L122,25.9999 L80.697,25.9999 C80.697,42.9999 66,56.9999 54,56.9999" id="Fill-26" fill="#000"/></g></g></g><g id="Expression" transform="translate(385.000000, 34.000000) scale(1 1)" fill="#000"><g id="Expression/Confident" stroke="none" stroke-width="1" fill="none" fill-rule="evenodd"><polygon id="Stroke-5" fill="#000" fill-rule="nonzero" points="33.1977829 19.396766 36.1476171 18.850434 40.4350211 41.9996 30.5607 41.9996 30.5607 38.9996 36.828 38.999"/><g id="Group-19" transform="translate(7.500000, 6.500000)" fill="#000" fill-rule="nonzero"><path d="M15.1954,35.0725 C15.1954,38.7467625 18.9374817,42.1446933 22.9550435,42.2765329 L23.1964,42.2805 L23.1964,45.2805 C17.5987295,45.2805 12.3696019,40.7145163 12.1996594,35.3417911 L12.1954,35.0725 L15.1954,35.0725 Z" id="Stroke-1"/><polygon id="Stroke-3" points="25.4714706 12.8831993 28.4213294 12.3370007 32.7076381 35.4861 22.8344 35.4861 22.8344 32.4861 29.101 32.486"/><polygon id="Stroke-5" points="25.4714706 12.8831993 28.4213294 12.3370007 32.7076381 35.4861 22.8344 35.4861 22.8344 32.4861 29.101 32.486"/><polygon id="Stroke-7" points="25.4714706 12.8831993 28.4213294 12.3370007 32.7076381 35.4861 22.8344 35.4861 22.8344 32.4861 29.101 32.486"/><path d="M16.8347,0.0006 L16.8347,3.0006 C12.8614229,3.0006 9.23835727,4.06604738 6.03595274,5.84488405 C4.91508362,6.46749218 3.9293314,7.13343565 3.08971515,7.7961842 L2.78614068,8.04060103 C2.50740693,8.26977369 2.30354376,8.45165644 2.17768642,8.57223303 L2.12127275,8.62734759 L0.000127251271,6.50585241 C0.850658012,5.65546184 2.39872067,4.43350326 4.57919726,3.22231595 C8.05718891,1.29039915 11.9861553,0.0986291869 16.2942223,0.0063786563 L16.8347,0.0006 Z" id="Stroke-9"/><path d="M28.8944,0.3444 C32.8871281,0.3444 36.5186416,1.41233258 39.717187,3.18913498 C41.5297756,4.19603386 42.8489265,5.21247949 43.6282704,5.95899887 L43.7680602,6.09573983 L41.6467398,8.21706017 C41.5206868,8.09100715 41.2403525,7.83943052 40.815131,7.5037443 C40.087555,6.92936785 39.2326886,6.35179507 38.260363,5.81166502 C35.6146324,4.34195302 32.6384875,3.43381034 29.3845651,3.35065325 L28.8944,3.3444 L28.8944,0.3444 Z" id="Stroke-11"/><path d="M7.22711504,13.179414 C8.68074249,16.8134826 15.4334605,16.8772382 16.3216227,13.6199964 L16.363529,13.4423258 L19.305271,14.0306742 C18.0084908,20.5145751 7.22968836,20.5936471 4.53765904,14.5213 L4.44168496,14.293586 L7.22711504,13.179414 Z" id="Stroke-13"/><path d="M32.227115,13.179414 C33.6807425,16.8134826 40.4334605,16.8772382 41.3216227,13.6199964 L41.363529,13.4423258 L44.305271,14.0306742 C43.0084908,20.5145751 32.2296884,20.5936471 29.537659,14.5213 L29.441685,14.293586 L32.227115,13.179414 Z" id="Stroke-15"/></g></g></g><g id="Accessories" transform="translate(372.000000, 56.000000) scale(1 1)" fill="#000"><g id="Accessories/None" stroke="none" stroke-width="1" fill="none" fill-rule="evenodd" fill-opacity="0"/></g><g id="Glasses" transform="translate(364.000000, 42.000000) scale(1 1)" fill="#000"><g id="Glasses/None" stroke="none" stroke-width="1" fill="none" fill-rule="evenodd" fill-opacity="0"/></g></g></g><g id="Foreground" transform="translate(31.000000, 401.870968)"><path d="M562.638852,254.129032 L616.361148,254.129032 C625.276335,254.129032 628.509198,255.057288 631.768457,256.800359 C635.027716,258.54343 637.585602,261.101316 639.328673,264.360575 C641.071744,267.619834 642,270.852697 642,279.767884 L642,372.49018 C642,381.405368 641.071744,384.63823 639.328673,387.897489 C637.585602,391.156749 635.027716,393.714634 631.768457,395.457705 C628.509198,397.200776 625.276335,398.129032 616.361148,398.129032 L562.638852,398.129032 C553.723665,398.129032 550.490802,397.200776 547.231543,395.457705 C543.972284,393.714634 541.414398,391.156749 539.671327,387.897489 C537.928256,384.63823 537,381.405368 537,372.49018 L537,279.767884 C537,270.852697 537.928256,267.619834 539.671327,264.360575 C541.414398,261.101316 543.972284,258.54343 547.231543,256.800359 C550.490802,255.057288 553.723665,254.129032 562.638852,254.129032 Z" id="Rectangle-2-Copy-7" fill="#B8DBE9" opacity=".906"/><path d="M562.638852,420.129032 L616.361148,420.129032 C625.276335,420.129032 628.509198,421.057288 631.768457,422.800359 C635.027716,424.54343 637.585602,427.101316 639.328673,430.360575 C641.071744,433.619834 642,436.852697 642,445.767884 L642,538.49018 C642,547.405368 641.071744,550.63823 639.328673,553.897489 C637.585602,557.156749 635.027716,559.714634 631.768457,561.457705 C628.509198,563.200776 625.276335,564.129032 616.361148,564.129032 L562.638852,564.129032 C553.723665,564.129032 550.490802,563.200776 547.231543,561.457705 C543.972284,559.714634 541.414398,557.156749 539.671327,553.897489 C537.928256,550.63823 537,547.405368 537,538.49018 L537,445.767884 C537,436.852697 537.928256,433.619834 539.671327,430.360575 C541.414398,427.101316 543.972284,424.54343 547.231543,422.800359 C550.490802,421.057288 553.723665,420.129032 562.638852,420.129032 Z" id="Rectangle-2-Copy-10" fill="#B8DBE9" opacity=".866"/><path d="M684.638852,376.129032 L738.361148,376.129032 C747.276335,376.129032 750.509198,377.057288 753.768457,378.800359 C757.027716,380.54343 759.585602,383.101316 761.328673,386.360575 C763.071744,389.619834 764,392.852697 764,401.767884 L764,461.49018 C764,470.405368 763.071744,473.63823 761.328673,476.897489 C759.585602,480.156749 757.027716,482.714634 753.768457,484.457705 C750.509198,486.200776 747.276335,487.129032 738.361148,487.129032 L684.638852,487.129032 C675.723665,487.129032 672.490802,486.200776 669.231543,484.457705 C665.972284,482.714634 663.414398,480.156749 661.671327,476.897489 C659.928256,473.63823 659,470.405368 659,461.49018 L659,401.767884 C659,392.852697 659.928256,389.619834 661.671327,386.360575 C663.414398,383.101316 665.972284,380.54343 669.231543,378.800359 C672.490802,377.057288 675.723665,376.129032 684.638852,376.129032 Z" id="Rectangle-2-Copy-11" fill="#BAEBFF"/><path d="M343.460317,233.032258 C346.5198,233.032258 349,235.512458 349,238.571941 L349,238.58935 C349,241.648832 346.5198,244.129032 343.460317,244.129032 C340.400835,244.129032 337.920635,241.648832 337.920635,238.58935 L337.920635,238.571941 C337.920635,235.512458 340.400835,233.032258 343.460317,233.032258 Z" id="Rectangle" fill="#B8DBE9"/><path d="M321.310292,199.741935 L343.451613,199.741935 C346.515902,199.741935 349,202.226033 349,205.290323 C349,208.354612 346.515902,210.83871 343.451613,210.83871 L321.310292,210.83871 C318.246002,210.83871 315.761905,208.354612 315.761905,205.290323 C315.761905,202.226033 318.246002,199.741935 321.310292,199.741935 Z" id="Rectangle" fill="#B8DBE9"/><path d="M5.5483871,99.8709677 L193.880184,99.8709677 C196.944474,99.8709677 199.428571,102.355065 199.428571,105.419355 C199.428571,108.483644 196.944474,110.967742 193.880184,110.967742 L5.5483871,110.967742 C2.48409752,110.967742 5.40387746e-13,108.483644 5.40012479e-13,105.419355 C5.39637212e-13,102.355065 2.48409752,99.8709677 5.5483871,99.8709677 Z" id="Rectangle" fill="#B8DBE9" opacity=".89"/><path d="M5.5483871,66.5806452 L72.0071685,66.5806452 C75.071458,66.5806452 77.5555556,69.0647427 77.5555556,72.1290323 C77.5555556,75.1933218 75.071458,77.6774194 72.0071685,77.6774194 L5.5483871,77.6774194 C2.48409752,77.6774194 -4.04634092e-13,75.1933218 -4.05009359e-13,72.1290323 C-4.05384627e-13,69.0647427 2.48409752,66.5806452 5.5483871,66.5806452 Z" id="Rectangle" fill="#B8DBE9"/><path d="M5.5483871,33.2903226 L38.7690732,33.2903226 C41.8333628,33.2903226 44.3174603,35.7744201 44.3174603,38.8387097 C44.3174603,41.9029993 41.8333628,44.3870968 38.7690732,44.3870968 L5.5483871,44.3870968 C2.48409752,44.3870968 1.32553747e-12,41.9029993 1.3251622e-12,38.8387097 C1.32478693e-12,35.7744201 2.48409752,33.2903226 5.5483871,33.2903226 Z" id="Rectangle" fill="#B8DBE9"/><path d="M5.5483871,3.99680289e-13 L160.642089,3.99680289e-13 C163.706379,3.73157243e-13 166.190476,2.48409752 166.190476,5.5483871 C166.190476,8.61267668 163.706379,11.0967742 160.642089,11.0967742 L5.5483871,11.0967742 C2.48409752,11.0967742 -1.39228849e-12,8.61267668 -1.39266376e-12,5.5483871 C-1.39303903e-12,2.48409752 2.48409752,4.0024319e-13 5.5483871,3.99680289e-13 Z" id="Rectangle" fill="#8AB8F1" opacity=".89"/><rect id="Rectangle-2" fill="#BAEBFF" opacity=".908" x="188" y="335.129" width="161" height="56" rx="28"/></g></g></svg>