<svg viewBox="81.97115384615392 39.637500000000045 1018.0288461538462 1255.1875000000002" xmlns="http://www.w3.org/2000/svg" overflow="visible" xmlns:xlink="http://www.w3.org/1999/xlink" width="1018.0288461538462px" height="1255.1875000000002px"><g id="Master/Comps/Chat" stroke="none" stroke-width="1" fill="none" fill-rule="evenodd"><g id="Blob" opacity=".288" transform="translate(2.000000, 147.891534) scale(1.5335892514395393 1.532934131736527)"><g id="Blob/7" stroke="none" stroke-width="1" fill="none" fill-rule="evenodd"><path d="M428.562312,212.885563 C446.287919,301.395612 417.130579,371.278728 354.962506,422.663373 C292.922879,474.048017 198.000966,506.934189 143.025893,470.451092 C88.0508201,433.839533 72.8941411,327.858704 102.693713,223.03403 C132.364839,118.080894 206.86377,14.2839129 276.481736,15.9539138 C346.099702,17.4954532 410.836704,124.503975 428.562312,212.885563 Z" id="blobs-burgers" fill="#F4ECFF"/></g></g><g id="Small Elements" transform="translate(88.000000, 691.000000) scale(1 1)"><g id="Small Elements/Semi" stroke="none" stroke-width="1" fill="none" fill-rule="evenodd"><path d="M135.5,67 C209.782299,67 270,127.665416 270,202.5 L269.996,203 L231.570169,203.000827 C231.571009,202.833984 231.571429,202.667041 231.571429,202.5 C231.571429,149.046726 188.558785,105.714286 135.5,105.714286 C82.4412151,105.714286 39.4285714,149.046726 39.4285714,202.5 L39.432,203 L1.00089958,203.000912 C1.00030003,202.834012 1,202.667041 1,202.5 C1,127.665416 61.2177012,67 135.5,67 Z M135.5,146.848214 C166.008801,146.848214 190.741071,171.764367 190.741071,202.5 L190.737,203 L161.915069,203.000306 C161.918114,202.833906 161.919643,202.667133 161.919643,202.5 C161.919643,187.80035 150.091166,175.883929 135.5,175.883929 C120.908834,175.883929 109.080357,187.80035 109.080357,202.5 C109.080357,202.667133 109.081886,202.833906 109.084931,203.000306 L80.2611171,203.000606 C80.2596591,202.833911 80.2589286,202.667041 80.2589286,202.5 C80.2589286,171.764367 104.991199,146.848214 135.5,146.848214 Z" id="Combined-Shape" fill="#E6D3FF"/></g></g><g id="Small Elements" transform="translate(514.000000, 128.000000) scale(0.5481481481481482 0.5481481481481482)"><g id="Small Elements/Big Graph" stroke="none" stroke-width="1" fill="none" fill-rule="evenodd"><g id="Pie-Chart" transform="translate(29.000000, 29.000000)"><path d="M212,107.648233 C212,48.4524698 164.2894,0 106,0 L106,107.648233 L178.4404,186 C199.0468,166.843997 212,138.742426 212,107.648233 Z" id="Value" fill="#F2F2F2"/><path d="M108.926458,106 L2,106 C2,133.6713 13.275395,159.5989 31.1000356,178.4404 C50.7050018,199.0468 78.6235001,212 108.926458,212 C136.83961,212 162.389688,200.8223 182,183.1521 L108.926458,106 Z" id="Value" fill="#AFB9C5"/><path d="M0,106 C0,47.7106 47.7106,0 106,0 L106,106 L0,106 Z M159,0 L116.6,95.4 L212,53 C202.566,28.2702 181.3819,9.434 159,0 Z" id="Value" fill="#902EE9"/></g></g></g><g id="Character" transform="translate(300.500000, 202.378906) rotate(-9.000000) translate(-300.500000, -202.378906) translate(25.000000, 20.378906)"><path d="M176.98248,211.288638 C178.702347,231.829347 181.758469,246.927654 186.150847,256.583559 C204.748401,297.467153 229.832827,313.54465 235.244766,346.693427 C242.573995,391.585843 265.581758,348.337452 304.268054,216.948252 L280.862948,195.187504 L176.98248,211.288638 Z" id="Path-15" fill="#0A1B45"/><g id="Body" transform="translate(0.050544, 19.705400) scale(0.6373117033603708 0.6382575757575758)"><g id="Body/Bomber Jacket Holding Hands" stroke="none" stroke-width="1" fill="none" fill-rule="evenodd"><g id="Group-50" transform="translate(211.000000, 107.000000)"><path d="M276.241,190.8684 L61.76,190.8684 L61.76,83.8064 C61.76,60.3384 80.785,41.3124 104.254,41.3124 L233.747,41.3124 C257.216,41.3124 276.241,60.3384 276.241,83.8064 L276.241,190.8684 Z" id="Fill-1" fill="#D7DBE2"/><path d="M207.7595,41.3128 C207.7595,57.8688 199.7595,78.8688 173.2595,78.8688 C141.7595,78.8688 128.7595,60.9498 128.7595,41.3128 L207.7595,41.3128 Z" id="SKIN" fill="#B18058"/><path d="M214.8943,253.2786 C240.7593,253.8686 262.7593,251.8686 286.2053,244.0246 C288.3693,243.2996 290.2093,241.9216 290.0103,239.6466 L286.8543,203.5596 C262.7733,204.6066 237.6253,209.2836 211.1563,213.4326 C210.6583,226.3526 210.1503,238.2786 209.6833,248.6256 C209.5553,251.4756 212.0413,253.2136 214.8943,253.2786" id="Fill-5" fill="#CC2935"/><path d="M49.3113,204.7112 L46.4493,237.4342 C46.1123,241.2802 48.4423,244.8862 52.1103,246.0912 C76.6973,254.1692 111.9113,258.3152 135.0273,259.9352 C138.6883,260.1912 141.9093,257.5892 142.4613,253.9602 C144.0283,243.6732 145.1583,232.2482 145.9333,220.0972 C121.2263,219.1352 76.4023,214.8262 49.3113,204.7112" id="Fill-7" fill="#CC2935"/><path d="M90.1228,43.1155 C72.6308,48.3785 59.8868,64.6005 59.8868,83.8065 L49.3108,204.7115 C76.4018,214.8265 121.2268,219.1355 145.9338,220.0965 C148.9858,172.1915 152.7598,75.8685 123.7598,60.8685 C123.7598,60.8685 102.7598,38.8685 90.1228,43.1155" id="Fill-9" fill="#FA3239"/><path d="M211.156,213.4329 C238.76,214.8689 261.76,212.8689 286.854,203.5599 L276.38,83.8069 C276.38,62.4119 260.566,44.7179 239.991,41.7559 C237.324,52.1209 227.655,55.3719 213.76,61.8689 C214.413,106.2699 212.881,168.7459 211.156,213.4329" id="Fill-11" fill="#FA3239"/><path d="M216.3865,264.1399 C216.8605,273.2549 213.5195,281.6609 207.3355,287.8349 C201.1815,293.9639 192.1435,297.7339 182.1095,297.3469 C171.1195,296.9149 160.0355,295.9859 148.8655,294.3969 C137.6985,292.8079 126.4395,290.5729 115.1245,287.3189 C105.0785,284.4229 94.9855,280.8549 84.9795,276.0269 C74.9905,271.2059 65.0485,265.2849 55.7135,257.5399 L53.9655,256.1029 L52.2505,254.5669 C51.1155,253.5289 49.9675,252.5289 48.8575,251.4419 L45.5595,248.1209 C44.4585,247.0249 43.4285,245.7899 42.3705,244.6199 C38.1985,239.8489 34.2895,234.6479 30.9655,228.9539 C27.6385,223.2859 24.7185,217.2639 22.5605,210.9639 C20.3945,204.6799 18.8105,198.2119 17.8905,191.7489 C17.0295,185.2979 16.7005,178.8689 16.9335,172.6169 C16.9715,171.0449 17.1185,169.5219 17.2185,167.9729 C17.3245,166.4249 17.4495,164.8849 17.6585,163.3899 L18.2445,158.8689 L19.0315,154.4619 L19.4405,152.2629 L19.9305,150.1199 L20.9405,145.8459 L22.1095,141.6919 C22.5055,140.3099 22.8935,138.9169 23.3575,137.5949 C24.2515,134.9169 25.1345,132.2169 26.1625,129.6609 L27.6725,125.7849 L29.2965,122.0259 C38.1005,102.0619 49.5915,85.0869 61.9105,69.6069 C64.7355,65.9909 68.2765,63.3399 72.0405,61.4339 C75.8745,59.6329 79.9495,58.6069 84.0945,58.5229 C92.3925,58.3309 100.6795,61.5689 107.2745,67.8889 C113.8355,74.1789 117.5685,82.2559 118.5815,89.9659 C119.0755,93.8249 118.9815,97.6529 118.0885,101.1559 C117.3115,104.7119 115.6985,107.9369 113.4845,110.7909 C103.6685,123.0559 95.2575,135.9089 89.7455,148.5209 C84.1515,161.1129 81.8565,173.2419 83.2415,182.5139 C83.5805,184.8509 84.1485,187.0359 84.8535,189.1569 C85.5515,191.2789 86.5755,193.2699 87.7205,195.2669 C88.8515,197.2649 90.3255,199.1889 91.9915,201.1029 C93.6255,203.0289 95.6075,204.8809 97.7855,206.6879 C99.9175,208.5209 102.4325,210.2119 105.0275,211.8819 C106.3765,212.6839 107.6925,213.5209 109.1465,214.2689 C110.5325,215.0679 112.0385,215.7819 113.5255,216.5189 C119.5215,219.4329 126.2385,221.8349 133.2555,223.8579 C141.1625,226.1439 149.5645,227.8359 158.1935,229.0589 C166.8235,230.2859 175.6955,231.0449 184.6875,231.3979 C192.8665,231.7099 200.3365,235.3519 206.1205,241.1809 C211.8735,246.9689 215.9145,255.0559 216.3865,264.1399" id="SKIN" fill="#B18058"/><path d="M237.5857,286.6458 C238.0697,291.5928 234.1537,296.0388 228.7997,296.4178 C205.5537,298.1068 181.8947,298.2458 157.7837,295.5308 C155.0177,295.2218 152.6327,293.9268 151.0487,292.0408 C149.4647,290.1748 148.6927,287.7928 149.0557,285.3348 C149.8087,280.3948 154.6147,277.0988 159.7917,277.6438 C182.4997,280.2048 205.1247,280.0938 227.4727,278.4678 C232.5847,278.1048 237.1027,281.6988 237.5857,286.6458" id="SKIN" fill="#B18058"/><path d="M211.9763,231.302 C212.0833,233.784 211.2513,236.068 209.7893,237.755 C208.3303,239.453 206.2443,240.529 203.9153,240.557 C194.8593,240.739 185.8483,240.577 176.9463,240.007 C175.8023,239.931 174.5773,239.285 173.3993,238.363 C172.2233,237.427 171.1043,236.181 170.1363,234.969 C169.1683,233.752 168.3563,232.55 167.7863,231.652 C167.2143,230.76 166.8943,230.145 166.8943,230.145 C169.5363,230.412 170.6413,228.23 172.2393,226.122 C173.8363,224.03 175.9503,221.902 180.6873,222.212 C188.1983,222.626 195.8463,222.713 203.5573,222.56 C205.7633,222.534 207.7983,223.477 209.3293,225.035 C210.8543,226.606 211.8693,228.819 211.9763,231.302" id="SKIN" fill="#B18058"/><path d="M237.7986,238.4016 C238.3356,243.3556 234.8786,247.7276 230.0746,248.1786 C214.0296,249.5106 197.9616,250.0426 182.0776,249.2986 C180.8946,249.2456 179.7776,248.9486 178.7796,248.4426 C177.7846,247.9196 176.9086,247.1996 176.1956,246.3356 C174.7686,244.6076 174.0006,242.3016 174.1856,239.8236 C174.3696,237.3446 175.4556,235.1616 177.0266,233.6336 C177.8116,232.8716 178.7206,232.2716 179.7076,231.8826 C180.6996,231.4756 181.7766,231.2666 182.8916,231.3176 C197.8526,232.0206 213.1706,231.5196 228.5426,230.2456 C233.1146,229.8136 237.2606,233.4726 237.7986,238.4016" id="SKIN" fill="#B18058"/><path d="M150.298,300.6573 C138.783,299.0853 127.154,296.8853 115.416,293.6463 C114.776,293.8513 114.038,294.0173 113.176,294.1363 C111.314,294.4853 108.948,294.6843 106.082,294.5083 C104.651,294.4343 103.102,294.3063 101.44,294.1203 C99.772,293.8933 97.988,293.5933 96.099,293.2393 C88.541,291.7443 79.183,288.9683 68.544,283.9333 C67.218,283.3433 65.865,282.6033 64.5,281.9033 C63.134,281.1763 61.754,280.4913 60.354,279.6673 C57.557,278.0343 54.702,276.3513 51.807,274.3473 C46.025,270.4353 40.059,265.7703 34.263,260.0153 C28.471,254.2973 22.83,247.5743 17.878,239.8443 C12.923,232.1303 8.698,223.4043 5.685,214.1733 C2.655,204.9483 0.853,195.2683 0.248,185.8063 C-0.374,176.3273 0.215,167.1173 1.575,158.4713 C2.94,149.8143 5.081,141.7123 7.644,134.1623 C10.259,126.6743 13.299,119.7503 16.534,113.2963 C23.094,100.5183 25.381139,92.9589449 39.8901504,73.4645654 C54.3991619,53.9701858 77.869,43.4093 88.942,43.5311594 C100.039,43.5933 110.956,48.3903 119.377,57.1123 C127.834,65.8683 132.348,76.7703 133.436,87.0333 C134.459,97.3183 132.219,106.9953 126.241,114.1353 C121.659,121.8193 117.102,129.6363 113.13,137.3063 C112.65,138.2583 112.171,139.2133 111.689,140.1703 L110.956,141.5953 L110.293,143.0123 C109.841,143.9483 109.386,144.8883 108.932,145.8273 L107.704,148.6023 L107.076,149.9803 L106.527,151.3373 C106.167,152.2373 105.757,153.1423 105.411,154.0263 C104.771,155.7843 104.047,157.5343 103.524,159.1993 C101.153,165.9463 100.096,171.7143 99.766,175.9303 C99.459,180.2163 99.719,182.8053 100.375,185.5833 C100.72,186.9743 101.233,188.4343 102.002,190.0293 C102.23,190.4193 102.354,190.8433 102.623,191.2443 C102.876,191.6493 103.114,192.0663 103.339,192.4983 C103.935,193.3233 104.436,194.2123 105.141,195.0713 C105.455,195.5123 105.771,195.9603 106.166,196.3883 C106.534,196.8353 106.898,197.2783 107.259,197.7163 C108.105,198.5683 108.815,199.4913 109.738,200.3333 C110.176,200.7733 110.607,201.2083 111.034,201.6383 C111.503,202.0633 111.965,202.4853 112.421,202.8993 C113.286,203.7713 114.332,204.5423 115.24,205.3723 C119.061,208.5993 123.048,211.4463 126.414,213.9153 C128.074,215.1773 129.647,216.2893 130.969,217.3543 C132.27,218.4433 133.442,219.3543 134.287,220.2513 C134.726,220.6403 135.076,221.0033 135.372,221.3513 C143.282,223.5363 151.691,225.1513 160.322,226.3303 L150.298,300.6573 Z" id="Fill-28" fill="#FA3239"/><path d="M115.8015,293.7551 L136.0265,219.9771 C143.7935,222.0951 152.0395,223.6891 160.5225,224.8421 L150.2975,300.6551 C138.9095,299.1071 127.4065,296.9211 115.8015,293.7551" id="Fill-31" fill="#CC2935"/><path d="M117.7595,0.8684 C76.7595,5.8684 72.8625,40.6324 90.1225,44.1154 C103.7595,46.8684 112.5035,62.8764 124.4635,69.0254 C127.1315,70.3974 130.2735,68.2964 130.0645,65.3034 C130.0055,64.4554 129.9465,63.6124 129.8875,62.7764 C129.2305,53.5054 130.6165,41.6474 139.9105,41.7184 C156.5735,41.8424 181.5245,41.8234 197.5555,41.6824 C206.2515,41.6054 213.4145,49.5104 213.6255,58.2044 C213.6605,59.6314 213.6935,61.0754 213.7225,62.5334 C213.7805,65.4724 216.9675,67.2784 219.5185,65.8174 C230.3275,59.6264 237.7045,51.6394 239.9905,42.7564 C240.4865,40.8314 240.7595,38.8674 240.7595,36.8684 C240.7595,13.6724 159.4275,-4.2126 117.7595,0.8684" id="Fill-13" fill="#CC2935"/><path d="M237.1355,264.0598 C236.9665,268.6128 237.7365,272.9798 239.3755,276.9798 C240.1965,278.9738 241.2265,280.8978 242.4685,282.6688 C243.7135,284.4318 245.1635,286.0758 246.7965,287.5758 C253.3095,293.5368 263.0205,297.0378 274.0745,295.7028 C277.0645,295.3898 280.1805,294.8408 283.2405,294.3668 C286.3775,293.7508 289.4735,293.1908 292.6935,292.3608 L295.0845,291.7728 C295.8815,291.5748 296.7075,291.3158 297.5175,291.0868 L299.9545,290.3708 L301.1725,290.0068 C301.5845,289.8828 302.1045,289.6958 302.5645,289.5398 C304.4635,288.8798 306.3425,288.2218 308.2325,287.4908 C310.1495,286.7038 312.0555,285.8868 313.9465,285.0438 C321.4505,281.5498 328.4985,277.1258 334.6785,271.7278 C340.8495,266.3258 346.1165,259.9278 350.1555,252.8178 C353.1015,247.5998 355.4155,242.0198 357.0005,236.2238 C358.5705,230.4228 359.4575,224.4368 359.7435,218.3998 C360.0325,212.3568 359.6015,206.2758 358.7755,200.2548 C358.5425,198.7528 358.2935,197.2508 358.0275,195.7528 L357.8245,194.6308 L357.6245,193.7048 L357.2185,191.8648 C356.6985,189.3738 356.0495,187.0468 355.4085,184.6928 C352.7685,175.3788 349.3455,167.0128 345.6255,159.0868 C341.8865,151.1818 337.7885,143.7828 333.4785,136.7028 C324.8415,122.5628 315.3785,109.6418 305.4965,97.3398 C295.5905,85.0728 285.2435,73.4508 274.5885,62.2748 C269.6575,57.1248 262.5015,55.1158 255.0365,56.1368 C247.5755,57.1278 239.8235,61.1148 233.4665,67.6448 C227.1115,74.1728 223.3085,81.9678 222.1245,89.2248 C220.9705,96.4768 222.4035,103.2058 226.8335,107.8308 C236.4185,117.8828 245.5815,128.1958 254.1045,138.7508 C262.5915,149.3058 270.4565,160.1298 277.1085,171.0308 C280.4255,176.4738 283.4235,181.9328 285.9525,187.2878 C288.4665,192.6258 290.5705,197.9028 291.9155,202.7078 C292.2265,203.8958 292.5835,205.0958 292.7945,206.2008 L292.9875,207.0438 L293.0835,207.4598 L293.1095,207.6928 C293.1485,208.0028 293.2025,208.3088 293.2745,208.6138 C293.4705,209.8448 293.5805,211.0918 293.5585,212.3388 C293.5155,214.8238 293.0005,217.3528 291.7215,219.5068 C290.0865,222.5248 287.1955,224.6568 284.1015,226.0168 L282.9215,226.5018 C282.4725,226.6448 281.9835,226.7918 281.5305,226.9758 C281.3985,227.0218 281.3365,227.0648 281.1495,227.1188 L280.5675,227.2828 L279.4065,227.6208 C279.0135,227.7298 278.6505,227.8628 278.2335,227.9598 L276.9805,228.2578 C275.3615,228.6988 273.5285,229.0008 271.7645,229.3718 C269.8805,229.6368 268.0745,229.9958 266.0865,230.1868 C259.0415,231.0478 252.2225,234.9328 246.8005,240.9068 C245.4485,242.3918 244.1965,244.0218 243.0705,245.7728 C241.9405,247.5148 240.9285,249.3448 240.0795,251.2978 C238.3805,255.1968 237.3045,259.5068 237.1355,264.0598" id="SKIN" fill="#B18058"/><path d="M215.9256,286.678 C215.6906,289.152 216.5496,291.496 218.1566,293.288 C219.7766,295.054 222.1596,296.243 224.8736,296.45 C236.7336,297.292 248.9176,297.542 261.5876,296.824 C267.9456,296.421 274.3896,295.837 281.0896,294.709 C287.7966,293.597 294.5786,292.124 301.8056,289.8 C303.6936,289.157 305.4036,288.28 306.8416,287.265 C308.2816,286.249 309.5006,284.98 310.3506,283.741 C312.0836,281.248 312.3886,278.565 311.2126,276.368 C310.0416,274.183 307.6966,272.845 304.9806,272.201 C303.6246,271.878 302.1716,271.814 300.6996,271.861 C299.2276,271.907 297.7236,272.171 296.2266,272.687 C290.1276,274.648 284.1526,275.958 278.1906,276.945 C272.2316,277.952 266.3546,278.485 260.5176,278.855 C248.8586,279.515 237.3996,279.298 226.1156,278.493 C223.5316,278.294 221.1146,279.124 219.2676,280.609 C217.4316,282.067 216.1596,284.204 215.9256,286.678" id="SKIN" fill="#B18058"/><path d="M206.2791,269.5423 C205.6691,274.4493 209.3161,279.0183 214.5061,279.5073 C224.5421,280.5083 234.6951,281.1593 245.0171,281.232445 C246.3451,281.2393 247.6111,280.9933 248.7561,280.5423 C249.9041,280.0773 250.9351,279.3853 251.7851,278.5553 C253.4891,276.8883 254.4691,274.6143 254.3881,272.1313 C254.3061,269.6473 253.2001,267.4213 251.5291,265.8293 C250.6921,265.0303 249.7131,264.4033 248.6341,263.9583 C247.5551,263.4973 246.3781,263.2393 245.1391,263.2323 C235.5111,263.1653 225.8831,262.5533 216.2901,261.5953 C213.8231,261.3723 211.4881,262.1083 209.6761,263.5323 C207.8671,264.9603 206.5811,267.0753 206.2791,269.5423" id="SKIN" fill="#B18058"/><path d="M206.2634,253.4319 C205.6214,258.3529 209.1244,262.8459 214.0964,263.3909 C223.7324,264.4079 233.4144,265.0829 243.1174,265.222919 C245.6154,265.2279 247.8814,264.2549 249.4784,262.6029 C251.0784,260.9379 252.0074,258.6659 251.9484,256.1819 C251.8884,253.6979 250.8754,251.4689 249.3374,249.8749 C247.7924,248.2699 245.6974,247.2279 243.3854,247.2249 C234.3534,247.0959 225.1794,246.4609 215.9744,245.4899 C211.2564,244.9719 206.9044,248.4949 206.2634,253.4319" id="SKIN" fill="#B18058"/><path d="M240.99,231.1624 L240.99,231.1624 C240.922,233.6414 241.765,235.9334 243.203,237.5884 C244.628,239.2204 246.665,240.2454 248.907,240.2474 C257.559,240.1454 266,239.5264 273.721,238.1554 C274.696,237.9594 275.668,237.1934 276.54,236.1674 C277.397,235.1234 278.091,233.7654 278.665,232.4814 C279.254,231.2044 279.607,229.9074 279.84,228.9584 C280.073,228.0094 280.18,227.3934 280.18,227.3934 C278.346,227.9604 277.055,225.9254 275.517,223.9814 C274.737,223.0064 273.943,222.0844 272.803,221.4224 C271.668,220.7654 270.416,220.5084 268.496,220.7674 C262.589,221.6974 255.837,222.1844 248.737,222.2484 C246.683,222.2444 244.807,223.2344 243.411,224.8624 C242.002,226.4664 241.053,228.6734 240.99,231.1624" id="SKIN" fill="#B18058"/><path d="M215.7703,238.4358 L215.7703,238.4358 C215.2173,243.3678 218.6453,247.7818 223.4153,248.1998 C231.3763,248.8918 239.2953,249.2408 247.1143,249.2438 C254.9263,249.2328 262.6403,248.8268 270.0583,247.8448 C272.2433,247.4988 274.0963,246.2338 275.1583,244.3568 C276.2293,242.4828 276.5813,240.1228 276.0733,237.6898 C275.5663,235.2568 274.3363,233.2028 272.8553,231.8388 C271.3713,230.4818 269.5003,229.7068 267.6473,230.0068 C261.2443,230.8538 254.2813,231.2358 247.0913,231.2438 C239.8893,231.2408 232.4673,230.9208 224.9163,230.2618 C220.4303,229.8688 216.3193,233.4878 215.7703,238.4358" id="SKIN" fill="#B18058"/><path d="M313.4014,291.8292 C331.5754,284.9462 344.7524,271.1172 356.3124,256.3272 C381.1964,234.1862 376.2964,186.8552 363.2494,157.3502 C346.1484,115.9642 316.956551,77.7216228 290.025072,58.5148317 C263.093593,39.3080407 258.366609,41.7559 240.216071,41.7559 C240.216071,48.1667667 235.491206,55.605444 226.041476,64.071932 C218.252759,91.8441107 218.8254,110.7762 227.7594,120.8682 C249.2144,152.6072 263.6894,176.0722 281.0664,209.8802 C284.5644,211.4382 286.8334,215.2632 288.8014,218.3802 C287.2854,220.8012 284.8374,222.4872 282.2244,223.5432 L313.4014,291.8292 Z" id="Fill-45" fill="#FA3239"/><path d="M344.7596,270.8684 L298.7596,208.8684 C298.7596,208.8684 283.9046,221.2404 281.5996,222.1754 L313.4006,291.8274 C321.5666,288.3384 329.2916,283.8584 336.1226,278.3144 C342.9576,272.7824 344.7596,270.8684 344.7596,270.8684" id="Fill-48" fill="#CC2935"/></g></g></g><g id="Head" transform="translate(204.559406, 0.528013) scale(0.6377952755905512 0.6350710900473934)"><g id="Head/Astronaut" stroke="none" stroke-width="1" fill="none" fill-rule="evenodd"><g id="Group-31" transform="translate(-12.000000, 35.000000)"><path d="M10.5,116.1899 C10.5,116.1899 20.5,129.1899 20.5,149.1899 L115.5,149.1899 C115.5,149.1899 115.5,134.1899 125.5,120.1899 C125.5,120.1899 81.241,59.1899 10.5,116.1899" id="Fill-1" fill="#D7DBE2"/><path d="M50.5,71.3471 L50.5,110.8151 C50.5,110.8151 102.761,146.7581 132.05,110.8151 C161.339,74.8701 127.456,-21.6829 50.5,71.3471" id="Fill-3" fill="#0A1B45"/><g id="Head" transform="translate(34.000000, 36.689900)"><g id="head" transform="translate(0.000000, 0.000100)" fill="#B18058"><path d="M60.0525,94 L55.0655,94 C31.8335,94 13.0005,75.167 13.0005,51.935 L13.0005,32.203 C13.0005,14.418 27.4175,0 45.2035,0 L50.7965,0 C68.5825,0 83.0005,14.418 83.0005,32.203 L83.0005,71.052 C83.0005,83.726 72.7265,94 60.0525,94" id="SKIN"/><path d="M25,58.5 C25,65.403 19.404,71 12.5,71 C5.596,71 0,65.403 0,58.5 C0,51.597 5.596,46 12.5,46 C19.404,46 25,51.597 25,58.5" id="SKIN"/></g><path d="M10.067,53.1685 C10.9718309,53.1685 12.2239875,53.3771928 13.5088204,54.0196092 C15.6553998,55.0928989 17.0130325,57.055328 17.10411,59.9021045 L17.109,60.2105 L14.109,60.2105 C14.109,58.3751144 13.4076866,57.3231443 12.1671796,56.7028908 C11.7065142,56.4725581 11.1976823,56.3199085 10.686339,56.2346846 C10.4347302,56.1927498 10.2385731,56.1747448 10.1250097,56.169908 L10.067,56.1685 L10.067,53.1685 Z" id="ear-line" fill="#000"/><path d="M34.7507501,96.3317762 C25.4557924,93.0436693 20.8185822,84.7387742 18.9822222,73.5681961 C26.2532122,85.6702724 39.4406226,93.8133264 54.5439426,93.9968331 L55.0655,94 L58,94 C50.0632106,98.2298391 42.3134606,99.0070978 34.7507501,96.3317762 Z" id="SHADOW" fill="#000" opacity=".12"/></g><path d="M58.5,94.6899 C58.5,101.5929 52.904,107.1899 46,107.1899 C39.096,107.1899 33.5,101.5929 33.5,94.6899 C33.5,87.7869 39.096,82.1899 46,82.1899 C52.904,82.1899 58.5,87.7869 58.5,94.6899" id="Fill-11" fill="#B18058"/><path d="M43.5669,89.3589 C44.4717309,89.3589 45.7238875,89.5675928 47.0087204,90.2100092 C49.1552998,91.2832989 50.5129325,93.245728 50.60401,96.0925045 L50.6089,96.4009 L47.6089,96.4009 C47.6089,94.5655144 46.9075866,93.5135443 45.6670796,92.8932908 C45.2064142,92.6629581 44.6975823,92.5103085 44.186239,92.4250846 C43.9849519,92.3915368 43.819154,92.373304 43.7027418,92.3648764 L43.5669,92.3589 L43.5669,89.3589 Z" id="Stroke-13" fill="#000" fill-rule="nonzero"/><path d="M111.334,49.8872 L111.5,49.8882 C105.713,41.3222 95.913,35.6902 84.797,35.6902 L79.203,35.6902 C61.418,35.6902 47,50.1082 47,67.8932 C47,67.8932 46.516,78.3462 46.501,81.6902 C46.501,81.8562 52,81.6902 52,81.6902 L62,56.6902 L59.5,50.1902 L111.5,50.1902 C111.5,50.1902 111.448,50.0792 111.334,49.8872" id="Fill-10" fill="#000"/><path d="M50.5,103.8198 L50.5,75.8828 C50.5,72.9238 51.556,70.0498 53.486,67.8068 C128.328,-19.1772 160.957,75.3398 132.05,110.8148 C108.997,139.1038 71.715,122.8618 56.882,114.6628 C52.938,112.4818 50.5,108.3278 50.5,103.8198 M72,0.6898 C32.235,0.6898 0,32.9248 0,72.6898 C0,126.1898 32.235,144.6898 72,144.6898 C111.765,144.6898 144,112.4548 144,72.6898 C144,32.9248 111.765,0.6898 72,0.6898" id="Fill-22" fill="#D7DBE2"/><path d="M43.5,92.6899 C43.5,101.8019 36.113,109.1899 27,109.1899 C17.887,109.1899 10.5,101.8019 10.5,92.6899 C10.5,83.5779 17.887,76.1899 27,76.1899 C36.113,76.1899 43.5,83.5779 43.5,92.6899" id="Fill-25" fill="#FFF"/><path d="M29.5,92.6899 C29.5,97.3699 26.693,101.1629 23.23,101.1629 C19.767,101.1629 16.959,97.3699 16.959,92.6899 C16.959,88.0099 19.767,84.2169 23.23,84.2169 C26.693,84.2169 29.5,88.0099 29.5,92.6899" id="Fill-27" fill="#D7DBE2"/><path d="M117.8433,161.1899 L20.1563,161.1899 C18.1373,161.1899 16.5003,159.5529 16.5003,157.5339 L16.5003,140.8459 C16.5003,138.8269 18.1373,137.1899 20.1563,137.1899 L117.8433,137.1899 C119.8633,137.1899 121.5003,138.8269 121.5003,140.8459 L121.5003,157.5339 C121.5003,159.5529 119.8633,161.1899 117.8433,161.1899" id="Fill-29" fill="#000"/></g></g></g><g id="Expression" transform="translate(235.697043, 61.191581) scale(0.6229508196721312 0.6229508196721312)" fill="#000"><defs><filter id="expressionwink-filter-1"><feColorMatrix in="SourceGraphic" values="0 0 0 0 0.000000 0 0 0 0 0.000000 0 0 0 0 0.000000 0 0 0 1.000000 0"/></filter></defs><g id="Expression/Wink" stroke="none" stroke-width="1" fill="none" fill-rule="evenodd"><g filter="url(#expressionwink-filter-1)" id="Group-17"><g transform="translate(9.000000, 3.000000)"><path d="M37.6862,19.0627 C37.6862,17.4057 36.3432,16.0627 34.6862,16.0627 C33.0292,16.0627 31.6862,17.4057 31.6862,19.0627 C31.6862,20.7197 33.0292,22.0627 34.6862,22.0627 C36.3432,22.0627 37.6862,20.7197 37.6862,19.0627" id="Fill-1" fill="#000"/><path d="M13.0473,38.6487 C13.0473,42.3229625 16.7893817,45.7208933 20.8069435,45.8527329 L21.0483,45.8567 L21.0483,48.8567 C15.4506295,48.8567 10.2215019,44.2907163 10.0515594,38.9179911 L10.0473,38.6487 L13.0473,38.6487 Z" id="Stroke-5" fill="#000" fill-rule="nonzero"/><path d="M2.57564697,9.21147847 C6.2616177,8.06796663 10.3535814,7.81561498 14.5680667,8.99954871 L15.0368326,9.13703524 L14.1597674,12.0059648 C10.4145271,10.8610011 6.75307649,11.056551 3.46455381,12.0767611 C2.87639473,12.2592278 2.35407493,12.4536573 1.90571976,12.6462124 L1.67798076,12.7466018 L1.40843093,12.875962 L0.000169065366,10.227038 C0.505632486,9.95831572 1.38329457,9.5813862 2.57564697,9.21147847 Z" id="Stroke-7" fill="#000" fill-rule="nonzero"/><path d="M27.4327673,1.61074391 C31.7294847,0.539609121 35.85137,0.927023851 39.5454285,2.22070874 C40.6627133,2.61198958 41.5287224,3.00892816 42.1054952,3.32415386 L42.3911858,3.48746626 L40.8460142,6.05893374 L40.6830708,5.96779273 C40.5848397,5.91521377 40.4526078,5.84736079 40.2880352,5.76752086 C39.7889686,5.52540617 39.2078998,5.28115198 38.5538553,5.05210108 C35.5067759,3.98499275 32.1271224,3.6348104 28.6169983,4.41363387 L28.1584327,4.52165609 L27.4327673,1.61074391 Z" id="Stroke-9" fill="#000" fill-rule="nonzero"/><path d="M2.29348496,21.505614 C4.78316311,15.2814186 15.5765131,15.2055138 17.1047395,21.5313094 L17.157071,21.7685258 L14.215329,22.3568742 C13.5401751,18.9811049 6.8011145,18.9218809 5.16179365,22.4285178 L5.07891504,22.619786 L2.29348496,21.505614 Z" id="Stroke-15" fill="#000" fill-rule="nonzero"/></g></g><polygon id="Stroke-5" fill="#000" fill-rule="nonzero" points="33.1977829 19.396766 36.1476171 18.850434 40.4350211 41.9996 30.5607 41.9996 30.5607 38.9996 36.828 38.999"/></g></g><g id="Accessories" transform="translate(226.007043, 75.665067) scale(0.6447368421052632 0.625)" fill="#000"><g id="Accessories/None" stroke="none" stroke-width="1" fill="none" fill-rule="evenodd" fill-opacity="0"/></g><g id="Glasses" transform="translate(221.137375, 66.596623) scale(0.631578947368421 0.65625)" fill="#000"><g id="Glasses/None" stroke="none" stroke-width="1" fill="none" fill-rule="evenodd" fill-opacity="0"/></g></g><g id="Phone-Message" transform="translate(213.000000, 234.000000)"><rect id="Phone" fill="#902EE9" x="0" y="21" width="388" height="688" rx="35"/><rect id="Phone" fill="#BE6FFB" x="0" y="0" width="388" height="688" rx="35"/><rect id="Screen" fill="#FFF" x="15" y="15" width="356" height="579" rx="18"/><circle id="Button" fill="#902EE9" cx="194.5" cy="640.5" r="24.5"/><g id="Group-8" transform="translate(38.000000, 38.000000)"><rect id="Rectangle" fill="#E6D3FF" x="0" y="0" width="221.47" height="131.852" rx="11"/><rect id="Rectangle" fill="#BE6FFB" x="22.618" y="26.37" width="175.291" height="10.36" rx="4"/><rect id="Rectangle-Copy-24" fill="#BE6FFB" x="22.618" y="48.032" width="175.291" height="10.36" rx="4"/><rect id="Rectangle-Copy-25" fill="#BE6FFB" x="22.618" y="69.693" width="175.291" height="10.36" rx="4"/><rect id="Rectangle-Copy-31" fill="#BE6FFB" x="22.618" y="91.354" width="100.839" height="10.36" rx="4"/><rect id="Rectangle" fill="#E6D3FF" x="0" y="327.746" width="221.47" height="131.852" rx="11"/><rect id="Rectangle" fill="#BE6FFB" x="22.618" y="354.116" width="175.291" height="10.36" rx="4"/><rect id="Rectangle-Copy-24" fill="#BE6FFB" x="22.618" y="375.778" width="175.291" height="10.36" rx="4"/><rect id="Rectangle-Copy-25" fill="#BE6FFB" x="22.618" y="397.439" width="175.291" height="10.36" rx="4"/><rect id="Rectangle-Copy-31" fill="#BE6FFB" x="22.618" y="419.101" width="100.839" height="10.36" rx="4"/><g id="Group-9" transform="translate(89.530303, 163.873016)"><rect id="Rectangle" fill="#F4ECFF" x="0" y="0" width="221.47" height="131.852" rx="11"/><rect id="Rectangle" fill="#CCA4FF" x="22.618" y="26.37" width="175.291" height="10.36" rx="4"/><rect id="Rectangle-Copy-24" fill="#CCA4FF" x="22.618" y="48.032" width="175.291" height="10.36" rx="4"/><rect id="Rectangle-Copy-25" fill="#CCA4FF" x="22.618" y="69.693" width="175.291" height="10.36" rx="4"/><rect id="Rectangle-Copy-31" fill="#CCA4FF" x="22.618" y="91.354" width="100.839" height="10.36" rx="4"/></g><g id="Group-10" transform="translate(0.000000, 498.211640)"><rect id="Rectangle" fill="#F4ECFF" x="0" y="0" width="243.145" height="35.788" rx="8"/><rect id="Rectangle-Copy-32" fill="#BE6FFB" x="250.685" y="0" width="60.315" height="35.788" rx="8"/></g></g></g><g transform="translate(711.000000, 848.500000) scale(-1, 1) translate(-711.000000, -848.500000) translate(259.000000, 419.000000) scale(1 1)" id="Master/Character/Standing"><g id="Master/Character/Standing" stroke="none" stroke-width="1" fill="none" fill-rule="evenodd"><g id="Legs" transform="translate(50.000000, 263.000000) scale(1 1)"><g id="Legs/Loose Pants Stand" stroke="none" stroke-width="1" fill="none" fill-rule="evenodd"><g id="Group-15" transform="translate(206.000000, -1.000000)"><path d="M101.4432,587.461142 L35.4012,586.5837 C31.8252,586.5437 28.9872,583.3517 29.0672,579.4547 L29.1122,577.2867 L29.1812,575.2537 L29.3222,571.2067 L29.6062,563.1127 C29.8022,557.7317 29.9642,552.2827 30.1962,546.9707 L31.5182,514.9377 L34.3942,451.0887 C40.4162,322.1407 46.9642,193.3927 53.5832,64.6017 L132.4782,68.6707 C125.8642,197.3687 119.3172,326.1057 113.3102,454.7417 L110.4452,518.3317 L109.1362,550.0577 C108.9032,555.3627 108.7512,560.5757 108.5592,565.8357 L108.2832,573.7097 L108.1452,577.6467 L108.0782,579.6067 L108.0412,581.4767 C107.9752,584.8207 105.0202,587.5007 101.4432,587.461142" id="Fill-1" fill="#b18058"/><path d="M116.354,558.243 L116.702,549.647 C95.8785954,548.822698 80.261042,548.204471 69.8493397,547.79232 C59.7877087,547.394027 44.6952621,546.796587 24.572,546 C24.214,554.17 23.951,562.54 23.654,570.838 L23.436,577.071 L23.331,580.211 L23.262,583.577 L23,597.038 L26.255,597.038 L54.17,597.038 L55.686,589.778 C61.361,592.274 67.037,594.694 72.714,597.038 L115.204,597.038 L151,597.038 L151.216531,587.1 C151.233,586.229 150.841,585.42 150.122,584.652 C149.763,584.262 149.32,583.903 148.811,583.514 C148.306,583.1 147.731,582.697 147.094,582.299 C144.548,580.712 141.03,579.239 137.21,577.718 C129.572,574.678 120.731,571.45 116.056,566.77 L116.354,558.243 Z" id="Fill-3" fill="#0A1B45"/><path d="M37,1 C26.152,149.96 17.1551,300.5983 7.0461,449.8223 L3.4051,504.9173 L1.6581,532.5763 C1.0891,541.8193 0.5001,551.0013 0.0001,560.4653 L38.8361,561.8263 C42.6841,556.5373 46.5211,551.2673 50.4111,546.0643 L60.0031,562.5683 L139.5941,565.3573 C139.6911,556.4493 139.8921,547.3103 140.0721,538.2203 L140.6521,510.8943 L141.9761,456.0693 C145.8111,307.1603 150.3281,157.9603 154.923316,8.8943 C76.3477719,2.8701 37.04,0.238666667 37,1 Z" id="Fill-5" fill="#FA3239"/><path d="M354.3138,582.7585 L288.9948,592.5395 C287.2258,592.8035 285.5348,592.4765 284.2378,591.7615 C283.5888,591.4025 283.0398,590.9465 282.6258,590.4115 C282.1758,589.7615 281.8578,589.0175 281.7108,588.2045 L280.3968,580.9295 L278.9438,573.3725 L278.2158,569.5915 L277.4498,565.7575 L275.9168,558.0875 C273.8408,547.8315 271.7178,537.5255 269.5498,527.1955 C265.2228,506.5405 260.8018,485.8345 256.3228,465.1205 C242.2558,400.0285 227.8298,334.8795 213.3238,269.7555 C198.8038,204.6275 184.1718,139.5055 169.4628,74.4025 L246.5198,56.9905 C261.2448,122.1595 275.8908,187.3455 290.4318,252.5685 C304.9598,317.7985 319.4088,383.0425 333.5438,448.4505 C338.0448,469.2675 342.4958,490.1095 346.8758,511.0175 C349.0688,521.4685 351.2288,531.9485 353.3588,542.4785 C354.4058,547.7795 355.4898,552.9895 356.5048,558.3645 L358.0458,566.3835 L359.5368,574.6315 C359.7028,575.5595 359.6828,576.4745 359.5038,577.3315 C359.3218,578.2765 358.9798,579.1545 358.5048,579.9135 C357.5578,581.4385 356.0828,582.4945 354.3138,582.7585" id="Fill-7" fill="#8c6345"/><path d="M360.482295,544.622757 L359.361,539 L269,557.341 C270.574,565.186 272.167,573.069 273.614,580.723 C274.134,583.347667 275.075972,588.646705 276.439916,596.620114 L308.509,596.620114 L308.509,591.138 L326.304,596.620114 L368.793,596.620114 L404.59,596.620114 L401.936,573.877 C401.129,569.376 394.154,567.454 385.987,565.842 C377.814,564.328 368.439,559.962 362.804,556.265 L360.482295,544.622757 Z" id="Fill-9" fill="#0A1B45"/><path d="M143.4353,13.4842 C140.1663,14.2282 137.7273,15.7572 137.9883,16.9082 C153.5443,92.5372 168.9983,168.2572 184.3153,243.9422 C199.6153,319.6232 214.8323,395.3492 229.5623,470.8982 L239.8503,524.5602 L244.8143,551.2342 C246.4493,560.1012 248.0233,568.9042 249.5223,577.5442 L287.6663,570.1172 C290.2693,564.2962 292.7913,558.3692 295.3513,552.4642 L308.4553,566.0682 L386.6273,550.8472 C382.6033,532.2852 378.4543,514.2962 374.2783,496.2462 L361.5953,442.3952 C343.6773,366.8912 325.3783,291.7082 306.9863,216.5282 C288.5813,141.3552 267.416962,75.1839333 244.8143,1.05164014 C244.638967,0.280973477 210.845967,4.4251601 143.4353,13.4842 Z" id="Fill-12" fill="#CC2935"/></g><path d="M243,0 C243,55.228475 289.562386,100 347,100 C404.437614,100 451,55.228475 451,0" id="Waist" fill="#FA3239"/></g></g><g id="Body" transform="translate(17.000000, -31.000000) scale(1 1)"><g id="Body/Short Tee Holding Hands" stroke="none" stroke-width="1" fill="none" fill-rule="evenodd"><g id="Group" transform="translate(419.000000, 168.000000)" fill="#b18058"><path d="M30.9478693,202.601638 C32.7148693,253.281638 101.709869,232.854638 127.328869,211.288638 C148.120869,194.447638 156.786869,166.131638 152.778869,140.158638 C144.682869,89.6686378 110.433869,47.7776378 77.8528693,10.9476378 C58.0948693,-11.7903622 20.6798693,3.54363784 20.7888693,32.6436378 C20.5948693,40.9376378 23.3278693,49.1086378 29.1048693,55.4426378 C44.6068693,72.4816378 58.5008693,89.5976378 70.3028693,108.542638 C74.5068693,115.435638 78.5078693,122.636638 81.5958693,129.875638 C108.412869,190.987638 36.9988693,143.947638 30.9478693,202.601638" id="SKIN"/><path d="M9.73796928,225.219738 C9.26196928,230.436738 13.4669693,234.632738 18.6859693,234.991738 C43.9849693,236.657738 70.5759693,236.269738 95.5609693,228.360738 C110.320969,223.526738 104.617969,206.614738 90.0119693,211.237738 C78.2689693,214.978738 66.3579693,216.669738 54.3299693,217.396738 C42.6709693,218.057738 31.2119693,217.838738 19.9279693,217.034738 C14.9049693,216.659738 10.2479693,220.165738 9.73796928,225.219738" id="SKIN"/><path d="M0.0914692777,208.084038 C-0.518530722,212.991038 3.12846928,217.560038 8.31846928,218.049038 C19.0744693,217.891038 36.4254693,223.190038 45.5984693,217.099038 C51.4194693,211.749038 46.6124693,201.524038 38.9514693,201.774038 C28.3254693,203.714038 1.84446928,193.663038 0.0914692777,208.084038" id="SKIN"/><path d="M0.0758692777,191.973638 C-0.566130722,196.894638 2.93686928,201.387638 7.90886928,201.932638 C18.1858693,201.300638 45.2028693,210.616638 45.7608693,194.725638 C45.6388693,189.947638 41.9688693,185.836638 37.1978693,185.766638 C28.1658693,185.637638 18.9918693,185.002638 9.78686928,184.031638 C5.06886928,183.512638 0.716869278,187.036638 0.0758692777,191.973638" id="SKIN"/><path d="M34.8023693,169.704138 C35.3493693,185.328138 58.3903693,176.787138 67.5333693,176.698138 C71.4513693,175.518138 73.3263693,169.348138 73.9923693,165.935138 C69.6343693,166.164138 68.1913693,157.483138 62.3083693,159.310138 C54.1383693,162.258138 35.5263693,155.850138 34.8023693,169.704138" id="SKIN"/><path d="M9.58266928,176.977638 C9.23766928,192.208638 31.2646693,186.167638 40.9256693,187.786638 C49.7006693,186.636638 62.9856693,189.857638 68.9716693,182.900638 C71.2766693,179.253638 69.8046693,173.041638 66.6666693,170.380638 C60.5816693,166.119638 49.2236693,171.013638 40.9036693,169.783638 C31.2046693,171.711638 12.2126693,162.539638 9.58266928,176.977638" id="SKIN"/></g><path d="M544,219.320392 C523.947635,193.877784 485.94688,148.551507 450.509362,149 C440.23082,149.130084 433.457491,153.230397 423.331118,162.636129 C407.290907,179.795193 419.634919,209.070043 435.4232,226.090832 C448.764448,240.313066 461.16422,255.06435 471.72119,270 L544,219.320392 Z" id="Fill-32" fill="#051026"/><g id="body" transform="translate(272.000000, 149.000000)"><rect id="SKIN" fill="#b18058" x="18" y="101" width="180" height="48"/><path d="M40,0 L176,0 C198.09139,-4.05812251e-15 216,17.90861 216,40 L216,117 L216,117 L0,117 L0,40 C-2.705415e-15,17.90861 17.90861,4.05812251e-15 40,0 Z" fill="#0A1B45"/></g><path d="M334,149 C334,167.225397 354.594902,182 380,182 C405.405098,182 426,167.225397 426,149" id="SKIN" fill="#b18058"/><path d="M426,370.837124 C425.468886,417.488861 368.982069,402.988943 338.431009,397.482239 C306.326538,390.439107 272.531886,375.759905 250.47067,349.210942 C222.692985,317.392651 221.159542,269.6562 237.554206,232.371269 C245.169509,213.851998 256.261015,196.075901 268.254019,180.487262 C280.144194,164.881596 301.886941,162.252441 315.81971,175.577502 C328.204061,187.463288 330.605057,207.392788 320.476945,220.796975 C315.211724,227.654814 310.440679,234.65588 306.374458,241.690999 C275.961168,292.60948 298.834031,320.943263 352.709202,332.948238 C382.006353,341.319469 420.713814,328.164677 426,370.837124" id="SKIN" fill="#b18058"/><path d="M446.959406,392.92586 C447.445286,397.776617 443.514076,402.136121 438.139282,402.507747 C417.177182,402.600899 378.69028,407.802691 360.086303,398.218843 C354.577992,392.140443 360.836204,382.944891 368.86326,384.098993 C391.659456,386.610169 414.37233,386.501328 436.807128,384.905981 C441.938982,384.551024 446.47453,388.075103 446.959406,392.92586" id="SKIN" fill="#b18058"/><path d="M456.960247,376.039366 C458.22952,391.534727 428.755084,385.997086 418.499483,387.997458 C413.267751,388.114832 409.013077,384.152209 409,379.14225 C408.988977,374.179441 412.99562,370.057309 417.951206,369.946958 C427.630412,369.667066 437.297569,368.992919 446.935605,368.041889 C451.877132,367.5744 456.355736,371.069534 456.960247,376.039366" id="SKIN" fill="#b18058"/><path d="M456.961861,360.023087 C458.173111,375.499779 430.20343,369.911558 420.123671,371.99313 C415.125766,372.189279 411.037297,368.159234 411,363.207493 C410.894386,348.622475 437.103157,355.072347 447.250874,352.050064 C451.994936,351.532673 456.342244,355.083356 456.961861,360.023087" id="SKIN" fill="#b18058"/><path d="M422,338.204107 C421.854266,353.790718 396.972605,345.82474 387.033716,346.919836 C382.61976,346.259175 379.017324,340.396302 377,337.045947 C383.06395,336.474374 382.383191,327.959846 390.767912,329.105994 C400.476221,331.559452 420.43585,323.569449 422,338.204107" id="SKIN" fill="#b18058"/><path d="M447.944739,345.252133 C448.484459,350.242809 445.009948,354.647177 440.181615,355.101516 C427.241402,355.015887 395.201934,360.480043 386.02971,353.247894 C381.314949,347.919737 385.33119,337.698622 392.760631,338.115687 C407.796406,338.823892 423.191994,338.319183 438.641856,337.034743 C443.237014,336.600552 447.404014,340.286641 447.944739,345.252133" id="SKIN" fill="#b18058"/><path d="M225,233.336499 C233.934866,209.332808 248.55756,186.78876 264.390131,167.285886 C273.208818,156.390013 288.924411,149 307.603196,149 C326.281981,149 331.718622,161.074659 338.068476,177.268608 C353.796886,215.190364 317.943243,231.770954 307.603196,264 L225,233.336499 Z" id="Fill-17" fill="#0A1B45"/></g></g><g id="Head" transform="translate(338.000000, -61.000000) scale(1 1)"><g id="Head/Bald" stroke="none" stroke-width="1" fill="none" fill-rule="evenodd"><g id="Head" transform="translate(22.000000, 72.000000)"><g id="head" transform="translate(0.000000, 0.000100)" fill="#b18058"><path d="M13,62 L58,62 L58,113.633 C58,127.538 47.926,138.81 35.5,138.81 C23.074,138.81 13,127.538 13,113.633 L13,62 Z" id="SKIN"/><path d="M60.0525,94 L55.0655,94 C31.8335,94 13.0005,75.167 13.0005,51.935 L13.0005,32.203 C13.0005,14.418 27.4175,0 45.2035,0 L50.7965,0 C68.5825,0 83.0005,14.418 83.0005,32.203 L83.0005,71.052 C83.0005,83.726 72.7265,94 60.0525,94" id="SKIN"/><path d="M25,58.5 C25,65.403 19.404,71 12.5,71 C5.596,71 0,65.403 0,58.5 C0,51.597 5.596,46 12.5,46 C19.404,46 25,51.597 25,58.5" id="SKIN"/></g><path d="M10.067,53.1685 C10.9718309,53.1685 12.2239875,53.3771928 13.5088204,54.0196092 C15.6553998,55.0928989 17.0130325,57.055328 17.10411,59.9021045 L17.109,60.2105 L14.109,60.2105 C14.109,58.3751144 13.4076866,57.3231443 12.1671796,56.7028908 C11.7065142,56.4725581 11.1976823,56.3199085 10.686339,56.2346846 C10.4347302,56.1927498 10.2385731,56.1747448 10.1250097,56.169908 L10.067,56.1685 L10.067,53.1685 Z" id="ear-line" fill="#000"/><path d="M34.7507501,96.3317762 C25.4557924,93.0436693 20.8185822,84.7387742 18.9822222,73.5681961 C26.2532122,85.6702724 39.4406226,93.8133264 54.5439426,93.9968331 L55.0655,94 L58,94 C50.0632106,98.2298391 42.3134606,99.0070978 34.7507501,96.3317762 Z" id="SHADOW" fill="#000" opacity=".12"/></g></g></g><g id="Expression" transform="translate(385.000000, 34.000000) scale(1 1)" fill="#000"><g id="Expression/Confident" stroke="none" stroke-width="1" fill="none" fill-rule="evenodd"><polygon id="Stroke-5" fill="#000" fill-rule="nonzero" points="33.1977829 19.396766 36.1476171 18.850434 40.4350211 41.9996 30.5607 41.9996 30.5607 38.9996 36.828 38.999"/><g id="Group-19" transform="translate(7.500000, 6.500000)" fill="#000" fill-rule="nonzero"><path d="M15.1954,35.0725 C15.1954,38.7467625 18.9374817,42.1446933 22.9550435,42.2765329 L23.1964,42.2805 L23.1964,45.2805 C17.5987295,45.2805 12.3696019,40.7145163 12.1996594,35.3417911 L12.1954,35.0725 L15.1954,35.0725 Z" id="Stroke-1"/><polygon id="Stroke-3" points="25.4714706 12.8831993 28.4213294 12.3370007 32.7076381 35.4861 22.8344 35.4861 22.8344 32.4861 29.101 32.486"/><polygon id="Stroke-5" points="25.4714706 12.8831993 28.4213294 12.3370007 32.7076381 35.4861 22.8344 35.4861 22.8344 32.4861 29.101 32.486"/><polygon id="Stroke-7" points="25.4714706 12.8831993 28.4213294 12.3370007 32.7076381 35.4861 22.8344 35.4861 22.8344 32.4861 29.101 32.486"/><path d="M16.8347,0.0006 L16.8347,3.0006 C12.8614229,3.0006 9.23835727,4.06604738 6.03595274,5.84488405 C4.91508362,6.46749218 3.9293314,7.13343565 3.08971515,7.7961842 L2.78614068,8.04060103 C2.50740693,8.26977369 2.30354376,8.45165644 2.17768642,8.57223303 L2.12127275,8.62734759 L0.000127251271,6.50585241 C0.850658012,5.65546184 2.39872067,4.43350326 4.57919726,3.22231595 C8.05718891,1.29039915 11.9861553,0.0986291869 16.2942223,0.0063786563 L16.8347,0.0006 Z" id="Stroke-9"/><path d="M28.8944,0.3444 C32.8871281,0.3444 36.5186416,1.41233258 39.717187,3.18913498 C41.5297756,4.19603386 42.8489265,5.21247949 43.6282704,5.95899887 L43.7680602,6.09573983 L41.6467398,8.21706017 C41.5206868,8.09100715 41.2403525,7.83943052 40.815131,7.5037443 C40.087555,6.92936785 39.2326886,6.35179507 38.260363,5.81166502 C35.6146324,4.34195302 32.6384875,3.43381034 29.3845651,3.35065325 L28.8944,3.3444 L28.8944,0.3444 Z" id="Stroke-11"/><path d="M7.22711504,13.179414 C8.68074249,16.8134826 15.4334605,16.8772382 16.3216227,13.6199964 L16.363529,13.4423258 L19.305271,14.0306742 C18.0084908,20.5145751 7.22968836,20.5936471 4.53765904,14.5213 L4.44168496,14.293586 L7.22711504,13.179414 Z" id="Stroke-13"/><path d="M32.227115,13.179414 C33.6807425,16.8134826 40.4334605,16.8772382 41.3216227,13.6199964 L41.363529,13.4423258 L44.305271,14.0306742 C43.0084908,20.5145751 32.2296884,20.5936471 29.537659,14.5213 L29.441685,14.293586 L32.227115,13.179414 Z" id="Stroke-15"/></g></g></g><g id="Accessories" transform="translate(372.000000, 56.000000) scale(1 1)" fill="#000"><g id="Accessories/N65" stroke="none" stroke-width="1" fill="none" fill-rule="evenodd"><path d="M55.1977784,0.766509801 C61.8672688,0.766509801 65.5931791,6.91877559 68.3190852,9.67622448 C68.5366389,9.86933778 68.7500465,10.0676638 68.9593821,10.2698541 C69.0753941,10.3682311 69.1897807,10.4565674 69.3026336,10.535583 L69.2915753,10.5973925 C73.2112403,14.5427001 75.6165684,19.8776287 75.6165684,25.7499259 C75.6165684,37.9001904 65.3191176,47.7499259 52.6165684,47.7499259 C39.9140192,47.7499259 29.6165684,37.9001904 29.6165684,25.7499259 C29.6165684,17.6330728 34.2120776,10.5428914 41.0501479,6.73002773 L41.0440543,6.69219525 L41.0440543,6.69219525 C46.4836096,4.14573474 47.6906867,0.766509801 55.1977784,0.766509801 Z" id="Clothe" fill="#D8D8D8"/><path d="M32.6165684,20.7333421 C32.6165684,32.8836066 42.9140192,42.7333421 55.6165684,42.7333421 C63.0741024,42.7333421 69.702661,39.3383929 73.9051908,34.0761112 C70.4693708,42.0893844 62.2320375,47.7333421 52.6165684,47.7333421 C39.9140192,47.7333421 29.6165684,37.8836066 29.6165684,25.7333421 C29.6165684,20.7166936 31.3720069,16.0922234 34.3273758,12.3912869 C33.2246542,14.9640107 32.6165684,17.7807509 32.6165684,20.7333421 Z" id="SHADOW" fill="#000" opacity=".12"/><line x1="0" y1="0" x2="34.913" y2="14.229" id="Path-4" stroke="#22252B" stroke-width="2"/><line x1="33.673" y1="28.173" x2="0" y2="28.173" id="Path-5" stroke="#22252B" stroke-width="2"/></g></g><g id="Glasses" transform="translate(364.000000, 42.000000) scale(1 1)" fill="#000"><g id="Glasses/None" stroke="none" stroke-width="1" fill="none" fill-rule="evenodd" fill-opacity="0"/></g></g></g></g></svg>