<svg viewBox="15.865384615384642 105.70000000000005 1123.798076923077 1215.55" xmlns="http://www.w3.org/2000/svg" overflow="visible" xmlns:xlink="http://www.w3.org/1999/xlink" width="1123.798076923077px" height="1215.55px"><g id="Master/Comps/Mail" stroke="none" stroke-width="1" fill="none" fill-rule="evenodd"><g id="Blob" opacity=".288" transform="translate(2.000000, 147.891534) scale(1.5335892514395393 1.532934131736527)"><g id="Blob/8" stroke="none" stroke-width="1" fill="none" fill-rule="evenodd"><path d="M456.662737,133.231267 C487.912021,183.836551 475.779946,228.696256 458.317111,262.948741 C440.670456,297.090734 417.693041,320.846489 386.443757,366.700622 C355.194474,412.554755 315.67332,480.507265 280.012373,478.297427 C244.351425,476.087589 212.183044,403.715404 175.970639,357.861271 C139.942053,312.007138 99.6856221,292.671058 72.6641825,257.203163 C45.4589235,221.624776 31.6724746,169.804081 67.7010609,119.198797 C103.913466,68.4830217 190.124726,19.0931486 270.453768,22.5183971 C350.78281,26.0541375 425.413453,82.6259831 456.662737,133.231267 Z" id="blobs-burgers" fill="#FFA721"/></g></g><g id="body" transform="translate(127.639202, 114.000000)"><path d="M208.763746,19.357908 L208.763746,19.357908 C211.351413,18.3945578 214.00998,18.0066924 216.618821,18.1765168 C217.923051,18.260229 219.214449,18.4837348 220.476529,18.8398049 C221.728813,19.1998865 222.942678,19.697049 224.11134,20.3194519 C228.793693,22.7918529 232.605063,27.3929731 234.169671,33.2890571 C237.601567,46.1981036 239.961306,59.5395698 240.667122,73.3361032 C241.019309,80.5029335 240.984073,87.7766357 240.258608,95.1707298 C239.550653,102.555285 238.257977,110.048442 236.022787,117.545122 C235.505704,119.417297 234.827806,121.289113 234.200064,123.156061 L233.127673,125.950134 L232.5784,127.344015 L231.971778,128.732218 C230.398074,132.436563 228.470968,136.086795 226.303598,139.637936 C221.954453,146.734503 216.300567,153.399347 209.573948,158.86202 C206.243993,161.635429 202.598499,164.004941 198.866559,166.123078 L196.031924,167.638457 C195.075748,168.109703 194.108265,168.548299 193.143405,168.995705 C192.659758,169.215603 192.177537,169.444501 191.691582,169.653695 L190.224765,170.240258 C189.245262,170.622333 188.265589,171.026574 187.280955,171.376252 C179.391406,174.137514 171.351021,175.717873 163.588976,176.24308 C155.809821,176.803593 148.251128,176.501391 140.960553,175.656726 C133.666224,174.807735 126.629553,173.416091 119.802439,171.6856 C116.631855,170.917172 113.853298,169.482104 111.481352,167.751393 C109.153517,165.946661 107.246923,163.822443 105.908925,161.445193 C104.574289,159.058185 103.763281,156.486767 103.534145,153.86624 C103.30328,151.250292 103.670133,148.545824 104.622083,145.955943 C105.578812,143.353619 107.031769,141.110584 108.813841,139.190575 C110.59538,137.274955 112.694472,135.721708 114.954197,134.593818 C117.217884,133.456074 119.647904,132.663449 122.117051,132.392915 C124.589559,132.035134 127.106544,132.229347 129.586778,132.822983 C140.328129,135.562052 151.024882,136.96194 160.603981,136.263945 C161.212817,136.245621 161.792332,136.166134 162.377311,136.101773 L164.132189,135.916078 L165.83157,135.639543 C166.400178,135.553174 166.969546,135.471605 167.507834,135.337148 L169.14997,134.989729 C169.694511,134.871502 170.205958,134.703166 170.736874,134.568647 C171.81369,134.320605 172.79057,133.929721 173.813267,133.618911 C177.770225,132.16993 181.277117,130.254103 184.320393,127.754881 C187.373418,125.27072 190.018037,122.214715 192.257671,118.569718 C193.365492,116.73928 194.416172,114.811496 195.296153,112.704722 L195.643286,111.928956 L195.954599,111.120734 L196.582232,109.501036 C196.942934,108.373183 197.365394,107.286595 197.675427,106.113878 C198.3837,103.829503 198.908135,101.403274 199.391619,98.9509358 C199.595219,97.7028251 199.841118,96.4738452 199.989459,95.1945113 C200.070879,94.5580013 200.172061,93.9300462 200.242165,93.2879484 L200.437598,91.3529413 C200.954326,86.1856287 200.985564,80.8043129 200.720178,75.3709621 C200.193794,64.8922482 198.338531,54.1664449 195.524254,43.6072945 C194.250269,38.8023235 195.029629,33.8443357 197.3442,29.4599201 C197.92624,28.365892 198.617105,27.3081329 199.395011,26.3079286 C200.163625,25.3110409 201.030272,24.3675068 201.986715,23.498926 C203.900988,21.7627748 206.175385,20.320753 208.763746,19.357908" id="SKIN-DARKER" fill="#8C6345"/><path d="M217.822265,2.87715938 C219.202679,2.27968057 220.722241,2.33605275 222.049399,2.93642733 C223.366067,3.54030822 224.498332,4.68446444 225.124019,6.20590193 C230.480124,19.5063686 234.685482,33.339648 237.480942,47.6656054 C237.81607,49.3050183 237.450295,50.9238324 236.67495,52.1610229 C235.89419,53.4027611 234.656706,54.2789541 233.165939,54.5206035 C230.194818,54.9844178 227.359866,52.8368816 226.771115,49.7394881 C224.125987,36.180616 220.123918,22.9916436 215.007328,10.2891559 C214.409301,8.8377532 214.433058,7.29094445 214.94658,5.94639158 C215.450687,4.60825001 216.437756,3.47590178 217.822265,2.87715938" id="SKIN-DARKER" fill="#8C6345"/><path d="M206.129646,0.498534798 C207.493736,-0.140023908 208.991568,-0.147245461 210.318534,0.374438918 C211.651011,0.892175493 212.798732,1.94409305 213.420769,3.39599812 C215.879838,9.02003246 218.123824,14.742708 220.135645,20.5568904 C221.181994,23.5565925 219.615206,26.7506182 216.740767,27.6505328 C213.865729,28.5505421 210.816456,26.9597049 209.829074,24.1308596 C207.913933,18.5977968 205.774901,13.1426302 203.429318,7.77798834 C202.836546,6.39463371 202.831963,4.90520402 203.307671,3.59308541 C203.789869,2.27932401 204.764957,1.13718831 206.129646,0.498534798" id="SKIN-DARKER" fill="#8C6345"/><path d="M196.847046,3.52606822 C199.557564,2.22653316 202.812422,3.39920128 204.052701,6.17446137 C206.441211,11.5544445 208.623549,17.0273523 210.581179,22.5807457 C211.569892,25.4567355 210.025192,28.5384071 207.141319,29.460111 C204.286015,30.3723699 201.223434,28.9183264 200.294192,26.2124987 C198.434846,20.9387406 196.359761,15.7323625 194.085147,10.6104772 C192.914409,7.99148399 194.124025,4.83188863 196.847046,3.52606822" id="SKIN-DARKER" fill="#8C6345"/><path d="M190.584281,27.8863749 C191.999927,27.3718765 193.473618,27.4330539 194.719208,27.963937 C195.948228,28.4986745 196.933461,29.5086772 197.390016,30.841651 C199.119575,36.0320295 200.63197,41.2807885 201.902983,46.5628588 C202.243358,47.9216136 201.255557,49.8744938 200.218341,51.4379075 C199.158352,53.0086182 197.998898,54.2070149 197.998898,54.2070149 C197.68416,52.6111128 196.23933,52.3602481 194.71075,51.8053056 C193.176119,51.2470167 191.632607,50.3924722 190.91554,47.5773936 C189.800809,43.1309618 188.504134,38.6979721 187.042797,34.2984424 C186.610975,33.0402718 186.804607,31.7021043 187.447746,30.5405885 C188.075104,29.3840323 189.169139,28.4001784 190.584281,27.8863749" id="SKIN-DARKER" fill="#8C6345"/><path d="M189.98189,11.8144881 C192.716466,10.5738731 195.911372,11.7166765 197.036477,14.4000925 C200.791809,23.3581692 203.912504,32.5668235 206.367653,41.9122551 C207.073214,44.7205459 205.241291,47.5383619 202.287855,48.2029416 C199.365041,48.8632862 196.467861,47.2797251 195.811044,44.6629753 C193.495259,35.8526646 190.542049,27.1242469 186.975827,18.6202267 C185.91765,16.0959513 187.22873,13.0617366 189.98189,11.8144881" id="SKIN-DARKER" fill="#8C6345"/><path d="M241.791384,51.0300577 C242.970859,57.8881222 243.83778,64.8608808 244.242288,71.9745289 C244.546672,72.3777323 244.843894,72.8441856 245.138031,73.4654936 C245.432701,74.0824122 245.720836,74.7975366 246.003756,75.6075824 C246.53794,77.2369931 247.051487,79.2435951 247.461993,81.6146097 L247.628915,82.6154239 C248.356997,87.2117399 248.762866,93.0546334 248.409908,99.9730309 C248.007954,107.395221 246.806352,116.079362 243.768803,125.591801 C242.239482,130.339544 240.265279,135.28075 237.682164,140.263047 C235.110231,145.242344 231.883097,150.257149 227.983349,155.019322 C224.091573,159.781463 219.506974,164.275724 214.40027,168.173714 C209.299495,172.078144 203.693393,175.36827 197.936855,177.917773 C192.177552,180.476939 186.285874,182.30492 180.53154,183.531814 C174.768104,184.763225 169.175568,185.318739 163.821824,185.530159 C158.447587,185.763275 153.402245,185.454141 148.579834,185.010682 L145.5419,184.651211 C144.536737,184.529122 143.543042,184.399132 142.572772,184.244341 L138.276185,183.516553 L138.276185,183.516553 C137.189631,183.307958 136.129869,183.074825 135.074905,182.852617 C126.653066,181.044448 119.415863,178.650128 113.363594,176.252635 C109.092474,175.059501 105.336057,173.06775 102.237834,170.586759 C100.700195,169.331532 99.3082232,167.973282 98.0958292,166.520785 C96.9026647,165.042487 95.8772111,163.484121 95.0326279,161.870662 C94.6108873,161.063538 94.2335924,160.242609 93.9038025,159.411697 C93.5807772,158.569258 93.3055703,157.71494 93.0759494,156.854017 C92.6173062,155.132076 92.3474007,153.381472 92.2723332,151.625224 C92.1200225,148.110613 102.509612,121.762245 104.130365,121.616858 C113.090997,120.197634 139.993622,126.281679 146.510621,126.595359 L146.720251,126.60366 C152.860264,126.843351 158.638086,126.539548 163.493067,125.650669 C164.084828,125.520658 164.717064,125.452502 165.278877,125.303864 C165.844035,125.160846 166.413554,125.033743 166.980242,124.912008 C167.509903,124.746323 168.041939,124.595636 168.577169,124.457359 C169.103315,124.30822 169.578126,124.110016 170.086629,123.961827 C172.043337,123.276147 173.766716,122.496427 175.332129,121.61811 C178.441434,119.861196 181.065274,117.692858 183.545346,114.69428 C185.976287,111.683803 188.20715,107.94856 189.950866,103.86489 C191.74112,99.8193604 193.096714,95.5320965 194.175389,91.5845095 C196.335559,83.6722834 197.484903,77.118185 198.865229,74.6025216 C198.571344,69.376636 197.915278,64.0721984 197.00236,58.7653917 L241.791384,51.0300577 Z" id="Fill-13" fill="#CC2935"/><path d="M244.229279,71.7409197 L197.948587,74.4862036 C197.644538,69.3511035 197.004996,64.1393744 196.105447,58.9208558 L241.790228,51.0301178 C242.958927,57.8123985 243.811576,64.710542 244.229279,71.7409197" id="Fill-16" fill="#B52935"/><path d="M139.997498,207.6409 L11.6168259,227.974401 L1.44343075,163.742112 C-0.786578389,149.662388 8.79319247,136.444029 22.8408983,134.219091 L100.350787,121.94273 C114.398493,119.717792 127.594094,129.328887 129.824103,143.408611 L139.997498,207.6409 Z" id="Fill-18" fill="#D7DBE2"/><path d="M84.7956253,124.40661 C86.3688327,134.339451 83.5758096,147.696914 67.7138553,150.209201 C48.8590795,153.195504 39.3750191,143.677368 37.5090446,131.896069 L84.7956253,124.40661 Z" id="SKIN" fill="#B18058"/><path d="M109.207982,250.900026 C124.745912,248.801912 137.72428,245.516332 151.012856,238.587534 C152.239257,237.947413 153.209673,236.946238 152.87438,235.600208 L147.556202,214.248863 C133.241664,217.159972 118.633393,222.35007 103.184247,227.348628 C104.113864,235.147247 104.943042,242.35046 105.64672,248.602459 C105.84092,250.324463 107.494102,251.131502 109.207982,250.900026" id="Fill-22" fill="#CC2935"/><path d="M5.48086829,237.459624 L6.87722793,257.36325 C7.04097175,259.702622 8.77828098,261.645165 11.0883181,262.020371 C26.5728179,264.535873 48.0446286,263.68488 62.0349792,262.465333 C64.2506491,262.271847 65.9313739,260.405405 65.9170337,258.17584 C65.877386,251.855555 65.4681214,244.893951 64.7773794,237.530436 C49.8972384,239.295585 22.6577358,240.959844 5.48086829,237.459624" id="Fill-24" fill="#CC2935"/><path d="M14.553803,136.640552 C4.58382419,141.456409 -1.50280983,152.397038 0.322209581,163.919757 L5.48059752,237.459851 C22.657465,240.960072 49.8975662,239.295717 64.7776121,237.529969 C62.0523345,208.499827 55.1583773,150.352657 36.3746612,144.10264 C36.3746612,144.10264 21.7142958,132.894518 14.553803,136.640552" id="Fill-26" fill="#FA3239"/><path d="M103.184096,227.348836 C119.843318,225.593421 133.420251,222.213037 147.556051,214.249071 L129.907351,143.395733 C127.874325,130.559715 116.727285,121.443345 104.130365,121.616858 C103.518817,128.087623 98.0403146,130.955327 90.3406305,136.170521 C94.950627,162.747177 99.9703083,200.37515 103.184096,227.348836" id="Fill-28" fill="#FA3239"/><path d="M27.0816823,108.67418 C3.01566246,115.560885 3.98645079,136.787139 14.6486373,137.240475 C23.0728583,137.599316 29.8278392,146.374422 37.5709673,148.929693 C39.298309,149.499895 40.9793539,147.941519 40.5698489,146.16567 C40.4539538,145.662503 40.3385338,145.162335 40.2237789,144.666366 C38.9495602,139.166477 38.6523829,131.920824 44.2221863,131.082319 C54.2078463,129.577007 69.140819,127.200171 78.7230052,125.595786 C83.9208037,124.72518 88.9594798,128.788742 89.9119104,133.98474 C90.0684585,134.837556 90.2254249,135.700761 90.3813274,136.572745 C90.6953179,138.330512 92.7745546,139.111891 94.162663,137.993515 C100.044255,133.25447 103.700912,127.763273 104.225137,122.21716 C104.339105,121.015226 104.315887,119.811035 104.125935,118.611726 C101.921772,104.69519 51.5398462,101.67555 27.0816823,108.67418" id="Fill-30" fill="#CC2935"/><g id="Head" transform="translate(56.270269, 84.560049) rotate(-9.000000) translate(-56.270269, -84.560049) translate(17.770269, 21.060049) scale(0.6062992125984252 0.6018957345971564)"><g id="Head/Pompadour Bun" stroke="none" stroke-width="1" fill="none" fill-rule="evenodd"><g id="Group-20" transform="translate(-9.000000, 53.000000)"><path d="M57.5,129.5379 L24.5,129.5379 C10.969,129.5379 0,118.5689 0,105.0379 C0,91.5069 10.969,80.5379 24.5,80.5379 L57.5,80.5379 C71.031,80.5379 82,91.5069 82,105.0379 C82,118.5689 71.031,129.5379 57.5,129.5379" id="Fill-1" fill="#000"/><path d="M73.1992,82.5379 L64.0002,82.5379 L64.0002,7.5379 L73.1992,7.5379 C101.2552,7.5379 124.0002,20.2819 124.0002,48.3389 L124.0002,61.7369 C124.0002,82.5379 101.2552,82.5379 73.1992,82.5379" id="Fill-3" fill="#000"/><path d="M67.8008,112.5379 L86.9998,112.5379 L86.9998,7.5379 L67.8008,7.5379 C39.7448,7.5379 16.9998,30.2819 16.9998,58.3389 L16.9998,61.7369 C16.9998,89.7939 39.7448,112.5379 67.8008,112.5379" id="Fill-5" fill="#000"/><path d="M44,80.5379 L89,80.5379 L89,132.1709 C89,146.0759 78.927,157.3479 66.5,157.3479 C54.074,157.3479 44,146.0759 44,132.1709 L44,80.5379 Z" id="Skin" fill="#B18058"/><path d="M91.0525,112.5379 L86.0655,112.5379 C62.8335,112.5379 44.0005,93.7049 44.0005,70.4729 L44.0005,50.7409 C44.0005,32.9559 58.4175,18.5379 76.2035,18.5379 L81.7965,18.5379 C99.5825,18.5379 114.0005,32.9559 114.0005,50.7409 L114.0005,89.5899 C114.0005,102.2639 103.7265,112.5379 91.0525,112.5379" id="Skin" fill="#B18058"/><path d="M65.7507501,115.331676 C56.4557924,112.043569 51.8185822,103.738674 49.9822222,92.5680961 C57.2532122,104.670172 70.4406226,112.813226 85.5439426,112.996733 L86.0655,112.9999 L89,112.9999 C81.0632106,117.229739 73.3134606,118.006998 65.7507501,115.331676 Z" id="SHADOW" fill="#000" opacity=".12"/><path d="M56,77.0379 C56,83.9409 50.404,89.5379 43.5,89.5379 C36.596,89.5379 31,83.9409 31,77.0379 C31,70.1349 36.596,64.5379 43.5,64.5379 C50.404,64.5379 56,70.1349 56,77.0379" id="Skin" fill="#B18058"/><path d="M41.067,71.7064 C41.9718309,71.7064 43.2239875,71.9150928 44.5088204,72.5575092 C46.6553998,73.6307989 48.0130325,75.593228 48.10411,78.4400045 L48.109,78.7484 L45.109,78.7484 C45.109,76.9130144 44.4076866,75.8610443 43.1671796,75.2407908 C42.7065142,75.0104581 42.1976823,74.8578085 41.686339,74.7725846 C41.4347302,74.7306498 41.2385731,74.7126448 41.1250097,74.707808 L41.067,74.7064 L41.067,71.7064 Z" id="Stroke-13" fill="#000" fill-rule="nonzero"/><path d="M44,64.5379 L42.464,64.5379 C36.61,58.8459 34.361,47.2459 33.683,35.9869 C32.754,20.5579 59.542,7.5379 74.999,7.5379 L92.984,7.5379 L110,33.5379 L70.697,33.5379 C70.697,50.5379 56,64.5379 44,64.5379" id="Fill-15" fill="#000"/><path d="M118.7358,33.5379 L64.9998,33.5379 L64.9998,7.1709 C64.9998,3.2099 68.2108,-0.0011 72.1718,-0.0011 L103.7258,-0.0011 C117.1318,-0.0011 127.9998,10.8679 127.9998,24.2739 C127.9998,29.3909 123.8518,33.5379 118.7358,33.5379" id="Fill-17" fill="#000"/></g></g></g><g id="Expression" transform="translate(67.770269, 95.060049) rotate(-9.000000) translate(-67.770269, -95.060049) translate(49.770269, 77.060049)" fill="#000"><path d="M12.1341836,12.9836066 C12.1341836,12.0057049 11.3415934,11.2131148 10.3636918,11.2131148 C9.38579016,11.2131148 8.5932,12.0057049 8.5932,12.9836066 C8.5932,13.9615082 9.38579016,14.7540984 10.3636918,14.7540984 C11.3415934,14.7540984 12.1341836,13.9615082 12.1341836,12.9836066" id="Fill-1"/><path d="M27.4784459,12.9836066 C27.4784459,12.0057049 26.6858557,11.2131148 25.7079541,11.2131148 C24.7300525,11.2131148 23.9374623,12.0057049 23.9374623,12.9836066 C23.9374623,13.9615082 24.7300525,14.7540984 25.7079541,14.7540984 C26.6858557,14.7540984 27.4784459,13.9615082 27.4784459,12.9836066" id="Fill-3"/><polygon id="Stroke-5" points="19.5921342 11.4472717 21.3330199 11.1248463 23.8632911 24.7866492 18.035823 24.7866492 18.035823 23.0161574 21.7345574 23.0158033"/><path d="M12.9375148,24.5425574 C12.9375148,26.7109746 15.1459564,28.7163108 17.5169765,28.7941178 L17.6594164,28.796459 L17.6594164,30.5669508 C14.3558732,30.5669508 11.2698306,27.8722719 11.1695367,24.7014833 L11.167023,24.5425574 L12.9375148,24.5425574 Z" id="Stroke-7"/><path d="M13.6095934,5.31147541 L13.6095934,7.08196721 C11.705473,7.08196721 9.96869146,7.5927853 8.43294948,8.44597529 C7.97221124,8.70194098 7.55921616,8.97308544 7.19743979,9.24521091 L7.02083593,9.38128966 C6.81560969,9.54331038 6.67187894,9.66952992 6.5931679,9.74453825 L6.56342568,9.77350436 L5.31149892,8.5215776 C5.73473678,8.09833974 6.49879578,7.49513526 7.57312265,6.898287 C9.27949062,5.9503048 11.2068914,5.36402615 13.3202577,5.31483742 L13.6095934,5.31147541 Z" id="Stroke-9"/><path d="M21.8718885,5.31147541 C24.0989156,5.31147541 26.1244292,5.9072147 27.9083593,6.898287 C28.9155408,7.45783224 29.6500258,8.02296401 30.0866394,8.44015701 L30.1699831,8.5215776 L28.9180563,9.77350436 L28.8050065,9.66806329 C28.7389622,9.6091982 28.6520158,9.53504874 28.5448248,9.44849028 L28.460646,9.38128966 C28.0586046,9.06388855 27.5860604,8.74460193 27.0485325,8.44597529 C25.5895776,7.6354448 23.9491846,7.13390495 22.1562473,7.08577729 L21.8718885,7.08196721 L21.8718885,5.31147541 Z" id="Stroke-11"/></g><g id="Mouth-Accesory" transform="translate(65.270269, 104.560049) rotate(-9.000000) translate(-65.270269, -104.560049) translate(41.770269, 90.060049)" fill="#000" fill-opacity="0"/><g id="Accessories" transform="translate(64.270269, 92.060049) rotate(-9.000000) translate(-64.270269, -92.060049) translate(35.770269, 82.060049)" fill="#000" fill-opacity="0"/></g><g id="Small Elements" transform="translate(5.000000, 661.000000) scale(0.6296296296296297 0.6296296296296297)"><g id="Small Elements/Circle" stroke="none" stroke-width="1" fill="none" fill-rule="evenodd"><circle id="Oval" fill="#FFD799" cx="135" cy="135" r="116"/></g></g><g id="Small Elements" transform="translate(547.000000, 246.000000) scale(0.5333333333333333 0.5333333333333333)"><g id="Small Elements/Rings" stroke="none" stroke-width="1" fill="none" fill-rule="evenodd"><path d="M135,0 C209.558441,0 270,60.4415588 270,135 C270,209.558441 209.558441,270 135,270 C60.4415588,270 0,209.558441 0,135 C0,60.4415588 60.4415588,0 135,0 Z M135,19 C70.934969,19 19,70.934969 19,135 C19,199.065031 70.934969,251 135,251 C199.065031,251 251,199.065031 251,135 C251,70.934969 199.065031,19 135,19 Z" id="Combined-Shape" fill="#FFB23C"/><path d="M135,49 C182.496488,49 221,87.5035115 221,135 C221,182.496488 182.496488,221 135,221 C87.5035115,221 49,182.496488 49,135 C49,87.5035115 87.5035115,49 135,49 Z M135,61 C94.1309285,61 61,94.1309285 61,135 C61,175.869071 94.1309285,209 135,209 C175.869071,209 209,175.869071 209,135 C209,94.1309285 175.869071,61 135,61 Z" id="Combined-Shape" fill="#FFD492"/><path d="M135,92 C158.748244,92 178,111.251756 178,135 C178,158.748244 158.748244,178 135,178 C111.251756,178 92,158.748244 92,135 C92,111.251756 111.251756,92 135,92 Z M135,98 C114.565464,98 98,114.565464 98,135 C98,155.434536 114.565464,172 135,172 C155.434536,172 172,155.434536 172,135 C172,114.565464 155.434536,98 135,98 Z" id="Combined-Shape" fill="#FFE7C3"/></g></g><g id="Opened-Mail" transform="translate(82.000000, 59.000000)"><polygon id="Rectangle" fill="#BE6FFB" transform="translate(330.153927, 330.354985) rotate(-315.000000) translate(-330.153927, -330.354985)" points="182.291584 187.683742 566.174777 99.522956 443.771793 438.781752 94.133076 561.187014"/><g id="Paper" transform="translate(62.000000, 247.000000)"><rect id="Rectangle" fill="#E6D3FF" x="0" y="0" width="538" height="413"/><path d="M0,0 L538,0 L538,313 C538,368.228475 493.228475,413 438,413 L0,413 L0,413 L0,0 Z" id="Rectangle-Copy-38" fill="#FFF"/><g id="Writing" transform="translate(46.391248, 47.733668)" fill="#CCA4FF"><rect id="Rectangle-Copy-11" x="0" y="0" width="446.602" height="6.584"/><rect id="Rectangle-Copy-42" x="0" y="146.056" width="446.602" height="6.584"/><rect id="Rectangle-Copy-39" x="0" y="36.514" width="446.602" height="6.584"/><rect id="Rectangle-Copy-43" x="0" y="182.57" width="446.602" height="6.584"/><rect id="Rectangle-Copy-40" x="0" y="73.028" width="446.602" height="6.584"/><rect id="Rectangle-Copy-44" x="0" y="219.084" width="446.602" height="6.584"/><rect id="Rectangle-Copy-41" x="0" y="109.542" width="446.602" height="6.584"/><rect id="Rectangle-Copy-45" x="0" y="255.598" width="446.602" height="6.584"/><rect id="Rectangle-Copy-46" x="236.994" y="308.873" width="209.608" height="6.584"/></g></g><path d="M661,327.000362 L661,687 L0,687 L0,327.000362 L0.259,327 L0.0390897333,327.136447 L333.824548,487.613853 L660.268764,334.465207 L648.337,327 L661,327.000362 Z" id="Combined-Shape" fill="#E6D3FF"/><polygon id="Path-5" fill="#F4ECFF" points="0 687 334 487.613567 0 327"/></g><g transform="translate(715.000000, 853.500000) scale(-1, 1) rotate(-4.000000) translate(-715.000000, -853.500000) translate(263.000000, 424.000000) scale(1 1)" id="Master/Character/Standing"><g id="Master/Character/Standing" stroke="none" stroke-width="1" fill="none" fill-rule="evenodd"><g id="Legs" transform="translate(50.000000, 263.000000) scale(1 1)"><g id="Legs/Pants Stride" stroke="none" stroke-width="1" fill="none" fill-rule="evenodd"><g id="Right-leg" transform="translate(340.912300, 0.000075)"><path d="M351.570952,557.400568 L292.421642,588.268621 C289.23919,589.928579 285.361168,588.667216 283.759463,585.45079 C246.439243,510.875624 199.230368,417.989682 161.287429,343.131708 C156.535206,333.763189 159.73662,322.39145 168.445702,317.732295 L207.213943,296.98589 C215.92103,292.326735 226.838569,296.144639 231.593785,305.518281 C251.975853,345.704643 292.982488,426.593799 313.314658,466.827296 C327.03044,493.982986 340.71828,521.075146 354.368197,548.438842 C356.005828,551.729043 354.753405,555.740609 351.570952,557.400568" id="SKIN-DARKER" fill="#d29863"/><path d="M86.3018681,0.553047184 L3.58722884,44.8848046 C0.925720594,46.310596 0.289077427,50.4516434 2.16502598,54.1345105 C47.1498124,143.092204 210.139458,465.665446 251.855077,548.999925 L347.0877,498.490422 C306.772296,419.027412 139.536031,92.5806506 95.7585677,7.05572162 C94.3243715,3.06432593 89.8698682,-1.62510275 86.3018681,0.553047184" id="Fill-3" fill="#051026"/><polygon id="Fill-5" fill="#FFF" points="351.0877 540.556344 280.284523 577.999925 267.0877 551.628227 337.798704 513.999925"/><path d="M343.719319,525.999925 C338.839171,528.596035 321.243031,537.953385 304.83617,546.680031 C313.20814,560.743411 282.702962,576.912582 276.474497,561.764307 C274.326992,562.907008 273.0877,563.566616 273.0877,563.566616 L289.211494,595.999925 L392.0877,542.206257 L386.757446,531.444014 C382.48344,522.799949 353.425603,535.562693 343.719319,525.999925" id="Fill-7" fill="#0A1B45"/></g><path d="M243,0 C243,55.228475 289.562386,100 347,100 C404.437614,100 451,55.228475 451,0" id="Path" fill="#0A1B45"/><g id="Left-Leg" transform="translate(15.000400, 0.000075)"><path d="M30.239127,557.161414 L6.48321118,491.091216 C5.21392545,487.532681 6.52914914,483.643194 9.42224179,482.410903 C17.7749608,479.121599 25.640338,474.891582 33.6914643,471.031892 C59.328839,457.46285 83.4372787,440.300156 104.929252,420.190817 C135.662744,390.774378 160.646002,356.076536 180.175626,316.548494 C182.322726,312.342953 185.979787,309.372897 190.199089,307.916068 C200.492187,302.022777 233.664385,326.382352 243.12361,329.170438 C247.552628,331.433896 250.627475,335.548984 251.969663,340.466445 C253.653389,376.004969 183.860649,458.895203 157.588132,483.422914 C141.92229,498.068881 124.074395,512.379639 106.514112,524.333293 C94.3745071,532.319777 81.4759276,540.045543 68.7441229,546.868906 C60.3704323,549.247293 34.5433138,569.214035 30.239127,557.161414" id="SKIN" fill="#edb98a"/><path d="M327.589239,-7.48875118e-05 L234.263966,2.49908329 C229.168425,2.66739829 228.517611,9.87191949 228.971481,14.5112349 C230.778964,179.189353 185.88582,369.76348 39.9996,452.672467 L91.3448955,552.999925 C227.004045,476.171584 302.743354,318.80132 323.872303,161.436382 C326.849451,141.283324 342.647926,1.01301097 327.589239,-7.48875118e-05" id="Fill-12" fill="#0A1B45"/><path d="M44.8850906,557.999925 L13.9996,479.217498 C21.9808145,475.635354 30.8073943,471.323017 38.4599114,466.999925 L74.9996,542.961589 C65.5638745,548.266517 54.7138457,553.5865 44.8850906,557.999925" id="Fill-14" fill="#FFF"/><path d="M62.9996,549.37113 C60.6360448,544.095785 52.1153883,525.069219 44.1695419,507.327972 C31.6000913,515.152677 16.6218644,483.646376 30.4343923,476.662236 C29.3943075,474.338445 28.7933695,472.999925 28.7933695,472.999925 C20.8193856,477.171895 8.37755891,482.485544 -0.00040000003,485.956334 L40.2423423,600.999925 L52.6550265,595.76714 C63.0086442,589.458645 52.9112793,557.402253 62.9996,549.37113" id="Fill-16" fill="#0A1B45"/><path d="M281.629623,1.99992511 L279.631892,2.05201959 C285.059729,189.839841 231.3627,406.728274 64.9996,501.133029 L65.9555146,502.999925 C233.003836,408.206056 287.085428,190.604248 281.629623,1.99992511" id="Fill-18" fill="#FFF"/></g></g></g><g id="Body" transform="translate(17.000000, -31.000000) scale(1 1)"><g id="Body/Sweats Open Arms" stroke="none" stroke-width="1" fill="none" fill-rule="evenodd"><g id="Right-Arm" transform="translate(618.442533, 229.483602) rotate(-13.000000) translate(-618.442533, -229.483602) translate(429.442533, 114.983602)"><path d="M342.541289,187.743347 C326.910289,191.836347 303.699289,189.846347 289.357289,194.687347 C238.559289,212.680347 180.701289,224.619347 128.506289,203.387347 C96.3992891,190.117347 70.6652891,164.611347 51.9822891,136.551347 C37.9812891,115.590347 27.2752891,93.1963468 18.5502891,69.9293468 C11.1882891,50.7343468 18.3742891,29.4563468 38.5122891,24.1903468 C56.7412891,19.3603468 73.9952891,29.5873468 80.3732891,46.8233468 C87.4822891,65.8393468 96.2372891,84.0083468 106.810289,99.8083468 C145.030289,162.627347 207.091289,154.460347 267.812289,132.285347 C291.775289,123.020347 320.547289,113.292347 344.412289,113.403347 C362.491289,114.243347 376.218289,115.968347 377.718289,123.811347 C378.264289,134.125347 368.695289,130.839347 356.856289,134.508347 C362.970289,138.209347 370.224289,144.108347 364.643289,150.640347 C362.449289,153.148347 358.749289,154.590347 355.043289,153.163347 C348.560289,150.629347 342.448289,143.702347 328.740289,144.316347 C319.320289,148.784347 316.804289,164.880347 326.022289,168.956347 C329.739289,170.857347 334.618289,171.042347 338.855289,171.045347 C348.378289,170.718347 351.846289,185.047347 342.541289,187.743347" id="SKIN-DARKER" fill="#d29863"/><path d="M342.541289,187.743347 C326.910289,191.836347 303.699289,189.846347 289.357289,194.687347 C238.559289,212.680347 180.701289,224.619347 128.506289,203.387347 C96.3992891,190.117347 70.6652891,164.611347 51.9822891,136.551347 C37.9812891,115.590347 27.2752891,93.1963468 18.5502891,69.9293468 C11.1882891,50.7343468 18.3742891,29.4563468 38.5122891,24.1903468 C56.7412891,19.3603468 73.9952891,29.5873468 80.3732891,46.8233468 C87.4822891,65.8393468 96.2372891,84.0083468 106.810289,99.8083468 C145.030289,162.627347 207.091289,154.460347 267.812289,132.285347 C291.775289,123.020347 320.547289,113.292347 344.412289,113.403347 C362.491289,114.243347 376.218289,115.968347 377.718289,123.811347 C378.264289,134.125347 368.695289,130.839347 356.856289,134.508347 C362.970289,138.209347 370.224289,144.108347 364.643289,150.640347 C362.449289,153.148347 358.749289,154.590347 355.043289,153.163347 C348.560289,150.629347 342.448289,143.702347 328.740289,144.316347 C319.320289,148.784347 316.804289,164.880347 326.022289,168.956347 C329.739289,170.857347 334.618289,171.042347 338.855289,171.045347 C348.378289,170.718347 351.846289,185.047347 342.541289,187.743347" id="SKIN-DARKER" fill="#d29863"/><path d="M271.726389,124.421647 C263.116389,127.732647 254.476389,130.636647 245.868389,133.210647 C209.721389,128.488647 170.801389,142.749647 140.115389,113.753647 C124.248389,100.025647 111.598389,81.1806468 101.259389,63.0776468 C72.5927977,14.2024092 60.1310047,0 32.9129471,0 C5.69488945,0 -5.40261093,41.7106468 4.30438907,65.8116468 C9.72538907,88.1616468 18.9403891,112.543647 30.8733891,133.665647 C49.0233891,166.223647 75.9573891,196.137647 110.646389,213.068647 C149.096389,232.187647 194.961389,232.042647 235.338389,219.462647 C246.633389,215.779647 258.116389,211.856647 267.152389,205.127647 C277.835389,201.938647 288.295389,198.399647 298.498389,194.481647 L271.726389,124.421647 Z" id="Fill-4" fill="#2DB386"/><path d="M246.578389,134.567647 L267.932389,206.463647 C278.530389,203.286647 288.911389,199.770647 299.034389,195.883647 L272.262389,125.825647 C263.714389,129.109647 255.133389,131.998647 246.578389,134.567647" id="Fill-7" fill="#25996F"/></g><g id="Body" transform="translate(238.000000, 149.000000)"><path d="M278.106708,192.298647 C205.538716,197.378937 1.44114734,174.139406 3.75109927,161.20524 C8.33256874,135.552114 16.2642525,95.4663653 27.5461506,40.9479927 C27.5461506,18.3333745 47.7038086,-0.000770909091 72.5687342,-0.000770909091 L211.895593,-0.000770909091 C236.760519,-0.000770909091 256.917117,18.3333745 256.917117,40.9479927 C266.870755,93.2351517 274.102974,132.007446 278.613775,157.264876 C280.224412,166.283349 280.055389,177.961273 278.106708,192.298647 Z" id="Sweat-Body" fill="#34D1A1"/><path d="M0.000317843866,195.189749 C100.650875,230.844295 209.77727,197.117022 284.463162,195.189749 L279.673255,156.30124 C206.510894,158.917513 101.819481,190.863022 3.67459294,157.11744 L0.000317843866,195.189749 Z" id="Bottom" fill="#2DB386"/></g><g id="Left-Arm" transform="translate(92.000000, 149.000000)"><path d="M73.7984,302.1656 C75.4354,287.3036 71.7194,269.7966 77.3514,255.4926 C94.0364,218.5986 114.6564,183.6546 138.4314,150.6676 C157.9434,123.5796 179.5474,97.8456 202.7354,73.4136 C207.9904,67.9276 210.3174,60.5686 209.7774,52.8276 C210.4384,35.4396 194.0274,18.1116 176.2674,19.4396 C140.5084,17.0866 43.4524,171.0876 27.6244,206.3616 C23.2384,215.1606 18.0894,226.2596 14.0774,235.2526 C-0.3686,264.6906 -7.9236,316.5946 12.5344,340.8116 C15.3544,345.6386 24.8784,344.9346 25.4604,339.0486 C25.6554,337.0956 24.7924,330.1826 24.5194,321.6836 C27.4664,324.8656 30.7614,326.8666 33.6404,328.1446 C40.4424,331.0916 46.3844,322.2576 42.3284,316.6156 C38.6364,311.0266 30.5254,306.3606 29.2034,292.7106 C32.7784,282.7026 48.4634,279.6396 53.3704,288.1406 C55.5994,291.5016 56.3844,295.9666 56.9234,299.7836 C57.6824,307.9936 72.2034,310.5066 73.7984,302.1656" id="SKIN" fill="#edb98a"/><path d="M8.2814,233.5583 C12.4524,224.0453 17.3674,213.6403 21.9294,204.3143 C26.1924,144.0153 102.270719,51.2268396 153.004719,19.3678396 C174.444479,2.42646732 209.853631,-0.00118877096 223.867009,-0.00118877096 C246.54705,-0.00118877096 234.45534,55.8172246 215.5024,77.4693 C192.0664,109.8693 164.4614,143.4023 139.9364,175.8263 C123.2444,196.0743 108.5604,220.3853 89.6304,237.3143 C84.7904,245.1973 81.0224,255.1483 77.0044,263.5933 L8.2814,233.5583 Z" id="Fill-14" fill="#34D1A1"/><path d="M23.1118,205.2955 L90.2708,238.6835 C86.3218,246.8325 82.0138,255.8955 78.3808,264.1945 L9.6578,234.1585 C13.7668,224.7695 18.6338,214.5095 23.1118,205.2955" id="Fill-16" fill="#2DB386"/></g></g></g><g id="Head" transform="translate(338.000000, -61.000000) scale(1 1)"><g id="Head/Bald" stroke="none" stroke-width="1" fill="none" fill-rule="evenodd"><g id="Head" transform="translate(22.000000, 72.000000)"><g id="head" transform="translate(0.000000, 0.000100)" fill="#edb98a"><path d="M13,62 L58,62 L58,113.633 C58,127.538 47.926,138.81 35.5,138.81 C23.074,138.81 13,127.538 13,113.633 L13,62 Z" id="SKIN"/><path d="M60.0525,94 L55.0655,94 C31.8335,94 13.0005,75.167 13.0005,51.935 L13.0005,32.203 C13.0005,14.418 27.4175,0 45.2035,0 L50.7965,0 C68.5825,0 83.0005,14.418 83.0005,32.203 L83.0005,71.052 C83.0005,83.726 72.7265,94 60.0525,94" id="SKIN"/><path d="M25,58.5 C25,65.403 19.404,71 12.5,71 C5.596,71 0,65.403 0,58.5 C0,51.597 5.596,46 12.5,46 C19.404,46 25,51.597 25,58.5" id="SKIN"/></g><path d="M10.067,53.1685 C10.9718309,53.1685 12.2239875,53.3771928 13.5088204,54.0196092 C15.6553998,55.0928989 17.0130325,57.055328 17.10411,59.9021045 L17.109,60.2105 L14.109,60.2105 C14.109,58.3751144 13.4076866,57.3231443 12.1671796,56.7028908 C11.7065142,56.4725581 11.1976823,56.3199085 10.686339,56.2346846 C10.4347302,56.1927498 10.2385731,56.1747448 10.1250097,56.169908 L10.067,56.1685 L10.067,53.1685 Z" id="ear-line" fill="#000"/><path d="M34.7507501,96.3317762 C25.4557924,93.0436693 20.8185822,84.7387742 18.9822222,73.5681961 C26.2532122,85.6702724 39.4406226,93.8133264 54.5439426,93.9968331 L55.0655,94 L58,94 C50.0632106,98.2298391 42.3134606,99.0070978 34.7507501,96.3317762 Z" id="SHADOW" fill="#000" opacity=".12"/></g></g></g><g id="Expression" transform="translate(385.000000, 34.000000) scale(1 1)" fill="#000"><g id="Expression/Happy" stroke="none" stroke-width="1" fill="none" fill-rule="evenodd"><path d="M20.5607,22 C20.5607,20.343 19.2177,19 17.5607,19 C15.9037,19 14.5607,20.343 14.5607,22 C14.5607,23.657 15.9037,25 17.5607,25 C19.2177,25 20.5607,23.657 20.5607,22" id="Fill-1" fill="#000"/><path d="M46.5607,22 C46.5607,20.343 45.2177,19 43.5607,19 C41.9037,19 40.5607,20.343 40.5607,22 C40.5607,23.657 41.9037,25 43.5607,25 C45.2177,25 46.5607,23.657 46.5607,22" id="Fill-3" fill="#000"/><polygon id="Stroke-5" fill="#000" points="33.1977829 19.396766 36.1476171 18.850434 40.4350211 41.9996 30.5607 41.9996 30.5607 38.9996 36.828 38.999"/><path d="M21.9219,41.586 C21.9219,45.2602625 25.6639817,48.6581933 29.6815435,48.7900329 L29.9229,48.794 L29.9229,51.794 C24.3252295,51.794 19.0961019,47.2280163 18.9261594,41.8552911 L18.9219,41.586 L21.9219,41.586 Z" id="Stroke-7" fill="#000"/><path d="M23.0607,9 L23.0607,12 C19.8342736,12 16.8913939,12.8655529 14.2891644,14.3112359 C13.508469,14.7449556 12.8086718,15.2043948 12.1956619,15.6654963 L11.8964164,15.8960741 C11.548672,16.1706093 11.3051282,16.3844813 11.1717567,16.5115787 L11.1213602,16.5606602 L9.00003983,14.4393398 C9.71719288,13.7221868 11.0118484,12.7000903 12.8322356,11.6887641 C15.7235813,10.0824609 18.9894549,9.08904431 22.5704367,9.00569674 L23.0607,9 Z" id="Stroke-9" fill="#000"/><path d="M37.0607,9 C40.8342736,9 44.2663939,10.0094471 47.2891644,11.6887641 C48.9957774,12.6368824 50.2403215,13.5944668 50.980139,14.3013772 L51.1213602,14.4393398 L49.0000398,16.5606602 L48.8084832,16.3819961 C48.6965748,16.2822525 48.549249,16.1566104 48.3676199,16.0099419 L48.2249836,15.8960741 C47.5437467,15.3582556 46.7430469,14.8172422 45.8322356,14.3112359 C43.3601176,12.937837 40.5805627,12.0880056 37.5425302,12.006456 L37.0607,12 L37.0607,9 Z" id="Stroke-11" fill="#000"/></g></g><g id="Accessories" transform="translate(372.000000, 56.000000) scale(1 1)" fill="#000"><g id="Accessories/N65" stroke="none" stroke-width="1" fill="none" fill-rule="evenodd"><path d="M55.1977784,0.766509801 C61.8672688,0.766509801 65.5931791,6.91877559 68.3190852,9.67622448 C68.5366389,9.86933778 68.7500465,10.0676638 68.9593821,10.2698541 C69.0753941,10.3682311 69.1897807,10.4565674 69.3026336,10.535583 L69.2915753,10.5973925 C73.2112403,14.5427001 75.6165684,19.8776287 75.6165684,25.7499259 C75.6165684,37.9001904 65.3191176,47.7499259 52.6165684,47.7499259 C39.9140192,47.7499259 29.6165684,37.9001904 29.6165684,25.7499259 C29.6165684,17.6330728 34.2120776,10.5428914 41.0501479,6.73002773 L41.0440543,6.69219525 L41.0440543,6.69219525 C46.4836096,4.14573474 47.6906867,0.766509801 55.1977784,0.766509801 Z" id="Clothe" fill="#D8D8D8"/><path d="M32.6165684,20.7333421 C32.6165684,32.8836066 42.9140192,42.7333421 55.6165684,42.7333421 C63.0741024,42.7333421 69.702661,39.3383929 73.9051908,34.0761112 C70.4693708,42.0893844 62.2320375,47.7333421 52.6165684,47.7333421 C39.9140192,47.7333421 29.6165684,37.8836066 29.6165684,25.7333421 C29.6165684,20.7166936 31.3720069,16.0922234 34.3273758,12.3912869 C33.2246542,14.9640107 32.6165684,17.7807509 32.6165684,20.7333421 Z" id="SHADOW" fill="#000" opacity=".12"/><line x1="0" y1="0" x2="34.913" y2="14.229" id="Path-4" stroke="#22252B" stroke-width="2"/><line x1="33.673" y1="28.173" x2="0" y2="28.173" id="Path-5" stroke="#22252B" stroke-width="2"/></g></g><g id="Glasses" transform="translate(364.000000, 42.000000) scale(1 1)" fill="#000"><g id="Glasses/None" stroke="none" stroke-width="1" fill="none" fill-rule="evenodd" fill-opacity="0"/></g></g></g><g id="arm" transform="translate(34.419549, 249.590747)"><path d="M118.811506,160.176236 L118.810908,160.17633 C116.156302,160.968856 113.505218,161.187025 110.984913,161.24303 C109.716067,161.274254 108.499732,161.253496 107.34942,161.211826 C106.157038,161.19896 105.08223,161.134261 104.039051,161.102683 C101.979516,161.011293 100.205659,160.995812 98.7977609,160.827044 C97.3734164,160.659035 96.2646647,160.31804 95.1944475,159.449419 C92.8583351,157.542061 89.1283872,155.515983 84.4899909,153.68914 C79.8635464,151.837034 74.4606884,150.130654 68.6122086,148.260537 C61.958385,146.113302 54.6751226,143.800078 46.8680963,140.186665 C42.9765117,138.383604 38.9238945,136.168165 34.8978015,133.380262 C30.8753761,130.607767 26.8684595,127.088661 23.3452468,122.927754 C19.8206371,118.754154 16.8978945,113.875143 14.8209233,108.862175 C12.7171588,103.835001 11.5209047,98.7305114 10.8627479,93.866133 L10.6455624,92.0493687 C10.5724674,91.4484015 10.506612,90.8389075 10.4725179,90.1936329 C10.4027338,88.9162515 10.2824443,87.6642011 10.2894455,86.3647064 C10.25169,83.7864379 10.3647914,81.168901 10.6737095,78.5480249 C11.277997,73.3059587 12.64216,68.073306 14.6412107,63.2308703 C16.6345511,58.3794991 19.2317205,53.9275692 22.1410484,49.9821622 C25.0590128,46.0409224 28.2719763,42.5830931 31.597051,39.5115649 C38.2686634,33.3761793 45.3443399,28.7266073 52.4318233,24.8217804 C59.533435,20.932551 66.6944731,17.8020499 73.8605469,15.1178593 C81.028863,12.4400786 88.209084,10.2093656 95.4022901,8.28532812 C102.050538,6.50787398 108.606178,7.36500596 113.60722,10.0519985 C118.627957,12.7432515 122.087615,17.2389463 123.043186,22.6872134 C123.999204,28.1421748 122.376786,33.5030617 119.227822,37.8375909 C116.062041,42.1821636 111.368307,45.5147464 105.729588,47.0222211 C99.6100133,48.6587462 93.6171692,50.529811 87.8739996,52.6755985 C82.1356186,54.8206275 76.6466084,57.2539574 71.657151,59.9900836 C66.6763204,62.7186934 62.1985968,65.7802868 58.7191616,68.9968041 C56.9796767,70.6007209 55.4957422,72.2336579 54.3053707,73.8373193 C53.1243292,75.445653 52.2473967,77.0138156 51.6183363,78.5470241 C50.9893426,80.0845271 50.5969149,81.5931718 50.4055319,83.2089651 C50.3075553,84.0159937 50.2748897,84.8557284 50.2832124,85.7295614 C50.2613881,86.157371 50.3434778,86.6253027 50.3487034,87.0728132 C50.3487271,87.289906 50.380789,87.5388247 50.416889,87.7938689 L50.5052365,88.5492465 C50.7750421,90.5200377 51.1913952,92.1957862 51.7716248,93.5386921 C52.3556456,94.8939125 53.008848,96.0118541 53.9338563,97.118111 C54.8869873,98.2082287 56.0582159,99.3388337 57.7196418,100.47298 C59.3682129,101.607316 61.3636963,102.758663 63.7309165,103.847443 C68.4410538,106.049761 74.3036353,108.01666 80.7695072,110.077428 C86.4643258,111.910997 92.6501223,113.815019 99.2934578,116.457764 C102.613382,117.785563 106.055466,119.30742 109.593243,121.212644 C113.123961,123.11591 116.757269,125.399606 120.304321,128.262152 C123.53901,130.864825 126.145603,134.305599 127.682551,137.904102 C129.229115,141.509078 129.739201,145.18289 129.28624,148.343184 C129.080614,149.919413 128.605507,151.386417 128.022845,152.67796 C127.390976,153.980372 126.595801,155.127222 125.684034,156.107423 C123.837822,158.075721 121.446046,159.388733 118.811506,160.176236" id="SKIN" fill="#694d3d"/><path d="M105.950395,171.870711 C104.439007,171.90468 103.096489,171.474634 102.054449,170.919507 C101.541111,170.634269 101.122097,170.301496 100.829429,169.929647 C100.504647,169.587485 100.30467,169.212025 100.263835,168.79537 C100.024323,167.031342 99.6412194,165.592639 99.1357673,164.450681 C98.6247284,163.296693 98.0604312,162.356552 97.2280706,161.381992 C96.3721856,160.421613 95.2547353,159.398111 93.7092903,158.341536 C92.1519407,157.291152 90.2214938,156.22114 87.9932371,155.188457 C85.9694833,154.253764 84.9309345,151.237451 86.0146781,148.418209 C86.5566357,147.016877 87.5792202,145.930564 88.761253,145.358971 C89.9562259,144.776103 91.3318153,144.702142 92.5514964,145.259269 C95.189509,146.48105 97.6493509,147.821457 99.8419693,149.303203 C102.024954,150.793856 103.901656,152.438799 105.470869,154.226539 C107.022952,156.026218 108.232849,157.99756 109.170973,160.170617 C110.113125,162.338116 110.724085,164.750567 111.073104,167.329967 C111.139643,167.928282 111.054907,168.516732 110.842237,169.052874 C110.596466,169.604714 110.226259,170.103078 109.757771,170.515531 C108.836357,171.337973 107.450573,171.843437 105.950395,171.870711" id="SKIN" fill="#694d3d"/><path d="M115.427211,177.809254 C113.926774,177.676052 112.613039,177.001596 111.700472,176.078485 C111.240706,175.616251 110.845014,175.101433 110.594754,174.540211 C110.337596,173.981927 110.223693,173.375123 110.201068,172.767392 C110.232831,167.939497 109.422412,163.582013 107.760382,159.987945 C107.33196,159.065028 107.431222,157.987194 107.879515,156.858384 C108.366239,155.720412 109.165528,154.55692 110.406575,153.683853 C111.628506,152.821808 113.096202,152.457737 114.420532,152.765202 C115.770704,153.042129 117.000721,153.978307 117.64896,155.378707 C120.167112,160.821797 121.14261,166.853007 121.110529,172.771355 C121.132749,173.535361 120.938069,174.25869 120.639664,174.904352 C120.335777,175.550268 119.927187,176.11621 119.399091,176.5707 C118.333415,177.481797 116.927649,177.942455 115.427211,177.809254" id="SKIN" fill="#694d3d"/><path d="M124.980989,179.944044 C123.483743,179.784506 122.179906,179.002087 121.277292,177.924878 C120.820518,177.38468 120.491065,176.768965 120.240622,176.101991 C119.988887,175.434607 119.862764,174.719653 119.891033,173.972251 C119.992788,168.180013 119.287912,162.303972 117.036884,156.978475 C116.726195,156.306898 116.605678,155.588596 116.550176,154.889516 C116.492975,154.191321 116.568312,153.477669 116.757406,152.781054 C117.084489,151.42544 117.874416,150.10599 119.138666,149.286443 C120.401813,148.467686 121.937266,148.34934 123.452868,148.946313 C124.180038,149.256723 124.892295,149.744157 125.536527,150.383201 C126.179373,151.021235 126.682158,151.836433 127.09305,152.745521 C128.593675,156.312262 129.562805,159.998239 130.123625,163.604975 C130.685395,167.217711 130.854932,170.759729 130.797724,174.206664 C130.76714,175.086659 130.582476,175.919718 130.277252,176.661786 C129.970232,177.404138 129.497482,178.033748 128.966413,178.550824 C127.891543,179.582073 126.478738,180.102886 124.980989,179.944044" id="SKIN" fill="#694d3d"/><path d="M137.080282,151.708039 C135.657852,152.210697 134.054854,151.770862 132.609,150.785229 C131.856535,150.291863 131.137538,149.657281 130.490092,148.90497 C129.838959,148.152628 129.19058,147.30145 128.67487,146.327168 C126.585014,142.561624 123.899809,139.120387 120.961612,136.185392 C118.0195,133.241178 114.835417,130.795311 111.645584,128.747033 C110.823285,128.200152 110.101283,127.39938 109.443171,126.401527 C108.793697,125.446586 108.211933,124.34193 107.715832,123.305501 C107.225575,122.286598 106.817873,121.312429 106.530964,120.593421 C106.248758,119.884737 106.091696,119.435445 106.091696,119.435445 C107.122865,119.914188 107.991729,120.003511 108.807163,119.836843 C109.625247,119.675291 110.415509,119.322574 111.340412,119.056773 C112.268631,118.800287 113.299509,118.552757 114.672017,118.788631 C115.355668,118.901753 116.107253,119.095136 116.963457,119.457065 C117.828223,119.845928 118.776857,120.342049 119.845808,121.09033 C123.208452,123.431655 126.609955,126.239148 129.777051,129.584997 C132.943729,132.920457 135.845757,136.800906 138.181205,140.970355 C138.825782,142.173303 139.32163,143.397963 139.562289,144.572635 C139.799451,145.748476 139.854448,146.862763 139.74001,147.84091 C139.450203,149.803779 138.496726,151.206329 137.080282,151.708039" id="SKIN" fill="#694d3d"/><path d="M135.013099,175.047067 L135.0125,175.047161 C133.494925,174.991705 132.19904,174.224631 131.195134,173.038619 C130.2003,171.851786 129.589862,170.291033 129.449674,168.503279 C129.228891,165.509351 128.831681,162.459111 128.029812,159.399162 C127.249216,156.345684 126.140093,153.294424 124.655301,150.389379 C123.17678,147.485187 121.322667,144.743188 119.209086,142.299971 C117.097833,139.852081 114.741478,137.700698 112.291383,135.844604 C111.558659,135.297682 110.943776,134.67736 110.453697,133.984995 C109.957785,133.325535 109.583817,132.603095 109.342569,131.854714 C108.860283,130.38252 108.897618,128.832331 109.661436,127.52624 C110.425958,126.232338 111.796915,125.439556 113.467444,125.325646 C114.30308,125.27878 115.209996,125.395286 116.130502,125.675075 C117.056273,125.995851 117.995785,126.473121 118.881354,127.136671 C121.853104,129.388617 124.789661,132.057574 127.452483,135.144424 C130.116464,138.223096 132.485285,141.719979 134.361831,145.405531 C136.246853,149.090357 137.638725,152.935084 138.602669,156.712289 C139.589596,160.506763 140.071711,164.189925 140.332478,167.750089 C140.389658,168.800685 140.326062,169.840275 140.052716,170.72551 C139.78968,171.617722 139.398235,172.415881 138.90884,173.072112 C137.937557,174.393227 136.505582,175.087432 135.013099,175.047067" id="SKIN" fill="#694d3d"/><path d="M101.322959,115.320519 L84.0120029,157.430579 C79.6565294,155.623501 74.3440644,153.91449 68.4855039,152.046585 C68.2770241,152.128805 68.0385397,152.199788 67.7878557,152.263477 C67.5364782,152.326662 67.2737849,152.384258 66.9329922,152.413634 C66.2839008,152.483845 65.5431518,152.513838 64.7019187,152.498245 C63.047348,152.480476 60.9898621,152.278061 58.5790566,151.894215 C56.1423033,151.489878 53.3242401,150.890093 50.0596583,149.958201 C46.7966155,149.020531 43.0793393,147.756282 38.8849827,145.858495 C34.7044784,143.947443 30.0113793,141.434309 25.0804132,137.655655 C22.6267362,135.811813 20.1307046,133.580462 17.7173171,131.084485 C15.2949698,128.574552 13.0008596,125.688835 10.8993595,122.58196 C8.84036646,119.441293 7.00037716,116.067908 5.50639455,112.570225 C4.04913392,109.091326 2.8238766,105.477281 2.01304758,101.950118 C1.54832199,100.151035 1.26183785,98.4313469 0.942288896,96.6578555 C0.78202509,95.7699573 0.695595075,94.9337105 0.577345298,94.0631431 C0.474591593,93.1858163 0.348694509,92.3638155 0.280523504,91.4336561 C0.153511629,89.5780095 -0.0164823499,87.7531558 0.00254488457,85.8239485 C-0.00206460739,84.8689618 -0.00138204393,83.9125219 0.0127824285,82.9521017 C0.0598297626,81.9784782 0.116454126,81.003338 0.182560494,80.0260809 L0.289596407,78.5595628 L0.465970757,77.0814476 C0.59004284,76.0943946 0.719597026,75.1070884 0.867678282,74.1205378 C1.24283261,72.1503006 1.58523644,70.1631105 2.13168577,68.2167882 C3.1151316,64.291664 4.53584703,60.4891644 6.18786016,56.8763525 C6.61063783,55.9815952 7.04305913,55.0896156 7.48361344,54.2024978 C7.93993997,53.3374822 8.41367279,52.4893898 8.88992331,51.6378236 C9.36147059,50.7759323 9.86245314,49.9604242 10.3745997,49.1572931 C10.8870313,48.3559618 11.3937047,47.5260223 11.9296712,46.7609387 C14.0573272,43.6447464 16.353253,40.81617 18.7234244,38.1929308 C23.4829044,33.036287 28.5252597,28.7862519 33.5247623,25.2883893 C38.5340409,21.7631481 43.5237898,18.8855248 48.3916307,16.4546377 C58.1401577,11.5809891 67.4232827,8.36345918 75.9547777,5.95562563 C84.4867292,3.56616991 92.2759545,2.0465008 99.0519137,1.07538501 C108.120127,-1.15915452 116.970672,0.21395646 123.609634,4.03389775 C130.266581,7.84730041 134.744533,14.0808468 135.525933,21.420163 C136.327087,28.7563507 133.989065,35.7354938 129.705122,41.3377286 C125.40366,46.9378182 119.190717,51.1653846 111.830965,52.9792695 C104.883243,55.5932063 97.7643062,58.3929319 90.9783681,61.451108 C87.5962732,62.9849313 84.2912614,64.5754263 81.1799775,66.2268735 C78.0858716,67.886055 75.1460638,69.5896786 72.5612729,71.3188686 C69.9844818,73.0443316 67.6954872,74.7777174 65.9380551,76.3961618 C64.1238731,78.0088344 62.8902879,79.4791191 62.0193416,80.6318207 C61.6241197,81.2085613 61.2872516,81.7120992 61.0319678,82.153515 C60.8145933,82.6018417 60.5545006,82.9819037 60.4257129,83.3774543 C60.4021228,83.426086 60.376547,83.4738021 60.3490804,83.5212027 C60.3293668,83.5710653 60.3210925,83.6234212 60.3033647,83.6741994 C60.2715003,83.7751869 60.2301823,83.8745966 60.1790023,83.9737234 C60.1537603,84.0816571 60.1311977,84.1910114 60.0930057,84.2985361 C60.0509373,84.4048298 60.0074534,84.5138077 59.997917,84.639549 C59.9764662,84.7597973 59.9459419,84.8808677 59.9067527,85.0014655 C59.8730171,85.1255045 59.8783693,85.2716429 59.8498405,85.4053123 C59.7774956,85.6652324 59.7840012,85.9852343 59.7478089,86.2990837 C59.7411029,86.3807114 59.7219407,86.4495519 59.720128,86.5427046 L59.728353,86.8464441 C59.7310746,87.0495795 59.7283142,87.2529681 59.7208602,87.4577152 C59.7179382,87.6562094 59.741067,87.8099872 59.7407764,87.9902296 C59.7519721,88.1538925 59.7272548,88.3619888 59.7506493,88.4941994 C59.784973,88.7728951 59.7597645,89.1096051 59.7983813,89.3224303 C59.8103267,89.4404642 59.8045149,89.5742257 59.8107215,89.6870184 C59.8273124,89.7840214 59.8357135,89.8835515 59.8381005,89.9877242 C59.8310437,90.1020027 59.8443469,90.1859963 59.8564815,90.2664849 C59.8666019,90.3497526 59.8618914,90.4439794 59.8622163,90.5312585 C59.9045463,90.6629301 59.864095,90.8569133 59.9054748,90.9825853 C59.9038758,91.2940308 59.9975809,91.5602463 60.0724568,91.9167747 C60.3132278,92.5846654 60.7815355,93.5037248 61.7779239,94.5531659 C62.7464267,95.6008736 64.100323,96.7535922 65.6445912,97.8724688 C67.189021,98.9962399 68.9101223,100.092644 70.6069756,101.128928 C72.2975297,102.168055 73.9926336,103.146806 75.533078,104.063336 C76.3152053,104.534784 77.047936,104.977155 77.7289043,105.387134 C78.4071746,105.81107 79.062243,106.220231 79.6457394,106.607517 C80.2235638,106.993857 80.7598492,107.365866 81.2266719,107.713822 C81.6943782,108.063483 81.9758246,108.352853 82.2708862,108.646832 C88.0855898,110.516764 94.4398509,112.488814 101.322959,115.320519" id="jacket" fill="#FA3239"/><path d="M68.676521,152.106306 L82.7393914,107.839728 C88.5017154,109.69274 94.8110078,111.655922 101.669185,114.477431 L84.0123801,157.429474 C79.7054763,155.642378 74.4588445,153.95 68.676521,152.106306" id="jacket" fill="#B52935"/></g></g></svg>