<svg viewBox="2.6442307692307168 184.97500000000002 832.9326923076926 726.6875000000001" xmlns="http://www.w3.org/2000/svg" overflow="visible" xmlns:xlink="http://www.w3.org/1999/xlink" width="832.9326923076926px" height="726.6875000000001px"><g id="Master/Comps/Desk" stroke="none" stroke-width="1" fill="none" fill-rule="evenodd"><g id="Blob" opacity=".288" transform="translate(8.500000, 153.891534) scale(1.5086372360844529 1.5089820359281436)"><g id="Blob/4" stroke="none" stroke-width="1" fill="none" fill-rule="evenodd"><path d="M462.529343,58.5675813 C512.074429,91.3346384 533.919308,168.579316 512.975249,224.880101 C491.918587,281.068285 428.18559,316.425178 378.640503,361.69101 C329.095417,406.84424 293.738241,462.019009 254.777787,465.734861 C215.817333,469.450713 173.028394,421.707647 123.483308,376.554417 C73.9382214,331.288586 17.6369868,288.499989 4.12469049,232.424407 C-9.27500335,176.236223 20.3394461,106.761054 69.8845325,73.8813949 C119.429619,41.1143378 188.905343,44.9427912 262.322152,41.1143378 C335.738962,37.1732828 412.984256,25.6879226 462.529343,58.5675813 Z" id="blobs-burgers" fill="#BE6FFB"/></g></g><g id="Chair" transform="translate(35.000000, 285.000000) scale(1 1)"><g id="Chair/Office" stroke="none" stroke-width="1" fill="none" fill-rule="evenodd"><g id="Group-21" transform="translate(17.000000, 0.000000)"><path d="M103.2542,227.355 L103.2542,293.645 C103.2542,299.474876 108.026017,304.340723 113.823279,304.496169 L114.1092,304.5 L180.3992,304.5 L180.3992,343.5 L114.1092,343.5 C86.9192929,343.5 64.7025164,321.555123 64.2608998,294.467397 L64.2542,293.645 L64.2542,227.355 L103.2542,227.355 Z" id="Stroke-1" fill="#0A1B45" fill-rule="nonzero"/><path d="M120.6111,258 L96.1921,258 C43.2861,258 0.0001,214.713 0.0001,161.808 L0.0001,96.192 C0.0001,43.287 43.2861,0 96.1921,0 L120.6111,0 C153.6901,0 180.7541,27.064 180.7541,60.143 L180.7541,197.857 C180.7541,230.936 153.6901,258 120.6111,258" id="Fill-3" fill="#5A328E"/><path d="M253.7542,571 L243.7542,571 C239.3542,571 235.7542,566.352 235.7542,560.67 L235.7542,346.33 C235.7542,340.648 239.3542,336 243.7542,336 L253.7542,336 C258.1542,336 261.7542,340.648 261.7542,346.33 L261.7542,560.67 C261.7542,566.352 258.1542,571 253.7542,571" id="Fill-5" fill="#55B0EB"/><path d="M261.7542,586 L248.7542,586 L235.7542,586 C235.7542,586 145.7542,600.6 145.7542,594 L145.7542,591 C145.7542,584.4 151.1542,579 157.7542,579 L235.7542,559 L248.7542,559 L261.7542,559 L339.7542,579 C346.3542,579 351.7542,584.4 351.7542,591 L351.7542,594 C351.7542,600.6 261.7542,586 261.7542,586" id="Fill-7" fill="#0A1B45"/><path d="M256.8313,475 L240.6773,475 C233.5693,475 227.7543,472.25 227.7543,468.89 L227.7543,342.11 C227.7543,338.75 233.5693,336 240.6773,336 L256.8313,336 C263.9383,336 269.7543,338.75 269.7543,342.11 L269.7543,468.89 C269.7543,472.25 263.9383,475 256.8313,475" id="Fill-9" fill="#55B0EB"/><path d="M344.011,356 L153.497,356 C138.239,356 125.754,343.516 125.754,328.257 L125.754,313.743 C125.754,298.484 138.239,286 153.497,286 L344.011,286 C359.27,286 371.754,298.484 371.754,313.743 L371.754,328.257 C371.754,343.516 359.27,356 344.011,356" id="Fill-11" fill="#5A328E"/><path d="M161.7542,608 C161.7542,615.732 155.4862,622 147.7542,622 C140.0222,622 133.7542,615.732 133.7542,608 C133.7542,600.268 140.0222,594 147.7542,594 C155.4862,594 161.7542,600.268 161.7542,608" id="Fill-13" fill="#0A1B45"/><path d="M365.7542,608 C365.7542,615.732 359.4862,622 351.7542,622 C344.0222,622 337.7542,615.732 337.7542,608 C337.7542,600.268 344.0222,594 351.7542,594 C359.4862,594 365.7542,600.268 365.7542,608" id="Fill-15" fill="#0A1B45"/><path d="M263.7542,608 C263.7542,615.732 257.4862,622 249.7542,622 C242.0222,622 235.7542,615.732 235.7542,608 C235.7542,600.268 242.0222,594 249.7542,594 C257.4862,594 263.7542,600.268 263.7542,608" id="Fill-17" fill="#0A1B45"/><path d="M253.7542,596 L245.7542,596 L235.7542,571 C235.7542,564.4 241.1542,559 247.7542,559 L251.7542,559 C258.3542,559 263.7542,564.4 263.7542,571 L253.7542,596 Z" id="Fill-19" fill="#0A1B45"/></g></g></g><g transform="translate(-111.000000, 211.000000) scale(1 1)" id="Master/Character/Sitting"><g id="Master/Character/Sitting" stroke="none" stroke-width="1" fill="none" fill-rule="evenodd"><g id="Legs Sitting" transform="translate(317.000000, 266.000000) scale(1 1)"><g id="Legs Sitting/Red Shorts Relaxed" stroke="none" stroke-width="1" fill="none" fill-rule="evenodd"><g id="Group-17" transform="translate(0.000000, -1.000000)"><path d="M506.97771,311.911352 C503.725101,313.018058 501.135432,314.019601 500.167768,310.974908 C494.183158,292.306134 487.054165,273.451073 479.31668,255.390235 C451.674756,194.275038 416.810224,127.23571 355.796815,98.6476465 C303.93752,75.8204628 247.340209,78.7589919 192,73.1323195 L198.78329,0 C275.12265,5.81195802 360.584503,0.293051683 425.522058,49.2995859 C482.564513,92.8356885 519.480912,157.428246 548.143038,222.938217 C556.9418,243.507921 564.817795,264.322002 571.731858,285.86721 C572.873376,289.460748 570.19869,290.274002 566.953722,291.380708 C566.953722,291.380708 506.97771,311.911352 506.97771,311.911352 Z" id="Fill-1" fill="#dcb284"/><g id="Group-5" transform="translate(109.000000, 0.000000)" fill="#CC2935"><path d="M89.7272727,0.7065 C89.7272727,0.7065 -7.26094091,62.6953 0.625513636,64.4993 C48.2535136,97.1823 107.714059,93.3893 161.573332,99.1493 L165.821059,50.4913 C161.47215,46.3943 156.989605,42.3663 152.428786,38.3633 C157.448741,35.3233 162.516423,32.3163 167.662377,29.4003 L167.662377,0.17 C147.019757,1.17 89.7272727,0.7065 89.7272727,0.7065 Z" id="Fill-3"/></g><g id="Group-8" transform="translate(444.000000, 152.000000)" fill="#0A1B45"><path d="M127.150537,111.6694 C113.327241,73.0684 96.6838777,35.8024 76.2565425,0.3954 L0.944894413,48.2124 C22.6408777,86.0114 40.3303022,127.6624 53.1553022,169.9234 C54.056157,169.6484 80.072995,161.6954 81.7380955,161.1864 C81.7123022,159.4994 81.3550173,156.5434 81.2031235,154.8074 C87.0476933,155.1214 92.9161458,155.5604 98.7425648,155.9874 C116.553313,150.5424 152.851168,139.4484 170.531995,134.0424 C170.00371,132.2134 168.925168,128.5214 168.366313,126.7204 C167.123459,108.4064 143.039207,118.5884 127.150537,111.6694" id="Fill-6"/></g><path d="M332.154781,415.875941 C322.269713,415.903674 307.44211,415.945027 287.671973,416 C284.251092,416.006764 281.482263,416.116875 281.468878,412.617351 C279.920016,328.276432 280.157705,231.016169 261.808906,149.804233 C250.562109,100.025816 154.760525,104.441061 105,90.2637868 L124.974578,14 C185.358191,29.4195253 251.840685,38.0181829 302.352695,81.4018641 C318.586103,94.1827326 330.464533,109.08774 335.500245,130.080877 C348.371094,179.516652 350.449628,230.7142 353.593244,281.340174 C355.758782,325.095229 356.774146,368.610042 357,412.282013 C357.013168,415.906663 354.237647,415.81457 350.818678,415.823579 C342.523613,415.846851 336.302314,415.864305 332.154781,415.875941 Z" id="Fill-9" fill="#ffdbb4"/><path d="M95.9430716,1 L21.8184691,54.258475 C15.7433913,59.8934651 44.5895526,99.5990085 71.8507195,99.5990085 C130.148537,99.5990085 168.535725,103.316257 187.761951,109 L191.724893,81.0735302 C188.016059,76.2760121 184.143937,71.5133887 180.158181,66.791642 C185.682282,64.6610734 191.244578,62.6072731 196.890905,60.6581567 L209,12.8095941 C185.597295,5.6259456 147.911653,1.68941423 95.9430716,1 Z" id="Fill-11" fill="#FA3239"/><path d="M363.624811,391.60829 C363.164284,352.147517 362.076027,312.593756 359.954927,273 L272,278.213309 C274.555829,326.273944 275.650775,375.215462 275.703325,423.47007 C276.640622,423.47407 303.748656,423.591054 305.483754,423.599053 L306.795587,416.760959 L323.201623,423.676043 C341.759333,423.755032 379.577964,423.92101 398,424 L397.985668,411.790617 C397.943628,403.402728 372.963382,400.74508 363.624811,391.60829" id="Fill-13" fill="#0A1B45"/><path d="M104.283654,100 L94.7163462,100 C42.4061346,100 -4.00177669e-11,55.676 -4.00177669e-11,1 L199,1 C199,55.676 156.593865,100 104.283654,100" id="Fill-15" fill="#FA3239"/></g><path d="M56,99 C25.072054,99 -4.00139793e-11,73.927946 -4.00177669e-11,43 L-4.00177669e-11,0 L199,0 C199,54.676 156.593865,99 104.283654,99 L56,99 Z" id="PELVIS-PLUS" fill="#FA3239"/></g></g><g id="Body" transform="translate(41.000000, -31.000000) scale(1 1)"><g id="Body/Tank Top Holding Hands" stroke="none" stroke-width="1" fill="none" fill-rule="evenodd"><g id="Group-42" transform="translate(218.000000, 149.000000)"><path d="M224.8788,250.688 C230.3808,256.761 238.5858,260.56 248.0048,259.922 C254.4058,259.446 260.8848,258.817 267.6438,257.651 C274.4038,256.473 281.3718,254.891 288.6268,252.499 C295.8658,250.094 303.4468,246.874 311.0948,242.106 C318.7048,237.367 326.4038,230.921 332.7678,222.699 C339.1948,214.534 343.8018,204.62 346.2978,194.997 C348.8528,185.297 349.3018,176.033 348.8318,167.636 C348.3378,159.212 346.8878,151.571 345.0218,144.495 C343.1418,137.419 340.8278,130.884 338.2848,124.7 C333.1508,112.405 327.1518,101.415 320.7678,91.081 C314.3548,80.79 307.5598,71.112 300.4768,61.901 C286.3258,43.452 246.342644,-0.0002 218.90357,-0.0002 C191.464495,-0.0002 203.45983,5.46456418 196.927891,17.3171103 C190.395952,29.1696565 203.1538,51.509 208.3758,56.85 C222.6108,71.339 236.0988,86.398 248.0848,102.04 C254.0958,109.847 259.6588,117.818 264.6698,125.852 C269.6438,133.885 273.9958,142.02 277.2958,149.925 C280.5418,157.768 282.6258,165.501 282.9388,171.389 C283.1088,174.318 282.9038,176.728 282.4198,178.393 C282.3548,178.598 282.2988,178.805 282.2538,179.016 C282.2198,179.237 282.1028,179.38 282.0478,179.57 C281.9718,179.743 281.9478,179.952 281.8588,180.107 C281.7698,180.262 281.6928,180.421 281.6268,180.586 C281.5778,180.762 281.4818,180.906 281.3838,181.046 C281.2938,181.192 281.2158,181.344 281.1478,181.503 C281.0458,181.643 280.9298,181.776 280.8368,181.923 C280.7358,182.065 280.6808,182.233 280.5298,182.36 C279.6258,183.491 278.2878,184.772 276.1538,186.114 C274.0408,187.448 271.1768,188.765 267.8148,189.866 C264.4538,190.973 260.6238,191.878 256.5628,192.588 C252.4898,193.3 248.1058,193.723 243.6568,194.065 C237.0908,194.522 230.8768,198.147 225.9648,204.032 C221.0738,209.888 217.4938,217.938 217.0078,227.032 C216.5208,236.135 219.3558,244.579 224.8788,250.688 Z" id="SKIN-DARKER" fill="#dcb284"/><path d="M198.1767,249.6531 L198.1767,249.6531 C197.6837,254.5711 201.0067,259.0341 205.7577,259.3631 C216.0157,260.1651 226.4937,260.5941 237.3567,260.3641 C248.2337,260.0951 259.4357,259.3031 271.4247,256.9491 C272.8017,256.6741 274.0517,256.1801 275.1497,255.4731 C276.2637,254.7421 277.1997,253.8391 277.9077,252.8271 C279.3307,250.8011 279.8237,248.3681 279.1817,245.9521 C278.5257,243.5701 276.8967,241.6491 274.8667,240.4681 C273.8507,239.8781 272.7317,239.4691 271.5627,239.2811 C270.4007,239.0691 269.1967,239.0381 267.9787,239.2821 C257.3657,241.3741 247.0747,242.1221 236.9617,242.3681 C226.8537,242.5831 216.9417,242.1831 207.1607,241.4181 C204.9117,241.2581 202.8027,242.0851 201.1847,243.5511 C199.5647,245.0301 198.4227,247.1801 198.1767,249.6531" id="SKIN-DARKER" fill="#dcb284"/><path d="M190.3476,216.5828 C189.7076,221.5128 192.6796,225.9178 196.9856,226.4208 C205.3446,227.3048 213.7446,227.9628 222.1936,228.2618 C226.5626,228.4308 230.1216,224.3948 230.1206,219.4218 C230.1196,214.4538 226.8666,210.4308 222.8156,210.2718 C214.8906,209.9918 206.9106,209.3698 198.9206,208.5258 C194.8256,208.0458 190.9866,211.6538 190.3476,216.5828" id="Fill-7" fill="#dcb284"/><path d="M221.0556,194.2058 C220.8186,199.1818 223.8556,203.3078 227.8376,203.4108 C235.5076,203.5398 243.0696,203.2978 250.3106,202.5198 C252.1596,202.2888 254.1506,199.8348 255.4346,197.3148 C256.0946,196.0728 256.6186,194.8538 256.9756,193.9468 C257.3386,193.0458 257.5086,192.4268 257.5086,192.4268 C255.5256,192.7628 254.4736,190.6248 253.1206,188.5688 C252.4516,187.5508 251.6566,186.5028 250.6036,185.7738 C250.0776,185.4108 249.4886,185.1278 248.8086,184.9618 C248.1406,184.8068 247.3546,184.7408 246.4236,184.8078 C240.6506,185.3228 234.4896,185.5198 228.1226,185.4128 C224.4746,185.3158 221.3016,189.2528 221.0556,194.2058" id="SKIN-DARKER" fill="#dcb284"/><path d="M198.8603,201.4705 C198.3003,206.4305 201.2043,210.7685 205.3503,211.1665 C219.1783,212.4045 233.0133,212.8915 246.4523,211.8995 C248.4443,211.7155 250.1863,210.6145 251.2663,208.8145 C252.3633,207.0435 252.8483,204.7215 252.5423,202.2545 C251.8823,197.3215 248.6363,193.6985 245.0913,193.9495 C233.0723,194.8435 220.0993,194.4205 206.9693,193.2415 C203.0583,192.8625 199.4253,196.5535 198.8603,201.4705" id="SKIN-DARKER" fill="#dcb284"/><path d="M269.8896,149.5555 L45.4086,149.5555 L45.4086,42.4935 C45.4086,33.6935 48.0836,25.5175 52.6656,18.7355 C60.3016,7.4315 73.2346,-0.0005 87.9026,-0.0005 L217.3956,-0.0005 C240.8646,-0.0005 259.8896,19.0255 259.8896,42.4935 L269.8896,149.5555 Z" id="Fill-13" fill="#0A1B45"/><path d="M247.4082,12.0555 C248.236627,12.0555 248.9082,12.7270729 248.9082,13.5555 C248.9082,14.3351961 248.313312,14.9759487 247.55266,15.0486334 L247.4082,15.0555 L57.9082,15.0555 C57.0797729,15.0555 56.4082,14.3839271 56.4082,13.5555 C56.4082,12.7758039 57.0030881,12.1350513 57.76374,12.0623666 L57.9082,12.0555 L247.4082,12.0555 Z" id="Stroke-16" fill="#FFF" fill-rule="nonzero"/><path d="M258.4082,42.0555 C259.236627,42.0555 259.9082,42.7270729 259.9082,43.5555 C259.9082,44.3351961 259.313312,44.9759487 258.55266,45.0486334 L258.4082,45.0555 L46.9082,45.0555 C46.0797729,45.0555 45.4082,44.3839271 45.4082,43.5555 C45.4082,42.7758039 46.0030881,42.1350513 46.76374,42.0623666 L46.9082,42.0555 L258.4082,42.0555 Z" id="Stroke-18" fill="#FFF" fill-rule="nonzero"/><path d="M262.499614,72 C263.328041,71.9997868 264,72.6711868 264,73.4996139 C264,74.2793099 263.405478,74.9202156 262.644844,74.9930962 L262.500386,75 L46.9085861,75.0555 C46.080159,75.0557132 45.4082,74.3843132 45.4082,73.5558861 C45.4082,72.7761901 46.0027224,72.1352844 46.7633556,72.0624038 L46.9078139,72.0555 L262.499614,72 Z" id="Stroke-20" fill="#FFF" fill-rule="nonzero"/><path d="M264.499617,102 C265.328045,101.999789 266,102.67119 266,103.499617 C266,104.279313 265.405474,104.920218 264.644841,104.993097 L264.500383,105 L46.9085826,105.0555 C46.0801555,105.055711 45.4082,104.38431 45.4082,103.555883 C45.4082,102.776187 46.0027258,102.135282 46.7633591,102.062403 L46.9078174,102.0555 L264.499617,102 Z" id="Stroke-22" fill="#FFF" fill-rule="nonzero"/><path d="M267.499623,132 C268.32805,131.999792 269,132.671196 269,133.499623 C269,134.279319 268.405469,134.920221 267.644836,134.993097 L267.500377,135 L46.9085774,135.0555 C46.0801503,135.055708 45.4082,134.384304 45.4082,133.555877 C45.4082,132.776181 46.0027307,132.135279 46.7633643,132.062403 L46.9078226,132.0555 L267.499623,132 Z" id="Stroke-24" fill="#FFF" fill-rule="nonzero"/><path d="M204.2607,227.3211 C204.7357,236.4361 201.3537,244.8441 195.1017,251.0201 C188.8767,257.1511 179.7397,260.9221 169.5817,260.5301 C154.0057,259.9071 138.2207,258.3561 122.2147,255.2491 C116.3797,254.1631 110.4967,252.7451 104.6127,251.2061 C98.7127,249.5511 92.8097,247.7981 86.8787,245.5741 C83.9227,244.5481 80.9497,243.2741 77.9937,242.0891 C75.0287,240.7621 72.0737,239.5091 69.1177,238.0021 C66.1657,236.5951 63.2207,234.9541 60.2897,233.3411 C57.3637,231.5991 54.4437,229.8951 51.5617,227.9171 C40.0427,220.2811 28.8267,210.2661 19.7367,197.5851 C15.2097,191.2601 11.2247,184.3021 8.1657,176.9011 C5.0847,169.5141 2.8757,161.7571 1.5657,154.0031 C0.2567,146.2501 -0.2143,138.4911 0.0877,131.0261 C0.3977,123.5641 1.3807,116.3731 2.8077,109.4791 C4.2767,102.6161 6.2287,96.1061 8.4337,89.8301 L10.1917,85.2311 L11.0827,82.9381 L12.0377,80.7191 L13.9667,76.2901 L16.0187,72.0071 C21.5407,60.6191 27.9177,50.2821 34.7037,40.5991 C41.4957,30.9171 48.7217,21.8971 56.2107,13.3421 C62.6267,5.9541 71.4117,2.2491 79.9307,2.0521 C88.5287,1.9281 96.8737,5.2961 103.2007,11.8501 C109.5317,18.4071 112.7557,26.8111 113.1137,34.8701 C113.5357,43.0091 111.0917,50.7881 105.8577,56.8311 C99.6977,63.8651 93.9377,71.0851 88.7657,78.4581 C83.5937,85.8251 78.9977,93.3561 75.3557,100.9051 L73.9917,103.7311 L72.7717,106.5551 L72.1547,107.9641 L71.6187,109.3701 L70.5357,112.1731 C69.2467,115.8971 68.1457,119.5811 67.3727,123.1651 C66.6497,126.7391 66.1917,130.2121 66.0397,133.5321 C65.8987,136.8501 66.1407,139.9781 66.6337,142.9541 C67.6517,148.8991 69.8057,154.2001 73.4277,159.2041 C77.0167,164.1961 81.9907,168.9301 88.2317,173.0421 C89.7407,174.1021 91.4257,175.0501 93.0527,176.0481 C94.7787,176.9691 96.4547,177.9421 98.2817,178.7941 C100.0347,179.7121 101.9457,180.4901 103.7887,181.3391 C105.7257,182.0891 107.5907,182.9281 109.6007,183.6081 C113.5157,185.0941 117.6677,186.3081 121.8397,187.4951 C126.0747,188.5861 130.3497,189.6411 134.7647,190.4521 C146.7917,192.7981 159.3857,194.0731 172.1597,194.5811 C180.4637,194.8991 188.0327,198.5401 193.8867,204.3671 C199.7077,210.1531 203.7897,218.2371 204.2607,227.3211" id="SKIN" fill="#ffdbb4"/><path d="M225.6572,249.8123 C226.1402,254.7603 222.1862,259.2083 216.7802,259.5923 C193.3092,261.2973 169.3902,261.4423 144.9302,258.6903 C142.1242,258.3753 139.7032,257.0773 138.0902,255.1863 C136.4772,253.3173 135.6882,250.9323 136.0512,248.4743 C136.8032,243.5343 141.6822,240.2493 146.9382,240.8013 C169.9972,243.4023 192.8812,243.2843 215.4522,241.6423 C220.6172,241.2763 225.1732,244.8663 225.6572,249.8123" id="SKIN" fill="#ffdbb4"/><path d="M235.3857,232.6941 C235.9807,237.6081 232.2817,242.1511 227.0837,242.6451 C217.0167,243.6381 206.8887,244.3461 196.6937,244.6411 C191.4257,244.7621 187.1417,240.8111 187.126681,235.8181 C187.1167,230.8711 191.1547,226.7621 196.1477,226.6501 C205.8977,226.3681 215.6247,225.6881 225.3177,224.7311 C230.2857,224.2611 234.7837,227.7401 235.3857,232.6941" id="SKIN" fill="#ffdbb4"/><path d="M235.4834,216.5808 C236.1024,221.5088 232.5444,225.9828 227.5284,226.5298 C217.7994,227.5378 208.0284,228.2218 198.2344,228.5708 C193.1784,228.7698 189.0384,224.7428 189.001121,219.7958 C188.9634,214.8028 192.8074,210.7718 197.5984,210.5828 C206.9554,210.2478 216.3254,209.5948 225.6824,208.6248 C230.4764,208.1008 234.8634,211.6448 235.4834,216.5808" id="SKIN" fill="#ffdbb4"/><path d="M199.8174,194.4851 C199.9244,196.9671 199.0814,199.2511 197.6014,200.9381 C196.1234,202.6371 194.0114,203.7141 191.6544,203.7431 C182.4834,203.9261 173.3484,203.7641 164.3064,203.1851 C163.1444,203.1071 161.9004,202.4611 160.7024,201.5361 C159.5054,200.6001 158.3664,199.3521 157.3794,198.1371 C156.3934,196.9191 155.5654,195.7151 154.9844,194.8171 C154.4014,193.9231 154.0744,193.3071 154.0744,193.3071 C156.7614,193.5791 157.8814,191.3981 159.5054,189.2941 C161.1294,187.2031 163.2744,185.0781 168.0904,185.3931 C175.7244,185.8131 183.4824,185.9011 191.2964,185.7471 C193.5324,185.7201 195.5914,186.6611 197.1404,188.2191 C198.6834,189.7891 199.7104,192.0021 199.8174,194.4851" id="SKIN" fill="#ffdbb4"/><path d="M225.918,201.5633 C226.456,206.5183 222.959,210.8943 218.106,211.3503 C201.893,212.6963 185.638,213.2353 169.523,212.4813 C168.322,212.4263 167.189,212.1293 166.177,211.6223 C165.167,211.0983 164.276,210.3773 163.552,209.5123 C162.101,207.7843 161.317,205.4763 161.502,202.9993 L161.502,202.9983 C161.688,200.5203 162.788,198.3373 164.381,196.8113 C165.179,196.0493 166.102,195.4513 167.105,195.0633 C168.112,194.6573 169.204,194.4483 170.337,194.5003 C185.528,195.2123 201.034,194.7043 216.574,193.4153 C221.196,192.9793 225.38,196.6353 225.918,201.5633" id="SKIN" fill="#ffdbb4"/><path d="M201.4082,-0.0002 C201.4082,16.5558 193.4082,37.5558 166.9082,37.5558 C135.4082,37.5558 122.4082,19.6368 122.4082,-0.0002 L201.4082,-0.0002 Z" id="SKIN" fill="#ffdbb4"/></g></g></g><g id="Head" transform="translate(362.000000, -61.000000) scale(1 1)"><g id="Head/Short Wavy" stroke="none" stroke-width="1" fill="none" fill-rule="evenodd"><g id="Group-29" transform="translate(-21.000000, 61.000000)"><path d="M56.5,125.9999 L45.275,125.9999 C20.27,125.9999 0,105.7299 0,80.7249 C0,76.4579 3.459,72.9999 7.725,72.9999 L56.5,72.9999 C57.328,72.9999 58,73.6709 58,74.4999 L58,124.4999 C58,125.3289 57.328,125.9999 56.5,125.9999" id="Fill-1" fill="#000"/><path d="M55,97.9999 L49.172,97.9999 C28.642,97.9999 12,81.3569 12,60.8279 C12,56.8919 15.191,53.6999 19.128,53.6999 L55,53.6999 L55,97.9999 Z" id="Fill-3" fill="#000"/><path d="M100.5,125.9999 L111.725,125.9999 C136.73,125.9999 157,105.7299 157,80.7249 C157,76.4579 153.541,72.9999 149.275,72.9999 L100.5,72.9999 C99.672,72.9999 99,73.6709 99,74.4999 L99,124.4999 C99,125.3289 99.672,125.9999 100.5,125.9999" id="Fill-5" fill="#000"/><path d="M106,97.9999 L111.828,97.9999 C132.358,97.9999 149,81.3569 149,60.8279 C149,56.8919 145.809,53.6999 141.872,53.6999 L106,53.6999 L106,97.9999 Z" id="Fill-7" fill="#000"/><path d="M77.8008,104.9999 L81.9998,104.9999 L81.9998,-0.0001 L77.8008,-0.0001 C49.7448,-0.0001 26.9998,22.7439 26.9998,50.8009 L26.9998,54.1989 C26.9998,82.2559 49.7448,104.9999 77.8008,104.9999" id="Fill-9" fill="#000"/><path d="M87.8286,104.9999 L81.8706,104.9999 C73.6576,104.9999 66.9996,98.3419 66.9996,90.1299 L66.9996,14.8699 C66.9996,6.6579 73.6576,-0.0001 81.8706,-0.0001 L87.8286,-0.0001 C114.9846,-0.0001 136.9996,22.0149 136.9996,49.1709 L136.9996,55.8289 C136.9996,82.9849 114.9846,104.9999 87.8286,104.9999" id="Fill-12" fill="#000"/><path d="M89.1992,74.9999 L80.0002,74.9999 L80.0002,-0.0001 L89.1992,-0.0001 C117.2552,-0.0001 140.0002,12.7439 140.0002,40.8009 L140.0002,54.1989 C140.0002,74.9999 117.2552,74.9999 89.1992,74.9999" id="Fill-15" fill="#000"/><path d="M56,72.9999 L101,72.9999 L101,124.6329 C101,138.5379 90.927,149.8099 78.5,149.8099 C66.073,149.8099 56,138.5379 56,124.6329 L56,72.9999 Z" id="SKIN" fill="#ffdbb4"/><path d="M103.0525,104.9999 L98.0655,104.9999 C74.8335,104.9999 56.0005,86.1669 56.0005,62.9349 L56.0005,43.2029 C56.0005,25.4179 70.4175,10.9999 88.2035,10.9999 L93.7965,10.9999 C111.5825,10.9999 126.0005,25.4179 126.0005,43.2029 L126.0005,82.0519 C126.0005,94.7259 115.7265,104.9999 103.0525,104.9999" id="SKIN" fill="#ffdbb4"/><path d="M77.7507501,107.331676 C68.4557924,104.043569 63.8185822,95.7386742 61.9822222,84.5680961 C69.2532122,96.6701724 82.4406226,104.813226 97.5439426,104.996733 L98.0655,104.9999 L101,104.9999 C93.0632106,109.229739 85.3134606,110.006998 77.7507501,107.331676 Z" id="SHADOW" fill="#000" opacity=".12"/><path d="M68,69.4999 C68,76.4029 62.404,81.9999 55.5,81.9999 C48.596,81.9999 43,76.4029 43,69.4999 C43,62.5969 48.596,56.9999 55.5,56.9999 C62.404,56.9999 68,62.5969 68,69.4999" id="SKIN" fill="#ffdbb4"/><path d="M53.0669,64.1684 C53.9717309,64.1684 55.2238875,64.3770928 56.5087204,65.0195092 C58.6552998,66.0927989 60.0129325,68.055228 60.10401,70.9020045 L60.1089,71.2104 L57.1089,71.2104 C57.1089,69.3750144 56.4075866,68.3230443 55.1670796,67.7027908 C54.7064142,67.4724581 54.1975823,67.3198085 53.686239,67.2345846 C53.4346302,67.1926498 53.2384731,67.1746448 53.1249097,67.169808 L53.0669,67.1684 L53.0669,64.1684 Z" id="Stroke-24" fill="#000" fill-rule="nonzero"/><path d="M54,56.9999 L52.464,56.9999 C46.61,51.3079 44.361,39.7079 43.683,28.4489 C42.754,13.0199 69.542,-0.0001 84.999,-0.0001 L84.999,-0.0001 C96.89,-0.0001 108.025,5.8309 114.797,15.6049 L122,25.9999 L80.697,25.9999 C80.697,42.9999 66,56.9999 54,56.9999" id="Fill-26" fill="#000"/></g></g></g><g id="Expression" transform="translate(409.000000, 34.000000) scale(1 1)" fill="#000"><g id="Expression/Awkward" stroke="none" stroke-width="1" fill="none" fill-rule="evenodd"><polygon id="Stroke-5" fill="#000" fill-rule="nonzero" points="33.1977829 19.396766 36.1476171 18.850434 40.4350211 41.9996 30.5607 41.9996 30.5607 38.9996 36.828 38.999"/><g id="Group-15" transform="translate(9.000000, 6.500000)"><path d="M33.0607,51.9865 L19.0077,51.9865 C14.0667,51.9865 10.0607,47.9805 10.0607,43.0385 L10.0607,41.9865 L33.0607,41.9865 L33.0607,51.9865 Z" id="Fill-1" fill="#FFF"/><path d="M34.5607,40.4865 L8.5607,40.4865 L8.5607,43.0385 C8.5607,48.8087466 13.2380923,53.4865 19.0077,53.4865 L34.5607,53.4865 L34.5607,40.4865 Z M31.56,50.486 L19.0077,50.4865 L18.7618924,50.482519 C15.0095669,50.3608054 11.9586846,47.4626121 11.59667,43.7751869 L11.574,43.486 L31.56,43.486 L31.56,50.486 Z" id="Stroke-3" fill="#000" fill-rule="nonzero"/><path d="M30.4134207,3.33831266 C31.825204,6.28460361 38.0669731,9.08597064 41.2092119,7.72921901 L41.3869997,7.64630304 L42.7344003,10.326697 C38.1172151,12.6476985 30.0909095,9.172101 27.8152217,4.84800985 L27.7079793,4.63468734 L30.4134207,3.33831266 Z" id="Stroke-5" fill="#000" fill-rule="nonzero"/><path d="M37.5607,15.4865 C37.5607,13.8295 36.2177,12.4865 34.5607,12.4865 C32.9037,12.4865 31.5607,13.8295 31.5607,15.4865 C31.5607,17.1435 32.9037,18.4865 34.5607,18.4865 C36.2177,18.4865 37.5607,17.1435 37.5607,15.4865" id="Fill-9" fill="#000"/><path d="M14.5607,15.4865 C14.5607,13.8295 13.2177,12.4865 11.5607,12.4865 C9.9037,12.4865 8.5607,13.8295 8.5607,15.4865 C8.5607,17.1435 9.9037,18.4865 11.5607,18.4865 C13.2177,18.4865 14.5607,17.1435 14.5607,15.4865" id="Fill-11" fill="#000"/><path d="M14.0607,0.0002 L14.0607,3.0002 C10.8342736,3.0002 7.89139387,3.86575287 5.2891644,5.31143591 C4.37835315,5.81744216 3.57765326,6.3584556 2.89641643,6.89627415 L2.50720319,7.21376583 C2.3601559,7.33818993 2.247969,7.43915159 2.17175673,7.5117787 L2.12136017,7.56086017 L3.98282209e-05,5.43953983 C0.717192882,4.72238677 2.01184841,3.7002903 3.8322356,2.68896409 C6.72358133,1.08266091 9.98945494,0.0892443055 13.5704367,0.00589674319 L14.0607,0.0002 Z" id="Stroke-13" fill="#000" fill-rule="nonzero"/></g></g></g><g id="Accessories" transform="translate(396.000000, 56.000000) scale(1 1)" fill="#000"><g id="Accessories/None" stroke="none" stroke-width="1" fill="none" fill-rule="evenodd" fill-opacity="0"/></g><g id="Glasses" transform="translate(388.000000, 42.000000) scale(1 1)" fill="#000"><g id="Glasses/None" stroke="none" stroke-width="1" fill="none" fill-rule="evenodd" fill-opacity="0"/></g></g></g><g id="Desk" transform="translate(171.000000, 207.000000)"><rect id="Rectangle" fill="#BE6FFB" x="290" y="0" width="257" height="217"/><rect id="Rectangle" fill="#CCA4FF" x="290" y="0" width="26" height="217"/><g id="keyboard" transform="translate(185.000000, 258.000000)"><rect id="Rectangle" fill="#C67BFF" x="0" y="0" width="203" height="15"/><rect id="Rectangle" fill="#F2E7FF" x="0" y="0" width="68" height="15"/></g><rect id="Rectangle" fill="#BE6FFB" x="56" y="272" width="520" height="38"/><rect id="Rectangle" fill="#CCA4FF" x="56" y="272" width="174" height="38"/><rect id="Rectangle" fill="#E4CEFF" x="56" y="272" width="257" height="38"/><polygon id="Rectangle" fill="#CCA4FF" points="72 310 106 310 18 700 -6.36626862e-12 700"/><polygon id="Rectangle" fill="#CCA4FF" transform="translate(330.000000, 505.000000) scale(-1, 1) translate(-330.000000, -505.000000)" points="349 310 383 310 295 700 277 700"/><polygon id="Rectangle" fill="#CCA4FF" transform="translate(584.000000, 505.000000) scale(-1, 1) translate(-584.000000, -505.000000)" points="603 310 637 310 549 700 531 700"/><rect id="Rectangle" fill="#870CF7" x="425" y="83" width="63" height="189"/><rect id="Rectangle" fill="#CCA4FF" x="425" y="83" width="18" height="189"/></g></g></svg>