<svg viewBox="164.25 224.43965517241395 1861.5000000000005 930.6034482758622" xmlns="http://www.w3.org/2000/svg" overflow="visible" xmlns:xlink="http://www.w3.org/1999/xlink" width="1861.5000000000005px" height="930.6034482758622px"><g id="Master/Scene/Peaceful Place" stroke="none" stroke-width="1" fill="none" fill-rule="evenodd"><g id="Background" opacity=".754" transform="translate(250.500000, 148.000000) scale(0.8802083333333334 0.8796296296296297)"><g id="Background/Rocks" stroke="none" stroke-width="1" fill="none" fill-rule="evenodd"><path d="M1259.24026,889.164029 C1260.25345,894.677537 1266.56217,902.297825 1259.24122,905.49541 C1240.82984,916.764188 1218.60289,918.726103 1197.44291,919.507991 C1184.72272,916.344943 1110.34733,918.359623 1111.7514,906.598688 C1115.1857,856.049403 1153.53834,817.29751 1195.31184,792.99567 C1212.49105,785.240111 1254.18387,872.307872 1259.24026,889.164029 Z M1191.02546,780.880242 C1194.76635,784.435056 1194.73761,784.726121 1190.25908,787.420145 C1173.11327,797.73149 1157.14959,809.541106 1143.2034,823.937863 C1121.33382,846.128489 1106.74483,874.075528 1104.44761,905.414193 C1103.95329,908.947057 1102.843,909.87274 1099.73438,909.388904 C1087.32861,906.210089 991.999667,896.131596 1000.23537,882.377091 C1012.97451,777.886564 1096.08066,688.975186 1191.02546,780.880242 Z M1325.73178,768.5977 C1314.03294,812.029513 1304.82584,859.557531 1272.88821,893.347392 C1267.30163,901.096141 1261.02115,867.65528 1257.20469,863.648955 C1245.63202,837.394618 1230.4178,813.372923 1211.8889,791.457656 C1207.40913,786.160511 1207.41869,786.105053 1213.71828,783.193535 C1237.41034,771.248185 1304.2323,755.160734 1325.73178,768.5977 Z M1235.84469,207.988261 C1233.0445,233.053919 1242.0845,253.393096 1261.196,269.552112 C1292.17453,297.243167 1337.12146,295.055974 1368.97044,270.292658 C1373.01112,267.915066 1373.02742,267.676828 1376.16314,271.067648 C1391.83599,288.009307 1409.42612,302.894852 1426.80631,317.990888 C1430.37438,321.088934 1432.01941,324.226208 1432.02517,329.012966 C1434.1639,364.538116 1431.17006,399.7858 1426.76797,435.021046 C1424.26975,472.976411 1418.76234,510.366321 1407.24713,546.762138 C1393.21739,588.465201 1370.27132,626.422479 1357.37374,668.586709 C1347.51889,696.431805 1337.19623,724.11712 1330.00545,752.794613 C1328.79756,763.999435 1314.15717,756.670519 1307.50227,757.676092 C1271.61261,757.101069 1238.2365,763.571756 1206.72784,778.838098 C1201.56267,781.340071 1201.5157,781.32859 1197.28329,777.224014 C1097.8289,679.55999 1006.76935,769.473159 992.872866,881.624709 C991.778096,886.891769 991.403267,887.233339 986.424077,885.737895 C968.353662,880.308183 950.312007,874.778966 932.291441,869.184687 C927.972756,867.844242 927.748434,867.60122 928.755967,863.007732 C943.923612,779.915429 901.63309,701.4214 859.731776,634.908139 C869.859836,516.984351 981.001035,492.52242 1080.80628,507.272102 C1084.47309,507.631851 1085.70782,510.372061 1086.89846,513.383997 C1112.00243,574.59671 1138.24432,641.050651 1190.30245,684.501746 C1296.31683,755.503251 1349.59531,621.776368 1209.92683,545.886687 C1174.17712,525.420259 1136.06341,510.973875 1095.64703,502.808735 C1091.5613,501.983036 1089.6373,500.178554 1088.36902,496.536101 C1070.68973,445.484366 1055.00058,377.888989 1099.76057,336.138088 C1102.39779,333.731792 1103.10719,333.842779 1104.70525,337.112087 C1151.10259,421.871096 1246.84895,491.185801 1345.81922,489.802301 C1467.40867,472.158367 1413.37381,372.306192 1333.03764,337.674673 C1265.59041,308.302559 1180.74862,280.482339 1111.4445,318.217645 C1099.41162,331.026026 1090.90367,264.085085 1089.28835,255.810873 C1090.06198,248.943124 1082.21645,231.109747 1092.04541,230.996848 C1138.39483,221.396542 1186.60784,220.513436 1231.26621,204.091306 C1235.39796,202.793916 1236.34798,203.480882 1235.84469,207.988261 Z M859.14704,650.507991 C904.913471,708.623799 932.880991,785.502317 922.610427,859.677172 C923.974321,871.818256 889.950074,851.259494 882.959396,850.809044 C870.574701,844.128956 869.0194,775.06432 865.428839,757.760304 C862.397108,721.956182 857.231048,686.562257 859.14704,650.507991 Z M739.254911,561.508887 C779.627571,579.878728 817.161783,604.925994 847.642039,637.243043 C855.091767,645.431939 850.180543,657.850476 851.573893,667.926325 C852.290692,725.004969 860.65271,781.777879 868.344886,838.263208 C871.803346,851.169964 851.088041,836.223388 845.473434,835.981667 C789.155825,816.122327 729.841651,799.516189 685.87158,756.867238 C671.370771,742.878948 642.579018,729.139067 660.347588,706.131621 C677.987747,680.071612 689.562904,650.709674 701.619121,621.833089 C709.605491,602.506873 718.093045,583.422378 728.524006,565.259862 C732.326491,558.408552 732.335116,558.388488 739.254911,561.508887 Z M1093.73178,509.507991 C1161.15722,524.593912 1230.36044,552.493831 1272.27132,609.261341 C1310.06993,657.211756 1273.93006,719.244087 1213.90172,689.951945 C1148.75799,653.344895 1120.71981,575.166221 1093.73178,509.507991 Z M1098.91572,320.57664 C1100.32406,324.113712 1100.03337,326.404378 1097.06606,329.076343 C1050.24721,370.369651 1063.08925,438.613495 1080.17455,491.196309 C1081.07348,494.505369 1084.70754,500.919426 1078.25583,499.230407 C982.151599,483.769607 866.150177,513.262773 854.787477,625.701819 C854.609036,627.817164 854.161013,632.202099 851.161084,629.816587 C820.150622,598.149635 783.869418,573.877769 743.733492,555.369454 C736.512364,552.012493 736.272523,551.952136 740.542649,545.590771 C765.548456,509.685464 788.536721,472.277954 815.032418,437.456186 C817.81841,433.98905 818.100462,433.975638 822.38402,435.685734 C899.537941,467.279875 1013.6734,425.400249 1018.34358,333.537921 C1022.31151,299.911783 983.072588,264.234488 996.437479,263.181606 C1119.19666,216.950576 1061.42379,220.250055 1098.91572,320.57664 Z M1185.94323,306.527457 C1261.01721,312.479732 1344.18608,334.350923 1394.70387,393.426458 C1434.26411,438.907987 1394.29328,481.03545 1343.1759,482.507991 C1247.70255,481.800865 1155.90922,414.902997 1111.41032,333.024586 C1103.03721,317.035911 1174.70746,305.979913 1185.94323,306.527457 Z M986.927572,271.861662 C1054.47849,356.83071 965.954516,441.511997 874.959507,439.471853 C864.619973,439.116214 825.793399,435.957527 824.731776,426.024491 C840.522575,410.149797 857.15883,395.073378 873.414629,379.664266 C891.741795,362.623229 908.555787,344.433057 919.903142,321.852846 C926.994398,307.740095 937.245544,296.487753 950.888118,288.363504 C959.287908,285.652235 980.781688,265.113124 986.927572,271.861662 Z M1401.60747,243.630978 C1418.53909,262.196633 1430.73806,285.882887 1431.73178,311.507991 C1414.79633,298.032174 1400.33847,282.592516 1384.19819,268.240997 C1381.44915,265.090968 1377.12129,262.444637 1381.81076,258.977394 C1386.98943,255.908111 1396.24848,237.884602 1401.60747,243.630978 Z M1313.7295,186.507991 C1313.75816,186.719358 1313.78777,186.928804 1313.81642,187.140171 C1350.1192,183.020429 1337.12773,221.110747 1357.55532,246.32495 C1359.31191,251.722503 1370.56399,258.394986 1365.37638,263.609034 C1350.05807,274.439689 1333.81992,283.429527 1314.45449,282.432257 C1274.22972,281.760686 1235.16072,245.708141 1243.99236,203.436594 C1245.5732,196.354827 1255.54915,198.823982 1260.87145,196.478765 C1278.38955,192.46855 1295.73094,187.680119 1313.7295,186.507991 Z M1346.73178,198.507991 C1351.11198,199.371185 1354.29888,201.46002 1356.43236,204.27947 C1363.95854,214.222896 1374.52318,220.61721 1383.74701,228.568135 C1386.88823,232.047619 1395.445,235.544271 1389.91241,240.507877 C1385.15252,243.910102 1375.83829,262.02669 1370.76247,253.025625 C1358.75235,236.850031 1349.55517,218.671446 1346.73178,198.507991 Z" id="Combined-Shape" fill="#F55B80"/><path d="M544.913881,852.512799 C536.977727,852.242687 536.497138,863.443061 544.549228,863.503519 C552.566637,863.762904 552.889672,852.652243 544.913881,852.512799 M580.799842,872.497542 C588.925257,872.899253 588.536166,861.584408 580.656835,861.511549 C572.82022,861.278202 572.64564,872.600924 580.799842,872.497542 M571.7023,860.170212 C571.539655,851.185726 559.840538,853.676559 560.78615,862.156417 C561.203165,870.734159 572.378413,868.210064 571.7023,860.170212 M504.729802,853.9785 C504.906512,846.563978 493.162911,844.537161 492.771489,853.157683 C491.937343,861.416308 504.51794,861.545349 504.729802,853.9785 M607.722278,864.417114 C608.102803,855.91439 596.924757,857.038064 596.742325,864.908601 C596.33508,873.921121 607.854955,873.650322 607.722278,864.417114 M531.726924,855.776713 C532.00955,849.397829 519.85568,844.624196 518.761706,852.973373 C518.031109,859.954109 530.91077,864.355212 531.726924,855.776713 M629.655924,872.757246 C630.85813,863.442333 617.366401,863.032962 617.739372,871.94245 C617.431185,881.918276 629.786418,884.410999 629.655924,872.757246 M735.319645,945.261868 C637.899812,936.699669 536.032925,956.032373 441.294178,929.122333 C413.916402,921.897143 438.71573,862.07627 446.183443,844.228495 C457.648324,817.775576 478.284534,795.403348 488.061146,769.0764 C506.021066,745.345215 530.304321,773.122736 552.787075,773.989263 C594.308899,788.07032 628.423443,819.348303 667.103028,839.858643 C697.290427,859.185622 738.912972,872.533758 757.840769,904.143846 C760.090196,915.370518 762.17751,926.643953 759.403377,938.144516 C758.269551,949.961916 743.428132,943.622339 735.321563,945.134943 C735.320604,945.176933 735.320604,945.218923 735.319645,945.261868" id="Fill-5" fill="#52DC82"/><path d="M1529.79795,766.538876 C1570.21747,804.455174 1603.98551,853.001906 1602.69603,910.618703 C1600.53283,917.070911 1605.05848,932.032829 1595.77534,933.851823 C1579.5351,935.574072 1562.98735,933.361394 1546.64365,933.362352 C1542.37762,933.216756 1540.93197,931.77612 1541.64282,928.259782 C1545.50361,902.01991 1535.40328,876.27813 1531.36813,850.583286 C1524.85843,820.644123 1502.8318,796.222288 1478.29805,778.955735 C1467.72925,774.776552 1493.016,758.026291 1496.19373,752.369115 C1506.89857,742.478157 1520.69491,760.963118 1529.79795,766.538876 Z M1659.46577,678.083835 C1748.50734,712.658563 1792.24624,776.660118 1748.74939,868.941651 C1724.76196,917.495676 1663.68732,926.561415 1615.06505,932.317653 C1611.75985,932.76434 1611.71567,932.667733 1611.88857,929.28745 C1622.66481,852.647616 1572.52585,780.433523 1510.73178,739.441614 C1542.10764,716.75431 1578.94703,703.80708 1613.44463,686.758364 C1627.41945,679.30529 1643.51897,673.621747 1659.46577,678.083835 Z M1472.24172,787.869216 C1516.50156,815.116909 1525.56589,866.781716 1530.73178,914.512707 C1529.54024,919.026464 1532.45374,931.433776 1524.15142,929.253231 C1493.77875,923.664083 1464.14023,909.689775 1442.51768,887.35815 C1409.39583,853.323978 1430.38706,812.674238 1461.48618,786.432803 C1464.96374,782.370325 1468.80548,785.663707 1472.24172,787.869216 Z" id="Combined-Shape" fill="#EBBF5E"/><path d="M162,660.062488 C211.726087,650.857882 259.355169,645.857826 307.886796,632.932516 C325.825706,628.444201 344.125442,626.099042 362.366795,623.370077 C372.931255,623.461459 385.631961,615.644903 395.148398,620.707484 C405.954047,633.810749 425.153456,643.274111 427.885017,661.172543 C429.93321,709.678285 404.533712,744.852788 358.435988,759.289273 C337.200829,768.825741 316.268114,758.087836 297.329993,748.371489 C248.007802,725.608631 200.933837,698.647957 162,660.062488" id="Fill-14" fill="#EBBF5E"/><path d="M462.35915,205.353804 C474.209569,283.098673 479.40089,361.679765 492.228871,439.308598 C491.843974,451.834698 505.663879,502.293919 496.704973,506.570937 C476.781293,514.044211 457.852409,524.636063 436.964573,529.124055 C432.959539,530.063848 432.055701,529.47408 431.200694,525.140483 C421.942105,483.406954 416.52291,441.035708 411.85053,398.575278 C408.035072,343.509152 401.782891,288.705785 395.731776,233.871731 C397.516472,224.2868 415.29258,222.368855 422.774133,216.804896 C429.521318,215.737559 464.092143,192.547684 462.35915,205.353804 Z M377.361443,244.30417 C380.735482,273.216981 384.813916,302.056037 387.171448,331.078043 C391.686074,396.602892 398.12395,462.087511 411.731776,526.410254 C409.531731,535.764652 367.67361,510.983064 360.273632,507.897817 C341.531731,465.728312 342.633185,413.672801 335.529092,367.569391 C332.504389,335.737043 330.800666,303.733238 326.731776,272.007211 C327.404675,260.937297 363.102671,249.455506 372.854453,241.374096 C375.991784,239.632718 376.904254,240.471797 377.361443,244.30417 Z M555.463395,259.904423 C562.545843,327.051895 572.165374,393.849163 582.731776,460.525868 C566.544277,474.422111 545.190981,482.08643 526.698345,492.738972 C516.067036,500.040648 519.255092,482.775358 517.17522,476.583621 C502.960688,383.599452 494.552428,289.887124 481.056641,196.835019 C480.422848,192.463199 480.295898,192.314889 484.720997,190.582044 C503.787292,183.181814 522.919448,175.952859 541.918928,168.383268 C551.207244,157.531702 552.028121,250.997164 555.463395,259.904423 Z M307.908241,278.507991 C318.608743,349.94496 316.968771,423.074993 334.731776,493.507991 C317.397672,485.524078 301.527384,475.276686 285.572847,464.893389 C269.649903,440.182692 276.418495,404.91164 270.672372,376.15922 C267.676768,297.626503 246.491173,316.38037 307.908241,278.507991 Z M621.232022,145.357588 C625.862326,176.798446 628.421481,208.446868 631.002732,240.101029 C635.954851,298.896485 642.370993,357.604897 651.328998,415.936439 C652.096552,421.046176 652.188774,421.090176 647.690078,423.714871 C632.132449,432.792258 617.30587,441.301473 601.652176,450.507991 C585.087792,355.328376 572.860715,258.592501 565.731776,162.06993 C567.684765,153.875411 593.077468,151.078543 601.092121,146.405936 C606.727258,145.771762 619.924585,136.413157 621.232022,145.357588 Z M248.245088,334.973241 C251.249482,370.318831 255.61503,404.973663 256.731776,440.507991 C235.804385,420.02761 181.676992,384.28251 200.727361,351.749774 C203.271918,348.996319 207.817151,351.724865 209.695139,348.074668 C220.120676,337.718074 232.01653,329.100353 244.000295,320.667536 C249.688356,318.962195 246.727434,331.411186 248.245088,334.973241 Z M703.704607,127.42112 C708.692282,193.87935 706.669089,260.67412 709.273891,327.255684 C709.172492,327.257596 709.071093,327.260464 708.969694,327.262376 C705.833983,380.466438 724.269441,378.896551 673.005629,408.351531 C666.051199,410.143229 668.727745,396.044841 666.789688,391.703272 C660.163369,342.162917 654.313804,292.513569 650.283678,242.69117 C647.074309,208.844904 645.770473,174.777783 639.986912,141.235552 C639.351735,136.992459 639.662627,136.02586 643.731974,135.096548 C652.399662,135.307842 706.690134,115.27314 703.704607,127.42112 Z M723.731776,133.507991 C751.416292,159.068824 770.823238,190.439505 791.311149,221.609779 C801.143558,237.969211 786.655195,256.0249 786.629503,273.470742 C779.260668,310.150735 758.388329,345.237071 728.529512,367.507991 C726.825279,289.35457 729.013853,211.654699 723.731776,133.507991 Z" id="Combined-Shape" fill="#60D6E1"/><path d="M240.330602,551.576389 C227.955762,550.4496 229.95928,567.124 239.857044,567.494878 C249.318635,568.058273 253.654478,550.272182 240.330602,551.576389 M189.719271,570.507991 C202.649544,570.373271 200.541687,553.653851 190.504273,552.510635 C177.734977,552.258273 177.485936,570.155064 189.719271,570.507991 M231.731776,597.114154 C231.597381,589.762986 221.45395,581.792408 214.705723,587.391145 C202.816131,599.560055 230.321113,617.832656 231.731776,597.114154 M215.787116,517.538654 C202.803863,516.579415 202.32144,538.443976 214.758535,538.507991 C227.02894,538.434127 231.168755,517.235322 215.787116,517.538654 M274.352651,597.501218 C288.134086,597.919256 290.052135,578.851091 276.492631,577.570674 C261.848971,576.227316 258.098812,596.915025 274.352651,597.501218 M181.727901,597.86513 C181.985497,587.358322 169.332681,583.441481 163.737403,592.784569 C157.410517,601.523895 167.1752,619.57012 177.406237,609.573749 C180.574947,606.353998 181.746096,602.300978 181.727901,597.86513 M309.677719,549.138299 C317.329418,554.315598 325.238059,559.665185 333.338448,565.146636 C325.467198,572.520365 328.78156,587.165799 340.882768,584.175304 C345.235445,584.038629 349.338849,577.040276 353.278309,580.406146 C363.183046,589.840593 372.727296,598.757213 381.731776,609.197475 C367.145516,611.467055 353.463346,613.59611 338.887631,615.862803 C346.049415,593.106363 316.304526,594.172815 322.011901,614.831963 C323.096235,617.399919 323.02433,618.498134 320.17208,619.133385 C302.731653,623.016119 285.314235,626.996066 267.8786,630.895162 C263.801082,631.807615 263.71096,631.726764 263.435802,627.354117 C263.656312,620.615639 255.050668,616.088991 250.294362,621.34329 C247.857246,624.024822 247.466081,627.085579 248.800646,630.538074 C255.065049,638.068692 221.174571,637.726041 215.39529,640.241059 C216.083665,633.482368 217.999226,626.025864 208.6496,627.529292 C198.970167,628.649645 197.268405,630.190611 195.339421,640.278597 C195.919459,646.244185 162.24278,648.09219 156.212309,648.507991 C163.226446,618.821535 147.675694,642.013988 141.181194,623.110444 C126.339908,588.197601 162.766252,558.996246 186.289881,538.680712 C196.441972,529.641853 203.230805,511.645949 219.09123,512.540114 C229.983468,515.461308 240.7434,518.884929 251.533053,522.183424 C256.878025,523.088176 256.602867,528.782339 259.481002,532.372472 C270.011796,542.783859 265.59009,523.930365 289.809763,538.452599 C292.461637,539.674014 293.718544,540.451716 291.31786,543.471085 C281.224252,559.984736 304.366303,566.184213 309.677719,549.138299" id="Fill-24" fill="#52DC82"/><path d="M1719.70292,367.177122 C1714.45359,383.274792 1713.56129,401.208625 1704.21276,415.697009 C1692.07998,444.008528 1679.9932,433.82984 1666.7036,450.32839 C1664.99663,455.285069 1659.02752,456.688628 1656.55094,461.378054 C1644.72006,471.948008 1623.61445,467.706567 1608.65813,469.109165 C1549.92068,473.630356 1524.436,470.811702 1526.89342,404.190708 C1522.44917,389.615803 1638.6992,379.46211 1655.95958,373.510442 C1664.86245,373.779618 1721.18849,358.50005 1719.70292,367.177122 Z M1727.73178,328.507991 C1724.10828,337.698801 1728.10649,352.896281 1718.37164,356.604042 C1687.74491,361.29636 1657.13255,366.086073 1626.56811,371.160257 C1594.63133,376.644272 1562.60733,381.843815 1531.18901,389.90928 C1520.67695,394.3692 1525.78108,372.64529 1523.96694,366.644407 C1520.45844,356.521111 1557.25211,355.404444 1564.75594,352.525987 C1619.19271,344.963891 1673.14168,334.635198 1727.73178,328.507991 Z" id="Combined-Shape" fill="#60D6E1"/><path d="M1713.73248,272.835652 C1720.85621,296.418538 1734.91349,288.330399 1734.73178,296.915767 C1731.55805,304.293578 1734.70897,318.725713 1725.81817,321.328969 C1694.76199,326.621871 1663.59877,331.195807 1632.41931,335.687191 C1598.76938,340.270726 1565.28861,345.83912 1532.00471,352.611233 C1524.37733,355.600369 1524.46621,350.67127 1524.88384,344.404066 C1539.20012,230.316769 1546.81221,319.783526 1596.84461,313.371377 C1619.97715,313.457768 1623.73875,245.08775 1642.43783,289.242306 C1651.19293,308.222459 1684.11653,306.555109 1685.9419,283.800619 C1684.84955,267.336371 1705.78781,253.712474 1713.73248,272.835652 Z M1716.56156,217.944353 C1721.67989,236.035834 1742.93459,225.062801 1741.67832,235.248204 C1738.19694,256.453705 1741.85154,314.808456 1718.09002,265.500886 C1704.42146,244.467319 1680.67897,260.037422 1679.18383,278.652389 C1680.31637,296.692962 1656.8575,300.524495 1649.239,285.72185 C1644.59462,269.035617 1624.93501,255.882193 1616.99959,278.037653 C1608.73773,292.822048 1605.32012,311.608949 1583.04423,305.227223 C1565.99707,302.093992 1560.72076,277.595812 1541.66928,279.55048 C1538.6276,279.799256 1537.67969,278.402653 1537.60545,275.634421 C1537.3266,265.155098 1536.747,254.677695 1536.73178,244.198372 C1537.18575,233.805496 1551.62329,224.117644 1560.00602,231.888288 C1575.57325,244.537437 1601.32291,277.396984 1610.09012,239.96534 C1611.41586,230.93833 1613.10136,221.375347 1618.66414,213.998518 C1630.20276,199.107505 1646.83497,210.237103 1649.90045,226.545851 C1653.58549,241.043048 1670.99906,252.161121 1680.39536,235.872545 C1684.20413,228.598492 1684.82846,219.547468 1688.02718,211.978534 C1695.47341,197.924139 1714.66193,202.355039 1716.56156,217.944353 Z M1665.0233,141.25688 C1696.48645,153.405286 1743.84297,180.306013 1742.71188,219.10857 C1742.98869,224.832578 1736.69663,222.510738 1733.14685,222.7458 C1724.39314,222.448374 1722.83826,213.49106 1719.87454,206.927543 C1710.83543,186.593211 1679.5565,196.799714 1677.86131,217.470809 C1672.92273,250.121449 1657.94569,234.63228 1651.89798,212.809859 C1644.27726,197.340837 1626.04728,195.515027 1614.31076,206.980313 C1600.14695,214.262448 1608.17429,258.956915 1588.20617,247.699827 C1573.36084,235.949588 1559.0634,211.56163 1538.33836,226.299559 C1532.56555,186.62871 1540.59671,132.641125 1591.53928,136.035618 C1595.12629,135.986686 1598.30477,135.12607 1600.95064,132.383037 C1620.79372,120.281643 1644.00236,140.302239 1665.0233,141.25688 Z" id="Combined-Shape" fill="#7DB4DB"/><path d="M935.132343,148.350513 C932.143109,109.590142 980.530558,117.614063 1005.53714,121.237395 C1019.82635,120.8565 1027.80527,132.91945 1030.51894,145.681351 C1032.00927,154.5531 1030.14326,161.024441 1023.42583,164.328749 C1012.98973,171.770694 1003.37746,180.923764 991.008609,185.249914 C940.870528,207.206455 935.631025,204.350713 935.544256,148.394016 C935.406952,148.379515 935.269647,148.365014 935.132343,148.350513" id="Fill-58" fill="#52DC82"/><path d="M265.974544,831.047916 C267.062067,859.926874 233.073088,873.013115 208.339669,870.749901 C193.331071,872.768987 180.459785,854.669017 178.704654,841.488954 C173.259296,815.592192 200.232588,770.075163 229.974033,789.835206 C252.965867,801.027777 264.734148,800.724292 265.974544,831.047916" id="Fill-61" fill="#7DB4DB"/></g></g><g id="Plants/Big Plant" transform="translate(141.000000, 483.000000) scale(1 1)"><g id="Plants/Big Plant/Big Plant 1" stroke="none" stroke-width="1" fill="none" fill-rule="evenodd"><g id="Group" transform="translate(46.000000, 70.000000)"><path d="M207.727381,304.6152 C207.727381,304.6152 201.167381,281.8972 206.613381,267.2852 C212.059381,252.6712 218.401381,244.0572 231.889381,228.6952 C245.377381,213.3332 243.877381,203.9692 258.489381,186.7352 C273.101381,169.4992 298.203381,165.7532 316.561381,156.7612 C334.919381,147.7692 335.667381,138.0292 347.281381,131.8112 C358.895381,125.5912 374.631381,131.8112 374.631381,131.8112 C374.631381,131.8112 355.899381,137.2792 337.167381,155.6372 C318.435381,173.9952 323.515381,186.5032 308.529381,210.0552 L298.895381,220.2812 L207.727381,304.6152 Z" id="Fill-70" fill="#000"/><path d="M181.298781,334.998 C181.298781,334.998 192.728781,295.732 194.298781,276.25 C195.868781,256.768 196.260781,182.956 178.202781,143.302 C160.140781,103.648 143.258781,91.482 135.014781,81.666 C126.768781,71.848 125.984781,61.246 113.028781,50.646 C100.072781,40.046 78.1187807,39.83 69.8407807,32.586 C60.4187807,24.342 23.9047807,3.534 5.45278072,-2.84217094e-14 C5.45278072,-2.84217094e-14 24.6907807,25.912 31.7567807,53.788 C38.8247807,81.662 29.4027807,95.796 35.2907807,109.932 C41.1807807,124.064 53.3507807,137.022 61.5967807,153.51 C69.8407807,170 76.9087807,213.58 83.5827807,224.182 C130.982781,255.596 164.020781,301.33 183.942781,360.79 L181.298781,334.998 Z" id="Fill-71" fill="#870CF7"/><path d="M175.561381,460.2596 C175.435381,459.5296 162.495381,387.1896 117.457381,383.9316 C93.7873807,382.1696 87.2593807,419.4376 87.1953807,419.8156 L84.3733807,419.3396 C84.4413807,418.9356 86.1033807,409.2916 90.9353807,399.7116 C97.4833807,386.7276 106.725381,380.2976 117.665381,381.0756 C137.303381,382.4976 154.041381,396.6196 166.071381,421.9136 C175.067381,440.8276 178.351381,459.5876 178.381381,459.7756 L175.561381,460.2596 Z" id="Fill-72" fill="#000"/><path d="M184.468581,459.9628 C185.914581,422.2988 185.058581,384.5348 181.242581,347.0488 C177.424581,309.5748 170.516581,272.3708 159.754581,236.2588 C149.012581,200.1568 134.368581,165.1728 115.652581,132.4508 C114.584581,130.3468 113.280581,128.3808 112.052581,126.3728 L108.332581,120.3648 L100.892581,108.3448 C95.6365807,100.5288 90.1405807,92.8668 84.7745807,85.1148 L67.2645807,62.8988 L48.5445807,41.6688 C54.9385807,48.6028 61.4025807,55.4908 67.7525807,62.4828 L85.5805807,84.5088 C91.0565807,92.2048 96.6665807,99.8168 102.038581,107.5888 L109.564581,119.6028 L113.326581,125.6128 C114.568581,127.6228 115.884581,129.5888 116.966581,131.6928 C135.900581,164.4328 150.768581,199.4768 161.724581,235.6668 C172.702581,271.8648 179.814581,309.1808 183.824581,346.7788 C187.840581,384.3928 188.684581,422.2948 187.328581,460.0728 L184.468581,459.9628 Z" id="Fill-73" fill="#000"/><path d="M1.50378072,490.0682 C1.50378072,490.0682 0.80978072,475.3122 9.31578072,466.2862 C17.8217807,457.2602 33.0977807,457.9522 38.6517807,453.4422 C44.2077807,448.9282 46.6377807,441.6362 52.5397807,438.6862 C58.4417807,435.7342 65.7337807,441.6362 78.2317807,435.3862 C90.7297807,429.1362 92.9877807,386.6082 95.7637807,380.8782 C98.5417807,375.1502 119.893781,357.6162 119.893781,357.6162 C119.893781,357.6162 113.123781,361.0122 104.617781,360.7902 C96.1117807,360.5682 76.4957807,346.1602 71.2877807,347.0262 C66.0797807,347.8962 51.1457807,359.8722 48.5457807,363.8662 C45.9437807,367.8602 43.6857807,378.6202 32.0557807,389.2102 C20.4257807,399.8002 13.6557807,405.8762 11.2237807,412.2982 C8.79578072,418.7222 3.41378072,426.0142 3.93378072,431.0462 C4.45578072,436.0822 4.67178072,452.9882 3.67778072,456.5342 C2.68578072,460.0822 -2.51621928,481.0402 1.50378072,490.0682" id="Fill-74" fill="#BE6FFB"/><path d="M87.7673807,419.578 C87.7673807,419.578 88.3813807,417.162 89.5673807,412.854 C92.5193807,402.118 100.055381,382.928 118.055381,384.23 C137.369381,385.626 150.375381,397.402 159.565381,412.754 C159.565381,412.754 153.303381,400.194 154.305381,393.43 C155.307381,386.664 162.697381,378.774 161.445381,371.758 C160.193381,364.742 149.795381,364.368 142.905381,360.86 C136.015381,357.352 132.759381,351.84 125.117381,351.84 C117.475381,351.84 100.939381,373.386 95.9293807,378.022 C90.9193807,382.656 87.7673807,419.578 87.7673807,419.578" id="Fill-75" fill="#870CF7"/><path d="M186.898381,460.0604 L184.900381,459.9744 C189.132381,362.0744 229.004381,279.8824 306.796381,208.7024 L308.146381,210.1804 C230.766381,280.9824 191.106381,362.7184 186.898381,460.0604" id="Fill-76" fill="#000"/><path d="M302.534981,216.4178 C279.742981,234.2718 232.224981,247.9638 218.400981,270.2818 C200.552981,299.0978 206.570981,336.9798 208.966981,348.4158 C227.102981,302.1478 258.716981,259.4658 298.894981,220.2818 C300.244981,218.9638 301.328981,217.7978 302.534981,216.4178" id="Fill-77" fill="#BE6FFB"/><path d="M217.803581,576.494 L153.533581,576.494 C141.297581,576.494 131.377581,566.574 131.377581,554.338 L131.377581,460.018 L239.959581,460.018 L239.959581,554.338 C239.959581,566.574 230.039581,576.494 217.803581,576.494" id="Fill-78" fill="#CCA4FF"/></g></g></g><g id="Plants/Small" transform="translate(1767.000000, 541.000000) scale(1 1)"><g id="Plants/Small/Snake Plant" stroke="none" stroke-width="1" fill="none" fill-rule="evenodd"><g id="Group" transform="translate(62.000000, -20.000000)"><g id="Group-2"><path d="M57.8854621,290.6522 C57.8854621,290.6522 29.6654621,204.6002 19.8414621,173.2342 C15.5754621,159.6102 27.0514621,124.3002 18.9194621,69.0862 C18.9194621,69.0862 48.2894621,94.5822 55.0594621,125.6542 C61.8334621,156.7262 52.2714621,236.9482 64.6214621,290.6522 L57.8854621,290.6522 Z" id="Fill-66" fill="#CCA4FF"/><path d="M47.1578621,104.826 C47.1578621,104.826 8.58986209,65.906 2.79786209,41.54 C-2.99213791,17.176 1.99986209,0 1.99986209,0 C1.99986209,0 13.7838621,11.762 16.7798621,20.97 C19.7758621,30.18 19.3738621,42.74 23.1698621,49.13 C26.9638621,55.522 36.3518621,73.496 39.5458621,82.882 C42.7418621,92.27 47.1578621,104.826 47.1578621,104.826" id="Fill-67" fill="#000"/></g><path d="M68.9174621,290.6522 C76.0374621,240.0962 62.1354621,198.6042 60.7794621,170.1822 C59.4234621,141.7622 85.1934621,45.8022 85.1934621,45.8022 C85.1934621,45.8022 82.9774621,80.7262 102.147462,117.0082 C116.577462,182.0122 89.1614621,290.6522 89.1614621,290.6522 L68.9174621,290.6522 Z" id="Fill-68" fill="#BE6FFB"/><path d="M40.0753057,290.6522 C29.9290697,265.461953 32.8563466,244.787973 30.2066217,230.626307 C27.5571376,216.465637 1.31326324,168.6522 1.31326324,168.6522 C1.31326324,168.6522 6.78191761,186.05358 0.224617749,204.131604 C-0.172262965,236.520773 28.536731,290.6522 28.536731,290.6522 L40.0753057,290.6522 Z" id="Fill-68" fill="#BE6FFB"/><path d="M89.4244621,362.4706 L28.1424621,362.4706 C19.3424621,362.4706 12.0024621,355.7366 11.2464621,346.9686 L6.39046209,290.6526 L111.178462,290.6526 L106.320462,346.9686 C105.564462,355.7366 98.2264621,362.4706 89.4244621,362.4706" id="Fill-69" fill="#CCA4FF"/></g></g></g><g id="table" transform="translate(1777.000000, 883.000000)"><rect id="Rectangle" fill="#EECFA2" x="0" y="0" width="230" height="40"/><polygon id="Rectangle" fill="#DDBA86" points="183 40 214.112676 40 230 248 207.938284 248"/><polygon id="Rectangle" fill="#DDBA86" transform="translate(23.500000, 144.000000) scale(-1, 1) translate(-23.500000, -144.000000)" points="9.7838404e-14 40 31.1126761 40 47 248 24.9382843 248"/></g><g id="Sofa" transform="translate(413.000000, 489.000000)"><rect id="Rectangle" fill="#95E4D3" x="46" y="376.5" width="1272" height="265" rx="70"/><path d="M169,332.5 L1196,332.5 L1196,457.5 C1196,468.545695 1187.04569,477.5 1176,477.5 L189,477.5 C177.954305,477.5 169,468.545695 169,457.5 L169,332.5 L169,332.5 Z" id="Rectangle" fill="#53D7BC"/><rect id="Rectangle" fill="#53D7BC" x="123" y=".5" width="1120" height="421" rx="70"/><rect id="Rectangle" fill="#95E4D3" x="177" y="316.5" width="1010" height="153" rx="12"/><rect id="Rectangle" fill="#95E4D3" x="0" y="220.5" width="168" height="421" rx="40"/><rect id="Rectangle" fill="#95E4D3" x="1196" y="220.5" width="168" height="421" rx="40"/></g><g transform="translate(274.000000, 441.000000) scale(1 1)" id="Master/Character/Sitting"><g id="Master/Character/Sitting" stroke="none" stroke-width="1" fill="none" fill-rule="evenodd"><g id="Legs Sitting" transform="translate(317.000000, 266.000000) scale(1 1)"><g id="Legs Sitting/Red Shorts Bent" stroke="none" stroke-width="1" fill="none" fill-rule="evenodd"><g id="Group-16" transform="translate(0.000000, -0.000000)"><g id="Group-3" transform="translate(170.000000, 18.000000)" fill="#543629"><path d="M44.5121176,280.6788 L24.7570991,217.9638 C23.6908583,214.5628 22.7352472,211.8528 25.5353213,210.8598 C34.0423583,207.8138 42.6686083,204.3508 51.0335435,200.6278 C73.4617935,190.3148 144.91709,155.6728 126.843451,123.4798 C122.176979,114.3598 116.59209,106.7478 109.146525,101.1538 C80.1958954,80.5828 34.7099509,83.6888 0.613136111,78.5548 L9.83926574,0.1488 C62.0392843,5.7218 120.151312,5.7578 162.16196,44.5038 C198.414145,77.2758 219.306932,133.9398 194.754784,180.3628 C170.107266,227.3788 124.971331,252.5858 80.4791454,273.3458 C70.3975435,277.8288 60.2386917,281.9118 49.8252009,285.6408 C46.3575343,286.8718 45.5783583,284.0728 44.5121176,280.6788" id="Fill-1"/></g><path d="M154.225123,0.242030747 C154.279626,3.46018557 90.769932,90.3953797 98.6823916,91.9112209 C102.747149,94.5338667 114.485605,92.6910971 162.563791,98.7333081 C210.641976,104.775519 193.208315,116.364185 232.134748,123 L239.020261,74.5502281 C235.846671,70.3205099 232.440728,66.2010713 228.947772,62.0605792 C233.208547,59.1692526 237.559205,56.2769234 242.004525,53.5490109 L249,4.32628025 C226.945832,0.759909721 195.354206,-0.601506781 154.225123,0.242030747 Z" id="Fill-4" fill="#CC2935"/><path d="M241.768287,303.020197 C279.487064,287.153179 317.876773,266.481494 347,235.530545 L284.241643,171 C257.44146,197.892317 221.056935,213.615134 186,225.868137 C186.259808,226.812448 193.76188,254.10532 194.242477,255.852745 C195.793711,255.856751 198.583077,255.476223 200.185701,255.328017 C199.934458,261.444504 199.537609,267.592035 199.145518,273.690497 C204.28172,292.375425 214.746363,330.452262 219.84545,349 C224.20889,347.629098 229.138578,345.974802 233.390672,344.435666 C242.857958,338.696703 236.390359,312.423245 241.768287,303.020197" id="Fill-6" fill="#0A1B45"/><path d="M103.759615,99 L94.2403846,99 C42.1930385,99 -4.00177669e-11,54.676 -4.00177669e-11,1.13686838e-13 L198,1.13686838e-13 C198,54.676 155.806962,99 103.759615,99" id="Fill-8" fill="#FA3239"/><path d="M135.257753,317.309935 L122.144612,252.658092 C121.440404,249.151172 120.768595,246.348838 123.678814,245.674276 C149.789792,239.469108 176.41344,230.675785 200.391781,218.497643 C219.058543,208.108991 242.10588,195.860791 247.672842,174.742203 C249.038377,161.893502 241.334014,147.607605 233.883128,137.61228 C203.474479,103.392782 156.100032,104.547744 114,93.0681835 L130.817143,16 C179.218838,26.8660494 234.190922,33.1813088 274.050637,68.4807067 C340.995215,130.68351 341.037143,220.237092 263.252141,271.781018 C234.927529,291.3313 203.717474,304.179 171.624061,314.256392 C161.181004,317.489084 150.700784,320.354471 140.007109,322.857555 C136.449856,323.682242 135.963867,320.806847 135.257753,317.309935" id="Fill-10" fill="#694d3d"/><path d="M98.8323249,1.13686838e-13 C98.4997923,3.36538774 41.0676724,99.0013641 68.3492985,99.1391485 C95.6309245,99.2769328 129.393177,98.8800256 183.506024,111 L190.190396,79.9773968 C187.102047,75.2953362 183.796788,70.6463679 180.343418,66.0355059 C185.318985,63.7491281 190.360484,61.5519992 195.51665,59.4872395 L208,11.462274 C186.187264,4.96815867 149.798039,1.14740067 98.8323249,1.13686838e-13 Z" id="Fill-12" fill="#FA3239"/><path d="M161.665027,324.076738 C200.809904,312.931646 240.445336,297.509183 274,272.624659 L222.507121,198 C190.569468,220.812642 151.83482,232.965758 114,241.305135 C114.162562,242.270285 118.861554,270.131021 119.162771,271.914755 C120.73197,272.085251 123.55672,272.027422 125.189988,272.061322 C124.295898,278.087529 123.259328,284.128691 122.233276,290.123989 C125.451043,309.196674 132.005152,348.066903 135.199013,367 C137.051261,366.640063 140.797832,365.896259 142.624261,365.494445 C160.516576,366.101653 153.400195,340.026643 161.665027,324.076738" id="Fill-14" fill="#0A1B45"/></g><path d="M56,99 C25.072054,99 -4.00139793e-11,73.927946 -4.00177669e-11,43 L-4.00177669e-11,0 L199,0 C199,54.676 156.593865,99 104.283654,99 L56,99 Z" id="PELVIS-PLUS" fill="#FA3239"/></g></g><g id="Body" transform="translate(41.000000, -31.000000) scale(1 1)"><g id="Body/Tee Point" stroke="none" stroke-width="1" fill="none" fill-rule="evenodd"><g id="Right-Arm" transform="translate(429.000000, 142.000000)"><path d="M376.745684,9.2944 L401.742584,8.9279 C406.713584,8.8559 410.801584,12.8259 410.873584,17.7959 C410.946584,22.7659 406.977584,26.8539 402.006584,26.9259 L382.572482,27.2102 C384.722482,28.5523895 386.094591,30.7196779 386.110884,34.1596 C386.168741,38.15335 383.617215,41.5775687 380.033725,42.8065808 C382.622622,44.0975709 384.327113,46.3511492 384.345284,50.1875 C384.402202,54.1164662 381.933707,57.4942284 378.44169,58.7724523 C380.893047,60.3476608 382.533678,63.0826469 382.579684,66.2148 C382.651684,71.1848 378.682684,75.2728 373.712684,75.3458 L320.717684,76.1208 L320.452295,76.1208604 L320.452295,76.1208604 L320.421248,76.1203648 L320.421248,76.1203648 L319.38747,76.1352277 C265.408356,76.9223762 150.051904,78.6288031 122.657791,79.0203653 L121.695084,79.0341 L121.695084,79.0341 C119.279804,78.76538 116.605951,78.6518088 113.729491,78.6451806 L112.641431,78.6476138 C100.570702,78.7274503 85.1715236,80.5244568 70.3720965,80.655093 L69.0284556,80.6622843 C43.5348232,80.708121 20.1856738,75.47649 19.2240838,47.5311 C19.3883838,17.12878 46.7389894,12.7937772 74.7116234,12.8804277 L76.065512,12.8879804 C87.3501042,12.9781632 98.6661696,13.7305029 108.27213,13.7258901 L109.416525,13.7216124 C113.581726,13.691939 117.402364,13.50473 120.730084,13.0391 C150.129103,12.6037446 292.165922,10.5355203 334.755652,9.90908319 L334.750698,9.90940093 C334.677684,4.9394 338.647684,0.8504 343.617684,0.7774 L367.614684,0.4264 C372.585684,0.3544 376.673684,4.3244 376.745684,9.2944 Z" id="SKIN-DARKER" fill="#543629"/><path d="M376.745684,9.2944 L401.742584,8.9279 C406.713584,8.8559 410.801584,12.8259 410.873584,17.7959 C410.946584,22.7659 406.977584,26.8539 402.006584,26.9259 L382.572482,27.2102 C384.722482,28.5523895 386.094591,30.7196779 386.110884,34.1596 C386.168741,38.15335 383.617215,41.5775687 380.033725,42.8065808 C382.622622,44.0975709 384.327113,46.3511492 384.345284,50.1875 C384.402202,54.1164662 381.933707,57.4942284 378.44169,58.7724523 C380.893047,60.3476608 382.533678,63.0826469 382.579684,66.2148 C382.651684,71.1848 378.682684,75.2728 373.712684,75.3458 L320.717684,76.1208 L320.452295,76.1208604 L320.452295,76.1208604 L320.421248,76.1203648 L320.421248,76.1203648 L319.38747,76.1352277 C265.408356,76.9223762 150.051904,78.6288031 122.657791,79.0203653 L121.695084,79.0341 L121.695084,79.0341 C119.279804,78.76538 116.605951,78.6518088 113.729491,78.6451806 L112.641431,78.6476138 C100.570702,78.7274503 85.1715236,80.5244568 70.3720965,80.655093 L69.0284556,80.6622843 C43.5348232,80.708121 20.1856738,75.47649 19.2240838,47.5311 C19.3883838,17.12878 46.7389894,12.7937772 74.7116234,12.8804277 L76.065512,12.8879804 C87.3501042,12.9781632 98.6661696,13.7305029 108.27213,13.7258901 L109.416525,13.7216124 C113.581726,13.691939 117.402364,13.50473 120.730084,13.0391 C150.129103,12.6037446 292.165922,10.5355203 334.755652,9.90908319 L334.750698,9.90940093 C334.677684,4.9394 338.647684,0.8504 343.617684,0.7774 L367.614684,0.4264 C372.585684,0.3544 376.673684,4.3244 376.745684,9.2944 Z" id="SKIN-DARKER" fill="#543629"/><path d="M107.657784,8.2314 L108.769784,84.2234 C66.1953859,88.2816494 -2.92521618,105.1894 1.16178382,43.4114 C0.88878382,24.8464 2.39597247,7.272 20.9599725,7 L107.657784,8.2314 Z" id="Fill-14" fill="#3F8FD4"/></g><path d="M312,149 L448,149 C470.09139,149 488,166.90861 488,189 L488,300 L488,300 L272,300 L272,189 C272,166.90861 289.90861,149 312,149 Z" id="body" fill="#55B0EB"/><path d="M334,149 C334,167.225397 354.594902,182 380,182 C405.405098,182 426,167.225397 426,149" id="SKIN" fill="#694d3d"/><g id="Left-Arm" transform="translate(164.000000, 148.000000)"><path d="M33.5943889,368.27253 C9.42638891,366.27553 -0.238611085,343.82453 4.57138891,322.19053 C9.07838891,283.37653 15.3883889,244.75653 23.7443889,206.67653 C33.7033889,161.16353 46.4063889,115.71053 61.9623889,71.7015301 C64.9933889,62.6205301 70.0723889,49.6525301 73.4493889,40.6155301 C80.1893889,23.2305301 99.9853889,14.5575301 116.798389,22.0365301 C132.843389,28.8885301 141.580389,48.1425301 134.936389,64.6045301 C131.734389,73.1845301 127.054389,85.1365301 124.199389,93.6705301 C109.551389,135.10653 97.6303889,177.80353 88.2263889,220.75253 C80.3363889,256.69553 74.4073889,293.04553 70.1613889,329.52253 C70.8253889,350.46953 56.0683889,369.87953 33.5943889,368.27253" id="SKIN" fill="#694d3d"/><path d="M8.53478891,386.14453 C-0.683211085,385.67553 -0.586211085,375.34553 0.500788915,368.35353 C1.09778891,360.90053 1.62178891,351.72353 2.35978891,344.32953 C2.96678891,338.76853 4.14478891,325.78053 4.77678891,320.39353 C5.72478891,312.98253 5.37778891,300.40453 16.1847889,301.66453 C26.8847889,303.28553 23.5897889,314.97353 22.6617889,322.42253 C22.1047889,327.64153 20.8227889,340.53553 20.2867889,345.94553 C19.5717889,353.19753 19.0377889,362.23253 18.4607889,369.53653 C18.4027889,376.50553 17.8007889,386.54953 8.53478891,386.14453" id="SKIN" fill="#694d3d"/><path d="M23.9966889,398.01273 C11.9416889,397.63073 16.2286889,381.26273 16.1466889,373.72773 C17.1226889,366.40973 14.9556889,349.32773 26.8786889,350.59773 C38.7996889,351.57873 34.2606889,367.24073 34.1126889,374.82973 C33.3286889,382.37173 35.9456889,398.48173 23.9966889,398.01273" id="SKIN" fill="#694d3d"/><path d="M39.8941889,400.55863 C27.8801889,400.21763 32.0871889,384.20263 32.0021889,376.70963 C33.0851889,368.51363 30.4151889,353.45863 42.6731889,353.95163 C54.8151889,355.48863 49.9821889,369.48063 49.9701889,377.77263 C49.2201889,385.29863 51.8081889,401.00563 39.8941889,400.55863" id="SKIN" fill="#694d3d"/><path d="M66.7320889,367.62213 C54.6530889,366.37213 59.2500889,352.17813 59.6650889,344.09513 C60.7810889,336.65913 59.0700889,320.81713 71.0490889,322.30013 C82.7310889,323.61113 77.9080889,338.37513 77.5830889,345.81013 C76.1980889,353.77413 78.8380889,368.12013 66.7320889,367.62213" id="SKIN" fill="#694d3d"/><path d="M56.2525889,393.28913 C41.0365889,391.10613 50.3335889,369.77313 49.2845889,359.45613 C51.6525889,349.76613 46.5635889,326.31813 61.3825889,327.06413 C76.3015889,330.24813 65.9815889,350.43213 67.2325889,360.86713 C64.6195889,370.72713 70.9785889,392.98613 56.2525889,393.28913" id="SKIN" fill="#694d3d"/><path d="M49.2216889,93.6402301 C54.7466889,76.3152301 64.8039423,45.7926198 80,22.0901976 C95.1960577,-1.61222459 124.918726,0.7686 152.5379,1 C169.0829,8.652 152.622689,34.0842301 145.856689,50.9402301 C143.840689,55.7672301 141.113689,62.4772301 139.266689,67.2882301 C133.169689,83.1212301 126.619689,101.18123 121.457689,117.26123 L49.2216889,93.6402301 Z" id="Fill-31" fill="#55B0EB"/></g></g></g><g id="Head" transform="translate(362.000000, -61.000000) scale(1 1)"><g id="Head/Long Wavy" stroke="none" stroke-width="1" fill="none" fill-rule="evenodd"><path d="M-14.5,234 L-6.5,234 C16.42,234 35,215.42 35,192.5 L35,143 L-15.226,143 C-37.745,143 -56,161.255 -56,183.774 L-56,192.5 C-56,215.42 -37.42,234 -14.5,234" id="Fill-19" fill="#000"/><path d="M51,132.5 C51,109.028 31.972,90 8.5,90 C-14.972,90 -34,109.028 -34,132.5 C-34,155.972 -14.972,175 8.5,175 C31.972,175 51,155.972 51,132.5" id="Fill-1" fill="#000"/><path d="M127,101.5 C127,78.028 107.972,59 84.5,59 C61.028,59 42,78.028 42,101.5 C42,124.972 61.028,144 84.5,144 C107.972,144 127,124.972 127,101.5" id="Fill-3" fill="#000"/><path d="M122,155 C122,138.432 108.569,125 92,125 C75.431,125 62,138.432 62,155 C62,171.568 75.431,185 92,185 C108.569,185 122,171.568 122,155" id="Fill-5" fill="#000"/><path d="M52.801,171 L72,171 L72,59 L52.801,59 C24.744,59 2,81.744 2,109.801 L2,120.199 C2,148.256 24.744,171 52.801,171" id="Fill-7" fill="#000"/><g id="head" transform="translate(22.000000, 72.000000)"><g fill="#694d3d" id="SKIN"><path d="M13,62 L58,62 L58,113.633 C58,127.538 47.926,138.81 35.5,138.81 C23.074,138.81 13,127.538 13,113.633 L13,62 Z"/><path d="M60.0525,94 L55.0655,94 C31.8335,94 13.0005,75.167 13.0005,51.935 L13.0005,32.203 C13.0005,14.418 27.4175,0 45.2035,0 L50.7965,0 C68.5825,0 83.0005,14.418 83.0005,32.203 L83.0005,71.052 C83.0005,83.726 72.7265,94 60.0525,94"/><path d="M25,58.5 C25,65.403 19.404,71 12.5,71 C5.596,71 0,65.403 0,58.5 C0,51.597 5.596,46 12.5,46 C19.404,46 25,51.597 25,58.5"/></g><path d="M10.067,53.1685 C10.9718309,53.1685 12.2239875,53.3771928 13.5088204,54.0196092 C15.6553998,55.0928989 17.0130325,57.055328 17.10411,59.9021045 L17.109,60.2105 L14.109,60.2105 C14.109,58.3751144 13.4076866,57.3231443 12.1671796,56.7028908 C11.7065142,56.4725581 11.1976823,56.3199085 10.686339,56.2346846 C10.4347302,56.1927498 10.2385731,56.1747448 10.1250097,56.169908 L10.067,56.1685 L10.067,53.1685 Z" id="ear-line" fill="#000"/><path d="M34.7507501,96.3316762 C25.4557924,93.0435693 20.8185822,84.7386742 18.9822222,73.5680961 C26.2532122,85.6701724 39.4406226,93.8132264 54.5439426,93.9967331 L55.0655,93.9999 L58,93.9999 C50.0632106,98.2297391 42.3134606,99.0069978 34.7507501,96.3316762 Z" id="SHADOW" fill="#000" opacity=".12"/></g><path d="M34.3395164,118 C25.3401171,118 19.7014935,96.618 19.0235388,85.952 C18.0946008,71.334 44.8808128,59 60.3367811,59 L86.3260463,59 L102,90.263 L60.0298015,90.263 C53.2572536,107.39 43.3389157,118 34.3395164,118" id="Fill-17" fill="#000"/></g></g><g id="Expression" transform="translate(409.000000, 34.000000) scale(1 1)" fill="#000"><g id="Expression/Nervous" stroke="none" stroke-width="1" fill="none" fill-rule="evenodd"><polygon id="Stroke-5" fill="#000" fill-rule="nonzero" points="33.1977829 19.396766 36.1476171 18.850434 40.4350211 41.9996 30.5607 41.9996 30.5607 38.9996 36.828 38.999"/><g id="Group-15" transform="translate(10.500000, 10.000000)"><path d="M31.5736,48.6482 L17.5216,48.6482 C12.5796,48.6482 8.5736,44.6422 8.5736,39.7002 L8.5736,38.6482 L31.5736,38.6482 L31.5736,48.6482 Z" id="Fill-1" fill="#FFF"/><path d="M33.0736,37.1482 L7.0736,37.1482 L7.0736,39.7002 C7.0736,45.4706271 11.7511729,50.1482 17.5216,50.1482 L33.0736,50.1482 L33.0736,37.1482 Z M30.073,47.148 L17.5216,47.1482 L17.275741,47.1442191 C13.5226414,47.0225101 10.4716025,44.1244238 10.1095716,40.4369075 L10.087,40.148 L30.073,40.148 L30.073,47.148 Z" id="Stroke-3" fill="#000" fill-rule="nonzero"/><path d="M12.217537,0.00703446063 L14.929663,1.28936554 C13.0501292,5.2645732 4.67306405,8.73300405 0.222702634,7.12052401 L-0.000152056048,7.03413239 L1.14735206,4.26226761 C3.97685595,5.43363333 10.7086708,2.73496424 12.1382016,0.161273944 L12.217537,0.00703446063 Z" id="Stroke-5" fill="#000" fill-rule="nonzero"/><path d="M28.9263207,1.26576643e-05 C30.338104,2.94630361 36.5798731,5.74767064 39.7221119,4.39091901 L39.8998997,4.30800304 L41.2473003,6.98839696 C36.6301151,9.30939845 28.6038095,5.833801 26.3281217,1.50970985 L26.2208793,1.29638734 L28.9263207,1.26576643e-05 Z" id="Stroke-7" fill="#000" fill-rule="nonzero"/><path d="M1.68088496,13.591114 C4.17056311,7.36691862 14.9639131,7.2910138 16.4921395,13.6168094 L16.544471,13.8540258 L13.602729,14.4423742 C12.9275751,11.0666049 6.1885145,11.0073809 4.54919365,14.5140178 L4.46631504,14.705286 L1.68088496,13.591114 Z" id="Stroke-11" fill="#000" fill-rule="nonzero"/><path d="M26.680885,13.591114 C29.1705631,7.36691862 39.9639131,7.2910138 41.4921395,13.6168094 L41.544471,13.8540258 L38.602729,14.4423742 C37.9275751,11.0666049 31.1885145,11.0073809 29.5491937,14.5140178 L29.466315,14.705286 L26.680885,13.591114 Z" id="Stroke-13" fill="#000" fill-rule="nonzero"/></g></g></g><g id="Accessories" transform="translate(396.000000, 56.000000) scale(1 1)" fill="#000"><g id="Accessories/N65" stroke="none" stroke-width="1" fill="none" fill-rule="evenodd"><path d="M55.1977784,0.766509801 C61.8672688,0.766509801 65.5931791,6.91877559 68.3190852,9.67622448 C68.5366389,9.86933778 68.7500465,10.0676638 68.9593821,10.2698541 C69.0753941,10.3682311 69.1897807,10.4565674 69.3026336,10.535583 L69.2915753,10.5973925 C73.2112403,14.5427001 75.6165684,19.8776287 75.6165684,25.7499259 C75.6165684,37.9001904 65.3191176,47.7499259 52.6165684,47.7499259 C39.9140192,47.7499259 29.6165684,37.9001904 29.6165684,25.7499259 C29.6165684,17.6330728 34.2120776,10.5428914 41.0501479,6.73002773 L41.0440543,6.69219525 L41.0440543,6.69219525 C46.4836096,4.14573474 47.6906867,0.766509801 55.1977784,0.766509801 Z" id="Clothe" fill="#D8D8D8"/><path d="M32.6165684,20.7333421 C32.6165684,32.8836066 42.9140192,42.7333421 55.6165684,42.7333421 C63.0741024,42.7333421 69.702661,39.3383929 73.9051908,34.0761112 C70.4693708,42.0893844 62.2320375,47.7333421 52.6165684,47.7333421 C39.9140192,47.7333421 29.6165684,37.8836066 29.6165684,25.7333421 C29.6165684,20.7166936 31.3720069,16.0922234 34.3273758,12.3912869 C33.2246542,14.9640107 32.6165684,17.7807509 32.6165684,20.7333421 Z" id="SHADOW" fill="#000" opacity=".12"/><line x1="0" y1="0" x2="34.913" y2="14.229" id="Path-4" stroke="#22252B" stroke-width="2"/><line x1="33.673" y1="28.173" x2="0" y2="28.173" id="Path-5" stroke="#22252B" stroke-width="2"/></g></g><g id="Glasses" transform="translate(388.000000, 42.000000) scale(1 1)" fill="#000"><g id="Glasses/None" stroke="none" stroke-width="1" fill="none" fill-rule="evenodd" fill-opacity="0"/></g></g></g><g transform="translate(1464.000000, 870.500000) scale(-1, 1) translate(-1464.000000, -870.500000) translate(1012.000000, 441.000000) scale(1 1)" id="Master/Character/Sitting"><g id="Master/Character/Sitting" stroke="none" stroke-width="1" fill="none" fill-rule="evenodd"><g id="Legs Sitting" transform="translate(317.000000, 266.000000) scale(1 1)"><g id="Legs Sitting/Loose Pants Bent" stroke="none" stroke-width="1" fill="none" fill-rule="evenodd"><g id="Group-15" transform="translate(0.000000, -1.000000)"><path d="M207.346201,304.679474 C176.222674,198.6631 178.76164,257.572868 260.825715,197.767784 C278.055863,184.615148 302.487427,165.046249 290.442998,140.005421 C285.220429,129.417689 278.756014,120.564568 269.845679,114.420402 C238.980101,94.151256 200.10333,97.8765693 165,92.4336505 L173.912177,14 C235.466452,19.9080828 302.748141,22.1218632 342.866758,82.3300886 C360.911292,108.569339 371.815213,142.480294 364.903071,175.177821 C354.538081,225.302491 312.770425,258.726274 273.464351,281.401268 C254.612801,292.168063 235.378933,301.001177 215.344498,308.589853 C211.976406,309.8583 208.359577,308.081674 207.346201,304.679474" id="Fill-1" fill="#22c024"/><path d="M234.052997,307.849052 C239.40254,305.551774 244.71363,303.13327 250,300.597548 L216.094537,216 C204.366376,221.603435 192.235374,226.686902 180,230.810582 C180.249944,231.755341 187.467204,259.061194 187.92864,260.809449 C189.489648,260.775386 192.194175,260.400688 193.798213,260.233377 C193.514394,266.367801 193.14085,272.515249 192.645539,278.655685 C197.587664,297.348497 207.655022,335.444444 212.559609,354 C214.621421,353.346784 217.636318,352.303841 219.693553,351.582498 C237.560459,350.059662 227.863897,320.205063 234.052997,307.849052" id="Fill-3" fill="#0A1B45"/><path d="M150.41462,0.375203206 C150.41462,0.55135478 90.137773,86.834302 97.6476815,87.7839339 C115.434142,100.120156 270.591854,84.6533122 270.591854,129.309824 C270.591854,173.966335 222.229332,189.097982 195.474363,200.109119 L208.504422,236.246061 C213.943584,237.861733 219.462814,239.351587 225.048309,240.708632 C222.045266,245.821267 218.891288,250.900949 215.606624,255.940689 L242.311895,330 C319.292138,297.292119 414.483909,223.676169 387.237483,120.487821 C376.414379,80.4235372 350.543849,45.29714 317.296858,24.3622985 C285.546327,4.14442414 247.722957,3.0783599 211.666193,0.856560604 C192.197491,-0.595347792 150.41462,0.199051632 150.41462,0.375203206 Z" id="Fill-5" fill="#CC2935"/><path d="M100.091346,100 L90.9086538,100 C40.7013654,100 -4.00177669e-11,55.676 -4.00177669e-11,1 L191,1 C191,55.676 150.298635,100 100.091346,100" id="Fill-7" fill="#FA3239"/><path d="M130.466993,321.977923 C130.466993,321.977923 117.982756,257.356861 117.982756,257.356861 C117.311955,253.857616 119.045009,250.50034 121.901883,249.793493 C161.840231,238.875848 208.346909,224.003056 236.055556,191.185134 C247.008898,178.366899 244.41483,161.837465 237.26024,147.678519 C212.833001,98.8640479 156.029079,100.739643 111,87.987394 L127.215908,11 C174.453115,21.885652 228.331244,28.6331966 267.246851,64.4524704 C313.652449,106.049498 335.354218,184.346609 294.203835,238.556916 C262.685409,281.049751 214.654269,302.457133 168.252347,318.154747 C158.246396,321.399047 148.21012,324.281426 137.979956,326.814879 C134.524875,327.669695 131.136874,325.480167 130.466993,321.977923" id="Fill-9" fill="#8152ff"/><path d="M157.385264,329.003275 C162.94596,327.390836 168.4799,325.675751 174,323.84606 L149.052063,236 C136.590088,240.113813 123.797812,243.693469 111,246.367248 C111.156847,247.330925 115.690655,275.177894 115.981284,276.960746 C117.563596,277.104251 120.309345,277.054423 121.947015,277.076347 C121.041914,283.109541 120.051008,289.146722 118.943851,295.161978 C122.048504,314.225238 128.372216,353.076259 131.454725,372 C133.273231,371.633265 136.959141,370.875877 138.752735,370.467286 C156.153552,371.06921 149.312245,345.008082 157.385264,329.003275" id="Fill-11" fill="#0A1B45"/><path d="M92.6250101,1.4819886 C92.4417653,4.27362814 32.3783312,73.6240735 39.6031495,75.3758473 C49.7341018,84.0377289 82.2120782,100.36922 94.3815244,100.36922 C151.674089,100.36922 218.22198,109.909507 218.22198,153.446641 C218.22198,175.053557 160.729817,208.733628 128.805623,218.050425 L138.023113,255.594577 C143.291172,257.855285 148.646709,260.009007 154.080516,262.050744 C150.52704,266.766135 146.845569,271.437531 143.046231,276.055935 L161.935181,353 C249.258244,327.680269 362.359893,259.207111 337.513185,142.638162 C326.492712,91.2897925 292.190019,46.0166382 248.318999,23.9414886 C205.252783,0.370532115 177.43497,2.94641227 154.080516,1 C154.080516,0.974437192 133.595347,1.13510006 92.6250101,1.4819886 Z" id="Fill-13" fill="#FA3239"/></g><path d="M56,99 C25.072054,99 -4.00139793e-11,73.927946 -4.00177669e-11,43 L-4.00177669e-11,5.55111512e-17 L191,5.55111512e-17 C191,54.676 150.298635,99 100.091346,99 L56,99 Z" id="PELVIS-PLUS" fill="#FA3239"/></g></g><g id="Body" transform="translate(41.000000, -31.000000) scale(1 1)"><g id="Body/Short Tee Open Arms" stroke="none" stroke-width="1" fill="none" fill-rule="evenodd"><g id="Right-Arm" transform="translate(610.773762, 235.791649) rotate(-6.000000) translate(-610.773762, -235.791649) translate(420.273762, 132.791649)"><path d="M51.2848658,20.7253227 L51.7877664,20.7267019 C65.0228347,20.855282 77.5989158,28.2632147 82.7663058,40.7594347 C110.052246,106.382055 141.655209,140.389849 193.487546,139.968669 L195.629071,139.931971 C214.288364,139.445819 235.541466,134.587355 260.107306,125.229435 C264.350776,123.051945 268.721827,121.320306 273.089722,120.15391 L273.150601,120.138429 C296.238024,110.34552 323.70799,100.283572 346.768806,99.6371347 C364.750806,99.8711347 378.501806,101.187135 380.303806,108.965135 C380.932806,111.718135 380.100806,114.690135 377.247806,115.958135 C375.360119,116.811043 368.334251,118.18447 360.028373,120.281424 L360.028729,120.281394 L360.274115,120.395312 C367.861202,123.957657 372.459426,129.874765 368.266506,136.156735 C366.326306,138.324935 364.308306,139.189095 362.153434,139.237671 L361.829169,139.238901 C354.889307,139.137265 346.517631,130.934138 334.778469,130.635247 L334.225722,130.627087 L334.225722,130.627087 L333.667998,130.630872 C333.367172,130.636176 333.064174,130.646806 332.758973,130.663015 L332.757981,130.664134 L332.536754,130.815841 C327.665776,134.185887 324.391023,138.445048 324.241806,144.039135 C324.079806,150.524135 326.670806,153.956135 330.437806,155.709135 C337.372806,159.279135 350.649806,154.095135 352.487806,164.512135 C354.842806,174.841135 342.702806,175.129135 334.947806,176.441135 C322.631806,178.278135 304.931806,178.612135 294.851806,182.605135 L294.816371,182.606789 L294.816371,182.606789 L294.597499,182.711729 C281.608112,188.918696 265.834046,192.752935 253.802306,196.522435 C233.543606,202.050485 212.205586,205.817985 190.929246,205.96586 L189.768786,205.970325 C172.74981,205.982836 155.783586,203.657155 139.454306,198.041435 C112.315306,188.774435 88.5573058,170.235435 70.2703058,148.750435 C49.1723058,124.082435 33.4783058,94.8334347 21.5723058,65.4884347 C14.2883058,47.7174347 22.9833058,27.6604347 41.2203058,22.2084347 C44.5389058,21.2220347 47.9302658,20.7395147 51.2848658,20.7253227 Z" id="SKIN" fill="#8152ff"/><path d="M51.2848658,20.7253227 L51.7877664,20.7267019 C65.0228347,20.855282 77.5989158,28.2632147 82.7663058,40.7594347 C110.052246,106.382055 141.655209,140.389849 193.487546,139.968669 L195.629071,139.931971 C214.288364,139.445819 235.541466,134.587355 260.107306,125.229435 C264.350776,123.051945 268.721827,121.320306 273.089722,120.15391 L273.150601,120.138429 C296.238024,110.34552 323.70799,100.283572 346.768806,99.6371347 C364.750806,99.8711347 378.501806,101.187135 380.303806,108.965135 C380.932806,111.718135 380.100806,114.690135 377.247806,115.958135 C375.360119,116.811043 368.334251,118.18447 360.028373,120.281424 L360.028729,120.281394 L360.274115,120.395312 C367.861202,123.957657 372.459426,129.874765 368.266506,136.156735 C366.326306,138.324935 364.308306,139.189095 362.153434,139.237671 L361.829169,139.238901 C354.889307,139.137265 346.517631,130.934138 334.778469,130.635247 L334.225722,130.627087 L334.225722,130.627087 L333.667998,130.630872 C333.367172,130.636176 333.064174,130.646806 332.758973,130.663015 L332.757981,130.664134 L332.536754,130.815841 C327.665776,134.185887 324.391023,138.445048 324.241806,144.039135 C324.079806,150.524135 326.670806,153.956135 330.437806,155.709135 C337.372806,159.279135 350.649806,154.095135 352.487806,164.512135 C354.842806,174.841135 342.702806,175.129135 334.947806,176.441135 C322.631806,178.278135 304.931806,178.612135 294.851806,182.605135 L294.816371,182.606789 L294.816371,182.606789 L294.597499,182.711729 C281.608112,188.918696 265.834046,192.752935 253.802306,196.522435 C233.543606,202.050485 212.205586,205.817985 190.929246,205.96586 L189.768786,205.970325 C172.74981,205.982836 155.783586,203.657155 139.454306,198.041435 C112.315306,188.774435 88.5573058,170.235435 70.2703058,148.750435 C49.1723058,124.082435 33.4783058,94.8334347 21.5723058,65.4884347 C14.2883058,47.7174347 22.9833058,27.6604347 41.2203058,22.2084347 C44.5389058,21.2220347 47.9302658,20.7395147 51.2848658,20.7253227 Z" id="SKIN-DARKER" fill="#22c024"/><path d="M113.560306,79.6312347 C113.560306,79.6312347 100.68354,49.5206074 89.7863058,31.2892347 C80.9465019,16.5 60.892919,8.52651283e-14 35.2935333,8.52651283e-14 C35.2935333,8.52651283e-14 13.7891118,1.22610938 4.12511182,23.2061094 C-10.8788882,54.6701094 24.1363058,98.0652347 39.2493058,126.770235 L113.560306,79.6312347 Z" id="Fill-8" fill="#051026"/></g><g id="body" transform="translate(272.000000, 149.000000)"><rect id="SKIN" fill="#8152ff" x="18" y="101" width="180" height="48"/><path d="M40,0 L176,0 C198.09139,-4.05812251e-15 216,17.90861 216,40 L216,117 L216,117 L0,117 L0,40 C-2.705415e-15,17.90861 17.90861,4.05812251e-15 40,0 Z" fill="#0A1B45"/></g><path d="M334,149 C334,167.225397 354.594902,182 380,182 C405.405098,182 426,167.225397 426,149" id="SKIN" fill="#8152ff"/><g id="Left-Arm" transform="translate(86.000000, 148.000000)"><path d="M18.0802955,303.309495 C18.4982955,314.068495 25.3112955,324.542495 34.5242955,328.143495 C41.3482955,331.096495 47.2822955,322.166495 43.2452955,316.509495 C36.2042955,308.874495 28.0512955,298.122495 30.2632955,286.060495 C31.0852955,264.647495 15.3582955,293.969495 18.0802955,303.309495" id="SKIN" fill="#8152ff"/><path d="M18.0802955,303.309495 C18.4982955,314.068495 25.3112955,324.542495 34.5242955,328.143495 C41.3482955,331.096495 47.2822955,322.166495 43.2452955,316.509495 C36.2042955,308.874495 28.0512955,298.122495 30.2632955,286.060495 C31.0852955,264.647495 15.3582955,293.969495 18.0802955,303.309495" id="SKIN-DARKER" fill="#22c024"/><path d="M34.4591955,274.717695 C16.9091955,268.509695 9.28819552,247.021695 17.0031955,230.508695 C42.0981955,174.714695 74.9911955,122.534695 113.319196,75.5276952 C122.682196,64.0106952 132.825196,52.2356952 142.737196,41.2306952 C148.638196,35.4596952 158.006196,22.7646952 166.158196,20.1876952 C178.312196,14.7696952 192.927196,17.3696952 202.228196,27.0346952 C211.386196,36.2986952 214.296196,50.5676952 209.727196,62.6146952 C207.526196,70.1106952 196.700196,79.7416952 191.613196,85.5836952 C182.509196,95.7206952 173.155196,106.524695 164.553196,117.135695 C129.524196,160.102695 99.8821955,207.196695 77.2581955,257.440695 C70.4611955,273.433695 50.5231955,280.995695 34.4591955,274.717695" id="SKIN" fill="#8152ff"/><path d="M112.378896,68.8128952 C112.378896,68.8128952 127.464117,48.1938254 134.757117,39.8808254 C165.878603,-2.39524957 213.76836,1 225.523649,1 C237.278939,1 230.687896,46.6348952 222.309896,59.6568952 C213.715896,70.5528952 203.058896,79.8888952 193.978896,90.3978952 C187.280896,97.8938952 177.348896,109.321895 171.098896,117.061895 L112.378896,68.8128952 Z" id="Fill-17" fill="#0A1B45"/><path d="M17.9008955,228.583995 C5.57789552,255.323995 -2.95510448,285.149995 2.07689552,314.143995 C5.49489552,330.932995 11.9818955,338.495995 13.3798955,340.948995 C16.1938955,345.805995 25.7238955,345.077995 26.3178955,339.145995 C26.2348955,332.379995 24.6228955,318.461995 25.8918955,310.161995 C26.9388955,299.695995 29.8768955,284.703995 42.0798955,282.936995 C53.9408955,281.349995 56.8178955,290.774995 57.8928955,299.516995 C58.6438955,307.805995 73.1728955,310.262995 74.7788955,301.870995 C76.4528955,286.901995 72.7908955,269.254995 78.4718955,254.850995 C79.2348955,241.714995 27.0058955,229.897995 17.9008955,228.583995 Z" id="SKIN" fill="#8152ff"/></g></g></g><g id="Head" transform="translate(362.000000, -61.000000) scale(1 1)"><g id="Head/Afro" stroke="none" stroke-width="1" fill="none" fill-rule="evenodd"><path d="M60,44 C14.0627304,44 -9,67.357571 -9,114.051992 C-9,160.746412 14.0627304,172 60,172 C105.93727,172 129,160.746412 129,114.051992 C129,67.357571 105.93727,44 60,44 Z" id="Fill-3" fill="#000"/><g id="head" transform="translate(22.000000, 72.000000)"><g fill="#8152ff" id="SKIN"><path d="M13,62 L58,62 L58,113.633 C58,127.538 47.926,138.81 35.5,138.81 C23.074,138.81 13,127.538 13,113.633 L13,62 Z"/><path d="M60.0525,94 L55.0655,94 C31.8335,94 13.0005,75.167 13.0005,51.935 L13.0005,32.203 C13.0005,14.418 27.4175,0 45.2035,0 L50.7965,0 C68.5825,0 83.0005,14.418 83.0005,32.203 L83.0005,71.052 C83.0005,83.726 72.7265,94 60.0525,94"/><path d="M25,58.5 C25,65.403 19.404,71 12.5,71 C5.596,71 0,65.403 0,58.5 C0,51.597 5.596,46 12.5,46 C19.404,46 25,51.597 25,58.5"/></g><path d="M10.067,53.1685 C10.9718309,53.1685 12.2239875,53.3771928 13.5088204,54.0196092 C15.6553998,55.0928989 17.0130325,57.055328 17.10411,59.9021045 L17.109,60.2105 L14.109,60.2105 C14.109,58.3751144 13.4076866,57.3231443 12.1671796,56.7028908 C11.7065142,56.4725581 11.1976823,56.3199085 10.686339,56.2346846 C10.4347302,56.1927498 10.2385731,56.1747448 10.1250097,56.169908 L10.067,56.1685 L10.067,53.1685 Z" id="ear-line" fill="#000"/><path d="M34.7507501,96.3316762 C25.4557924,93.0435693 20.8185822,84.7386742 18.9822222,73.5680961 C26.2532122,85.6701724 39.4406226,93.8132264 54.5439426,93.9967331 L55.0655,93.9999 L58,93.9999 C50.0632106,98.2297391 42.3134606,99.0069978 34.7507501,96.3316762 Z" id="SHADOW" fill="#000" opacity=".12"/></g><path d="M19.0235388,90.2974915 C18.0946008,77.6615932 44.8808128,67 60.3367811,67 L94.3260463,67 L110,94.0239492 L60.0298015,94.0239492 C53.2572536,108.828644 43.3389157,118 34.3395164,118 C25.3401171,118 19.7014935,99.5172542 19.0235388,90.2974915 Z" id="Fill-17" fill="#000"/></g></g><g id="Expression" transform="translate(409.000000, 34.000000) scale(1 1)" fill="#000"><defs><filter id="expressionwink-filter-1"><feColorMatrix in="SourceGraphic" values="0 0 0 0 0.000000 0 0 0 0 0.000000 0 0 0 0 0.000000 0 0 0 1.000000 0"/></filter></defs><g id="Expression/Wink" stroke="none" stroke-width="1" fill="none" fill-rule="evenodd"><g filter="url(#expressionwink-filter-1)" id="Group-17"><g transform="translate(9.000000, 3.000000)"><path d="M37.6862,19.0627 C37.6862,17.4057 36.3432,16.0627 34.6862,16.0627 C33.0292,16.0627 31.6862,17.4057 31.6862,19.0627 C31.6862,20.7197 33.0292,22.0627 34.6862,22.0627 C36.3432,22.0627 37.6862,20.7197 37.6862,19.0627" id="Fill-1" fill="#000"/><path d="M13.0473,38.6487 C13.0473,42.3229625 16.7893817,45.7208933 20.8069435,45.8527329 L21.0483,45.8567 L21.0483,48.8567 C15.4506295,48.8567 10.2215019,44.2907163 10.0515594,38.9179911 L10.0473,38.6487 L13.0473,38.6487 Z" id="Stroke-5" fill="#000" fill-rule="nonzero"/><path d="M2.57564697,9.21147847 C6.2616177,8.06796663 10.3535814,7.81561498 14.5680667,8.99954871 L15.0368326,9.13703524 L14.1597674,12.0059648 C10.4145271,10.8610011 6.75307649,11.056551 3.46455381,12.0767611 C2.87639473,12.2592278 2.35407493,12.4536573 1.90571976,12.6462124 L1.67798076,12.7466018 L1.40843093,12.875962 L0.000169065366,10.227038 C0.505632486,9.95831572 1.38329457,9.5813862 2.57564697,9.21147847 Z" id="Stroke-7" fill="#000" fill-rule="nonzero"/><path d="M27.4327673,1.61074391 C31.7294847,0.539609121 35.85137,0.927023851 39.5454285,2.22070874 C40.6627133,2.61198958 41.5287224,3.00892816 42.1054952,3.32415386 L42.3911858,3.48746626 L40.8460142,6.05893374 L40.6830708,5.96779273 C40.5848397,5.91521377 40.4526078,5.84736079 40.2880352,5.76752086 C39.7889686,5.52540617 39.2078998,5.28115198 38.5538553,5.05210108 C35.5067759,3.98499275 32.1271224,3.6348104 28.6169983,4.41363387 L28.1584327,4.52165609 L27.4327673,1.61074391 Z" id="Stroke-9" fill="#000" fill-rule="nonzero"/><path d="M2.29348496,21.505614 C4.78316311,15.2814186 15.5765131,15.2055138 17.1047395,21.5313094 L17.157071,21.7685258 L14.215329,22.3568742 C13.5401751,18.9811049 6.8011145,18.9218809 5.16179365,22.4285178 L5.07891504,22.619786 L2.29348496,21.505614 Z" id="Stroke-15" fill="#000" fill-rule="nonzero"/></g></g><polygon id="Stroke-5" fill="#000" fill-rule="nonzero" points="33.1977829 19.396766 36.1476171 18.850434 40.4350211 41.9996 30.5607 41.9996 30.5607 38.9996 36.828 38.999"/></g></g><g id="Accessories" transform="translate(396.000000, 56.000000) scale(1 1)" fill="#000"><g id="Accessories/N65" stroke="none" stroke-width="1" fill="none" fill-rule="evenodd"><path d="M55.1977784,0.766509801 C61.8672688,0.766509801 65.5931791,6.91877559 68.3190852,9.67622448 C68.5366389,9.86933778 68.7500465,10.0676638 68.9593821,10.2698541 C69.0753941,10.3682311 69.1897807,10.4565674 69.3026336,10.535583 L69.2915753,10.5973925 C73.2112403,14.5427001 75.6165684,19.8776287 75.6165684,25.7499259 C75.6165684,37.9001904 65.3191176,47.7499259 52.6165684,47.7499259 C39.9140192,47.7499259 29.6165684,37.9001904 29.6165684,25.7499259 C29.6165684,17.6330728 34.2120776,10.5428914 41.0501479,6.73002773 L41.0440543,6.69219525 L41.0440543,6.69219525 C46.4836096,4.14573474 47.6906867,0.766509801 55.1977784,0.766509801 Z" id="Clothe" fill="#D8D8D8"/><path d="M32.6165684,20.7333421 C32.6165684,32.8836066 42.9140192,42.7333421 55.6165684,42.7333421 C63.0741024,42.7333421 69.702661,39.3383929 73.9051908,34.0761112 C70.4693708,42.0893844 62.2320375,47.7333421 52.6165684,47.7333421 C39.9140192,47.7333421 29.6165684,37.8836066 29.6165684,25.7333421 C29.6165684,20.7166936 31.3720069,16.0922234 34.3273758,12.3912869 C33.2246542,14.9640107 32.6165684,17.7807509 32.6165684,20.7333421 Z" id="SHADOW" fill="#000" opacity=".12"/><line x1="0" y1="0" x2="34.913" y2="14.229" id="Path-4" stroke="#22252B" stroke-width="2"/><line x1="33.673" y1="28.173" x2="0" y2="28.173" id="Path-5" stroke="#22252B" stroke-width="2"/></g></g><g id="Glasses" transform="translate(388.000000, 42.000000) scale(1 1)" fill="#000"><g id="Glasses/None" stroke="none" stroke-width="1" fill="none" fill-rule="evenodd" fill-opacity="0"/></g></g></g></g></svg>