<svg viewBox="200 160 1180.0000000000002 879.9999999999997" fill="none" xmlns="http://www.w3.org/2000/svg" xmlns:xlink="http://www.w3.org/1999/xlink" overflow="visible" width="1180.0000000000002px" height="879.9999999999997px"><g id="Master/Close Ups/Working"><g id="Food" transform="translate(707 418) scale(1 1)"><g id="Food/Avocado"><g id="Avocado"><ellipse id="Oval" cx="125" cy="125" rx="94" ry="125" fill="#B5E581"/><circle id="Oval_2" cx="125" cy="156" r="47" fill="#6A6434"/></g></g></g><g id="Computer"><path id="Monitor" fill-rule="evenodd" clip-rule="evenodd" d="M255.556 475.339L709.308 254.513C731.655 243.638 758.587 252.937 769.463 275.284C772.448 281.419 774 288.153 774 294.976V636.214C774 661.086 759.807 683.777 737.444 694.661L283.692 915.487C261.345 926.362 234.413 917.063 223.537 894.716C220.552 888.581 219 881.847 219 875.024V533.786C219 508.914 233.192 486.223 255.556 475.339ZM724 636.214V302.969L277.436 520.298C272.275 522.81 269 528.046 269 533.786V867.03L715.564 649.702C720.622 647.241 723.868 642.162 723.996 636.558L724 636.214Z" fill="#E4EDF1"/><path id="Path" d="M746.983 286.224C748.31 288.951 749 291.944 749 294.976V636.214C749 651.52 740.266 665.484 726.504 672.181L272.752 893.007C262.82 897.841 250.85 893.708 246.017 883.776C244.69 881.049 244 878.056 244 875.024V533.785C244 518.48 252.734 504.516 266.496 497.819L720.248 276.993C730.18 272.159 742.15 276.292 746.983 286.224Z" fill="#6E8B9A"/><path id="Path_2" d="M709 636.214V326.951L284 533.785L284 843.047L709 636.214Z" fill="#001D2D"/><path id="Keyboard" fill-rule="evenodd" clip-rule="evenodd" d="M424 897.21C424 889.529 428.398 882.527 435.318 879.193L708.45 747.57C713.195 745.283 718.651 744.96 723.633 746.673L827.994 782.541C844.893 788.349 846.273 811.715 830.176 819.472L587.241 936.543C583.908 938.15 580.194 938.8 576.514 938.422L441.956 924.595C431.755 923.547 424 914.954 424 904.7V897.21Z" fill="#E4EDF1"/><g id="code"><path id="Path_3" fill-rule="evenodd" clip-rule="evenodd" d="M673.387 411.987L642.034 427.29C637.071 429.712 631.084 427.653 628.661 422.689C626.239 417.726 628.298 411.739 633.262 409.316L664.614 394.013C669.577 391.591 675.564 393.651 677.987 398.614C680.409 403.577 678.35 409.564 673.387 411.987ZM540.485 476.855L606.088 444.835C611.051 442.413 613.11 436.425 610.688 431.462C608.265 426.499 602.278 424.439 597.315 426.862L531.712 458.882C526.749 461.305 524.69 467.292 527.112 472.255C529.535 477.218 535.522 479.278 540.485 476.855ZM504.538 494.401L438.936 526.421C433.973 528.844 427.985 526.784 425.563 521.821C423.14 516.858 425.2 510.87 430.163 508.448L495.766 476.427C500.729 474.005 506.716 476.065 509.139 481.028C511.561 485.991 509.502 491.978 504.538 494.401ZM402.989 543.966L337.387 575.987C332.423 578.409 326.436 576.35 324.014 571.386C321.591 566.423 323.651 560.436 328.614 558.013L394.217 525.993C399.18 523.571 405.167 525.63 407.59 530.593C410.012 535.557 407.952 541.544 402.989 543.966Z" fill="white"/><path id="Path Copy" fill-rule="evenodd" clip-rule="evenodd" d="M469.655 566.103L421.999 589.295C417.033 591.712 411.048 589.645 408.632 584.68C406.215 579.714 408.281 573.729 413.247 571.312L460.903 548.119C465.869 545.702 471.854 547.769 474.271 552.735C476.688 557.701 474.621 563.686 469.655 566.103ZM386.032 606.799L338.376 629.992C333.41 632.409 327.425 630.342 325.009 625.376C322.592 620.41 324.658 614.425 329.624 612.008L377.28 588.816C382.246 586.399 388.231 588.465 390.648 593.431C393.065 598.397 390.998 604.382 386.032 606.799Z" fill="white"/><path id="Path Copy_2" d="M501.392 549.984L546.392 527.984C551.354 525.558 553.41 519.57 550.984 514.608C548.558 509.646 542.57 507.591 537.608 510.016L492.608 532.016C487.647 534.442 485.591 540.431 488.016 545.392C490.442 550.354 496.431 552.41 501.392 549.984Z" fill="#FF8282"/><path id="Path Copy_3" fill-rule="evenodd" clip-rule="evenodd" d="M673.361 465.999L660.054 472.447C655.084 474.855 649.102 472.778 646.694 467.808C644.286 462.838 646.363 456.857 651.333 454.449L664.64 448.001C669.61 445.593 675.591 447.669 678 452.64C680.408 457.61 678.331 463.591 673.361 465.999ZM624.057 489.889L576.361 512.999C571.391 515.408 565.409 513.331 563.001 508.361C560.593 503.39 562.67 497.409 567.64 495.001L615.336 471.89C620.306 469.482 626.287 471.559 628.696 476.529C631.104 481.499 629.027 487.481 624.057 489.889Z" fill="#A37BFF"/><path id="Path Copy 2" fill-rule="evenodd" clip-rule="evenodd" d="M441.367 633.996L422.031 643.383C417.062 645.795 411.079 643.722 408.668 638.754C406.256 633.785 408.328 627.803 413.297 625.391L432.633 616.004C437.602 613.592 443.585 615.665 445.996 620.633C448.408 625.601 446.336 631.584 441.367 633.996ZM386.046 660.851L338.367 683.996C333.399 686.408 327.416 684.335 325.004 679.367C322.592 674.399 324.665 668.416 329.633 666.004L377.312 642.859C382.281 640.447 388.264 642.519 390.676 647.488C393.087 652.456 391.015 658.439 386.046 660.851Z" fill="#26A9FF"/><path id="Path Copy 2_2" d="M480.409 615.976L527.98 592.608C532.937 590.173 534.981 584.18 532.546 579.223C530.111 574.266 524.119 572.222 519.162 574.657L471.591 598.024C466.634 600.46 464.59 606.452 467.025 611.409C469.46 616.366 475.452 618.411 480.409 615.976Z" fill="#FF8282"/><path id="Path Copy 3" fill-rule="evenodd" clip-rule="evenodd" d="M660.008 580.517L576.432 621.31C571.469 623.733 565.481 621.673 563.059 616.71C560.636 611.746 562.696 605.759 567.659 603.337L651.235 562.544C656.198 560.121 662.185 562.181 664.608 567.144C667.03 572.107 664.971 578.094 660.008 580.517ZM456.909 679.648L540.485 638.855C545.448 636.433 547.508 630.446 545.085 625.482C542.663 620.519 536.676 618.46 531.712 620.882L448.136 661.675C443.173 664.098 441.114 670.085 443.536 675.048C445.959 680.011 451.946 682.071 456.909 679.648ZM337.387 737.987L420.963 697.194C425.926 694.771 427.985 688.784 425.563 683.821C423.14 678.858 417.153 676.798 412.19 679.22L328.614 720.013C323.651 722.436 321.591 728.423 324.014 733.386C326.436 738.35 332.423 740.409 337.387 737.987Z" fill="white"/><path id="Path Copy 4" fill-rule="evenodd" clip-rule="evenodd" d="M552.274 687.396L504.619 710.591C499.653 713.008 493.668 710.941 491.251 705.975C488.834 701.01 490.9 695.025 495.866 692.608L543.521 669.413C548.487 666.996 554.472 669.062 556.889 674.028C559.306 678.994 557.24 684.979 552.274 687.396ZM420.998 751.291L468.653 728.096C473.619 725.679 475.685 719.694 473.268 714.728C470.851 709.762 464.866 707.696 459.9 710.113L412.245 733.308C407.279 735.725 405.213 741.71 407.63 746.676C410.047 751.642 416.032 753.708 420.998 751.291ZM337.377 791.992L385.032 768.797C389.998 766.38 392.064 760.395 389.647 755.429C387.23 750.463 381.245 748.397 376.279 750.814L328.624 774.008C323.658 776.426 321.592 782.411 324.009 787.376C326.426 792.342 332.411 794.409 337.377 791.992Z" fill="#26A9FF"/></g></g><g id="Plants" transform="translate(327 870) scale(0.4666666666666667 0.4666666666666667)"><g id="Plants/Basic"><path id="Path 132" d="M202.814 16.4846C211.812 5.91244 225.841 6.62664 234.147 18.0798C242.453 29.5329 241.892 47.3879 232.894 57.96C211.724 82.8311 201.833 106.246 201.597 128.597L201.593 129.415C201.593 169.174 184.805 210.435 152.743 254.057C143.119 267.152 126.465 265.652 118.385 250.961L117.868 250.005C109.562 234.387 99.6166 203.405 86.7578 154.584L85.9503 151.509C74.7797 108.856 61.4266 82.3628 47.2683 71.1964L46.796 70.8299C36.2951 62.8106 32.89 45.4749 39.1906 32.1095C45.4912 18.744 59.1115 14.4101 69.6124 22.4294C94.4476 41.3953 113.313 78.2056 127.59 132.024L129.496 139.258C133.716 155.181 137.584 168.947 141.037 180.432L141.565 182.182L141.936 181.482C152.111 162.069 157.082 144.884 157.242 130.149L157.246 129.415C157.246 89.296 172.996 51.5173 202.814 16.4846Z" fill="#82D1C4"/><path id="Path 132_2" d="M104.215 42.8517C112.834 33.3269 125.179 35.6769 131.787 48.1006C154.306 90.4363 166 130.743 166 169.279C166 208.401 153.963 246.872 130.91 284.434C125.525 293.208 116.951 296.304 109.333 292.225C89.6086 281.666 76.2587 268.017 70.1068 248.621C63.0071 226.236 67.3717 202.966 79.8799 181.727L80.3196 180.987C81.342 179.281 82.1359 177.748 82.7127 176.418L82.9146 175.937L82.8666 175.879C82.067 174.913 81.0157 173.855 79.7092 172.739L79.2642 172.365C75.1904 168.993 69.4177 165.614 62.0201 162.415C51.617 157.917 45.7136 142.115 48.8346 127.12C51.9555 112.126 62.9188 103.617 73.3219 108.115C95.0013 117.49 109.769 129.713 117.507 147.77C127.164 170.307 126.495 189.051 126.664 170.235L126.668 169.279C126.668 144.826 118.26 115.845 100.573 82.5929C93.9648 70.1693 95.5952 52.3765 104.215 42.8517Z" fill="#59BCAB"/><path id="Path 132_3" d="M104.131 25.7821C107.643 9.61949 119.979 0.447815 131.685 5.2966C143.391 10.1454 150.033 27.1785 146.522 43.3411L145.908 46.1939C136.142 92.0049 134.175 122.846 138.1 135.981L139.936 141.829C143.588 153.527 147.934 167.953 152.98 185.124L156.406 196.838L156.584 196.259C158.333 190.415 159.189 183.739 159.253 176.037L159.257 175.108C159.257 146.776 168.889 124.068 186.804 112.002C201.446 102.14 220.533 99.9974 244.548 104.041C256.679 106.084 265.314 121.318 263.835 138.069C262.356 154.819 251.322 166.742 239.191 164.699L237.432 164.415C222.079 162.047 211.527 163.34 206.208 166.923C204.034 168.387 203.544 169.423 203.515 174.579L203.513 175.108C203.513 220.897 187.263 256.018 157.002 276C145.421 283.648 131.572 276.128 126.866 259.635L122.05 242.815C112.892 210.953 105.476 185.901 99.8242 167.719L97.6771 160.875C88.0797 130.585 90.927 86.554 104.131 25.7821Z" fill="#42AB99"/><path id="Rectangle" fill-rule="evenodd" clip-rule="evenodd" d="M60 240H200V254.894C200 269.307 194.037 283.077 183.526 292.939V292.939C178.691 297.475 172.31 300 165.68 300H94.3205C87.6902 300 81.3088 297.475 76.4735 292.939V292.939C65.9627 283.077 60 269.307 60 254.894V240Z" fill="#E4EDF1"/><path id="Combined Shape" fill-rule="evenodd" clip-rule="evenodd" d="M182 254C182 251.791 180.209 250 178 250H159L158.8 250.005C156.684 250.109 155 251.858 155 254C155 256.209 156.791 258 159 258H178L178.2 257.995C180.316 257.891 182 256.142 182 254ZM186 268C186 265.791 184.209 264 182 264H173L172.8 264.005C170.684 264.109 169 265.858 169 268C169 270.209 170.791 272 173 272H182L182.2 271.995C184.316 271.891 186 270.142 186 268ZM159 270C161.209 270 163 271.791 163 274C163 276.142 161.316 277.891 159.2 277.995L159 278H146C143.791 278 142 276.209 142 274C142 271.858 143.684 270.109 145.8 270.005L146 270H159ZM170 288C170 285.791 168.209 284 166 284H153L152.8 284.005C150.684 284.109 149 285.858 149 288C149 290.209 150.791 292 153 292H166L166.2 291.995C168.316 291.891 170 290.142 170 288Z" fill="#B9CCD4"/></g></g><g id="Master/Character/Bust" transform="matrix(-1 0 0 1 1664 0) scale(1 1)"><g id="Master/Character/Bust"><g id="Bodies" transform="translate(290 534) scale(1 1)"><g id="Bodies/Green B"><g id="Group"><path id="Mask" fill-rule="evenodd" clip-rule="evenodd" d="M87.3758 98.6254C55.2838 135.268 40.9068 187.81 65.1858 229.117C83.7298 260.665 119.85 280.63 156.81 292.928C212.938 311.603 276.392 315.647 332.303 296.443C388.213 277.238 434.854 232.727 445.139 179.222C453.22 137.183 446.599 85.9854 387.998 55.3514C342.94 31.7974 163.736 11.4374 87.3758 98.6254" fill="#21BFCA"/><mask id="mask006e25dba-2dbc-4171-afd9-0233672f6f02" mask-type="alpha" maskUnits="userSpaceOnUse" x="53" y="35" width="395" height="275" fill="#ffffff"><path id="Mask_2" fill-rule="evenodd" clip-rule="evenodd" d="M87.3758 98.6254C55.2838 135.268 40.9068 187.81 65.1858 229.117C83.7298 260.665 119.85 280.63 156.81 292.928C212.938 311.603 276.392 315.647 332.303 296.443C388.213 277.238 434.854 232.727 445.139 179.222C453.22 137.183 446.599 85.9854 387.998 55.3514C342.94 31.7974 163.736 11.4374 87.3758 98.6254" fill="#ffffff"/></mask><g mask="url(#mask006e25dba-2dbc-4171-afd9-0233672f6f02)"><g id="Patterns"><g id="Group_2"><path id="Path 49" d="M47.5118 43.2402L452.512 52.9602L452.488 53.9599L47.4878 44.2399L47.5118 43.2402Z" fill="white"/><path id="Path 50" d="M452.476 88.6006L452.524 89.5994L47.524 109.039L47.4761 108.041L452.476 88.6006Z" fill="white"/><path id="Path 51" d="M452.449 116.953L452.551 117.947L47.5507 159.257L47.4492 158.263L452.449 116.953Z" fill="white"/><path id="Path 52" d="M47.5596 184.994L452.56 233.594L452.44 234.587L47.4404 185.987L47.5596 184.994Z" fill="white"/><path id="Path 53" d="M47.5477 209.292L452.548 248.172L452.452 249.168L47.4521 210.288L47.5477 209.292Z" fill="white"/><path id="Path 54" d="M47.5138 256.27L452.514 267.61L452.486 268.61L47.4858 257.27L47.5138 256.27Z" fill="white"/><path id="Path 55" d="M452.454 295.962L452.546 296.958L47.5457 334.218L47.4541 333.222L452.454 295.962Z" fill="white"/><path id="Path 59" d="M47.5199 175.271L452.52 191.471L452.48 192.47L47.48 176.27L47.5199 175.271Z" fill="white"/></g></g></g></g><path id="Mask_3" fill-rule="evenodd" clip-rule="evenodd" d="M143.677 352.329C131.006 377.229 137.22 409.212 155.202 430.594C173.185 451.975 201.107 463.401 228.965 465.525C256.823 467.649 284.722 461.251 311.016 451.807C331.365 444.498 351.537 435.01 366.613 419.51C381.688 404.009 390.929 381.483 385.993 360.432C374.273 310.445 312.926 307.16 271.858 309.058C226.927 311.135 168.228 304.085 143.677 352.329" fill="#2088A8"/><mask id="mask106e25dba-2dbc-4171-afd9-0233672f6f02" mask-type="alpha" maskUnits="userSpaceOnUse" x="137" y="308" width="251" height="158" fill="#ffffff"><path id="Mask_4" fill-rule="evenodd" clip-rule="evenodd" d="M143.677 352.329C131.006 377.229 137.22 409.212 155.202 430.594C173.185 451.975 201.107 463.401 228.965 465.525C256.823 467.649 284.722 461.251 311.016 451.807C331.365 444.498 351.537 435.01 366.613 419.51C381.688 404.009 390.929 381.483 385.993 360.432C374.273 310.445 312.926 307.16 271.858 309.058C226.927 311.135 168.228 304.085 143.677 352.329" fill="#ffffff"/></mask><g mask="url(#mask106e25dba-2dbc-4171-afd9-0233672f6f02)"><g id="Patterns_2"><g id="Group_3"><path id="Path 7" d="M184.584 472.023C181.212 472.707 166.841 475.617 162.722 476.398L161.104 476.702C153.936 478.033 148.281 478.888 143.218 479.359C130.405 480.551 121.499 479.176 115.21 474.467L114.893 474.225L115.506 473.435C121.568 478.149 130.325 479.554 143.126 478.364C148.34 477.879 154.2 476.981 161.724 475.569L163.793 475.173C169.685 474.026 184.599 471 185.088 470.9L187.553 470.412C213.207 465.378 231.672 463.011 251.754 463.011C277.901 463.011 298.337 465.58 329.114 471.63L345.893 474.977C346.905 475.176 347.86 475.363 348.793 475.544L351.681 476.098C357.465 477.194 362.423 478.054 367.196 478.77C378.227 480.426 388.062 481.268 397.835 481.268C427.509 481.268 465.055 454.112 510.398 399.759L511.774 398.104L512.544 398.742C466.409 454.411 428.198 482.268 397.835 482.268C388.009 482.268 378.124 481.422 367.047 479.759L365.444 479.514C360.609 478.763 355.519 477.858 349.532 476.705L344.666 475.754L331.544 473.13L327.631 472.358C297.629 466.502 277.457 464.011 251.754 464.011C231.749 464.011 213.34 466.371 187.751 471.393L184.584 472.023Z" fill="white"/><path id="Path 10" d="M512.541 386.839C487.077 417.072 457.094 437.763 422.599 448.906C410.579 452.788 395.915 453.803 377.331 452.494L375.081 452.327C363.065 451.4 353.786 450.152 330.338 446.442L312.583 443.62C300.863 441.78 292.858 440.627 284.321 439.583C253.636 435.831 229.594 435.639 208.228 440.015L207.397 440.188C160.068 450.177 129.328 446.103 115.22 427.854L114.798 427.296L115.6 426.7C129.075 444.836 159.118 449.142 205.772 439.505L207.19 439.209C228.614 434.687 252.635 434.774 283.246 438.446L287.158 438.929C294.92 439.913 302.611 441.038 313.489 442.75L332.886 445.832C355.343 449.369 364.23 450.521 376.423 451.426C395.356 452.832 410.205 451.858 422.292 447.954C456.261 436.982 485.833 416.698 511.014 387.094L511.776 386.194L512.541 386.839Z" fill="white"/><path id="Path 11" d="M512.187 370.936L512.131 371.934C493.105 370.878 478.099 375.997 456.574 388.662L454.658 389.799C453.747 390.342 452.798 390.913 451.748 391.548L443.815 396.376L441.448 397.805C426.985 406.493 417.427 411.329 405.972 415.172C390.677 420.304 374.728 422.202 356.708 420.453L355.705 420.352C311.107 415.707 266.951 418.498 214.901 426.643L211.908 427.117C201.691 428.762 176.107 433.148 171.644 433.843C147.879 437.539 129.041 429.718 115.208 410.412L114.79 409.823L115.608 409.248C129.123 428.477 147.489 436.371 170.783 432.961L171.815 432.803C177.297 431.933 204.01 427.352 213.007 425.929C265.311 417.653 309.629 414.715 354.319 419.205L355.809 419.357C374.097 421.262 390.21 419.406 405.654 414.224C417.229 410.34 426.869 405.428 441.714 396.478L450.775 390.969C452.473 389.94 453.904 389.081 455.302 388.252C477.138 375.316 492.346 369.977 511.516 370.901L512.187 370.936Z" fill="white"/><path id="Path 12" fill-rule="evenodd" clip-rule="evenodd" d="M186.121 378.083C198.39 379.669 208.328 383.223 213.108 388.076C218.685 393.735 217.1 400.745 207.606 408.338C188.967 423.247 170.613 428.467 156.146 424.304C142.848 420.476 134.547 408.981 134.547 394.454C134.547 381.047 159.37 374.624 186.121 378.083ZM156.423 423.343C170.545 427.407 188.577 422.278 206.982 407.558C216.06 400.296 217.495 393.952 212.396 388.777C207.967 384.282 198.727 380.877 187.233 379.243L185.993 379.075C159.798 375.688 135.547 381.963 135.547 394.454C135.547 408.544 143.561 419.641 156.423 423.343Z" fill="white"/><path id="Path 12_2" fill-rule="evenodd" clip-rule="evenodd" d="M182.18 386.416C189.937 387.429 196.224 389.701 199.268 392.821C202.862 396.506 201.838 401.08 195.79 405.966C184.02 415.477 172.412 418.812 163.245 416.147C154.797 413.691 149.524 406.313 149.524 397.001C149.524 388.314 165.248 384.204 182.18 386.416ZM163.524 415.187C172.343 417.751 183.627 414.509 195.162 405.188C200.798 400.634 201.674 396.721 198.552 393.519C195.702 390.597 189.605 388.394 182.05 387.407C165.672 385.268 150.524 389.228 150.524 397.001C150.524 405.877 155.513 412.857 163.524 415.187Z" fill="white"/><path id="Path 12_3" fill-rule="evenodd" clip-rule="evenodd" d="M178 395.594C180.971 395.975 183.388 396.833 184.589 398.043C186.09 399.555 185.657 401.453 183.258 403.358C174.391 410.397 165.402 407.829 165.402 399.807C165.402 396.316 171.476 394.757 178 395.594ZM166.402 399.807C166.402 406.876 174.355 409.148 182.636 402.575C184.618 401.002 184.898 399.773 183.88 398.748C182.871 397.732 180.643 396.941 177.873 396.586C171.906 395.82 166.402 397.233 166.402 399.807Z" fill="white"/><path id="Path 13" d="M512.182 358.235L512.135 359.234L509.346 359.109C474.186 357.604 445.679 359.128 421.845 363.29C402.688 366.635 387.54 371.377 371.473 378.345L370.424 378.803C366.191 380.659 349.901 388.301 345.778 390.073C329.111 397.232 315.551 400.027 296.977 398.922C270.642 397.355 252.214 391.988 230.849 381.655L229.562 381.026C226.968 379.736 214.874 373.639 211.281 371.967C198.372 365.958 188.09 363.204 175.537 363.204C148.444 363.204 128.615 372.209 115.992 390.219L115.612 390.768L114.787 390.202C127.589 371.536 147.859 362.204 175.537 362.204C187.988 362.204 198.237 364.879 210.892 370.685L212.084 371.239C216.367 373.264 229.084 379.682 230.384 380.317C252.024 390.884 270.474 396.343 297.036 397.924C315.137 399.001 328.403 396.347 344.559 389.505L345.383 389.154C349.488 387.391 365.773 379.75 370.022 377.887C386.551 370.638 402.015 365.737 421.673 362.304L423.57 361.98C447.408 357.998 475.844 356.605 510.781 358.171L512.182 358.235Z" fill="white"/><path id="Path 14" fill-rule="evenodd" clip-rule="evenodd" d="M400.381 377.022C423.111 371.105 444.288 369.543 446.711 374.386C448.197 377.358 446.187 380.742 441.345 384.519L440.738 384.984C437.075 387.735 432.032 390.636 425.716 393.761L425.235 393.997C421.123 396.004 412.969 399.685 408.711 401.607C407.855 401.993 407.156 402.309 406.68 402.525L405.997 402.839C399.452 406.111 390.072 409.511 382.036 410.823C370.217 412.752 362.243 410.18 360.036 401.724C357.78 393.075 374.322 383.896 399.692 377.202L400.381 377.022ZM425.939 392.533C431.893 389.56 436.662 386.794 440.138 384.184C445.064 380.485 447.063 377.326 445.816 374.834C443.721 370.645 422.28 372.277 399.947 378.169L399.207 378.366C374.887 384.876 358.997 393.781 361.004 401.472C363.043 409.287 370.501 411.692 381.875 409.836C389.797 408.543 399.088 405.175 405.55 401.944C405.706 401.866 406.776 401.383 408.365 400.666C412.586 398.76 420.465 395.203 424.592 393.198L425.939 392.533Z" fill="white"/><path id="Path 14_2" fill-rule="evenodd" clip-rule="evenodd" d="M393.911 385.94C406.157 382.778 417.443 381.957 418.813 384.682C419.71 386.465 418.458 388.432 415.559 390.596C413.592 392.065 410.892 393.61 407.513 395.272L407.16 395.444C404.929 396.523 400.652 398.442 398.422 399.443C397.738 399.75 397.246 399.97 397.065 400.054L396.532 400.313C393.054 401.985 388.279 403.671 384.155 404.34C377.749 405.38 373.377 403.977 372.161 399.344C370.903 394.549 379.796 389.642 393.474 386.054L393.911 385.94ZM407.071 394.375C410.4 392.737 413.053 391.219 414.961 389.795C417.504 387.895 418.513 386.311 417.92 385.132C416.91 383.124 406.027 383.898 394.576 386.802L393.274 387.141C380.488 390.553 372.114 395.225 373.128 399.09C374.176 403.084 378.033 404.32 383.995 403.353C388.193 402.671 393.126 400.893 396.553 399.19C396.639 399.147 397.219 398.887 398.078 398.501C400.077 397.604 403.587 396.028 405.885 394.944L407.071 394.375Z" fill="white"/><path id="Path 15" d="M512.308 347.145L512.01 348.099C483.786 339.293 459.686 335.9 436.975 336.858L435.406 336.93C418.754 337.761 404.543 340.554 382.619 346.542L370.138 350.005C346.516 356.531 333.298 359.383 316.176 360.924L315.507 360.983C292.089 363.031 267.361 361.248 238.697 354.767L237.351 354.459C151.157 334.613 107.574 351.654 106.201 405.516L106.172 407.159L105.172 407.149C105.7 351.74 149.096 333.676 234.96 352.891L237.575 353.485C266.264 360.091 290.971 361.999 314.326 360.08L315.42 359.987C333.24 358.428 346.674 355.49 371.733 348.525L380.274 346.149L382.359 345.577C405.033 339.383 419.503 336.594 436.932 335.859C459.426 334.91 483.265 338.205 511.06 346.758L512.308 347.145Z" fill="white"/><path id="Path 16" d="M529.222 321.909L528.441 322.534C508.095 297.107 486.711 287.394 461.469 289.718C451.03 290.679 439.928 293.647 426.848 298.69L425.91 299.054C420.57 301.139 414.942 303.54 408.234 306.564L405.469 307.818C403.873 308.545 402.191 309.318 400.275 310.203L388.196 315.802L385.318 317.126C354.665 331.171 335.584 337.941 313.748 340.974C257.063 348.845 191.57 338.018 117.268 308.505L115.013 307.604L115.386 306.676C190.468 336.809 256.543 347.908 313.61 339.983L314.95 339.792C336.338 336.654 355.361 329.791 385.856 315.779L402.575 308.042C404.124 307.331 405.543 306.683 406.941 306.051L409.554 304.876C415.525 302.206 420.655 300.032 425.547 298.123C439.115 292.827 450.584 289.716 461.377 288.722C486.708 286.39 508.237 296.031 528.605 321.144L529.222 321.909Z" fill="white"/><path id="Path 17" d="M521.946 289.25L521.426 290.105C514.666 285.991 508.654 282.949 500.538 279.99C489.426 275.938 476.436 272.997 461 271.422C421.561 267.399 369.826 272.605 303.127 289.642L301.101 290.162C201.407 315.867 131.013 312.746 89.9227 280.727L88.6865 279.748L89.3136 278.969C129.509 311.328 199.019 315.016 297.848 289.961L300.852 289.193C368.637 271.715 421.136 266.35 461.101 270.428C476.618 272.011 489.69 274.97 500.88 279.05C508.773 281.928 514.698 284.886 521.219 288.81L521.946 289.25Z" fill="white"/></g></g></g></g></g><g id="Heads" transform="translate(508 359) scale(1 1)"><g id="Heads/Tall"><g id="Patterns"><path id="Mask" fill-rule="evenodd" clip-rule="evenodd" d="M29.2136 68.5071C16.4007 105.079 11.8454 193.02 100.988 193.02C190.13 193.02 188.236 66.4603 163.724 33.8335C142.097 5.04756 60.3079 -20.2505 29.2136 68.5071" fill="#64BBF6"/><mask id="mask0ef6e2df0-ee43-4cb2-93b2-1bf1827b3039" mask-type="alpha" maskUnits="userSpaceOnUse" x="22" y="7" width="157" height="187" fill="#ffffff"><path id="Mask_2" fill-rule="evenodd" clip-rule="evenodd" d="M29.2136 68.5071C16.4007 105.079 11.8454 193.02 100.988 193.02C190.13 193.02 188.236 66.4603 163.724 33.8335C142.097 5.04756 60.3079 -20.2505 29.2136 68.5071" fill="#ffffff"/></mask><g mask="url(#mask0ef6e2df0-ee43-4cb2-93b2-1bf1827b3039)"><g id="Patterns_2"><g id="Group"><path id="Path 4" d="M293.171 12.37C246.069 73.5389 219.977 119.387 214.895 149.861C207.188 196.083 113.277 265.514 49.346 271.868L47.418 272.041L47.3382 271.044C110.871 265.956 206.207 195.883 213.909 149.696C218.974 119.32 244.661 73.9693 290.969 13.5941L292.379 11.7599L293.171 12.37Z" fill="white"/><path id="Path 5" d="M286.785 6.03226C245.121 53.1406 211.577 100.293 186.154 147.49C160.901 194.368 108.214 233.902 28.1085 266.114L25.6727 267.088L25.3032 266.159C106.578 233.85 159.895 194.128 185.273 147.016C210.445 100.286 243.56 53.6065 284.617 6.97763L286.036 5.36976L286.785 6.03226Z" fill="white"/><path id="Path 6" fill-rule="evenodd" clip-rule="evenodd" d="M123.241 161.144C146.684 138.37 167.029 124.949 174.296 129.435C181.624 133.958 179.922 144.858 171.043 159.211L170.49 160.094C162.108 173.339 148.46 188.126 135.028 198.595C118.984 211.1 106.991 219.347 98.0224 223.529L97.5642 223.741C92.406 226.091 88.4368 226.949 85.6892 226.151C82.5177 225.229 81.0975 222.173 81.5052 216.997C82.2813 207.145 99.9667 183.879 122.529 161.837L123.241 161.144ZM134.413 197.806C147.756 187.407 161.326 172.705 169.645 159.56C178.734 145.197 180.567 134.481 173.77 130.286C167.069 126.149 146.52 139.798 123.228 162.552L122.559 163.208C100.506 184.87 83.2436 207.663 82.5021 217.076C82.1276 221.831 83.3332 224.424 85.9682 225.19C88.4998 225.926 92.4203 225.038 97.5998 222.623C106.069 218.673 117.33 211.016 132.226 199.504L134.413 197.806Z" fill="white"/><path id="Path 6_2" fill-rule="evenodd" clip-rule="evenodd" d="M128.371 170.122C143.672 155.121 156.576 145.983 160.842 148.385C165.243 150.863 163.525 157.722 157.189 167.038C151.568 175.302 142.752 184.737 134.276 191.603C124.155 199.8 116.645 205.276 111.12 208.199C107.774 209.968 105.259 210.732 103.56 210.371C101.563 209.946 100.818 208.068 101.331 204.879C102.282 198.959 113.903 184.307 128.371 170.122ZM133.646 190.825C142.048 184.02 150.797 174.657 156.362 166.476C162.381 157.626 163.968 151.292 160.351 149.256C152.621 144.904 104.382 192.199 102.318 205.038C101.879 207.767 102.41 209.104 103.768 209.393C105.166 209.69 107.502 208.981 110.652 207.315L110.975 207.142C116.071 204.393 122.895 199.462 131.896 192.237L133.646 190.825Z" fill="white"/><path id="Path 7" d="M180.588 105.405L178.287 106.96L166.085 115.104C141.534 131.498 126.592 142.993 109.549 160.037C97.0723 172.513 87.0156 185.46 74.2935 204.324L62.6305 221.838C62.0386 222.722 61.5213 223.492 61.1205 224.085L60.8195 224.528C56.7246 230.541 53.4354 235.038 50.298 238.82C42.9072 247.727 36.3646 252.522 29.3607 253.533L28.9851 253.583L28.8612 252.591C35.6996 251.738 42.1527 247.07 49.5284 238.181L50.1983 237.366C53.0015 233.919 55.9681 229.853 59.559 224.601L61.1883 222.194C64.571 217.154 71.594 206.552 71.4656 206.744L72.1376 205.739C85.5278 185.747 95.8795 172.292 108.842 159.329L110.368 157.813C126.591 141.788 141.207 130.559 164.434 115.005L175.717 107.482C176.986 106.632 178.123 105.867 179.238 105.112L181.559 103.534C185.574 100.789 189.022 98.3522 192.288 95.9396C200.355 89.9797 207.143 84.2619 213.356 78.0493C232.213 59.1921 238.808 18.0489 233.058 -45.3571L232.88 -47.2853L233.876 -47.3788C239.961 17.3966 233.385 59.4337 214.063 78.7564C207.812 85.007 200.987 90.7562 192.882 96.7439L191.644 97.6531C188.317 100.084 184.759 102.572 180.588 105.405Z" fill="white"/><path id="Path 10" d="M226.805 -54.4442C229.717 -19.136 223.725 13.0161 208.826 42.0015C203.637 52.0961 194.961 62.057 182.331 73.0394L180.186 74.8858C172.308 81.6132 165.6 86.7343 149.181 98.6974L136.374 108.009C127.674 114.354 121.804 118.74 115.806 123.421L114.987 124.061C93.1337 141.178 77.7379 156.326 66.9218 172.649L66.4611 173.35C42.667 209.774 20.5306 226.758 0.00152625 224.194L-0.620076 224.111L-0.477203 223.121C19.5277 226.009 41.3399 209.635 64.9091 173.892L65.6239 172.803C76.3795 156.338 91.6879 141.131 113.434 124.009L115.6 122.313C122.559 116.893 129.431 111.804 140.83 103.532L149.754 97.0424C166.269 84.9974 172.648 80.074 180.972 72.8934C193.897 61.7452 202.72 51.692 207.936 41.5444C222.594 13.0292 228.581 -18.5706 225.896 -53.2654L225.808 -54.362L226.805 -54.4442Z" fill="white"/><path id="Path 11" d="M215.445 -65.3038L216.111 -64.5583C203.518 -53.2992 197.256 -40.6775 191.739 -19.4181L191.106 -16.927C190.823 -15.798 190.533 -14.6152 190.206 -13.2641L188.34 -5.48478L187.925 -3.77327C184.212 11.4101 181.213 20.7257 176.312 30.6317C169.75 43.8933 160.606 55.4372 147.649 65.934C116.338 91.2996 90.0619 121.142 62.2017 159.421L59.4552 163.222C53.4885 171.543 41.4977 188.534 39.2514 191.615C26.4944 209.111 9.48542 216.089 -11.6971 212.516L-12.3402 212.405L-12.165 211.42C8.72891 215.14 25.4452 208.525 38.0623 191.543L39.1054 190.109C42.8103 184.949 55.5148 166.949 60.2389 160.422L60.4082 160.188C88.3529 121.647 114.641 91.5922 145.914 66.0564L147.02 65.157C159.864 54.7519 168.916 43.3221 175.415 30.1882C180.367 20.1804 183.367 10.7617 187.16 -4.8609L189.473 -14.4852C189.668 -15.2829 189.851 -16.0261 190.029 -16.7428L190.56 -18.8476L190.993 -20.517C196.43 -41.1669 202.678 -53.7055 214.951 -64.8584L215.445 -65.3038Z" fill="white"/><path id="Path 12" fill-rule="evenodd" clip-rule="evenodd" d="M12.3773 147.206C21.2433 140.374 29.8803 136.296 36.0578 136.349C43.2794 136.411 46.7744 141.942 45.5688 152.899C43.2057 174.378 34.8113 189.468 22.8826 196.054C11.9114 202.112 -0.780379 200.049 -10.102 190.728C-18.7217 182.108 -6.95715 162.104 12.3773 147.206ZM22.3992 195.179C34.0135 188.766 42.2446 173.97 44.5748 152.79C45.7223 142.36 42.5913 137.405 36.0492 137.349C30.1474 137.298 21.6923 141.291 12.9876 147.998C-5.90297 162.554 -17.3675 182.048 -9.39489 190.021C-0.382513 199.033 11.8257 201.018 22.3992 195.179Z" fill="white"/><path id="Path 12_2" fill-rule="evenodd" clip-rule="evenodd" d="M15.6688 154.815C21.283 150.485 26.7538 147.894 30.6905 147.921C35.36 147.953 37.6204 151.536 36.8389 158.528C35.3223 172.096 29.9952 181.652 22.4268 185.84C15.4455 189.703 7.37434 188.405 1.46341 182.494C-4.06961 176.961 3.40811 164.271 15.6688 154.815ZM21.9426 184.965C29.1978 180.95 34.3618 171.687 35.8451 158.417C36.5675 151.954 34.6717 148.949 30.6836 148.921C27.0223 148.896 21.7328 151.401 16.2795 155.607C4.46302 164.721 -2.71491 176.902 2.17051 181.787C7.77163 187.388 15.3586 188.609 21.9426 184.965Z" fill="white"/><path id="Path 12_3" fill-rule="evenodd" clip-rule="evenodd" d="M18.762 164.012C20.8882 162.373 22.9685 161.389 24.5118 161.402C26.4535 161.417 27.4057 162.925 27.101 165.678C25.9815 175.791 18.6246 179.857 13.4869 174.719C11.2339 172.466 14.0899 167.613 18.762 164.012ZM14.194 174.012C18.659 178.477 25.0703 174.934 26.1071 165.568C26.3533 163.343 25.7653 162.412 24.5039 162.402C23.2361 162.392 21.3375 163.289 19.3725 164.804C15.1444 168.063 12.5883 172.406 14.194 174.012Z" fill="white"/><path id="Path 13" d="M207.323 -73.4205L207.995 -72.6806C183.721 -50.6073 165.999 -30.9633 153.199 -12.6583C143.185 1.66196 136.613 14.3368 130.891 29.0222L130.324 30.4948C128.617 35.0099 123.519 49.3348 122.092 52.9628C116.104 68.183 109.277 78.6146 96.7456 89.7204C79.0009 105.447 63.831 113.71 43.6114 120.634L41.8163 121.236C38.5506 122.306 28.0319 125.719 24.8606 126.857C12.7864 131.191 4.47971 135.951 -3.4965 143.927C-20.7136 161.144 -27.5141 179.541 -23.938 199.158L-23.8265 199.753L-24.8084 199.942C-28.6992 179.755 -21.8172 160.834 -4.20361 143.22C3.70965 135.307 11.946 130.512 23.7149 126.209L24.9064 125.78C28.9612 124.353 41.1362 120.417 42.3686 120.001C62.9335 113.051 78.1778 104.84 96.0823 88.972C108.269 78.1714 114.989 68.0402 120.848 53.3861L121.161 52.5967C122.634 48.8514 128.067 33.5718 129.569 29.6677C135.41 14.4812 142.088 1.4851 152.379 -13.2314L153.461 -14.7653C166.035 -32.4411 183.174 -51.3654 206.313 -72.5002L207.323 -73.4205Z" fill="white"/><path id="Path 14" fill-rule="evenodd" clip-rule="evenodd" d="M148.266 10.1563C159.038 -8.15202 171.575 -22.6751 176.238 -21.1304C179.226 -20.1406 180.051 -16.436 179.196 -10.5218C178.651 -6.74401 177.435 -2.13471 175.641 3.28938L175.181 4.66237C173.909 8.40397 170.864 16.4173 169.306 20.5173C168.859 21.6948 168.534 22.5496 168.409 22.8876L168.156 23.6221C166.017 29.8017 162.291 37.6384 158.125 43.4222C151.79 52.2155 145.038 55.6853 138.223 51.701C131.242 47.6191 135.976 31.2004 147.94 10.7122L148.266 10.1563ZM174.234 4.34052C176.263 -1.62932 177.626 -6.64522 178.207 -10.6647C178.998 -16.1409 178.271 -19.4034 175.923 -20.1811C171.958 -21.4946 159.305 -6.76609 148.804 11.2165L148.457 11.8129C137.079 31.4571 132.597 47.2529 138.728 50.8377C144.971 54.488 151.241 51.2657 157.313 42.8377C161.548 36.9601 165.338 28.8886 167.41 22.7114C167.46 22.5613 167.838 21.5686 168.397 20.0953C169.874 16.2068 172.623 8.971 173.99 5.04761L174.234 4.34052Z" fill="white"/><path id="Path 14_2" fill-rule="evenodd" clip-rule="evenodd" d="M149.391 19.9379C155.055 10.1541 161.626 2.51848 164.299 3.44179L164.458 3.50254C166.071 4.17496 166.523 6.22849 166.118 9.37658C165.835 11.5756 165.14 14.2844 164.094 17.4976C163.443 19.497 161.877 23.7746 161.083 25.9423C160.857 26.5601 160.693 27.0065 160.632 27.1799L160.455 27.7133C159.351 30.9938 157.442 35.0923 155.282 38.1239C151.91 42.8556 148.214 44.7111 144.409 42.4462C140.472 40.1035 142.883 31.2886 149.171 20.3202L149.391 19.9379ZM163.321 16.6357C164.25 13.7185 164.869 11.2488 165.126 9.24903C165.489 6.42749 165.096 4.77535 163.972 4.38696C162.019 3.71227 155.414 11.4398 150.038 20.8175L149.81 21.2172C144.008 31.4502 141.792 39.7252 144.92 41.5869C148.157 43.5132 151.359 41.9056 154.468 37.5436C156.663 34.4633 158.608 30.2053 159.655 26.9448C159.682 26.8625 159.878 26.3252 160.169 25.5303C160.929 23.4535 162.332 19.6186 163.024 17.5488L163.321 16.6357Z" fill="white"/><path id="Path 15" d="M200.832 -80.0883L201.296 -79.2024C177.715 -66.853 160.211 -53.676 146.366 -38.6098C135.646 -26.9435 128.187 -15.8553 117.495 2.95093L112.085 12.5322C101.137 31.848 94.5209 42.0695 84.4192 54.1116C70.8269 70.3149 53.9626 84.9116 31.6085 99.0168L30.4862 99.7217C-37.0273 141.927 -53.8923 180.51 -20.4392 215.71L-19.4101 216.776L-20.1239 217.476C-55.156 181.771 -39.034 142.587 27.9119 100.16L29.9561 98.8737C52.7819 84.6045 69.9027 69.8606 83.6531 53.4689L84.9095 51.9586C94.1336 40.7746 100.566 30.7871 110.758 12.844L116.114 3.35934L117.135 1.56253C127.592 -16.7646 135.019 -27.739 145.63 -39.2864C159.337 -54.2034 176.602 -67.2723 199.726 -79.5063L200.832 -80.0883Z" fill="white"/><path id="Path 16" d="M195.399 -107.078L195.285 -106.084C166.071 -109.436 146.266 -102.067 131.714 -84.5398C125.552 -77.1172 120.294 -67.9043 115.091 -55.9573L114.531 -54.6595C112.756 -50.5162 110.975 -46.0384 108.991 -40.7793L108.016 -38.1743C107.5 -36.7879 106.97 -35.3493 106.381 -33.7397L101.84 -21.2454L101.134 -19.318C90.4974 9.64188 82.6683 26.2677 70.6161 42.241C39.6056 83.3404 -8.98869 118.058 -75.1588 146.403L-77.1693 147.26L-77.5597 146.339C-10.5127 117.902 38.6104 82.999 69.8178 41.6387C81.9271 25.5898 89.7622 8.84456 100.547 -20.6227L105.243 -33.5404C106.047 -35.7412 106.738 -37.6144 107.421 -39.4421L108.411 -42.071C110.465 -47.4864 112.311 -52.0775 114.174 -56.3566C119.412 -68.3828 124.714 -77.6732 130.945 -85.1786C145.571 -102.795 165.457 -110.316 194.516 -107.176L195.399 -107.078Z" fill="white"/><path id="Path 17" d="M169.453 -122.934L169.695 -121.964L168.511 -121.662C152.762 -117.575 138.397 -110.652 119.581 -95.2778C91.9893 -72.7334 62.3696 -36.5827 30.6575 16.5011L29.6959 18.1148C-17.5631 97.6271 -64.2811 140.429 -110.506 146.468L-111.906 146.64L-112.02 145.646C-66.1875 140.393 -19.6955 98.5267 27.4087 19.9949L28.8363 17.6039C60.9674 -36.456 90.9797 -73.1999 118.948 -96.0521L120.36 -97.1966C138.608 -111.871 152.774 -118.611 168.259 -122.63L169.453 -122.934Z" fill="white"/><path id="Path 19" d="M165.604 -136.916L165.387 -135.939C154.738 -138.305 143.05 -133.916 129.321 -123.291L128.149 -122.374C118.316 -114.604 109.997 -106.292 92.3272 -87.247L84.0519 -78.3135C77.6164 -71.3899 72.9573 -66.4979 68.2938 -61.8218L67.894 -61.4215C55.9527 -49.4803 45.2301 -42.8297 30.9996 -37.7634L30.2339 -37.4935C24.1785 -35.3801 0.646395 -28.7713 -3.46889 -27.5391L-3.72147 -27.4628C-19.8966 -22.5151 -34.969 -16.7071 -52.3417 -8.26105C-54.2213 -7.34724 -56.1184 -6.40625 -58.0343 -5.43707C-103.849 17.739 -123.794 59.8592 -117.881 121.032L-117.694 122.892L-118.689 122.996C-125.23 60.426 -105.158 17.2805 -58.4857 -6.32939C-56.5651 -7.30094 -54.6633 -8.24428 -52.7789 -9.1604C-35.7929 -17.4185 -20.9942 -23.1638 -5.22866 -28.0453L-3.75971 -28.4959C0.331341 -29.721 23.3454 -36.1852 29.6898 -38.3634L29.9043 -38.4377C44.1254 -43.401 54.7628 -49.8524 66.5541 -61.4997L67.1869 -62.1286C72.2412 -67.183 77.2339 -72.4338 84.4401 -80.2011L92.7282 -89.1486C110.035 -107.774 118.212 -115.868 128.169 -123.662L129.242 -124.492C142.777 -134.848 154.437 -139.214 165.18 -137.006L165.604 -136.916Z" fill="white"/><path id="Path 20" d="M148.171 -163.651C128.189 -143.669 106.476 -126.995 81.7261 -111.933L79.7127 -110.715C61.8394 -99.9539 44.4707 -91.0646 17.3374 -78.2826L-5.60567 -67.5252C-7.4225 -66.6683 -9.11329 -65.8675 -10.7794 -65.0746L-13.8225 -63.6217C-21.4574 -59.9636 -28.0338 -56.7127 -34.2515 -53.5022L-35.0605 -53.0837C-52.9814 -43.7941 -67.7613 -34.8707 -81.0972 -24.9843C-124.615 7.27679 -142.682 48.8065 -135.336 99.6731L-135.105 101.217L-136.094 101.37C-144.09 49.4263 -125.944 7.01711 -81.6927 -25.7877C-68.3095 -35.7091 -53.4855 -44.6591 -35.5207 -53.9715L-33.0773 -55.2306C-27.33 -58.1753 -21.2338 -61.1796 -14.2554 -64.5231L-9.19029 -66.9365C-6.46553 -68.2282 -3.57394 -69.5895 -0.100282 -71.2177L13.8184 -77.7332C43.7593 -91.7822 61.9745 -101.084 81.2062 -112.788C105.397 -127.509 126.674 -143.771 146.266 -163.167L147.464 -164.358L148.171 -163.651Z" fill="white"/><path id="Path 21" d="M124.133 -169.311L124.834 -168.598C83.3683 -127.801 33.615 -105.209 -24.4059 -100.83L-26.1666 -100.703C-68.7347 -97.7695 -107.635 -73.3056 -132.347 -35.3244C-157.241 2.9348 -164.994 50.5271 -152.022 95.9991L-151.623 97.3764L-152.582 97.6591C-166.192 51.4873 -158.488 3.01723 -133.186 -35.8698C-108.307 -74.1054 -69.1285 -98.7447 -26.2354 -101.701C31.717 -105.695 81.4152 -127.82 122.879 -168.085L124.133 -169.311Z" fill="white"/></g></g></g></g></g></g><g id="Face" transform="translate(589 429) scale(1 1)"><g id="Face/Face"><g id="MOUTH"><g id="Group"><path id="Clip 11" fill-rule="evenodd" clip-rule="evenodd" d="M24.9999 38.5633C10.9824 34.7403 13.9999 54.5633 24.9999 57.5633C35.9999 60.5633 42.9999 60.5633 52.9999 57.5633C66.6922 53.4556 65.482 34.4026 52.9999 38.5633C43.9999 41.5633 35.9999 41.5633 24.9999 38.5633Z" fill="white"/><mask id="mask0cfdd10ce-4683-432b-bb37-66c02dcb8190" mask-type="alpha" maskUnits="userSpaceOnUse" x="15" y="37" width="48" height="23" fill="#ffffff"><path id="Clip 11_2" fill-rule="evenodd" clip-rule="evenodd" d="M24.9999 38.5633C10.9824 34.7403 13.9999 54.5633 24.9999 57.5633C35.9999 60.5633 42.9999 60.5633 52.9999 57.5633C66.6922 53.4556 65.482 34.4026 52.9999 38.5633C43.9999 41.5633 35.9999 41.5633 24.9999 38.5633Z" fill="#ffffff"/></mask><g mask="url(#mask0cfdd10ce-4683-432b-bb37-66c02dcb8190)"><path id="Fill 7" fill-rule="evenodd" clip-rule="evenodd" d="M27.5685 66.605L25.0205 33.197L27.6045 33L30.1535 66.407L27.5685 66.605Z" fill="#BEDBEA"/><path id="Fill 4" fill-rule="evenodd" clip-rule="evenodd" d="M40.9148 69.0913L38.3218 69.0583L38.7258 37.2753L41.3178 37.3073L40.9148 69.0913Z" fill="#BEDBEA"/><path id="Fill 10" fill-rule="evenodd" clip-rule="evenodd" d="M52.4081 74.4683L49.8311 74.1903L54.2211 33.5633L56.8001 33.8413L52.4081 74.4683Z" fill="#BEDBEA"/></g></g></g><g id="EYES"><path id="Fill 1" d="M65.5302 21.9005C68.7192 22.4315 72.2132 20.8015 73.6692 17.9155C76.8882 11.5345 69.4722 6.0005 63.5982 8.7005C57.4312 11.5365 58.9212 20.7995 65.5302 21.9005" fill="#001D2D"/><path id="Fill 4_2" d="M14.9191 21.9005C11.7301 22.4315 8.23606 20.8015 6.78006 17.9155C3.56006 11.5345 10.9761 6.0005 16.8501 8.7005C23.0181 11.5365 21.5291 20.7995 14.9191 21.9005" fill="#001D2D"/></g></g></g><g id="Head Accesory" transform="matrix(-1 0 0 1 708 166) scale(1 1)"><g id="Head Accesory/Magician Hat"><path id="Fill 1" fill-rule="evenodd" clip-rule="evenodd" d="M53.7998 114L57.3388 164.703H142.231L145.77 114H53.7998Z" fill="black"/><path id="Fill 2" fill-rule="evenodd" clip-rule="evenodd" d="M28 193.546L28.796 199.97H170.773L171.57 193.546H28Z" fill="black"/><path id="Fill 3" fill-rule="evenodd" clip-rule="evenodd" d="M84.2059 136.38L65.6529 140.743C64.2508 141.072 63.3844 142.467 63.7164 143.857L71.9457 178.319C72.2777 179.709 73.683 180.57 75.0851 180.239L93.6381 175.878C95.0402 175.548 95.9067 174.154 95.5747 172.763L87.3453 138.302C87.0133 136.911 85.608 136.051 84.2059 136.38" fill="white"/><path id="Fill 5" fill-rule="evenodd" clip-rule="evenodd" d="M73.019 156.587C71.962 155.512 70.993 154.179 71 152.672C71.009 151.066 72.294 149.561 73.879 149.301C75.463 149.042 77.162 150.059 77.681 151.578C77.953 150.386 78.288 149.162 79.068 148.221C79.849 147.28 81.194 146.701 82.326 147.161C83.16 147.5 83.717 148.331 83.936 149.204C84.155 150.077 84.083 150.995 83.972 151.888C83.702 154.051 80.963 160.781 80.963 160.781C80.963 160.781 74.464 158.058 73.019 156.587" fill="#FF6E6E"/><path id="Fill 7" fill-rule="evenodd" clip-rule="evenodd" d="M57.3389 164.703L59.3519 193.545H140.219L142.232 164.703H57.3389Z" fill="#C7E2E9"/></g></g></g></g><g id="Arms"><path id="Combined Shape" fill-rule="evenodd" clip-rule="evenodd" d="M1162.02 601.643C1162.21 599.442 1164.16 597.819 1166.36 598.016C1168.56 598.213 1170.18 600.157 1169.98 602.357C1149.61 829.46 985.818 927.06 680.731 894.894C660.608 892.772 643.862 904.468 630.172 930.843C629.154 932.804 626.74 933.568 624.779 932.55C622.818 931.532 622.054 929.118 623.071 927.157C638.144 898.12 657.751 884.426 681.57 886.938C982.654 918.682 1142.1 823.673 1162.02 601.643ZM984.916 670.674C983.539 668.946 981.023 668.661 979.295 670.038C960.146 685.293 933.861 695.434 901.999 701.248C872.172 706.69 843.227 707.87 808.453 706.882L805.124 706.781L794.029 706.421C792.687 706.387 791.649 706.371 790.769 706.371L789.954 706.377C763.091 706.771 738.977 726.698 717.501 765.472C716.43 767.404 717.129 769.839 719.061 770.909C720.994 771.979 723.428 771.281 724.499 769.348C744.93 732.462 767.058 714.371 790.769 714.371C791.783 714.371 793.071 714.395 794.888 714.448L806.561 714.83C842.589 715.919 872.46 714.769 903.435 709.118C936.485 703.088 963.95 692.491 984.28 676.295C986.007 674.919 986.292 672.402 984.916 670.674ZM751.883 740.842C753.52 739.36 756.05 739.485 757.533 741.123C759.016 742.76 758.89 745.29 757.253 746.772C747.919 755.225 739.396 766.049 731.696 779.259C730.583 781.167 728.134 781.813 726.225 780.7C724.317 779.588 723.672 777.138 724.784 775.23C732.88 761.341 741.91 749.874 751.883 740.842ZM768.779 750.365C767.331 748.696 764.805 748.517 763.136 749.965C749.15 762.098 739.158 774.314 733.195 786.649C732.234 788.638 733.067 791.03 735.056 791.991C737.045 792.953 739.436 792.12 740.398 790.131C745.844 778.864 755.159 767.476 768.378 756.008C770.047 754.56 770.226 752.034 768.779 750.365ZM806.325 754.909C782.469 752.402 762.829 766.073 747.729 795.065C746.709 797.025 747.47 799.44 749.429 800.461C751.388 801.481 753.804 800.72 754.824 798.761C768.54 772.426 785.321 760.746 805.489 762.865L805.694 762.887C808.177 763.171 811.635 763.964 817.687 765.583L828.237 768.429C830.77 769.102 833.08 769.701 835.368 770.274L836.892 770.652C855.189 775.16 871.918 777.882 889.679 778.586C906.377 779.247 922.908 778.001 939.343 774.55C917.367 787.565 892.12 798.381 864.074 807.154C826.14 819.02 784.878 826.625 742.433 830.793C715.447 833.444 693.564 834.324 672.89 834.382L670.639 834.386C643.608 834.386 619.259 852.522 597.582 888.181C596.434 890.069 597.034 892.529 598.922 893.677C600.809 894.825 603.27 894.225 604.418 892.337C624.786 858.831 646.865 842.386 670.639 842.386C692.219 842.386 714.952 841.531 743.215 838.755L745.362 838.541C787.559 834.279 828.594 826.635 866.463 814.789C914.81 799.665 955.178 778.521 985.267 750.45C1020.55 717.538 1040.67 675.994 1043.2 625.181C1043.31 622.974 1041.61 621.097 1039.4 620.987L1039.2 620.982C1037.08 620.981 1035.31 622.644 1035.21 624.783C1032.79 673.471 1013.6 713.077 979.81 744.6C973.021 750.934 965.676 756.911 957.804 762.541C956.905 762.079 955.831 761.955 954.79 762.279C933.395 768.926 911.864 771.459 889.996 770.592C872.838 769.912 856.619 767.274 838.805 762.884C836.31 762.27 833.836 761.635 831.112 760.915L828.587 760.242L819.223 757.713C813.27 756.128 809.712 755.315 806.828 754.966L806.325 754.909ZM646.063 881.723C644.613 880.057 642.086 879.882 640.42 881.332C626.46 893.484 616.486 905.718 610.535 918.071C609.577 920.061 610.413 922.452 612.403 923.411C614.393 924.37 616.784 923.533 617.743 921.543C623.179 910.258 632.477 898.853 645.672 887.366C647.339 885.916 647.514 883.389 646.063 881.723ZM630.502 868.913C632.137 867.427 634.666 867.549 636.152 869.184C637.638 870.819 637.516 873.348 635.881 874.834C626.565 883.299 618.058 894.14 610.371 907.371C609.261 909.281 606.813 909.93 604.903 908.82C602.993 907.71 602.344 905.262 603.454 903.352C611.535 889.442 620.547 877.958 630.502 868.913Z" fill="#001D2D"/></g></g></svg>