<svg viewBox="532.2375 267.2777777777778 512.5249999999996 589.5833333333334" fill="none" xmlns="http://www.w3.org/2000/svg" xmlns:xlink="http://www.w3.org/1999/xlink" overflow="visible" width="512.5249999999996px" height="589.5833333333334px"><g id="Master/Stickers/Search"><g id="Group 14"><path id="Fill 1" fill-rule="evenodd" clip-rule="evenodd" d="M578.321 849C570.779 849 563.182 846.601 556.75 841.645C541.296 829.739 538.44 807.584 550.369 792.16L690.678 610.724C702.603 595.298 724.801 592.449 740.252 604.355C755.703 616.261 758.56 638.414 746.632 653.838L606.324 835.276C599.361 844.279 588.897 849 578.321 849" fill="#F73132"/><g id="Group 5"><path id="Shape" fill-rule="evenodd" clip-rule="evenodd" d="M823.582 274.521C938.957 274.521 1032.48 368.273 1032.48 483.922C1032.48 599.572 938.957 693.324 823.582 693.324C708.21 693.324 614.68 599.572 614.68 483.922C614.68 368.273 708.21 274.521 823.582 274.521ZM823.002 341C744.576 341 681.001 404.576 681.001 483C681.001 561.424 744.576 625 823.002 625C901.426 625 965.001 561.424 965.001 483C965.001 404.576 901.426 341 823.002 341Z" fill="#B6CCFC"/></g><path id="Fill 6" fill-rule="evenodd" clip-rule="evenodd" d="M822.999 302.686C723.564 302.686 642.671 383.799 642.671 483.499C642.671 583.199 723.564 664.314 822.999 664.314C922.434 664.314 1003.33 583.199 1003.33 483.499C1003.33 383.799 922.434 302.686 822.999 302.686M822.999 671C719.888 671 636 586.888 636 483.499C636 380.112 719.888 296 822.999 296C926.11 296 1010 380.112 1010 483.499C1010 586.888 926.11 671 822.999 671" fill="white"/><path id="Fill 10" fill-rule="evenodd" clip-rule="evenodd" d="M757.328 461C755.717 461 754.301 459.849 754.042 458.233C753.753 456.444 754.993 454.765 756.811 454.481L843.15 441.043C844.981 440.75 846.674 441.982 846.958 443.769C847.247 445.559 846.007 447.238 844.189 447.521L757.852 460.959C757.676 460.988 757.5 461 757.328 461" fill="#21211D"/><path id="Fill 12" fill-rule="evenodd" clip-rule="evenodd" d="M729.338 518C727.735 518 726.321 516.849 726.047 515.224C725.741 513.413 726.968 511.697 728.787 511.393L922.102 479.046C923.907 478.744 925.648 479.963 925.953 481.774C926.259 483.587 925.03 485.303 923.211 485.607L729.898 517.954C729.711 517.986 729.523 518 729.338 518" fill="#21211D"/></g></g></svg>