<svg viewBox="1140 1253.4188034188032 120.00000000000011 149.57264957264942" xmlns="http://www.w3.org/2000/svg" overflow="visible" xmlns:xlink="http://www.w3.org/1999/xlink" width="120.00000000000011px" height="149.57264957264942px"><g id="Master/Stickers/Trophy" stroke="none" stroke-width="1" fill="none" fill-rule="evenodd"><path d="M1237.25807,1273 L1236.25288,1285.32011 C1249.98502,1287.38931 1260.51232,1299.23973 1260.51232,1313.54894 C1260.51232,1314.94921 1260.40929,1316.34759 1260.20409,1317.73274 C1257.86617,1333.51365 1245.68256,1345.69787 1230.44451,1348.42613 C1227.04853,1359.99089 1217.23945,1368.68658 1205.25884,1370.60375 L1205.25807,1382 L1210.25807,1382 L1210.25807,1388 L1231.25807,1388 L1231.25807,1400 L1169.25807,1400 L1169.25807,1388 L1190.25807,1388 L1190.25807,1382 L1195.25807,1382 L1195.25829,1370.60391 C1183.27724,1368.68706 1173.4677,1359.99121 1170.07109,1348.42565 C1154.83358,1345.69787 1142.64996,1333.51365 1140.31205,1317.73274 C1138.0014,1302.13583 1148.77204,1287.61888 1164.36895,1285.30823 L1164.264,1285.324 L1163.25807,1273 L1237.25807,1273 Z M1165.08057,1295.32758 C1155.35625,1297.17346 1148.74032,1306.38684 1150.20409,1316.26726 C1151.73158,1326.57788 1159.03992,1334.77673 1168.54576,1337.77225 Z M1235.4357,1295.32446 L1231.97038,1337.77225 C1241.47622,1334.77673 1248.78455,1326.57788 1250.31205,1316.26726 C1250.44538,1315.36729 1250.51232,1314.45873 1250.51232,1313.54894 C1250.51232,1304.49141 1244.02035,1296.95016 1235.4357,1295.32446 Z" id="Combined-Shape" fill="#FFCE00"/><g id="Path-48-+-Path-48-Mask" transform="translate(32.782150, 8.469230)"/></g></svg>