<svg viewBox="447.92499999999995 350.67857142857133 662.1499999999997 389.642857142857" xmlns="http://www.w3.org/2000/svg" xmlns:xlink="http://www.w3.org/1999/xlink" overflow="visible" width="662.1499999999997px" height="389.642857142857px"><defs><polygon id="masterstickerslaptop-path-1" points="0.0002 0.5766 635.257 0.5766 635.257 364.999817 0.0002 364.999817"/><polygon id="masterstickerslaptop-path-3" points="0 365.424 635.257 365.424 635.257 1 0 1"/></defs><g id="Master/Stickers/Laptop" stroke="none" stroke-width="1" fill="none" fill-rule="evenodd"><g id="Group-7" transform="translate(461.000000, 363.000000)"><g id="Group-3" transform="translate(0.000000, 0.424000)"><mask id="masterstickerslaptop-mask-2" fill="#fff"><use xlink:href="#masterstickerslaptop-path-1"/></mask><g id="Clip-2"/><path d="M635.2572,350.5856 L635.2572,358.3156 C607.3802,365.2496 563.4812,364.9836 563.4812,364.9836 C563.4812,364.9836 105.8702,365.0726 72.4572,364.8336 C39.0512,364.5886 0.0002,358.3156 0.0002,358.3156 L0.0002,350.5856 L61.4882,350.5856 C60.6832,348.6016 60.2402,346.4266 60.2402,344.1556 L60.2402,17.7166 C60.2402,8.2466 67.9102,0.5766 77.3802,0.5766 L561.9062,0.5766 C571.3692,0.5766 579.0392,8.2466 579.0392,17.7166 L579.0392,344.1556 C579.0392,346.4266 578.5962,348.6016 577.7912,350.5856 L635.2572,350.5856 Z" id="Fill-1" fill="#56ACF6" mask="url(#masterstickerslaptop-mask-2)"/></g><mask id="masterstickerslaptop-mask-4" fill="#fff"><use xlink:href="#masterstickerslaptop-path-3"/></mask><g id="Clip-5"/><polygon id="Fill-4" fill="#000" mask="url(#masterstickerslaptop-mask-4)" points="72.325 330.761 565.471 330.761 565.471 22.395 72.325 22.395"/></g></g></svg>