<svg viewBox="1140 1253.4188034188032 120.00000000000011 149.57264957264942" xmlns="http://www.w3.org/2000/svg" xmlns:xlink="http://www.w3.org/1999/xlink" overflow="visible" width="120.00000000000011px" height="149.57264957264942px"><defs><path d="M55,141 C83.9473684,141 82.9657299,140.998257 83.4948474,117.493714 C83.9473684,97.3917526 110,97.3917526 110,55.2371134 C110,18.8969072 78.9807852,0 55,0 C31.0192148,0 0,18.8969072 0,55.2371134 C0,97.3917526 24.6052632,97.3917526 25.3888067,117.493714 C26.3046856,140.990768 26.0526316,141 55,141 Z" id="masterstickerslight-bulb-path-1"/></defs><g id="Master/Stickers/Light Bulb" stroke="none" stroke-width="1" fill="none" fill-rule="evenodd"><g id="Rectangle-+-Path-117-Mask" transform="translate(1145.000000, 1259.000000)"><mask id="masterstickerslight-bulb-mask-2" fill="#fff"><use xlink:href="#masterstickerslight-bulb-path-1"/></mask><use id="Mask" fill="#FFE05F" xlink:href="#masterstickerslight-bulb-path-1"/><path d="M39.0824611,56.5647259 C41.2515759,53.432568 45.5491066,52.6518674 48.6812645,54.8209822 C50.0142999,55.7441498 50.9768155,57.1053275 51.4051388,58.6625755 L51.4791494,58.9567981 L51.668646,59.7868067 C51.7838687,60.2914905 52.2864022,60.607211 52.7910859,60.4919883 C52.9967635,60.4450307 53.1793236,60.3304052 53.3106506,60.1683619 L53.383074,60.0656078 L54.5916894,58.0804244 C56.875515,54.3291793 61.7679064,53.1396007 65.5191515,55.4234263 C66.9336101,56.2845741 68.0415238,57.5642545 68.6920974,59.0811512 L68.8160696,59.3876397 C69.3305444,60.7397016 70.8436713,61.4187001 72.1957332,60.9042253 C72.5876475,60.7550975 72.9370515,60.5144481 73.2154545,60.2035756 L73.3486073,60.042386 L74.4175679,58.6377487 C76.2873717,56.1807862 79.7949088,55.7048 82.2518714,57.5746038 C83.9275756,58.8498524 84.7391419,60.9532012 84.3686007,63.012362 L84.3205818,63.2497117 L72.5366809,115.658112 C72.1732157,117.274608 70.5681401,118.29039 68.9516442,117.926925 C67.3928803,117.576441 66.3926882,116.071449 66.6491309,114.514984 L66.6828313,114.341888 L78.055,63.761 L77.9091794,63.9458796 C77.0326488,65.0068727 75.9146674,65.8426277 74.6489876,66.3830594 L74.3295448,66.5119742 C69.8804087,68.2049206 64.901267,65.9705874 63.2083207,61.5214513 C63.0541171,61.1161976 62.7693729,60.7738213 62.3990123,60.5483391 C61.5242201,60.0157498 60.3966177,60.2526602 59.8053827,61.0671827 L59.7166022,61.2005636 L58.5079868,63.185747 C57.5336105,64.7861862 55.9532771,65.9244244 54.1265633,66.3414755 C50.4691151,67.1764956 46.8269253,64.9535291 45.8761647,61.3539011 L45.8191589,61.1222842 L45.6296623,60.2922755 C45.579719,60.0735204 45.4497292,59.8813703 45.2652617,59.753621 C44.8887048,59.4928438 44.3828206,59.5594222 44.0850198,59.8920614 L44.0150999,59.9807286 L43.3535035,60.9360604 C43.1325919,61.2550523 42.8929757,61.5606762 42.6359143,61.8513257 C39.4988791,65.3982523 34.3708158,66.1396714 30.4147785,63.88161 L30.355,63.846 L43.7288641,114.230361 C44.1387433,115.77457 43.2666667,117.357248 41.7679742,117.849451 L41.5989074,117.899596 C40.0546979,118.309475 38.4720206,117.437398 37.9798169,115.938706 L37.9296725,115.769639 L24.0718094,63.5604941 C23.3175719,60.7189237 25.0096896,57.8039455 27.85126,57.0497081 C29.4910238,56.6144659 31.2346176,56.9878415 32.5496249,58.0438519 L32.7435951,58.2073575 C34.3256065,59.6065479 36.742348,59.4583421 38.1415384,57.8763307 L38.2864784,57.7023314 L38.4208647,57.5200577 L39.0824611,56.5647259 Z" id="Path-117" fill="#FFF" fill-rule="nonzero" mask="url(#masterstickerslight-bulb-mask-2)"/><rect id="Rectangle" fill="#FFF" fill-rule="nonzero" mask="url(#masterstickerslight-bulb-mask-2)" x="25" y="123" width="59" height="3"/><rect id="Rectangle-Copy" fill="#FFF" fill-rule="nonzero" mask="url(#masterstickerslight-bulb-mask-2)" x="25" y="115" width="59" height="3"/><rect id="Rectangle" fill="#FFF" fill-rule="nonzero" mask="url(#masterstickerslight-bulb-mask-2)" x="25" y="132" width="59" height="3"/></g></g></svg>