<svg viewBox="335.11249999999995 90.40277777777783 906.775 668.1944444444446" fill="none" xmlns="http://www.w3.org/2000/svg" xmlns:xlink="http://www.w3.org/1999/xlink" overflow="visible" width="906.775px" height="668.1944444444446px"><g id="Master/Stickers/Graph"><g id="Graph"><path id="Fill 1" fill-rule="evenodd" clip-rule="evenodd" d="M348 747H1230V103H348V747Z" fill="#DCE9FF"/><path id="Fill 2" fill-rule="evenodd" clip-rule="evenodd" d="M381.966 718.037H1201.03V131.963H381.966V718.037ZM379 721H1204V129H379V721Z" fill="#e65ed4"/><path id="Fill 3" fill-rule="evenodd" clip-rule="evenodd" d="M381 623H1203V620H381V623Z" fill="#4965CC"/><path id="Fill 4" fill-rule="evenodd" clip-rule="evenodd" d="M381 524H1203V521H381V524Z" fill="#4965CC"/><path id="Fill 5" fill-rule="evenodd" clip-rule="evenodd" d="M381 426H1203V423H381V426Z" fill="#4965CC"/><path id="Fill 6" fill-rule="evenodd" clip-rule="evenodd" d="M381 328H1203V325H381V328Z" fill="#4965CC"/><path id="Fill 7" fill-rule="evenodd" clip-rule="evenodd" d="M381 230H1203V227H381V230Z" fill="#4965CC"/><path id="Fill 8" fill-rule="evenodd" clip-rule="evenodd" d="M1064 719H1067V130H1064V719Z" fill="#4965CC"/><path id="Fill 9" fill-rule="evenodd" clip-rule="evenodd" d="M927 719H930V130H927V719Z" fill="#4965CC"/><path id="Fill 10" fill-rule="evenodd" clip-rule="evenodd" d="M790 719H793V130H790V719Z" fill="#4965CC"/><path id="Fill 11" fill-rule="evenodd" clip-rule="evenodd" d="M653 719H656V130H653V719Z" fill="#4965CC"/><path id="Fill 12" fill-rule="evenodd" clip-rule="evenodd" d="M517 719H520V130H517V719Z" fill="#4965CC"/><path id="Fill 13" fill-rule="evenodd" clip-rule="evenodd" d="M756.926 579H756.895C755.342 578.989 753.918 578.137 753.176 576.774L592.001 281.14L453.686 465.098C452.268 466.984 449.589 467.363 447.705 465.946C445.82 464.53 445.44 461.853 446.857 459.968L589.16 270.705C590.032 269.544 591.424 268.909 592.885 269.012C594.333 269.117 595.63 269.952 596.324 271.227L756.989 565.926L879.473 348.807C880.209 347.503 881.573 346.679 883.072 346.637C884.569 346.598 885.978 347.338 886.787 348.596L979.497 492.853L1130.19 270.873C1131.52 268.922 1134.18 268.413 1136.13 269.737C1138.08 271.062 1138.59 273.716 1137.26 275.668L982.934 502.997C982.128 504.184 980.763 504.881 979.345 504.869C977.911 504.851 976.583 504.114 975.806 502.908L883.432 359.174L760.646 576.828C759.888 578.171 758.467 579 756.926 579" fill="#D5962F"/></g></g></svg>